<?xml version="1.0" encoding="UTF-8"?>
<svg width="18px" height="18px" viewBox="0 0 18 18" version="1.1" xmlns="http://www.w3.org/2000/svg" xmlns:xlink="http://www.w3.org/1999/xlink">
    <!-- Generator: Sketch 41.1 (35376) - http://www.bohemiancoding.com/sketch -->
    <title>ic_attach_note_24px</title>
    <desc>Created with Sketch.</desc>
    <defs></defs>
    <g id="Page-1" stroke="none" stroke-width="1" fill="none" fill-rule="evenodd">
        <g id="4" transform="translate(-15.000000, -65.000000)">
            <g id="item" transform="translate(0.000000, 52.000000)">
                <g id="ic_attach_note_24px" transform="translate(12.000000, 10.000000)">
                    <rect id="icon-bounds" opacity="0.4" x="0" y="0" width="24" height="24"></rect>
                    <path d="M5,3 C3.89,3 3.01,3.9 3.01,5 L3,19 C3,20.1 3.89,21 5,21 L19,21 C20.1,21 21,20.1 21,19 L21,5 C21,3.9 20.1,3 19,3 L5,3 Z M7,13 L17,13 L17,11 L7,11 L7,13 Z M7,9 L17,9 L17,7 L7,7 L7,9 Z M7,17 L14,17 L14,15 L7,15 L7,17 Z" id="Imported-Layers" fill="#518BCC"></path>
                </g>
            </g>
        </g>
    </g>
</svg>