<svg width="61" height="80" xmlns="http://www.w3.org/2000/svg"><g fill="none" fill-rule="evenodd"><rect fill="#E6EBF0" width="61" height="80" rx="4"/><g opacity=".7"><path d="M19 28h24v24H19z"/><path d="M29 33h-5a1 1 0 1 0 0 2h14a1 1 0 0 0 0-2h-5v-1a1 1 0 0 0-1-1h-2a1 1 0 0 0-1 1v1zm-4 3h12v10a2 2 0 0 1-2 2h-8a2 2 0 0 1-2-2V36zm3 2a1 1 0 0 0-1 1v6a1 1 0 0 0 2 0v-6a1 1 0 0 0-1-1zm6 0a1 1 0 0 0-1 1v6a1 1 0 0 0 2 0v-6a1 1 0 0 0-1-1zm-3 0a1 1 0 0 0-1 1v6a1 1 0 0 0 2 0v-6a1 1 0 0 0-1-1z" fill="#828A99"/></g></g></svg>
