<svg width="61" height="80" viewBox="0 0 61 80" version="1.1" xmlns="http://www.w3.org/2000/svg"><g stroke="none" stroke-width="1" fill="none" fill-rule="evenodd"><rect fill="#E6EBF0" x="0" y="0" width="61" height="80" rx="4"/><g opacity=".7"><path d="M0 0H24V24H0z" transform="translate(19 28)"/><path d="M8,6 L8,13 C8,13.5522847 7.55228475,14 7,14 C6.44771525,14 6,13.5522847 6,13 L6,6 L4,6 C3.44771525,6 3,5.55228475 3,5 L3,5 L3,5 C3,4.44771525 3.44771525,4 4,4 L4,4 L10,4 C10.5522847,4 11,4.44771525 11,5 L11,5 C11,5.55228475 10.5522847,6 10,6 L8,6 Z M12,12 L20,12 C20.5522847,12 21,12.4477153 21,13 C21,13.5522847 20.5522847,14 20,14 L12,14 C11.4477153,14 11,13.5522847 11,13 C11,12.4477153 11.4477153,12 12,12 Z M14,7 L20,7 C20.5522847,7 21,7.44771525 21,8 C21,8.55228475 20.5522847,9 20,9 L14,9 C13.4477153,9 13,8.55228475 13,8 C13,7.44771525 13.4477153,7 14,7 Z M6,17 L20,17 C20.5522847,17 21,17.4477153 21,18 C21,18.5522847 20.5522847,19 20,19 L6,19 C5.44771525,19 5,18.5522847 5,18 C5,17.4477153 5.44771525,17 6,17 Z" fill="#828A99" transform="translate(19 28)"/></g></g></svg>
