<?xml version="1.0" encoding="utf-8"?>
<!-- Generator: Adobe Illustrator 19.0.0, SVG Export Plug-In . SVG Version: 6.00 Build 0)  -->
<svg version="1.1" id="Laag_1" xmlns="http://www.w3.org/2000/svg" xmlns:xlink="http://www.w3.org/1999/xlink" x="0px" y="0px"
	 viewBox="-170 284.6 271 224.4" style="enable-background:new -170 284.6 271 224.4;" xml:space="preserve">
<style type="text/css">
	.st0{fill:none;}
</style>
<g>
	<path class="st0" d="M2.2,423.1c3.9,0,7.2-1.1,9.9-3.4c0.4-0.3,0.7-0.7,1.1-1c0.4-0.4,0.7-0.8,1-1.2c1.2-1.6,2.1-3.5,2.7-5.7
		c0.4-1.7,0.6-3.5,0.6-5.4c0-1.2-0.1-2.3-0.2-3.4c-0.5-3.2-1.7-6.2-3.6-8.8c-0.3-0.4-0.7-0.8-1-1.2c-0.4-0.4-0.7-0.7-1.1-1.1
		c-2-1.6-4.5-2.6-7.4-2.9c-0.6-0.1-1.2-0.1-1.8-0.1h-3.8l0,0v34.2l0,0H2.2z"/>
	<path d="M43.1,370c-2.4-2.2-5.2-4.2-8.3-5.9c-2.3-1.3-4.8-2.5-7.5-3.5c-0.9-0.3-1.8-0.7-2.8-1c-2.8-0.9-5.9-1.7-9.1-2.3
		c-5.4-1-11.5-1.5-18.2-1.5h0h-39V494c0.6-0.3,1.4-0.2,1.9,0.4c0.6,0.7,0.5,1.7-0.1,2.3c-0.5,0.4-1.2,0.5-1.7,0.3v8.1h1.8
		c0.6-0.5,1.5-0.5,2.1,0h7c-0.4-0.7-0.3-1.5,0.3-2.1c0.7-0.6,1.7-0.5,2.3,0.1c0.5,0.6,0.5,1.3,0.1,1.9h2.5c0.1-0.1,0.2-0.3,0.3-0.4
		c0.7-0.6,1.7-0.5,2.3,0.1c0.1,0.1,0.1,0.2,0.1,0.2h7c-0.1,0-0.1-0.1-0.2-0.1c-0.6-0.7-0.5-1.7,0.1-2.3c0.7-0.6,1.7-0.5,2.3,0.1
		c0.6,0.7,0.5,1.7-0.1,2.3c0,0,0,0,0,0h2.6c0.1-0.3,0.2-0.5,0.4-0.7c0.7-0.6,1.7-0.5,2.3,0.1c0.2,0.2,0.3,0.4,0.3,0.6h6.6v-0.7
		c-0.4-0.6-0.4-1.3,0-1.8v-2.8c-0.4,0-0.7-0.2-1-0.5c-0.6-0.7-0.5-1.7,0.1-2.3c0.3-0.2,0.6-0.3,0.9-0.4V494
		c-0.7,0.4-1.5,0.4-2.1-0.3c-0.6-0.7-0.5-1.7,0.1-2.3c0.6-0.5,1.4-0.5,2-0.1v-12c0,0-0.1,0-0.1-0.1c-0.6-0.7-0.5-1.7,0.1-2.3v-2.6
		c-0.4,0-0.9-0.2-1.2-0.5c-0.6-0.7-0.5-1.7,0.1-2.3c0.3-0.3,0.7-0.4,1.1-0.4v-2.6c-0.7,0.6-1.7,0.5-2.3-0.1
		c-0.6-0.7-0.5-1.7,0.1-2.3c0.6-0.6,1.5-0.5,2.1,0v-10.1h6.3c9.2,0,17.1-1.2,23.7-3.6c2.5-0.9,4.8-1.9,6.9-3.1
		c0.7-0.4,1.4-0.8,2.1-1.2c1-0.6,2-1.3,3-2c0-0.4,0.2-0.7,0.5-1c0.4-0.3,0.8-0.4,1.3-0.4c0.8-0.7,1.6-1.4,2.4-2.1
		c0-0.4,0.2-0.9,0.5-1.2c0.3-0.2,0.6-0.3,0.9-0.4c3.6-4.1,6.4-8.8,8.1-14.3c0.5-1.5,0.9-3.1,1.3-4.8c-0.1-0.1-0.2-0.1-0.3-0.2
		c-0.6-0.7-0.5-1.7,0.1-2.3c0.2-0.2,0.4-0.3,0.7-0.3c0.2-0.9,0.3-1.8,0.4-2.7c0,0,0,0,0,0c-0.7,0.6-1.7,0.5-2.3-0.1
		c-0.6-0.7-0.5-1.7,0.1-2.3c0.7-0.6,1.7-0.5,2.3,0.1c0.1,0.1,0.1,0.2,0.1,0.2c0.2-2.4,0.4-4.8,0.4-7.3c-0.4-0.6-0.4-1.3,0-1.8
		c-0.1-5.2-0.7-10-1.9-14.6c-0.2-0.8-0.4-1.6-0.7-2.4c-0.2-0.8-0.5-1.6-0.8-2.4C51.5,379.8,48,374.4,43.1,370z M44.9,416.3
		c0.7-0.6,1.7-0.5,2.3,0.1c0.6,0.7,0.5,1.7-0.1,2.3c-0.7,0.6-1.7,0.5-2.3-0.1C44.2,417.9,44.2,416.9,44.9,416.3z M48.3,421.7
		c0.6,0.7,0.5,1.7-0.1,2.3c-0.7,0.6-1.7,0.5-2.3-0.1c-0.6-0.7-0.5-1.7,0.1-2.3C46.7,421,47.7,421.1,48.3,421.7z M44,427.8
		c-0.7,0.6-1.7,0.5-2.3-0.1c-0.6-0.7-0.5-1.7,0.1-2.3c0.7-0.6,1.7-0.5,2.3,0.1C44.8,426.1,44.7,427.2,44,427.8z M40.8,420
		c0.7-0.6,1.7-0.5,2.3,0.1c0.6,0.7,0.5,1.7-0.1,2.3c-0.7,0.6-1.7,0.5-2.3-0.1C40,421.6,40.1,420.6,40.8,420z M39.9,431.5
		c-0.7,0.6-1.7,0.5-2.3-0.1c-0.6-0.7-0.5-1.7,0.1-2.3c0.7-0.6,1.7-0.5,2.3,0.1S40.6,430.9,39.9,431.5z M31.6,447.2
		c0.7-0.6,1.7-0.5,2.3,0.1c0.6,0.7,0.5,1.7-0.1,2.3c-0.7,0.6-1.7,0.5-2.3-0.1C30.9,448.9,30.9,447.8,31.6,447.2z M30.4,444.2
		c-0.6-0.7-0.5-1.7,0.1-2.3c0.7-0.6,1.7-0.5,2.3,0.1c0.6,0.7,0.5,1.7-0.1,2.3C32,444.9,31,444.8,30.4,444.2z M34.6,438.2
		c0.7-0.6,1.7-0.5,2.3,0.1c0.6,0.7,0.5,1.7-0.1,2.3c-0.7,0.6-1.7,0.5-2.3-0.1S34,438.8,34.6,438.2z M36.6,423.7
		c0.7-0.6,1.7-0.5,2.3,0.1s0.5,1.7-0.1,2.3c-0.7,0.6-1.7,0.5-2.3-0.1C35.9,425.3,35.9,424.3,36.6,423.7z M35.7,435.2
		c-0.7,0.6-1.7,0.5-2.3-0.1c-0.6-0.7-0.5-1.7,0.1-2.3c0.7-0.6,1.7-0.5,2.3,0.1S36.4,434.6,35.7,435.2z M32.5,427.4
		c0.7-0.6,1.7-0.5,2.3,0.1c0.6,0.7,0.5,1.7-0.1,2.3c-0.7,0.6-1.7,0.5-2.3-0.1C31.7,429,31.8,428,32.5,427.4z M31.6,438.9
		c-0.7,0.6-1.7,0.5-2.3-0.1c-0.6-0.7-0.5-1.7,0.1-2.3c0.7-0.6,1.7-0.5,2.3,0.1C32.3,437.3,32.3,438.3,31.6,438.9z M22.2,449.3
		c0.7-0.6,1.7-0.5,2.3,0.1c0.6,0.7,0.5,1.7-0.1,2.3c-0.7,0.6-1.7,0.5-2.3-0.1C21.5,450.9,21.5,449.9,22.2,449.3z M26.3,445.6
		c0.7-0.6,1.7-0.5,2.3,0.1c0.6,0.7,0.5,1.7-0.1,2.3c-0.7,0.6-1.7,0.5-2.3-0.1C25.6,447.2,25.7,446.2,26.3,445.6z M28.3,431.1
		c0.7-0.6,1.7-0.5,2.3,0.1c0.6,0.7,0.5,1.7-0.1,2.3c-0.7,0.6-1.7,0.5-2.3-0.1C27.6,432.7,27.6,431.7,28.3,431.1z M27.6,440.3
		c0.6,0.7,0.5,1.7-0.1,2.3c-0.7,0.6-1.7,0.5-2.3-0.1c-0.6-0.7-0.5-1.7,0.1-2.3C26,439.6,27,439.6,27.6,440.3z M24.2,434.8
		c0.7-0.6,1.7-0.5,2.3,0.1c0.6,0.7,0.5,1.7-0.1,2.3c-0.7,0.6-1.7,0.5-2.3-0.1C23.4,436.4,23.5,435.4,24.2,434.8z M23.3,446.3
		c-0.7,0.6-1.7,0.5-2.3-0.1c-0.6-0.7-0.5-1.7,0.1-2.3c0.7-0.6,1.7-0.5,2.3,0.1C24,444.7,24,445.7,23.3,446.3z M20,438.5
		c0.7-0.6,1.7-0.5,2.3,0.1c0.6,0.7,0.5,1.7-0.1,2.3c-0.7,0.6-1.7,0.5-2.3-0.1C19.3,440.2,19.4,439.1,20,438.5z M19.2,450
		c-0.7,0.6-1.7,0.5-2.3-0.1c-0.6-0.7-0.5-1.7,0.1-2.3c0.7-0.6,1.7-0.5,2.3,0.1C19.9,448.4,19.8,449.4,19.2,450z M18,444.7
		c-0.7,0.6-1.7,0.5-2.3-0.1c-0.6-0.7-0.5-1.7,0.1-2.3c0.7-0.6,1.7-0.5,2.3,0.1C18.8,443,18.7,444.1,18,444.7z M7.6,449.7
		c0.7-0.6,1.7-0.5,2.3,0.1c0.6,0.7,0.5,1.7-0.1,2.3c-0.7,0.6-1.7,0.5-2.3-0.1C6.9,451.3,6.9,450.3,7.6,449.7z M11.7,446
		c0.7-0.6,1.7-0.5,2.3,0.1c0.6,0.7,0.5,1.7-0.1,2.3c-0.7,0.6-1.7,0.5-2.3-0.1C11,447.6,11.1,446.6,11.7,446z M-9.9,484.4
		c0.7-0.6,1.7-0.5,2.3,0.1c0.6,0.7,0.5,1.7-0.1,2.3c-0.7,0.6-1.7,0.5-2.3-0.1C-10.6,486-10.5,485-9.9,484.4z M-11.1,481.3
		c-0.6-0.7-0.5-1.7,0.1-2.3c0.7-0.6,1.7-0.5,2.3,0.1c0.6,0.7,0.5,1.7-0.1,2.3C-9.5,482-10.5,482-11.1,481.3z M-8,472.2
		c-0.6-0.7-0.5-1.7,0.1-2.3c0.7-0.6,1.7-0.5,2.3,0.1c0.6,0.7,0.5,1.7-0.1,2.3C-6.4,472.9-7.4,472.8-8,472.2z M-9,464.5
		c0.7-0.6,1.7-0.5,2.3,0.1c0.6,0.7,0.5,1.7-0.1,2.3c-0.7,0.6-1.7,0.5-2.3-0.1C-9.7,466.1-9.7,465.1-9,464.5z M-9.9,476
		c-0.7,0.6-1.7,0.5-2.3-0.1c-0.6-0.7-0.5-1.7,0.1-2.3c0.7-0.6,1.7-0.5,2.3,0.1C-9.1,474.4-9.2,475.4-9.9,476z M-12.9,485.1
		c-0.7,0.6-1.7,0.5-2.3-0.1c-0.6-0.7-0.5-1.7,0.1-2.3c0.7-0.6,1.7-0.5,2.3,0.1C-12.2,483.5-12.3,484.5-12.9,485.1z M-13.1,468.2
		c0.7-0.6,1.7-0.5,2.3,0.1c0.6,0.7,0.5,1.7-0.1,2.3c-0.7,0.6-1.7,0.5-2.3-0.1C-13.9,469.8-13.8,468.8-13.1,468.2z M-14,479.7
		c-0.7,0.6-1.7,0.5-2.3-0.1c-0.6-0.7-0.5-1.7,0.1-2.3c0.7-0.6,1.7-0.5,2.3,0.1C-13.3,478.1-13.3,479.1-14,479.7z M-17.1,488.8
		c-0.7,0.6-1.7,0.5-2.3-0.1c-0.6-0.7-0.5-1.7,0.1-2.3c0.7-0.6,1.7-0.5,2.3,0.1C-16.4,487.2-16.4,488.2-17.1,488.8z M-17.3,471.9
		c0.7-0.6,1.7-0.5,2.3,0.1c0.6,0.7,0.5,1.7-0.1,2.3c-0.7,0.6-1.7,0.5-2.3-0.1C-18,473.6-18,472.5-17.3,471.9z M-18.2,483.4
		c-0.7,0.6-1.7,0.5-2.3-0.1c-0.6-0.7-0.5-1.7,0.1-2.3c0.7-0.6,1.7-0.5,2.3,0.1C-17.4,481.8-17.5,482.8-18.2,483.4z M-21.4,475.6
		c0.7-0.6,1.7-0.5,2.3,0.1c0.6,0.7,0.5,1.7-0.1,2.3c-0.7,0.6-1.7,0.5-2.3-0.1C-22.2,477.3-22.1,476.2-21.4,475.6z M-22.3,487.1
		c-0.7,0.6-1.7,0.5-2.3-0.1c-0.6-0.7-0.5-1.7,0.1-2.3c0.7-0.6,1.7-0.5,2.3,0.1C-21.6,485.5-21.6,486.5-22.3,487.1z M-25.6,479.4
		c0.7-0.6,1.7-0.5,2.3,0.1c0.6,0.7,0.5,1.7-0.1,2.3c-0.7,0.6-1.7,0.5-2.3-0.1C-26.3,481-26.2,480-25.6,479.4z M-29.7,483.1
		c0.7-0.6,1.7-0.5,2.3,0.1c0.6,0.7,0.5,1.7-0.1,2.3c-0.7,0.6-1.7,0.5-2.3-0.1C-30.4,484.7-30.4,483.7-29.7,483.1z M-33.9,486.8
		c0.7-0.6,1.7-0.5,2.3,0.1c0.6,0.7,0.5,1.7-0.1,2.3c-0.7,0.6-1.7,0.5-2.3-0.1C-34.6,488.4-34.5,487.4-33.9,486.8z M-38.9,502
		c-0.7,0.6-1.7,0.5-2.3-0.1c-0.6-0.7-0.5-1.7,0.1-2.3c0.7-0.6,1.7-0.5,2.3,0.1C-38.2,500.4-38.2,501.4-38.9,502z M-38,490.5
		c0.7-0.6,1.7-0.5,2.3,0.1c0.6,0.7,0.5,1.7-0.1,2.3c-0.7,0.6-1.7,0.5-2.3-0.1C-38.7,492.1-38.7,491.1-38,490.5z M-36.9,495.9
		c0.7-0.6,1.7-0.5,2.3,0.1c0.6,0.7,0.5,1.7-0.1,2.3c-0.7,0.6-1.7,0.5-2.3-0.1C-37.6,497.5-37.6,496.5-36.9,495.9z M-33.7,503.7
		c-0.7,0.6-1.7,0.5-2.3-0.1c-0.6-0.7-0.5-1.7,0.1-2.3c0.7-0.6,1.7-0.5,2.3,0.1S-33,503.1-33.7,503.7z M-32.8,492.1
		c0.7-0.6,1.7-0.5,2.3,0.1c0.6,0.7,0.5,1.7-0.1,2.3c-0.7,0.6-1.7,0.5-2.3-0.1C-33.5,493.8-33.4,492.7-32.8,492.1z M-29.5,500
		c-0.7,0.6-1.7,0.5-2.3-0.1c-0.6-0.7-0.5-1.7,0.1-2.3c0.7-0.6,1.7-0.5,2.3,0.1C-28.8,498.3-28.9,499.4-29.5,500z M-28.7,490.7
		c-0.6-0.7-0.5-1.7,0.1-2.3c0.7-0.6,1.7-0.5,2.3,0.1c0.6,0.7,0.5,1.7-0.1,2.3C-27.1,491.5-28.1,491.4-28.7,490.7z M-27.6,493.8
		c0.7-0.6,1.7-0.5,2.3,0.1c0.6,0.7,0.5,1.7-0.1,2.3c-0.7,0.6-1.7,0.5-2.3-0.1C-28.3,495.5-28.2,494.4-27.6,493.8z M-24.3,501.6
		c-0.7,0.6-1.7,0.5-2.3-0.1c-0.6-0.7-0.5-1.7,0.1-2.3c0.7-0.6,1.7-0.5,2.3,0.1C-23.6,500-23.6,501-24.3,501.6z M-23.5,492.4
		c-0.6-0.7-0.5-1.7,0.1-2.3c0.7-0.6,1.7-0.5,2.3,0.1c0.6,0.7,0.5,1.7-0.1,2.3C-21.9,493.1-22.9,493.1-23.5,492.4z M-22.3,495.5
		c0.7-0.6,1.7-0.5,2.3,0.1c0.6,0.7,0.5,1.7-0.1,2.3c-0.7,0.6-1.7,0.5-2.3-0.1C-23,497.1-23,496.1-22.3,495.5z M-19.1,503.3
		c-0.7,0.6-1.7,0.5-2.3-0.1c-0.6-0.7-0.5-1.7,0.1-2.3c0.7-0.6,1.7-0.5,2.3,0.1C-18.3,501.7-18.4,502.7-19.1,503.3z M-18.2,491.8
		c0.7-0.6,1.7-0.5,2.3,0.1c0.6,0.7,0.5,1.7-0.1,2.3c-0.7,0.6-1.7,0.5-2.3-0.1C-18.9,493.4-18.8,492.4-18.2,491.8z M-14.9,499.6
		c-0.7,0.6-1.7,0.5-2.3-0.1c-0.6-0.7-0.5-1.7,0.1-2.3c0.7-0.6,1.7-0.5,2.3,0.1C-14.2,498-14.3,499-14.9,499.6z M-14.1,490.4
		c-0.6-0.7-0.5-1.7,0.1-2.3c0.7-0.6,1.7-0.5,2.3,0.1c0.6,0.7,0.5,1.7-0.1,2.3C-12.5,491.1-13.5,491-14.1,490.4z M-12.9,493.5
		c0.7-0.6,1.7-0.5,2.3,0.1c0.6,0.7,0.5,1.7-0.1,2.3c-0.7,0.6-1.7,0.5-2.3-0.1C-13.7,495.1-13.6,494.1-12.9,493.5z M-9.7,501.3
		c-0.7,0.6-1.7,0.5-2.3-0.1c-0.6-0.7-0.5-1.7,0.1-2.3c0.7-0.6,1.7-0.5,2.3,0.1C-8.9,499.6-9,500.7-9.7,501.3z M-8.9,492.1
		c-0.6-0.7-0.5-1.7,0.1-2.3c0.7-0.6,1.7-0.5,2.3,0.1c0.6,0.7,0.5,1.7-0.1,2.3C-7.3,492.8-8.3,492.7-8.9,492.1z M-7.7,495.1
		c0.7-0.6,1.7-0.5,2.3,0.1c0.6,0.7,0.5,1.7-0.1,2.3c-0.7,0.6-1.7,0.5-2.3-0.1C-8.4,496.7-8.4,495.7-7.7,495.1z M-4.5,502.9
		c-0.7,0.6-1.7,0.5-2.3-0.1c-0.6-0.7-0.5-1.7,0.1-2.3c0.7-0.6,1.7-0.5,2.3,0.1C-3.7,501.3-3.8,502.3-4.5,502.9z M-2.4,486.2
		c0.6,0.7,0.5,1.7-0.1,2.3c-0.7,0.6-1.7,0.5-2.3-0.1c-0.6-0.7-0.5-1.7,0.1-2.3C-4,485.4-3,485.5-2.4,486.2z M-3.4,480.8
		c0.6,0.7,0.5,1.7-0.1,2.3c-0.7,0.6-1.7,0.5-2.3-0.1c-0.6-0.7-0.5-1.7,0.1-2.3C-5,480-4,480.1-3.4,480.8z M-4.7,477.7
		c-0.7,0.6-1.7,0.5-2.3-0.1c-0.6-0.7-0.5-1.7,0.1-2.3c0.7-0.6,1.7-0.5,2.3,0.1C-3.9,476.1-4,477.1-4.7,477.7z M-2.7,463.2
		c-0.7,0.6-1.7,0.5-2.3-0.1c-0.6-0.7-0.5-1.7,0.1-2.3c0.7-0.6,1.7-0.5,2.3,0.1C-2,461.6-2,462.6-2.7,463.2z M-1.6,388.9L-1.6,388.9
		h3.8c0.6,0,1.2,0,1.8,0.1c2.9,0.3,5.4,1.2,7.4,2.9c0.4,0.3,0.8,0.7,1.1,1.1c0.4,0.4,0.7,0.8,1,1.2c1.9,2.6,3.1,5.6,3.6,8.8
		c0.2,1.1,0.2,2.2,0.2,3.4c0,2-0.2,3.8-0.6,5.4c-0.5,2.2-1.4,4.1-2.7,5.7c-0.3,0.4-0.6,0.8-1,1.2c-0.4,0.4-0.7,0.7-1.1,1
		c-2.7,2.3-6,3.4-9.9,3.4h-3.8l0,0V388.9z M4.7,456.1H4.1c-0.3-0.1-0.6-0.2-0.8-0.5c-0.6-0.7-0.5-1.7,0.1-2.3
		c0.7-0.6,1.7-0.5,2.3,0.1c0.6,0.7,0.5,1.7-0.1,2.3c-0.2,0.1-0.4,0.3-0.5,0.3C5,456.1,4.8,456.1,4.7,456.1z M8.2,456.1
		c0-0.4,0.2-0.8,0.5-1c0.7-0.6,1.7-0.5,2.3,0.1c0.2,0.2,0.3,0.5,0.4,0.8C10.3,456,9.3,456,8.2,456.1z M12.7,453.6
		c-0.6-0.7-0.5-1.7,0.1-2.3c0.7-0.6,1.7-0.5,2.3,0.1c0.6,0.7,0.5,1.7-0.1,2.3C14.3,454.3,13.3,454.3,12.7,453.6z M17.9,455.2
		c-0.5-0.7-0.4-1.6,0.2-2.2c0.7-0.6,1.7-0.5,2.3,0.1c0.4,0.4,0.5,1,0.3,1.6C19.7,454.9,18.8,455,17.9,455.2z M28.5,452.6
		c-0.4,0.2-0.9,0.3-1.3,0.4c-0.4-0.7-0.3-1.5,0.3-2c0.7-0.6,1.7-0.5,2.3,0.1c0.2,0.2,0.3,0.5,0.4,0.9
		C29.6,452.1,29,452.4,28.5,452.6z M37.9,445.9c-0.7,0.6-1.7,0.5-2.3-0.1c-0.6-0.7-0.5-1.7,0.1-2.3c0.7-0.6,1.7-0.5,2.3,0.1
		C38.6,444.3,38.6,445.3,37.9,445.9z M38.8,434.4c0.7-0.6,1.7-0.5,2.3,0.1c0.6,0.7,0.5,1.7-0.1,2.3c-0.7,0.6-1.7,0.5-2.3-0.1
		C38.1,436.1,38.1,435,38.8,434.4z M42.1,442.2c-0.7,0.6-1.7,0.5-2.3-0.1c-0.6-0.7-0.5-1.7,0.1-2.3c0.7-0.6,1.7-0.5,2.3,0.1
		C42.8,440.6,42.7,441.6,42.1,442.2z M42.9,430.7c0.7-0.6,1.7-0.5,2.3,0.1c0.6,0.7,0.5,1.7-0.1,2.3c-0.7,0.6-1.7,0.5-2.3-0.1
		C42.2,432.4,42.3,431.3,42.9,430.7z M46.2,438.5c-0.7,0.6-1.7,0.5-2.3-0.1s-0.5-1.7,0.1-2.3c0.7-0.6,1.7-0.5,2.3,0.1
		C46.9,436.9,46.9,437.9,46.2,438.5z M47.1,427c0.7-0.6,1.7-0.5,2.3,0.1c0.6,0.7,0.5,1.7-0.1,2.3c-0.7,0.6-1.7,0.5-2.3-0.1
		C46.3,428.6,46.4,427.6,47.1,427z M48.2,432.4c0.7-0.6,1.7-0.5,2.3,0.1c0.6,0.7,0.5,1.7-0.1,2.3c-0.7,0.6-1.7,0.5-2.3-0.1
		C47.5,434,47.5,433,48.2,432.4z M52.5,431.2c-0.1-0.1-0.2-0.1-0.3-0.2c-0.6-0.7-0.5-1.7,0.1-2.3c0.4-0.3,0.9-0.4,1.3-0.4
		C53.3,429.3,52.9,430.3,52.5,431.2z M53.4,425.7c-0.7,0.6-1.7,0.5-2.3-0.1c-0.6-0.7-0.5-1.7,0.1-2.3c0.7-0.6,1.7-0.5,2.3,0.1
		C54.1,424.1,54.1,425.1,53.4,425.7z M53.2,408.8c0.7-0.6,1.7-0.5,2.3,0.1c0.6,0.7,0.5,1.7-0.1,2.3c-0.7,0.6-1.7,0.5-2.3-0.1
		S52.5,409.4,53.2,408.8z M52.3,420.3c-0.7,0.6-1.7,0.5-2.3-0.1c-0.6-0.7-0.5-1.7,0.1-2.3c0.7-0.6,1.7-0.5,2.3,0.1
		C53,418.7,53,419.7,52.3,420.3z M49,412.5c0.7-0.6,1.7-0.5,2.3,0.1c0.6,0.7,0.5,1.7-0.1,2.3c-0.7,0.6-1.7,0.5-2.3-0.1
		C48.3,414.2,48.4,413.1,49,412.5z"/>
	<path d="M-84,355.2c-0.7,0.6-1.7,0.5-2.3-0.1c-0.4-0.4-0.5-0.9-0.3-1.4c-2.2,0.3-4.4,0.8-6.5,1.4c0.5,0.7,0.4,1.6-0.2,2.2
		c-0.7,0.6-1.7,0.5-2.3-0.1c-0.3-0.3-0.4-0.7-0.4-1c-0.8,0.3-1.6,0.7-2.4,1c-2.8,1.3-5.5,2.9-7.9,4.6c0,0.5-0.1,0.9-0.5,1.3
		c-0.4,0.4-1,0.5-1.5,0.3c-0.7,0.6-1.5,1.2-2.2,1.9c0.1,0.5-0.1,1.1-0.5,1.5c-0.4,0.4-0.9,0.5-1.4,0.4c-0.2,0.2-0.3,0.3-0.5,0.5
		c-0.6,0.7-1.2,1.4-1.8,2.1c-0.1,0.3-0.2,0.5-0.4,0.7c-0.1,0.1-0.2,0.1-0.3,0.2c-1.5,1.9-2.9,4-4.1,6.1c0.5-0.1,1,0.1,1.4,0.5
		c0.6,0.7,0.5,1.7-0.1,2.3c-0.7,0.6-1.7,0.5-2.3-0.1c-0.1-0.1-0.1-0.2-0.2-0.3c-0.3,0.6-0.6,1.2-0.9,1.9c-0.1,0.2-0.2,0.5-0.3,0.7
		c0.1,0.6,0,1.2-0.5,1.6c-0.1,0.1-0.2,0.1-0.2,0.1c0-0.1,0.1-0.2,0.1-0.2c-1.5,3.7-2.4,7.7-3,11.8c0.5,0,0.9,0.1,1.3,0.5
		c0.6,0.7,0.5,1.7-0.1,2.3c-0.4,0.4-1,0.5-1.5,0.3c-0.1,1.2-0.1,2.4-0.2,3.6c0-0.4,0.2-0.7,0.5-1c0.7-0.6,1.7-0.5,2.3,0.1
		c0.6,0.7,0.5,1.7-0.1,2.3c-0.7,0.6-1.7,0.5-2.3-0.1c-0.3-0.3-0.4-0.6-0.4-1c0,0.1,0,0.2,0,0.3c0,6.2,1.1,12,3.2,17.2
		c0.4,1.1,0.9,2.1,1.4,3.1c0.1-0.1,0.2-0.3,0.3-0.4c0.7-0.6,1.7-0.5,2.3,0.1c0.6,0.7,0.5,1.7-0.1,2.3c-0.3,0.3-0.7,0.4-1.1,0.4
		c0.4,0.7,0.8,1.3,1.2,2c3.8,5.7,9.5,11.5,17.2,17.4l6.5,5.1c1.2,1,2.2,1.9,3.1,2.9c0.4,0.5,0.9,1,1.2,1.4c1.9,2.4,2.8,4.9,2.8,7.3
		c0,2.8-1.1,5.1-3.3,6.9c-1.6,1.4-3.6,2.3-6,2.6c-0.8,0.1-1.6,0.2-2.5,0.2c-2.8,0-5.6-0.5-8.4-1.6c-0.5-0.2-1.1-0.4-1.6-0.7
		c-5.4-2.5-10.7-7.2-15.7-13.9v46.7c1.3,0.5,2.7,1,4,1.5c2.6,0.9,5.2,1.7,7.8,2.4c6.4,1.6,12.6,2.5,18.5,2.5c6,0,11.6-1,16.9-2.9
		c0.7-0.3,1.5-0.6,2.2-0.9c1.5-0.6,2.9-1.3,4.2-2.1c4.1-2.3,7.7-5.1,10.8-8.5c4.2-4.5,7.4-9.9,9.8-16c2.4-6.1,3.6-12.9,3.6-20.3
		c0-2.1-0.1-4.2-0.3-6.2c-0.7-6-2.4-11.4-5.2-16.2c-0.5-0.8-1-1.6-1.5-2.4c-2.1-3.2-4.9-6.3-8.2-9.5c-0.8-0.8-1.7-1.6-2.6-2.3
		c-1.8-1.6-3.8-3.1-5.9-4.7l-6.5-4.7c-1.4-1-2.5-2-3.5-3c-0.5-0.5-1-1-1.4-1.5c-2.1-2.5-3.2-4.9-3.2-7.4c0-2.2,0.8-4.1,2.3-5.7
		c0.2-0.2,0.5-0.5,0.7-0.7c0.3-0.2,0.5-0.4,0.8-0.6c1.6-1.2,3.5-1.8,5.7-2c0.4,0,0.7,0,1.1,0c2,0,4.1,0.4,6.2,1.1
		c2.1,0.7,4.1,1.9,6.2,3.3c0.5,0.4,1,0.8,1.5,1.2c3.5,2.8,6.8,6.4,9.6,10.8v-45.5c-0.7-0.4-1.4-0.7-2-1c-0.7,0.4-1.6,0.4-2.1-0.2
		c-0.2-0.3-0.3-0.6-0.4-0.9c-0.8-0.3-1.5-0.7-2.3-1c-0.1,0.1-0.2,0.3-0.3,0.4c-0.7,0.6-1.7,0.5-2.3-0.1c-0.4-0.4-0.4-0.9-0.4-1.4
		c-0.7-0.3-1.4-0.5-2.2-0.7c-0.1,0.2-0.2,0.4-0.4,0.5c-0.7,0.6-1.7,0.5-2.3-0.1c-0.3-0.4-0.4-0.8-0.4-1.3c-0.8-0.2-1.6-0.4-2.3-0.5
		c-0.1,0.1-0.1,0.2-0.2,0.3c-0.7,0.6-1.7,0.5-2.3-0.1c-0.2-0.2-0.3-0.5-0.4-0.7c-1.2-0.2-2.3-0.3-3.5-0.5c-0.2,0-0.4,0-0.6-0.1
		c-0.3,0-0.6-0.1-1-0.1c-1.2-0.1-2.4-0.1-3.6-0.1c-0.8,0-1.6,0-2.4,0.1c-0.2,0-0.4,0-0.6,0C-83.4,353.9-83.5,354.7-84,355.2z
		 M-85.9,367.4c0.6,0.7,0.5,1.7-0.1,2.3c-0.7,0.6-1.7,0.5-2.3-0.1c-0.6-0.7-0.5-1.7,0.1-2.3C-87.5,366.6-86.5,366.7-85.9,367.4z
		 M-80.8,371.3c-0.7,0.6-1.7,0.5-2.3-0.1c-0.6-0.7-0.5-1.7,0.1-2.3c0.7-0.6,1.7-0.5,2.3,0.1C-80,369.7-80.1,370.7-80.8,371.3z
		 M-79.6,374.4c0.6,0.7,0.5,1.7-0.1,2.3c-0.7,0.6-1.7,0.5-2.3-0.1c-0.6-0.7-0.5-1.7,0.1-2.3C-81.2,373.7-80.2,373.7-79.6,374.4z
		 M-83.8,380.4c-0.7,0.6-1.7,0.5-2.3-0.1c-0.6-0.7-0.5-1.7,0.1-2.3c0.7-0.6,1.7-0.5,2.3,0.1C-83.1,378.8-83.2,379.8-83.8,380.4z
		 M-119.2,399.3c-0.7,0.6-1.7,0.5-2.3-0.1c-0.6-0.7-0.5-1.7,0.1-2.3c0.7-0.6,1.7-0.5,2.3,0.1C-118.5,397.7-118.5,398.7-119.2,399.3z
		 M-118.3,387.8c0.7-0.6,1.7-0.5,2.3,0.1c0.6,0.7,0.5,1.7-0.1,2.3c-0.7,0.6-1.7,0.5-2.3-0.1S-118.9,388.4-118.3,387.8z
		 M-120.2,402.3c0.7-0.6,1.7-0.5,2.3,0.1c0.6,0.7,0.5,1.7-0.1,2.3c-0.7,0.6-1.7,0.5-2.3-0.1C-121,403.9-120.9,402.9-120.2,402.3z
		 M-117.2,393.2c0.7-0.6,1.7-0.5,2.3,0.1c0.6,0.7,0.5,1.7-0.1,2.3c-0.7,0.6-1.7,0.5-2.3-0.1C-117.9,394.8-117.9,393.8-117.2,393.2z
		 M-99.5,375.4c-0.7,0.6-1.7,0.5-2.3-0.1c-0.6-0.7-0.5-1.7,0.1-2.3c0.7-0.6,1.7-0.5,2.3,0.1C-98.8,373.8-98.8,374.8-99.5,375.4z
		 M-98.3,378.5c0.6,0.7,0.5,1.7-0.1,2.3c-0.7,0.6-1.7,0.5-2.3-0.1c-0.6-0.7-0.5-1.7,0.1-2.3C-99.9,377.8-98.9,377.8-98.3,378.5z
		 M-102.6,384.5c-0.7,0.6-1.7,0.5-2.3-0.1c-0.6-0.7-0.5-1.7,0.1-2.3c0.7-0.6,1.7-0.5,2.3,0.1C-101.9,382.9-101.9,383.9-102.6,384.5z
		 M-103.7,379.1c-0.7,0.6-1.7,0.5-2.3-0.1c-0.6-0.7-0.5-1.7,0.1-2.3c0.7-0.6,1.7-0.5,2.3,0.1C-102.9,377.5-103,378.5-103.7,379.1z
		 M-106.7,388.2c-0.7,0.6-1.7,0.5-2.3-0.1c-0.6-0.7-0.5-1.7,0.1-2.3c0.7-0.6,1.7-0.5,2.3,0.1C-106,386.6-106.1,387.6-106.7,388.2z
		 M-107.8,382.8c-0.7,0.6-1.7,0.5-2.3-0.1c-0.6-0.7-0.5-1.7,0.1-2.3c0.7-0.6,1.7-0.5,2.3,0.1C-107.1,381.2-107.1,382.2-107.8,382.8z
		 M-110.9,391.9c-0.7,0.6-1.7,0.5-2.3-0.1c-0.6-0.7-0.5-1.7,0.1-2.3c0.7-0.6,1.7-0.5,2.3,0.1C-110.2,390.3-110.2,391.3-110.9,391.9z
		 M-112,386.5c-0.7,0.6-1.7,0.5-2.3-0.1c-0.6-0.7-0.5-1.7,0.1-2.3c0.7-0.6,1.7-0.5,2.3,0.1C-111.2,384.9-111.3,385.9-112,386.5z
		 M-116.1,398.6c0.7-0.6,1.7-0.5,2.3,0.1c0.6,0.7,0.5,1.7-0.1,2.3c-0.7,0.6-1.7,0.5-2.3-0.1C-116.8,400.2-116.8,399.2-116.1,398.6z
		 M-115,404c0.7-0.6,1.7-0.5,2.3,0.1c0.6,0.7,0.5,1.7-0.1,2.3c-0.7,0.6-1.7,0.5-2.3-0.1C-115.8,405.6-115.7,404.6-115,404z
		 M-111.9,394.9c0.7-0.6,1.7-0.5,2.3,0.1c0.6,0.7,0.5,1.7-0.1,2.3c-0.7,0.6-1.7,0.5-2.3-0.1C-112.7,396.5-112.6,395.5-111.9,394.9z
		 M-110.9,400.3c0.7-0.6,1.7-0.5,2.3,0.1c0.6,0.7,0.5,1.7-0.1,2.3c-0.7,0.6-1.7,0.5-2.3-0.1C-111.6,401.9-111.6,400.9-110.9,400.3z
		 M-107.8,391.1c0.7-0.6,1.7-0.5,2.3,0.1c0.6,0.7,0.5,1.7-0.1,2.3c-0.7,0.6-1.7,0.5-2.3-0.1C-108.5,392.8-108.5,391.7-107.8,391.1z
		 M-106.7,396.6c0.7-0.6,1.7-0.5,2.3,0.1c0.6,0.7,0.5,1.7-0.1,2.3c-0.7,0.6-1.7,0.5-2.3-0.1C-107.5,398.2-107.4,397.1-106.7,396.6z
		 M-103.7,387.4c0.7-0.6,1.7-0.5,2.3,0.1c0.6,0.7,0.5,1.7-0.1,2.3c-0.7,0.6-1.7,0.5-2.3-0.1C-104.4,389.1-104.3,388-103.7,387.4z
		 M-102.6,392.8c0.7-0.6,1.7-0.5,2.3,0.1c0.6,0.7,0.5,1.7-0.1,2.3c-0.7,0.6-1.7,0.5-2.3-0.1C-103.3,394.5-103.3,393.4-102.6,392.8z
		 M-99.5,383.7c0.7-0.6,1.7-0.5,2.3,0.1c0.6,0.7,0.5,1.7-0.1,2.3c-0.7,0.6-1.7,0.5-2.3-0.1C-100.2,385.3-100.2,384.3-99.5,383.7z
		 M-96.5,374.6c0.7-0.6,1.7-0.5,2.3,0.1c0.6,0.7,0.5,1.7-0.1,2.3c-0.7,0.6-1.7,0.5-2.3-0.1C-97.2,376.3-97.1,375.2-96.5,374.6z
		 M-98.4,389.1c0.7-0.6,1.7-0.5,2.3,0.1c0.6,0.7,0.5,1.7-0.1,2.3c-0.7,0.6-1.7,0.5-2.3-0.1C-99.2,390.8-99.1,389.7-98.4,389.1z
		 M-95.4,380c0.7-0.6,1.7-0.5,2.3,0.1c0.6,0.7,0.5,1.7-0.1,2.3c-0.7,0.6-1.7,0.5-2.3-0.1C-96.1,381.6-96,380.6-95.4,380z
		 M-92.3,370.9c0.7-0.6,1.7-0.5,2.3,0.1c0.6,0.7,0.5,1.7-0.1,2.3c-0.7,0.6-1.7,0.5-2.3-0.1C-93,372.6-93,371.5-92.3,370.9z
		 M-94.3,385.4c0.7-0.6,1.7-0.5,2.3,0.1c0.6,0.7,0.5,1.7-0.1,2.3c-0.7,0.6-1.7,0.5-2.3-0.1C-95,387-95,386-94.3,385.4z M-91.2,376.3
		c0.7-0.6,1.7-0.5,2.3,0.1c0.6,0.7,0.5,1.7-0.1,2.3c-0.7,0.6-1.7,0.5-2.3-0.1C-91.9,377.9-91.9,376.9-91.2,376.3z M-90.2,381.7
		c0.7-0.6,1.7-0.5,2.3,0.1c0.6,0.7,0.5,1.7-0.1,2.3c-0.7,0.6-1.7,0.5-2.3-0.1C-90.9,383.3-90.8,382.3-90.2,381.7z M-89,387.1
		c0.7-0.6,1.7-0.5,2.3,0.1c0.6,0.7,0.5,1.7-0.1,2.3c-0.7,0.6-1.7,0.5-2.3-0.1C-89.8,388.7-89.7,387.7-89,387.1z M-84.9,375
		c-0.7,0.6-1.7,0.5-2.3-0.1c-0.6-0.7-0.5-1.7,0.1-2.3c0.7-0.6,1.7-0.5,2.3,0.1C-84.2,373.4-84.2,374.4-84.9,375z M-87.1,364.2
		c-0.7,0.6-1.7,0.5-2.3-0.1c-0.6-0.7-0.5-1.7,0.1-2.3c0.7-0.6,1.7-0.5,2.3,0.1S-86.4,363.6-87.1,364.2z M-90.4,356.5
		c0.7-0.6,1.7-0.5,2.3,0.1c0.6,0.7,0.5,1.7-0.1,2.3c-0.7,0.6-1.7,0.5-2.3-0.1C-91.1,358.1-91,357.1-90.4,356.5z M-91.2,368
		c-0.7,0.6-1.7,0.5-2.3-0.1c-0.6-0.7-0.5-1.7,0.1-2.3c0.7-0.6,1.7-0.5,2.3,0.1C-90.5,366.3-90.6,367.4-91.2,368z M-94.5,360.2
		c0.7-0.6,1.7-0.5,2.3,0.1c0.6,0.7,0.5,1.7-0.1,2.3c-0.7,0.6-1.7,0.5-2.3-0.1C-95.2,361.8-95.2,360.8-94.5,360.2z M-95.2,369.4
		c0.6,0.7,0.5,1.7-0.1,2.3c-0.7,0.6-1.7,0.5-2.3-0.1c-0.6-0.7-0.5-1.7,0.1-2.3C-96.9,368.6-95.8,368.7-95.2,369.4z M-96.5,366.3
		c-0.7,0.6-1.7,0.5-2.3-0.1c-0.6-0.7-0.5-1.7,0.1-2.3c0.7-0.6,1.7-0.5,2.3,0.1C-95.8,364.7-95.8,365.7-96.5,366.3z M-99.7,358.5
		c0.7-0.6,1.7-0.5,2.3,0.1c0.6,0.7,0.5,1.7-0.1,2.3c-0.7,0.6-1.7,0.5-2.3-0.1C-100.4,360.1-100.4,359.1-99.7,358.5z M-100.6,370
		c-0.7,0.6-1.7,0.5-2.3-0.1c-0.6-0.7-0.5-1.7,0.1-2.3c0.7-0.6,1.7-0.5,2.3,0.1S-100,369.4-100.6,370z M-103.8,362.2
		c0.7-0.6,1.7-0.5,2.3,0.1c0.6,0.7,0.5,1.7-0.1,2.3c-0.7,0.6-1.7,0.5-2.3-0.1C-104.6,363.8-104.5,362.8-103.8,362.2z M-104.8,373.7
		c-0.7,0.6-1.7,0.5-2.3-0.1c-0.6-0.7-0.5-1.7,0.1-2.3c0.7-0.6,1.7-0.5,2.3,0.1C-104,372.1-104.1,373.1-104.8,373.7z M-108,365.9
		c0.7-0.6,1.7-0.5,2.3,0.1c0.6,0.7,0.5,1.7-0.1,2.3c-0.7,0.6-1.7,0.5-2.3-0.1C-108.7,367.5-108.7,366.5-108,365.9z M-108.9,377.4
		c-0.7,0.6-1.7,0.5-2.3-0.1c-0.6-0.7-0.5-1.7,0.1-2.3c0.7-0.6,1.7-0.5,2.3,0.1C-108.2,375.8-108.2,376.8-108.9,377.4z M-112.1,369.6
		c0.7-0.6,1.7-0.5,2.3,0.1c0.6,0.7,0.5,1.7-0.1,2.3c-0.7,0.6-1.7,0.5-2.3-0.1C-112.9,371.2-112.8,370.2-112.1,369.6z M-112.9,378.9
		c0.6,0.7,0.5,1.7-0.1,2.3c-0.7,0.6-1.7,0.5-2.3-0.1c-0.6-0.7-0.5-1.7,0.1-2.3C-114.6,378.1-113.5,378.2-112.9,378.9z M-116.3,373.3
		c0.7-0.6,1.7-0.5,2.3,0.1c0.6,0.7,0.5,1.7-0.1,2.3c-0.7,0.6-1.7,0.5-2.3-0.1C-117,374.9-117,373.9-116.3,373.3z M-119.4,382.4
		c0.7-0.6,1.7-0.5,2.3,0.1c0.6,0.7,0.5,1.7-0.1,2.3c-0.7,0.6-1.7,0.5-2.3-0.1C-120.1,384.1-120,383-119.4,382.4z M-123.6,388.4
		c-0.3-0.3-0.4-0.6-0.4-1c0.1-0.4,0.2-0.7,0.3-1.1c0.1-0.1,0.1-0.2,0.2-0.2c0.7-0.6,1.7-0.5,2.3,0.1c0.6,0.7,0.5,1.7-0.1,2.3
		C-122,389.2-123,389.1-123.6,388.4z M-122.4,391.5c0.7-0.6,1.7-0.5,2.3,0.1c0.6,0.7,0.5,1.7-0.1,2.3c-0.7,0.6-1.7,0.5-2.3-0.1
		C-123.1,393.1-123.1,392.1-122.4,391.5z M-124.4,406c0.7-0.6,1.7-0.5,2.3,0.1c0.6,0.7,0.5,1.7-0.1,2.3c-0.7,0.6-1.7,0.5-2.3-0.1
		C-125.1,407.6-125.1,406.6-124.4,406z M-123.4,413.7c-0.6-0.7-0.5-1.7,0.1-2.3c0.7-0.6,1.7-0.5,2.3,0.1c0.6,0.7,0.5,1.7-0.1,2.3
		C-121.8,414.4-122.8,414.4-123.4,413.7z M-120,419.2c-0.7,0.6-1.7,0.5-2.3-0.1c-0.6-0.7-0.5-1.7,0.1-2.3c0.7-0.6,1.7-0.5,2.3,0.1
		C-119.3,417.6-119.4,418.6-120,419.2z M-119.3,410c-0.6-0.7-0.5-1.7,0.1-2.3c0.7-0.6,1.7-0.5,2.3,0.1c0.6,0.7,0.5,1.7-0.1,2.3
		C-117.7,410.7-118.7,410.6-119.3,410z M-118.1,413c0.7-0.6,1.7-0.5,2.3,0.1c0.6,0.7,0.5,1.7-0.1,2.3c-0.7,0.6-1.7,0.5-2.3-0.1
		C-118.8,414.7-118.7,413.6-118.1,413z M-114.8,420.9c-0.7,0.6-1.7,0.5-2.3-0.1c-0.6-0.7-0.5-1.7,0.1-2.3c0.7-0.6,1.7-0.5,2.3,0.1
		C-114.1,419.2-114.2,420.3-114.8,420.9z M-113.9,409.3c0.7-0.6,1.7-0.5,2.3,0.1c0.6,0.7,0.5,1.7-0.1,2.3c-0.7,0.6-1.7,0.5-2.3-0.1
		C-114.6,411-114.6,409.9-113.9,409.3z M-110.7,417.2c-0.7,0.6-1.7,0.5-2.3-0.1c-0.6-0.7-0.5-1.7,0.1-2.3c0.7-0.6,1.7-0.5,2.3,0.1
		C-110,415.5-110,416.6-110.7,417.2z M-109.8,405.6c0.7-0.6,1.7-0.5,2.3,0.1c0.6,0.7,0.5,1.7-0.1,2.3c-0.7,0.6-1.7,0.5-2.3-0.1
		C-110.5,407.2-110.4,406.2-109.8,405.6z M-106.5,413.4c-0.7,0.6-1.7,0.5-2.3-0.1c-0.6-0.7-0.5-1.7,0.1-2.3c0.7-0.6,1.7-0.5,2.3,0.1
		C-105.8,411.8-105.9,412.9-106.5,413.4z M-105.6,401.9c0.7-0.6,1.7-0.5,2.3,0.1c0.6,0.7,0.5,1.7-0.1,2.3c-0.7,0.6-1.7,0.5-2.3-0.1
		C-106.4,403.5-106.3,402.5-105.6,401.9z M-102.4,409.7c-0.7,0.6-1.7,0.5-2.3-0.1s-0.5-1.7,0.1-2.3c0.7-0.6,1.7-0.5,2.3,0.1
		S-101.7,409.1-102.4,409.7z M-101.5,398.2c0.7-0.6,1.7-0.5,2.3,0.1c0.6,0.7,0.5,1.7-0.1,2.3c-0.7,0.6-1.7,0.5-2.3-0.1
		C-102.2,399.8-102.2,398.8-101.5,398.2z M-98.3,406c-0.7,0.6-1.7,0.5-2.3-0.1c-0.6-0.7-0.5-1.7,0.1-2.3c0.7-0.6,1.7-0.5,2.3,0.1
		C-97.5,404.4-97.6,405.4-98.3,406z M-97.3,394.5c0.7-0.6,1.7-0.5,2.3,0.1c0.6,0.7,0.5,1.7-0.1,2.3c-0.7,0.6-1.7,0.5-2.3-0.1
		C-98.1,396.1-98,395.1-97.3,394.5z M-94.1,402.3c-0.7,0.6-1.7,0.5-2.3-0.1c-0.6-0.7-0.5-1.7,0.1-2.3c0.7-0.6,1.7-0.5,2.3,0.1
		C-93.4,400.7-93.4,401.7-94.1,402.3z M-93.2,390.8c0.7-0.6,1.7-0.5,2.3,0.1c0.6,0.7,0.5,1.7-0.1,2.3c-0.7,0.6-1.7,0.5-2.3-0.1
		C-93.9,392.4-93.9,391.4-93.2,390.8z M-92.3,398.5c-0.6-0.7-0.5-1.7,0.1-2.3c0.7-0.6,1.7-0.5,2.3,0.1c0.6,0.7,0.5,1.7-0.1,2.3
		C-90.6,399.2-91.7,399.1-92.3,398.5z M-85.8,394.9c-0.7,0.6-1.7,0.5-2.3-0.1c-0.6-0.7-0.5-1.7,0.1-2.3c0.7-0.6,1.7-0.5,2.3,0.1
		C-85.1,393.3-85.2,394.3-85.8,394.9z M-84.9,383.4c0.7-0.6,1.7-0.5,2.3,0.1c0.6,0.7,0.5,1.7-0.1,2.3c-0.7,0.6-1.7,0.5-2.3-0.1
		C-85.6,385-85.6,384-84.9,383.4z M-84,391.1c-0.6-0.7-0.5-1.7,0.1-2.3c0.7-0.6,1.7-0.5,2.3,0.1c0.6,0.7,0.5,1.7-0.1,2.3
		C-82.3,391.8-83.4,391.7-84,391.1z M-80.9,381.9c-0.6-0.7-0.5-1.7,0.1-2.3c0.7-0.6,1.7-0.5,2.3,0.1c0.6,0.7,0.5,1.7-0.1,2.3
		C-79.3,382.7-80.3,382.6-80.9,381.9z M-77.7,370.6c0.7-0.6,1.7-0.5,2.3,0.1c0.6,0.7,0.5,1.7-0.1,2.3c-0.7,0.6-1.7,0.5-2.3-0.1
		C-78.4,372.2-78.4,371.2-77.7,370.6z M-79.8,387.3c-0.6-0.7-0.5-1.7,0.1-2.3c0.7-0.6,1.7-0.5,2.3,0.1c0.6,0.7,0.5,1.7-0.1,2.3
		C-78.2,388.1-79.2,388-79.8,387.3z M-76.7,378.2c-0.6-0.7-0.5-1.7,0.1-2.3c0.7-0.6,1.7-0.5,2.3,0.1c0.6,0.7,0.5,1.7-0.1,2.3
		C-75.1,378.9-76.1,378.9-76.7,378.2z M-73.4,383.8c-0.7,0.6-1.7,0.5-2.3-0.1c-0.6-0.7-0.5-1.7,0.1-2.3c0.7-0.6,1.7-0.5,2.3,0.1
		C-72.7,382.1-72.7,383.2-73.4,383.8z M-72.5,372.2c0.7-0.6,1.7-0.5,2.3,0.1c0.6,0.7,0.5,1.7-0.1,2.3c-0.7,0.6-1.7,0.5-2.3-0.1
		C-73.2,373.8-73.1,372.8-72.5,372.2z M-69.2,380c-0.7,0.6-1.7,0.5-2.3-0.1c-0.6-0.7-0.5-1.7,0.1-2.3c0.7-0.6,1.7-0.5,2.3,0.1
		C-68.5,378.4-68.6,379.4-69.2,380z M-65.1,376.3c-0.7,0.6-1.7,0.5-2.3-0.1c-0.6-0.7-0.5-1.7,0.1-2.3c0.7-0.6,1.7-0.5,2.3,0.1
		C-64.4,374.7-64.4,375.7-65.1,376.3z M-54.8,362.8c0.7-0.6,1.7-0.5,2.3,0.1c0.6,0.7,0.5,1.7-0.1,2.3c-0.7,0.6-1.7,0.5-2.3-0.1
		C-55.5,364.4-55.5,363.4-54.8,362.8z M-56.8,368.9c-0.7,0.6-1.7,0.5-2.3-0.1c-0.6-0.7-0.5-1.7,0.1-2.3c0.7-0.6,1.7-0.5,2.3,0.1
		C-56.1,367.3-56.1,368.3-56.8,368.9z M-60,361.1c0.7-0.6,1.7-0.5,2.3,0.1c0.6,0.7,0.5,1.7-0.1,2.3c-0.7,0.6-1.7,0.5-2.3-0.1
		C-60.7,362.7-60.7,361.7-60,361.1z M-60.8,370.3c0.6,0.7,0.5,1.7-0.1,2.3c-0.7,0.6-1.7,0.5-2.3-0.1c-0.6-0.7-0.5-1.7,0.1-2.3
		C-62.4,369.6-61.4,369.7-60.8,370.3z M-62,367.2c-0.7,0.6-1.7,0.5-2.3-0.1c-0.6-0.7-0.5-1.7,0.1-2.3c0.7-0.6,1.7-0.5,2.3,0.1
		C-61.3,365.6-61.3,366.6-62,367.2z M-65.3,359.4c0.7-0.6,1.7-0.5,2.3,0.1c0.6,0.7,0.5,1.7-0.1,2.3c-0.7,0.6-1.7,0.5-2.3-0.1
		C-66,361.1-65.9,360-65.3,359.4z M-66,368.6c0.6,0.7,0.5,1.7-0.1,2.3c-0.7,0.6-1.7,0.5-2.3-0.1c-0.6-0.7-0.5-1.7,0.1-2.3
		C-67.6,367.9-66.6,368-66,368.6z M-67.3,365.6c-0.7,0.6-1.7,0.5-2.3-0.1c-0.6-0.7-0.5-1.7,0.1-2.3c0.7-0.6,1.7-0.5,2.3,0.1
		C-66.5,363.9-66.6,365-67.3,365.6z M-70.5,357.7c0.7-0.6,1.7-0.5,2.3,0.1c0.6,0.7,0.5,1.7-0.1,2.3c-0.7,0.6-1.7,0.5-2.3-0.1
		C-71.2,359.4-71.2,358.3-70.5,357.7z M-71.3,367c0.6,0.7,0.5,1.7-0.1,2.3c-0.7,0.6-1.7,0.5-2.3-0.1c-0.6-0.7-0.5-1.7,0.1-2.3
		C-72.9,366.3-71.9,366.3-71.3,367z M-72.5,363.9c-0.7,0.6-1.7,0.5-2.3-0.1c-0.6-0.7-0.5-1.7,0.1-2.3c0.7-0.6,1.7-0.5,2.3,0.1
		C-71.7,362.2-71.8,363.3-72.5,363.9z M-75.7,356.1c0.7-0.6,1.7-0.5,2.3,0.1c0.6,0.7,0.5,1.7-0.1,2.3c-0.7,0.6-1.7,0.5-2.3-0.1
		C-76.5,357.7-76.4,356.7-75.7,356.1z M-76.5,365.3c0.6,0.7,0.5,1.7-0.1,2.3c-0.7,0.6-1.7,0.5-2.3-0.1c-0.6-0.7-0.5-1.7,0.1-2.3
		C-78.1,364.6-77.1,364.6-76.5,365.3z M-77.7,362.2c-0.7,0.6-1.7,0.5-2.3-0.1c-0.6-0.7-0.5-1.7,0.1-2.3c0.7-0.6,1.7-0.5,2.3,0.1
		C-77,360.6-77.1,361.6-77.7,362.2z M-80.9,354.4c0.7-0.6,1.7-0.5,2.3,0.1c0.6,0.7,0.5,1.7-0.1,2.3c-0.7,0.6-1.7,0.5-2.3-0.1
		S-81.6,355-80.9,354.4z M-81.9,365.9c-0.7,0.6-1.7,0.5-2.3-0.1c-0.6-0.7-0.5-1.7,0.1-2.3c0.7-0.6,1.7-0.5,2.3,0.1
		C-81.1,364.3-81.2,365.3-81.9,365.9z M-82.8,358.2c0.6,0.7,0.5,1.7-0.1,2.3c-0.7,0.6-1.7,0.5-2.3-0.1c-0.6-0.7-0.5-1.7,0.1-2.3
		C-84.4,357.5-83.4,357.6-82.8,358.2z"/>
	<path d="M20.3,338.3h2.4c0.8,0,1.7-0.7,1.8-1.5l1.8-10c0.2-0.8,1-1.5,1.8-1.5h9.8c0.8,0,1.7-0.5,1.9-1.4l0.4-2.4
		c0.2-0.9-0.2-1.5-1.1-1.5H28.9c-0.8,0-1.4-0.7-1.3-1.5l1.8-9.8c0.1-0.8-0.4-1.5-1.3-1.5h-2.4c-0.8,0-1.6,0.7-1.8,1.5l-1.7,9.8
		c-0.2,0.8-0.9,1.5-1.8,1.5h-9.8c-0.8,0-1.8,0.7-1.9,1.5l-0.4,2.4c-0.2,0.9,0.3,1.4,1.1,1.4h10c0.8,0,1.4,0.7,1.3,1.5l-1.8,10
		C18.8,337.6,19.4,338.3,20.3,338.3z"/>
	<path d="M-64.8,315.5c-8.9,2.3-16.1,2-20.1-0.9c-10.5-7.7-2.5-23,0.4-27.6c-5.1,5.6-10.2,11.2-14.2,17.3
		c-6.2,9.6-8.9,20.1-4.7,26.8c7.6,12.2,25.7,6.6,37.3,1.7l107.6-45.4L-64.8,315.5z"/>
</g>
</svg>
