<svg xmlns="http://www.w3.org/2000/svg" viewBox="0 0 48 48"><defs><style>.cls-1{fill:none;}</style></defs><g id="Layer_2" data-name="Layer 2"><g id="Artes_48px" data-name="Artes 48px"><g id="Geladeira-Fechado"><path d="M32,4H15a3,3,0,0,0-3,3V40a3,3,0,0,0,3,3,1,1,0,0,0,2,0H30a1,1,0,0,0,2,0,3,3,0,0,0,3-3V7A3,3,0,0,0,32,4Zm1,36a1,1,0,0,1-1,1H15a1,1,0,0,1-1-1V21H33Zm0-21H14V7a1,1,0,0,1,1-1H32a1,1,0,0,1,1,1Z"/><path d="M17.5,35H16a1,1,0,0,1,0-2h1V25H16a1,1,0,0,1,0-2h1.5A1.5,1.5,0,0,1,19,24.5v9A1.5,1.5,0,0,1,17.5,35Zm0-10h0Z"/><path d="M17.5,17H16a1,1,0,0,1,0-2h1V10H16a1,1,0,0,1,0-2h1.5A1.5,1.5,0,0,1,19,9.5v6A1.5,1.5,0,0,1,17.5,17Zm0-7h0Z"/><rect id="Mascara" class="cls-1" width="48" height="48"/></g></g></g></svg>