<?xml version="1.0" encoding="UTF-8"?>
<svg width="200px" height="200px" viewBox="0 0 200 200" version="1.1" xmlns="http://www.w3.org/2000/svg" xmlns:xlink="http://www.w3.org/1999/xlink">
    <!-- Generator: Sketch 52.3 (67297) - http://www.bohemiancoding.com/sketch -->
    <title>Icones/Categorias/celular</title>
    <desc>Created with Sketch.</desc>
    <g id="Icones/Categorias/celular" stroke="none" stroke-width="1" fill="none" fill-rule="evenodd">
        <g id="celular-01" transform="translate(52.000000, 11.000000)" fill="#000000" fill-rule="nonzero">
            <g id="celular" transform="translate(0.173913, 0.000000)">
                <g id="XMLID_1_">
                    <path d="M82.6086957,0 L13.0434783,0 C5.82608696,0 0,5.82608696 0,13.0434783 L0,160.869565 C0,168.086957 5.82608696,173.913043 13.0434783,173.913043 L82.6086957,173.913043 C89.826087,173.913043 95.6521739,168.086957 95.6521739,160.869565 L95.6521739,13.0434783 C95.6521739,5.82608696 89.826087,0 82.6086957,0 Z M86.9565217,160.869565 C86.9565217,163.26087 85,165.217391 82.6086957,165.217391 L13.0434783,165.217391 C10.6521739,165.217391 8.69565217,163.26087 8.69565217,160.869565 L8.69565217,139.130435 L86.9565217,139.130435 L86.9565217,160.869565 Z M86.9565217,130.434783 L8.69565217,130.434783 L8.69565217,39.1304348 L86.9565217,39.1304348 L86.9565217,130.434783 Z M86.9565217,30.4347826 L8.69565217,30.4347826 L8.69565217,13.0434783 C8.69565217,10.6521739 10.6521739,8.69565217 13.0434783,8.69565217 L82.6086957,8.69565217 C85,8.69565217 86.9565217,10.6521739 86.9565217,13.0434783 L86.9565217,30.4347826 Z" id="XMLID_16_"></path>
                    <rect id="XMLID_105_" x="30.4347826" y="17.3913043" width="34.7826087" height="4.34782609"></rect>
                    <circle id="XMLID_111_" cx="47.826087" cy="152.173913" r="8.69565217"></circle>
                </g>
            </g>
        </g>
    </g>
</svg>