<svg xmlns="http://www.w3.org/2000/svg" viewBox="0 0 48 48"><defs><style>.cls-1{fill:#ff5b46;}.cls-2{fill:#333;}.cls-3{fill:none;}</style></defs><g id="Layer_2" data-name="Layer 2"><g id="Artes_48px" data-name="Artes 48px"><g id="Icones_Ferramentas_Pechincha_2cores-fundo-branco" data-name="Icones/Ferramentas/Pechincha/2cores-fundo-branco"><g id="Group"><path id="Shape" class="cls-1" d="M4.52,10A1.55,1.55,0,0,0,3,11.58V20l3.05,3.15V20H28V10Zm3.75,7.57a2.39,2.39,0,0,1-2.38-2.48v0a2.4,2.4,0,0,1,2.42-2.48,2.36,2.36,0,0,1,1.83.74l-.66.78a1.74,1.74,0,0,0-1.21-.55,1.42,1.42,0,0,0-1.36,1.5v0a1.42,1.42,0,0,0,1.36,1.51A1.7,1.7,0,0,0,9.51,16l.66.68A2.37,2.37,0,0,1,8.27,17.57Zm6.67-.05-.43-1.05h-2l-.43,1.05h-1l1.81-4.42a.72.72,0,0,1,.65-.47h0a.73.73,0,0,1,.65.47L16,17.52Zm5.21-3.89H18.68v3.89h-1V13.63H16.3v-1h3.85Zm4.14,3.89-.43-1.05h-2l-.42,1.05h-1l1.8-4.42a.74.74,0,0,1,.65-.47h0a.71.71,0,0,1,.65.47l1.81,4.42Z"/><polygon id="Shape-2" data-name="Shape" class="cls-1" points="12.95 15.71 14.05 15.71 13.5 14 12.95 15.71"/><polygon id="Shape-3" data-name="Shape" class="cls-1" points="22.34 15.71 23.45 15.71 22.89 14 22.34 15.71"/><polygon id="Shape-4" data-name="Shape" class="cls-2" points="38.37 30.57 45 30.57 45 32.29 38.37 32.29 38.37 30.57"/><path id="Shape-5" data-name="Shape" class="cls-2" d="M7.42,22h3.07c1.84,0,3,.92,3,2.56v0c0,1.75-1.31,2.69-3.11,2.69h-1v2.16h-2Zm2.93,3.63c.71,0,1.19-.38,1.19-.95v0c0-.64-.48-1-1.2-1h-1v2h1Z"/><polygon id="Shape-6" data-name="Shape" class="cls-2" points="14.05 22 19.58 22 19.58 23.74 15.96 23.74 15.96 24.79 19.31 24.79 19.31 26.48 15.96 26.48 15.96 27.69 19.58 27.69 19.58 29.43 14.05 29.43 14.05 22"/><path id="Shape-7" data-name="Shape" class="cls-2" d="M20.13,25.73v0A3.61,3.61,0,0,1,23.78,22a3.35,3.35,0,0,1,2.94,1.49l-1.45,1.15a1.86,1.86,0,0,0-1.53-.83,1.75,1.75,0,0,0-1.68,1.88v0a1.76,1.76,0,0,0,1.68,1.91,1.92,1.92,0,0,0,1.57-.86l1.45,1.06a3.44,3.44,0,0,1-3.06,1.61A3.58,3.58,0,0,1,20.13,25.73Z"/><polygon id="Shape-8" data-name="Shape" class="cls-2" points="27.87 22 29.89 22 29.89 24.74 32.43 24.74 32.43 22 34.5 22 34.5 29.43 32.43 29.43 32.43 26.53 29.89 26.53 29.89 29.43 27.87 29.43 27.87 22"/><polygon id="Shape-9" data-name="Shape" class="cls-2" points="35.05 22 37.26 22 37.26 29.43 35.05 29.43 35.05 22"/><path id="Shape-10" data-name="Shape" class="cls-2" d="M39.51,22h.13a1.1,1.1,0,0,1,.9.44l2.56,3.43V22H45v6.16a1.23,1.23,0,0,1-1.13,1.26h0a1.15,1.15,0,0,1-.89-.49L40.31,25.3v4.13H38.37V23.15A1.12,1.12,0,0,1,39.51,22Z"/><path id="Shape-11" data-name="Shape" class="cls-2" d="M32.29,36.87A1.12,1.12,0,0,1,31.19,38h0a1.12,1.12,0,0,1-1.1-1.13v0a1.12,1.12,0,0,1,1.1-1.14h0a1.12,1.12,0,0,1,1.1,1.14Z"/><path id="Shape-12" data-name="Shape" class="cls-2" d="M7.42,34.31v0a3.62,3.62,0,0,1,3.65-3.72A3.38,3.38,0,0,1,14,32.06l-1.45,1.16A1.84,1.84,0,0,0,11,32.38a1.74,1.74,0,0,0-1.65,1.88v0A1.74,1.74,0,0,0,11,36.19a1.86,1.86,0,0,0,1.57-.87l1.44,1.06A3.43,3.43,0,0,1,11,38,3.57,3.57,0,0,1,7.42,34.31Z"/><polygon id="Shape-13" data-name="Shape" class="cls-2" points="14.61 30.57 16.46 30.57 16.46 33.46 18.83 33.46 18.83 30.57 20.68 30.57 20.68 38 18.83 38 18.83 35.16 16.46 35.16 16.46 38 14.61 38 14.61 30.57"/><path id="Shape-14" data-name="Shape" class="cls-2" d="M25.65,30.57h0a1.4,1.4,0,0,1,1.27.91L29.53,38H27.47L27,36.64H24.3L23.8,38h-2l2.59-6.52A1.41,1.41,0,0,1,25.65,30.57Zm.76,4.5L25.65,33l-.78,2.09Z"/></g><rect id="Mascara" class="cls-3" width="48" height="48"/></g></g></g></svg>