<svg xmlns="http://www.w3.org/2000/svg" viewBox="0 0 48 48"><defs><style>.cls-1{fill:none;}</style></defs><g id="Camada_2" data-name="Camada 2"><g id="Artes_48px" data-name="Artes 48px"><g id="TV-Fechado"><g id="TV-Aberto"><path d="M42,8H6a2,2,0,0,0-2,2V34a2,2,0,0,0,2,2H21v3H17a1,1,0,0,0,0,2H31a1,1,0,0,0,0-2H27V36H42a2,2,0,0,0,2-2V10A2,2,0,0,0,42,8ZM25,39H23V36h2Zm17-5H6V10H42Z"/><path d="M39,30H9a1,1,0,0,1,0-2H39a1,1,0,0,1,0,2Z"/><path d="M39,33H34a1,1,0,0,1,0-2h5a1,1,0,0,1,0,2Z"/></g><rect class="cls-1" width="48" height="48"/></g></g></g></svg>