<svg xmlns="http://www.w3.org/2000/svg" viewBox="0 0 48 48"><defs><style>.cls-1{fill:none;}</style></defs><g id="Camada_2" data-name="Camada 2"><g id="Artes_48px" data-name="Artes 48px"><g id="Ver-mais-Fechado"><g id="Ver-mais-Aberto"><path d="M41,35H15a1,1,0,0,1,0-2H41a1,1,0,0,1,0,2Z"/><path d="M41,25H15a1,1,0,0,1,0-2H41a1,1,0,0,1,0,2Z"/><path d="M41,15H15a1,1,0,0,1,0-2H41a1,1,0,0,1,0,2Z"/><path d="M11,17H7a1,1,0,0,1-1-1V12a1,1,0,0,1,1-1h4a1,1,0,0,1,1,1v4A1,1,0,0,1,11,17ZM8,15h2V13H8Z"/><path d="M11,27H7a1,1,0,0,1-1-1V22a1,1,0,0,1,1-1h4a1,1,0,0,1,1,1v4A1,1,0,0,1,11,27ZM8,25h2V23H8Z"/><path d="M11,37H7a1,1,0,0,1-1-1V32a1,1,0,0,1,1-1h4a1,1,0,0,1,1,1v4A1,1,0,0,1,11,37ZM8,35h2V33H8Z"/></g><rect class="cls-1" width="48" height="48"/></g></g></g></svg>