<svg width="200" height="200" viewBox="0 0 200 200" fill="none" xmlns="http://www.w3.org/2000/svg">
<path fill-rule="evenodd" clip-rule="evenodd" d="M152.174 24.4783H160.869C165.652 24.4783 169.565 28.3913 169.565 33.1739V172.304C169.565 177.087 165.652 181 160.869 181H156.522V185.348H139.13V181H60.8694V185.348H43.478V181H39.1302C34.3476 181 30.4346 177.087 30.4346 172.304V33.1739C30.4346 28.3913 34.3476 24.4783 39.1302 24.4783H47.8259V15.7826H82.6085V24.4783H117.391V15.7826H152.174V24.4783ZM39.1302 172.304H160.869V33.1739H39.1302V172.304Z" fill="black"/>
<path fill-rule="evenodd" clip-rule="evenodd" d="M47.8262 76.6522H152.174V163.609H47.8262V76.6522ZM56.5218 154.913H143.478V85.3478H56.5218V154.913Z" fill="black"/>
<rect x="47.8262" y="63.6087" width="104.348" height="8.69565" fill="black"/>
<circle cx="54.3479" cy="48.3913" r="6.52174" fill="black"/>
<circle cx="71.7385" cy="48.3913" r="6.52174" fill="black"/>
<circle cx="89.1301" cy="48.3913" r="6.52174" fill="black"/>
<circle cx="143.478" cy="50.5652" r="8.69565" fill="black"/>
</svg>
