<?xml version="1.0" encoding="UTF-8"?>
<svg width="260px" height="100px" viewBox="0 0 260 100" version="1.1" xmlns="http://www.w3.org/2000/svg" xmlns:xlink="http://www.w3.org/1999/xlink">
    <!-- Generator: Sketch 55.2 (78181) - https://sketchapp.com -->
    <title>Icones/Logo/2cores-fundo-escuro</title>
    <desc>Created with Sketch.</desc>
    <g id="Page-1" stroke="none" stroke-width="1" fill="none" fill-rule="evenodd">
        <g id="Icones/Logo/2cores-fundo-escuro" transform="translate(-0.000000, 0.000000)">
            <g id="logo">
                <path d="M175.102041,37.1929825 C182.353741,37.1929825 188.190476,42.9824561 188.190476,50.1754386 C188.190476,57.3684211 182.353741,63.1578947 175.102041,63.1578947 C167.85034,63.1578947 162.013605,57.3684211 162.013605,50.1754386 C162.013605,42.9824561 167.85034,37.1929825 175.102041,37.1929825 L175.102041,37.1929825 Z M175.102041,20.7017544 C158.653061,20.7017544 145.387755,33.8596491 145.387755,50.1754386 C145.387755,66.4912281 158.653061,79.6491228 175.102041,79.6491228 C191.55102,79.6491228 204.816327,66.4912281 204.816327,50.1754386 C204.816327,33.8596491 191.55102,20.7017544 175.102041,20.7017544 L175.102041,20.7017544 Z" id="Shape" fill="#FFFFFF" fill-rule="nonzero"></path>
                <g id="Group" transform="translate(42.448980, 0.000000)" fill-rule="nonzero">
                    <path d="M50.585034,99.122807 C23.3469388,99.122807 1.06122449,77.0175439 1.06122449,50 C1.06122449,22.9824561 23.3469388,0.877192982 50.585034,0.877192982 C77.8231293,0.877192982 100.108844,22.9824561 100.108844,50 C100.108844,77.0175439 78,99.122807 50.585034,99.122807 Z" id="Shape" fill="#B0D137"></path>
                    <path d="M50.585034,24.5614035 C36.4353741,24.5614035 24.9387755,35.9649123 24.9387755,50 C24.9387755,53.8596491 25.8231293,57.5438596 27.414966,60.7017544 L27.414966,60.7017544 C27.414966,60.7017544 28.2993197,62.4561404 26.707483,64.2105263 L21.2244898,69.6491228 C18.3945578,72.4561404 18.3945578,76.8421053 21.2244898,79.6491228 C22.6394558,81.0526316 24.4081633,81.754386 26.3537415,81.754386 C28.122449,81.754386 30.0680272,81.0526316 31.4829932,79.6491228 L37.4965986,73.6842105 C37.8503401,73.3333333 38.7346939,72.8070175 40.8571429,73.3333333 L40.8571429,73.3333333 C43.8639456,74.5614035 47.2244898,75.4385965 50.7619048,75.4385965 C64.9115646,75.4385965 76.4081633,64.0350877 76.4081633,50 C76.0544218,35.9649123 64.7346939,24.5614035 50.585034,24.5614035 Z" id="Shape" fill="#FFFFFF"></path>
                    <ellipse id="Oval" fill="#B0D137" cx="50.585034" cy="50" rx="12.9115646" ry="12.8070175"></ellipse>
                </g>
                <path d="M42.0952381,27.1929825 C40.8571429,24.7368421 38.3809524,23.3333333 35.7278912,23.3333333 L7.95918367,23.3333333 C7.25170068,23.3333333 6.01360544,23.6842105 6.01360544,25.9649123 L6.01360544,37.0175439 C6.01360544,37.7192982 6.54421769,37.8947368 6.72108844,37.8947368 L18.3945578,37.8947368 C18.5714286,37.8947368 18.7482993,37.8947368 19.1020408,37.8947368 C19.8095238,38.0701754 20.1632653,38.9473684 19.8095238,39.6491228 C19.8095238,39.6491228 19.8095238,39.8245614 19.6326531,39.8245614 L18.9251701,40.7017544 L14.3265306,46.8421053 L14.3265306,46.8421053 C9.37414966,53.5087719 2.82993197,63.8596491 1.59183673,65.2631579 C1.76870748,65.4385965 1.76870748,65.4385965 1.76870748,65.4385965 C0.176870748,67.5438596 -0.176870748,70.5263158 1.06122449,72.9824561 C2.29931973,75.4385965 4.7755102,76.8421053 7.42857143,76.8421053 L38.2040816,76.8421053 C38.9115646,76.8421053 40.1496599,76.4912281 40.1496599,74.2105263 L40.1496599,63.1578947 C40.1496599,62.4561404 39.6190476,62.2807018 39.4421769,62.2807018 L24.7619048,62.2807018 C24.585034,62.2807018 24.4081633,62.2807018 24.0544218,62.2807018 C23.3469388,62.1052632 22.9931973,61.2280702 23.3469388,60.5263158 C23.3469388,60.5263158 23.3469388,60.3508772 23.5238095,60.3508772 L24.2312925,59.4736842 L28.829932,53.3333333 C28.829932,53.3333333 40.3265306,36.4912281 41.3877551,34.9122807 C41.5646259,34.7368421 41.5646259,34.7368421 41.5646259,34.7368421 C43.1564626,32.6315789 43.3333333,29.6491228 42.0952381,27.1929825 Z" id="Shape" fill="#FFFFFF" fill-rule="nonzero"></path>
                <path d="M254.693878,23.6842105 C251.863946,22.6315789 248.680272,23.5087719 246.734694,25.6140351 L234,40 C233.646259,40.3508772 233.292517,40 233.292517,40 L233.292517,40 L220.557823,25.4385965 C218.612245,23.1578947 215.428571,22.4561404 212.598639,23.5087719 C209.768707,24.5614035 207.823129,27.1929825 207.823129,30.1754386 L207.823129,75.7894737 C207.823129,76.1403509 208,76.6666667 208.884354,76.6666667 L208.884354,76.6666667 L219.142857,76.6666667 C219.142857,76.6666667 222.14966,76.6666667 222.14966,73.3333333 L222.14966,73.3333333 L222.14966,73.3333333 L222.14966,63.6842105 L222.14966,50.1754386 C222.14966,50.1754386 222.326531,49.6491228 222.857143,49.8245614 L228.163265,55.7894737 C229.578231,57.3684211 231.52381,58.245614 233.646259,58.245614 C233.646259,58.245614 233.646259,58.245614 233.646259,58.245614 L233.646259,58.245614 C233.646259,58.245614 233.646259,58.245614 233.646259,58.245614 C235.768707,58.245614 237.714286,57.3684211 239.129252,55.7894737 L244.435374,49.8245614 C244.965986,49.4736842 245.142857,50.1754386 245.142857,50.1754386 L245.142857,63.6842105 L245.142857,73.3333333 L245.142857,73.3333333 L245.142857,73.3333333 C245.142857,76.6666667 248.14966,76.6666667 248.14966,76.6666667 L258.408163,76.6666667 L258.408163,76.6666667 C259.292517,76.6666667 259.469388,76.1403509 259.469388,75.7894737 L259.469388,30.1754386 C259.292517,27.3684211 257.52381,24.7368421 254.693878,23.6842105 Z" id="Shape" fill="#FFFFFF" fill-rule="nonzero"></path>
            </g>
        </g>
    </g>
</svg>