<svg xmlns="http://www.w3.org/2000/svg" width="52" height="72" viewBox="0 0 52 72" class="partners__featured--image">
  <path id="logo" fill="#7d97ad" fill-rule="evenodd" d="M30.147 30.6c-1.248.398-2.577.612-3.956.612-1.37 0-2.7-.214-3.95-.61-1.46-.464-2.36-1.957-2.05-3.468.57-2.748 1.99-5.182 3.97-7.015 1.16-1.07 2.92-1.07 4.07 0 1.98 1.83 3.4 4.26 3.97 7.01.32 1.51-.58 3-2.04 3.47m7.04-1.4l-8.3-14.47c-.26-.46-.74-.74-1.26-.74h-2.89c-.52 0-1 .28-1.26.732L15.198 29.2c-.26.454-.26 1.015 0 1.47l1.44 2.514c.26.454.742.735 1.263.735h16.586c.52 0 1.002-.28 1.263-.74l1.44-2.52c.26-.46.26-1.02 0-1.47m.172 18.57l-5.006 9.93c-.08.16-.243.26-.423.26h-1.65c-.18 0-.34-.1-.423-.26l-5.003-9.925c-.086-.165-.078-.36.012-.523l.533-.933c.11-.18.3-.29.51-.29h.49c.13 0 .247.07.3.19l4.207 8.43c.09.177.34.177.43 0l4.207-8.434c.055-.115.17-.185.3-.185h.483c.205 0 .397.11.5.29l.536.938c.09.16.096.356.013.52m-24.8 0L7.57 57.7c-.08.16-.24.26-.42.26H5.49c-.18 0-.34-.1-.425-.26L.06 47.78c-.085-.166-.078-.363.012-.524l.536-.934c.103-.18.294-.29.5-.29h.487c.125 0 .243.07.298.186L6.1 54.652c.088.177.34.177.427 0l4.205-8.434c.055-.116.173-.186.3-.186h.485c.206 0 .397.11.5.29l.537.936c.092.16.097.358.014.523m7.17-1.6c-.087-.08-.207-.14-.34-.14h-.75c-.206 0-.397.12-.5.3l-.534.937c-.047.085-.073.18-.073.276v9.95c0 .265.22.48.48.48h1.39c.27 0 .48-.214.48-.48V46.52c0-.135-.05-.256-.14-.344m23.21.15c.106-.18.298-.293.5-.293h7.17c.206 0 .39.11.49.287l.508.875c.073.127.11.27.11.414v.21c0 .18-.145.32-.325.32h-6.54c-.134 0-.24.11-.24.24v2.283c0 .132.105.24.237.24h4.43c.214.003.39.18.39.396v1.312c0 .215-.177.393-.394.393h-4.43c-.132 0-.24.11-.24.244v2.35c0 .132.106.24.238.24H51.4c.18 0 .326.145.326.324v.22c0 .145-.04.288-.11.413l-.51.878c-.1.176-.29.285-.49.285h-7.17c-.205 0-.397-.11-.5-.29l-.5-.87c-.07-.12-.11-.26-.11-.41l.002-8.79c0-.14.038-.282.11-.41l.498-.865z"></path>
</svg>
