<?xml version="1.0" encoding="utf-8"?>
<!-- Generator: Adobe Illustrator 16.0.0, SVG Export Plug-In . SVG Version: 6.00 Build 0)  -->
<!DOCTYPE svg PUBLIC "-//W3C//DTD SVG 1.1//EN" "http://www.w3.org/Graphics/SVG/1.1/DTD/svg11.dtd">
<svg version="1.1" id="Layer_1" xmlns="http://www.w3.org/2000/svg" xmlns:xlink="http://www.w3.org/1999/xlink" x="0px" y="0px"
	 width="97px" height="72px" viewBox="0 0 97 72" enable-background="new 0 0 97 72" xml:space="preserve">
<g>
	<rect fill="none" width="97" height="71.637"/>
	<g transform="translate(0 12)">
		<path fill="#7D97AD" d="M3.412,40.609c-1.6,0-2.4,0.613-2.4,1.838c0,1.066,0.565,1.6,1.697,1.6c0.434,0,0.903-0.084,1.406-0.255
			c0.503-0.17,1.012-0.419,1.526-0.749v-2.127C4.863,40.713,4.12,40.609,3.412,40.609 M3.652,35.932
			c1.977,0,2.965,0.846,2.965,2.535v6.022c0,0.171-0.086,0.255-0.257,0.255H6c-0.172,0-0.264-0.084-0.274-0.255l-0.069-0.731
			c-0.983,0.783-2.012,1.174-3.085,1.174c-0.789,0-1.415-0.224-1.877-0.672C0.231,43.812,0,43.213,0,42.465
			c0-0.828,0.283-1.48,0.849-1.957s1.346-0.714,2.34-0.714c0.366,0,0.765,0.034,1.2,0.103c0.434,0.067,0.852,0.164,1.251,0.289
			v-1.43c0-0.691-0.166-1.188-0.497-1.488c-0.332-0.301-0.88-0.451-1.646-0.451c-0.708,0-1.457,0.113-2.246,0.341
			c-0.126,0.034-0.226,0.065-0.3,0.094c-0.075,0.028-0.135,0.043-0.18,0.043c-0.137,0-0.206-0.074-0.206-0.222V36.8
			c0-0.17,0.074-0.282,0.223-0.34c0.434-0.17,0.9-0.301,1.397-0.392C2.683,35.977,3.171,35.932,3.652,35.932 M18.823,35.932
			c0.788,0,1.388,0.219,1.8,0.654c0.411,0.438,0.617,1.081,0.617,1.932v5.973c0,0.171-0.086,0.255-0.257,0.255H20.52
			c-0.171,0-0.257-0.084-0.257-0.255v-5.563c0-0.747-0.129-1.286-0.386-1.616c-0.257-0.328-0.677-0.492-1.26-0.492
			c-1.097,0-2.131,0.356-3.103,1.07c0.035,0.272,0.052,0.539,0.052,0.801v5.802c0,0.171-0.086,0.255-0.257,0.255h-0.463
			c-0.171,0-0.257-0.084-0.257-0.255v-5.563c0-0.748-0.128-1.287-0.385-1.615c-0.257-0.33-0.677-0.494-1.26-0.494
			c-1.063,0-2.08,0.347-3.051,1.037v6.637c0,0.171-0.086,0.255-0.257,0.255H9.172c-0.172,0-0.257-0.084-0.257-0.255v-8.049
			c0-0.17,0.085-0.254,0.257-0.254h0.343c0.171,0,0.268,0.084,0.291,0.254l0.069,0.683c0.514-0.375,1.051-0.667,1.611-0.877
			s1.114-0.313,1.663-0.313c1.074,0,1.794,0.437,2.16,1.31c0.549-0.431,1.123-0.757,1.723-0.978
			C17.632,36.042,18.229,35.932,18.823,35.932 M26.4,40.609c-1.6,0-2.4,0.613-2.4,1.838c0,1.066,0.565,1.6,1.697,1.6
			c0.434,0,0.903-0.084,1.405-0.255c0.503-0.17,1.012-0.419,1.526-0.749v-2.127C27.851,40.713,27.108,40.609,26.4,40.609
			 M26.64,35.932c1.977,0,2.965,0.846,2.965,2.535v6.022c0,0.171-0.085,0.255-0.257,0.255h-0.36c-0.172,0-0.263-0.084-0.274-0.255
			l-0.068-0.731c-0.983,0.783-2.012,1.174-3.086,1.174c-0.789,0-1.415-0.224-1.877-0.672c-0.463-0.447-0.695-1.047-0.695-1.795
			c0-0.828,0.283-1.48,0.849-1.957s1.346-0.714,2.34-0.714c0.366,0,0.766,0.034,1.2,0.103c0.434,0.067,0.852,0.164,1.251,0.289
			v-1.43c0-0.691-0.166-1.188-0.497-1.488c-0.332-0.301-0.88-0.451-1.646-0.451c-0.708,0-1.457,0.113-2.246,0.341
			c-0.125,0.034-0.226,0.065-0.3,0.094c-0.075,0.028-0.134,0.043-0.18,0.043c-0.137,0-0.206-0.074-0.206-0.222V36.8
			c0-0.17,0.074-0.282,0.223-0.34c0.434-0.17,0.9-0.301,1.397-0.392C25.67,35.977,26.16,35.932,26.64,35.932 M37.8,44.148v0.341
			c0,0.171-0.085,0.255-0.257,0.255h-6.034c-0.171,0-0.257-0.084-0.257-0.255v-0.356c0-0.113,0.015-0.205,0.043-0.273
			c0.029-0.066,0.083-0.146,0.163-0.236l5.211-6.585H31.68c-0.171,0-0.257-0.085-0.257-0.255v-0.342c0-0.17,0.086-0.254,0.257-0.254
			h5.829c0.172,0,0.257,0.084,0.257,0.254v0.357c0,0.092-0.015,0.176-0.043,0.256c-0.029,0.079-0.088,0.17-0.18,0.271l-5.229,6.568
			h5.229C37.714,43.895,37.8,43.979,37.8,44.148 M42.84,44.115c1.977,0,2.966-1.219,2.966-3.658c0-2.428-0.989-3.641-2.966-3.641
			s-2.966,1.213-2.966,3.641C39.874,42.896,40.863,44.115,42.84,44.115 M42.84,45c-1.246,0-2.22-0.395-2.923-1.184
			c-0.703-0.787-1.054-1.907-1.054-3.359s0.351-2.568,1.054-3.352s1.677-1.174,2.923-1.174c1.246,0,2.22,0.391,2.922,1.174
			c0.703,0.781,1.055,1.898,1.055,3.352s-0.352,2.572-1.055,3.359C45.06,44.605,44.085,45,42.84,45 M53.229,35.932
			c0.847,0,1.485,0.219,1.92,0.654c0.435,0.438,0.651,1.081,0.651,1.932v5.973c0,0.171-0.086,0.255-0.257,0.255H55.08
			c-0.172,0-0.258-0.084-0.258-0.255v-5.563c0-0.747-0.143-1.286-0.428-1.616c-0.287-0.328-0.744-0.492-1.373-0.492
			c-0.605,0-1.183,0.094-1.73,0.279c-0.549,0.188-1.086,0.457-1.611,0.81v6.584c0,0.171-0.086,0.255-0.258,0.255H48.96
			c-0.172,0-0.257-0.084-0.257-0.255v-8.048c0-0.17,0.085-0.256,0.257-0.256h0.343c0.172,0,0.268,0.086,0.291,0.256l0.068,0.731
			c0.549-0.397,1.132-0.702,1.749-0.92C52.027,36.039,52.634,35.932,53.229,35.932 M93.738,40.609c-1.6,0-2.399,0.613-2.399,1.838
			c0,1.066,0.565,1.6,1.697,1.6c0.435,0,0.903-0.084,1.405-0.255c0.502-0.17,1.012-0.419,1.525-0.749v-2.127
			C95.189,40.713,94.447,40.609,93.738,40.609L93.738,40.609z M93.979,35.932c1.979,0,2.967,0.846,2.967,2.535v6.022
			c0,0.171-0.086,0.255-0.258,0.255h-0.358c-0.172,0-0.265-0.084-0.274-0.255l-0.068-0.731c-0.982,0.783-2.012,1.174-3.086,1.174
			c-0.789,0-1.414-0.224-1.877-0.672c-0.463-0.447-0.694-1.047-0.694-1.795c0-0.828,0.282-1.48,0.849-1.957s1.346-0.714,2.34-0.714
			c0.366,0,0.767,0.034,1.2,0.103c0.435,0.067,0.853,0.164,1.253,0.289v-1.43c0-0.691-0.166-1.188-0.498-1.488
			s-0.881-0.451-1.646-0.451c-0.708,0-1.457,0.113-2.246,0.341c-0.125,0.034-0.226,0.065-0.3,0.094s-0.135,0.043-0.18,0.043
			c-0.138,0-0.207-0.074-0.207-0.222V36.8c0-0.17,0.074-0.282,0.225-0.34c0.436-0.17,0.898-0.301,1.396-0.392
			C93.01,35.977,93.498,35.932,93.979,35.932L93.979,35.932z M85.652,40.968l-2.485,3.591c-0.092,0.125-0.212,0.187-0.36,0.187
			h-0.479c-0.148,0-0.225-0.062-0.225-0.187c0-0.047,0.041-0.119,0.121-0.223l2.933-4.049l-2.677-3.709
			c-0.067-0.104-0.102-0.17-0.102-0.204c0-0.125,0.074-0.188,0.223-0.188h0.531c0.148,0,0.268,0.062,0.359,0.188l2.246,3.165
			l2.246-3.165c0.091-0.125,0.205-0.188,0.342-0.188h0.463c0.148,0,0.225,0.062,0.225,0.188c0,0.046-0.035,0.118-0.104,0.221
			l-2.641,3.624l2.932,4.117c0.068,0.104,0.104,0.176,0.104,0.223c0,0.125-0.074,0.187-0.224,0.187H88.55
			c-0.138,0-0.251-0.062-0.343-0.187L85.652,40.968z M77.734,36.799c-0.855,0-1.533,0.25-2.03,0.749s-0.798,1.229-0.899,2.194
			c0.445,0.113,0.889,0.199,1.328,0.256s0.883,0.084,1.328,0.084c0.857,0,1.486-0.124,1.887-0.373
			c0.399-0.25,0.601-0.646,0.601-1.191C79.947,37.371,79.209,36.799,77.734,36.799L77.734,36.799z M79.912,43.826
			c0.148-0.045,0.258-0.082,0.326-0.111c0.068-0.027,0.131-0.042,0.189-0.042c0.137,0,0.204,0.073,0.204,0.222v0.238
			c0,0.182-0.062,0.301-0.188,0.356C79.621,44.83,78.747,45,77.82,45c-1.313,0-2.316-0.377-3.008-1.131
			c-0.691-0.755-1.037-1.857-1.037-3.311c0-0.715,0.092-1.357,0.273-1.931c0.184-0.573,0.448-1.062,0.797-1.464
			c0.35-0.403,0.774-0.709,1.277-0.919s1.068-0.313,1.697-0.313c0.994,0,1.763,0.227,2.306,0.68c0.543,0.455,0.813,1.09,0.813,1.906
			c0,0.806-0.289,1.397-0.864,1.777c-0.578,0.38-1.474,0.569-2.685,0.569c-0.435,0-0.871-0.025-1.312-0.076
			c-0.44-0.052-0.877-0.14-1.312-0.265c0,1.226,0.26,2.129,0.779,2.713c0.521,0.586,1.301,0.878,2.34,0.878
			C78.564,44.115,79.238,44.02,79.912,43.826L79.912,43.826z M70.576,32.409c0-0.17,0.086-0.255,0.258-0.255h0.463
			c0.171,0,0.258,0.085,0.258,0.255v10.854c0,0.25,0.049,0.426,0.146,0.527c0.098,0.104,0.271,0.152,0.522,0.152
			c0.068,0,0.146-0.006,0.231-0.018c0.085-0.011,0.157-0.017,0.214-0.017c0.16,0,0.24,0.079,0.24,0.237v0.323
			c0,0.138-0.074,0.222-0.223,0.255c-0.068,0.022-0.17,0.041-0.302,0.053c-0.131,0.01-0.247,0.017-0.352,0.017
			c-0.457,0-0.813-0.134-1.07-0.399c-0.258-0.267-0.387-0.639-0.387-1.114L70.576,32.409L70.576,32.409z M65.107,40.609
			c-1.601,0-2.399,0.613-2.399,1.838c0,1.066,0.565,1.6,1.696,1.6c0.436,0,0.904-0.084,1.406-0.255
			c0.504-0.17,1.012-0.419,1.525-0.749v-2.127C66.561,40.713,65.816,40.609,65.107,40.609L65.107,40.609z M65.348,35.932
			c1.979,0,2.967,0.846,2.967,2.535v6.022c0,0.171-0.086,0.255-0.258,0.255h-0.359c-0.172,0-0.264-0.084-0.274-0.255l-0.067-0.731
			c-0.982,0.783-2.013,1.174-3.086,1.174c-0.789,0-1.414-0.224-1.877-0.672c-0.463-0.447-0.693-1.047-0.693-1.795
			c0-0.828,0.283-1.48,0.848-1.957c0.566-0.477,1.346-0.714,2.342-0.714c0.364,0,0.764,0.034,1.199,0.103
			c0.434,0.067,0.852,0.164,1.251,0.289v-1.43c0-0.691-0.166-1.188-0.497-1.488c-0.332-0.301-0.881-0.451-1.646-0.451
			c-0.707,0-1.457,0.113-2.244,0.341c-0.126,0.034-0.227,0.065-0.301,0.094c-0.073,0.029-0.135,0.043-0.18,0.043
			c-0.138,0-0.205-0.074-0.205-0.222V36.8c0-0.17,0.072-0.282,0.223-0.34c0.435-0.17,0.9-0.301,1.396-0.392
			C64.382,35.977,64.868,35.932,65.348,35.932L65.348,35.932z"/>
		<path fill="#7D97AD" d="M48.472,0c-7.753,0-14.039,6.238-14.039,13.934c0,7.065,5.299,12.902,12.167,13.811v-2.81
			c0-0.791-0.503-1.501-1.259-1.753c-3.963-1.321-6.798-5.081-6.693-9.482c0.127-5.359,4.525-9.572,9.926-9.518
			c5.38,0.054,9.725,4.4,9.725,9.753c0,0.122-0.002,0.244-0.007,0.365c-0.001,0.027-0.002,0.054-0.003,0.081
			c-0.006,0.112-0.012,0.224-0.021,0.335c-0.002,0.036-0.006,0.071-0.009,0.106c-0.007,0.078-0.015,0.155-0.024,0.232
			c-0.01,0.088-0.021,0.175-0.032,0.261c-0.007,0.04-0.013,0.079-0.019,0.119c-1.203,7.865-11.525,12.286-11.582,12.31
			c0.612,0.081,1.236,0.123,1.871,0.123c7.753,0,14.041-6.238,14.041-13.934C62.514,6.237,56.227,0,48.472,0"/>
	</g>
</g>
</svg>
