<?xml version="1.0" encoding="UTF-8"?>
<svg width="86px" height="72px" viewBox="0 0 86 72" version="1.1" xmlns="http://www.w3.org/2000/svg" xmlns:xlink="http://www.w3.org/1999/xlink">
    <!-- Generator: Sketch 50.2 (55047) - http://www.bohemiancoding.com/sketch -->
    <title>color/logo-gray-ibm</title>
    <desc>Created with Sketch.</desc>
    <defs></defs>
    <g id="color/logo-gray-ibm" stroke="none" stroke-width="1" fill="none" fill-rule="evenodd">
        <path d="M17.7749415,45.7097903 L42.4223317,45.7097903 C42.387722,46.2076097 41.9157707,47.5672347 41.6934293,47.8835681 L17.7749415,47.8835681 L17.7749415,45.7097903 Z M17.7754659,25.1186194 L41.7338073,25.1186194 C41.9404171,25.4765222 42.4060756,26.8300639 42.4648073,27.2923972 L17.7754659,27.2923972 L17.7754659,25.1186194 Z M22.218939,37.4733625 L39.3161585,37.4733625 C39.873061,37.8505292 40.905061,39.0905153 41.3182805,39.6471403 L22.218939,39.6471403 L22.218939,37.4733625 Z M35.5510366,43.7656583 L35.5510366,41.5918806 L42.2884024,41.5918806 C42.4645976,42.0278528 42.6953293,43.1968667 42.6775,43.7656583 L35.5510366,43.7656583 Z M22.218939,35.528825 L22.218939,33.3550472 L41.3361098,33.3550472 C40.9228902,33.9116722 39.8992805,35.1506444 39.342378,35.528825 L22.218939,35.528825 Z M35.5510366,29.2370361 L42.6512805,29.2370361 C42.6491829,29.7409389 42.4551585,30.9738278 42.2800122,31.4108139 L35.5510366,31.4108139 L35.5510366,29.2370361 Z M17.7749415,49.8282069 L40.060478,49.8282069 C38.0856244,51.4463736 36.3415024,52.0019847 33.2822098,52.0019847 L31.0766244,52.0019847 L17.7749415,52.0019847 L17.7749415,49.8282069 Z M17.7754659,23.1739806 L17.7754659,21.0002028 L31.0771488,21.0002028 L33.2827341,21.0002028 C36.3420268,21.0002028 38.0861488,21.5558139 40.0610024,23.1739806 L17.7754659,23.1739806 Z M0,23.1737778 L0,21 L15.5534146,21 L15.5534146,23.1737778 L0,23.1737778 Z M0,27.2921944 L0,25.1184167 L15.5534146,25.1184167 L15.5534146,27.2921944 L0,27.2921944 Z M0,47.8832639 L0,45.7094861 L15.5534146,45.7094861 L15.5534146,47.8832639 L0,47.8832639 Z M4.44368293,43.7658611 L4.44368293,41.5920833 L11.1097317,41.5920833 L11.1097317,43.7658611 L4.44368293,43.7658611 Z M4.44368293,39.6474444 L4.44368293,37.4736667 L11.1097317,37.4736667 L11.1097317,39.6474444 L4.44368293,39.6474444 Z M4.44368293,35.5290278 L4.44368293,33.35525 L11.1097317,33.35525 L11.1097317,35.5290278 L4.44368293,35.5290278 Z M4.44368293,31.4106111 L4.44368293,29.2368333 L11.1097317,29.2368333 L11.1097317,31.4106111 L4.44368293,31.4106111 Z M22.2194634,43.7658611 L22.2194634,41.5920833 L28.8844634,41.5920833 L28.8844634,43.7658611 L22.2194634,43.7658611 Z M22.2194634,31.4106111 L22.2194634,29.2368333 L28.8844634,29.2368333 L28.8844634,31.4106111 L22.2194634,31.4106111 Z M59.1311878,43.7656583 L58.3487976,41.5918806 L66.0793585,41.5918806 L65.2969683,43.7656583 L59.1311878,43.7656583 Z M57.6481073,39.6472417 L56.8657171,37.4734639 L67.5622293,37.4734639 L66.779839,39.6472417 L57.6481073,39.6472417 Z M0,52.0016806 L0,49.8279028 L15.5534146,49.8279028 L15.5534146,52.0016806 L0,52.0016806 Z M62.0982927,52.0019847 L61.3148537,49.8282069 L63.1135122,49.8282069 L62.3300732,52.0019847 L62.0982927,52.0019847 Z M48.8826098,43.7658611 L48.8826098,41.5920833 L55.5486585,41.5920833 L55.5486585,43.7658611 L48.8826098,43.7658611 Z M48.8826098,39.6474444 L48.8826098,37.4736667 L55.5486585,37.4736667 L55.5486585,39.6474444 L48.8826098,39.6474444 Z M44.4389268,52.0016806 L44.4389268,49.8279028 L55.5476098,49.8279028 L55.5476098,52.0016806 L44.4389268,52.0016806 Z M44.4389268,47.8832639 L44.4389268,45.7094861 L55.5476098,45.7094861 L55.5476098,47.8832639 L44.4389268,47.8832639 Z M60.6152122,47.8835681 L59.8317732,45.7097903 L64.5963829,45.7097903 L63.8139927,47.8835681 L60.6152122,47.8835681 Z M68.8807561,43.7658611 L68.8807561,41.5920833 L75.5457561,41.5920833 L75.5457561,43.7658611 L68.8807561,43.7658611 Z M68.8807561,39.6474444 L68.8807561,37.4736667 L75.5457561,37.4736667 L75.5457561,39.6474444 L68.8807561,39.6474444 Z M68.8797073,52.0016806 L68.8797073,49.8279028 L79.9904878,49.8279028 L79.9904878,52.0016806 L68.8797073,52.0016806 Z M68.8807561,47.8832639 L68.8807561,45.7094861 L79.9904878,45.7094861 L79.9904878,47.8832639 L68.8807561,47.8832639 Z M59.9966415,29.2370361 L60.7937146,31.4108139 L48.8816659,31.4108139 L48.8816659,29.2370361 L59.9966415,29.2370361 Z M62.922739,33.3549458 L75.545861,33.3549458 L75.545861,35.5287236 L68.880861,35.5287236 L68.880861,33.8284319 L68.8798122,33.8284319 L68.8798122,33.8162653 L68.2631293,35.5287236 L56.1654463,35.5287236 L55.5487634,33.8162653 L55.5487634,35.5287236 L48.8827146,35.5287236 L48.8827146,33.3549458 L61.5058366,33.3549458 L62.2137634,35.3056681 L62.922739,33.3549458 Z M56.9793,21.0007097 L57.7763732,23.1744875 L44.4390317,23.1744875 L44.4390317,21.0007097 L56.9793,21.0007097 Z M58.4879707,25.1186194 L59.2850439,27.2923972 L44.4385073,27.2923972 L44.4385073,25.1186194 L58.4879707,25.1186194 Z M64.4314098,29.2370361 L75.5463854,29.2370361 L75.5463854,31.4108139 L63.6343366,31.4108139 L64.4314098,29.2370361 Z M67.4486463,21.0007097 L79.9899634,21.0007097 L79.9899634,23.1744875 L66.652622,23.1744875 L67.4486463,21.0007097 Z M65.9399756,25.1186194 L79.989439,25.1186194 L79.989439,27.2923972 L65.1429024,27.2923972 L65.9399756,25.1186194 Z M84.1267732,50.2752306 C84.4047,50.2752306 84.8116268,50.3198417 84.8116268,49.93355 C84.8116268,49.6374944 84.5620171,49.6009944 84.3218463,49.6009944 L83.7607488,49.6009944 L83.7607488,50.2752306 L84.1267732,50.2752306 Z M85.0476024,51.3357583 L84.7602366,51.3357583 L84.2001878,50.4597583 L83.7607488,50.4597583 L83.7607488,51.3357583 L83.520578,51.3357583 L83.520578,49.4347167 L84.3763829,49.4347167 C84.8944805,49.4347167 85.0706756,49.6233 85.0706756,49.9386194 C85.0706756,50.3117306 84.8032366,50.4506333 84.4550415,50.4597583 L85.0476024,51.3357583 Z M85.6443585,50.3837167 C85.6443585,49.5563833 85.0234805,48.9095222 84.1729195,48.9095222 C83.3181634,48.9095222 82.6930902,49.5563833 82.6930902,50.3837167 C82.6930902,51.2191611 83.3181634,51.8660222 84.1729195,51.8660222 C85.0234805,51.8660222 85.6443585,51.2191611 85.6443585,50.3837167 L85.6443585,50.3837167 Z M82.4151634,50.3837167 C82.4151634,49.4489111 83.2017488,48.6844389 84.1729195,48.6844389 C85.1409439,48.6844389 85.9222854,49.4489111 85.9222854,50.3837167 C85.9222854,51.3276472 85.1409439,52.0911056 84.1729195,52.0911056 C83.2017488,52.0911056 82.4151634,51.3276472 82.4151634,50.3837167 L82.4151634,50.3837167 Z" id="Combined-Shape" fill="#7D97AD"></path>
    </g>
</svg>