<svg xmlns="http://www.w3.org/2000/svg" width="190" height="72" viewBox="0 0 190 72">
  <path id="logo" fill="#7d97ad" fill-rule="evenodd" d="M40.576926 48.255468l-14.48593-12.33237L22.91175 17.83183c11.19552.11164 20.237124 9.235507 20.237124 20.47523 0 3.61081-.934058 7.002738-2.571948 9.948407zm-.215012.37242l.106482-.184306.00234.001466c-.035396.061532-.070793.122772-.106774.184012l-.002048-.001172zm-17.65757 10.157035c-7.44174 0-13.954104-3.982938-17.530317-9.936688l17.059047-6.693318 18.01212 6.67515c-3.57358 5.963713-10.09121 9.954856-17.54085 9.954856zM4.910164 48.395235l.002632-.001758.11438.198957-.002925.001758c-.03861-.06622-.07635-.132736-.11408-.198957zm17.32291-30.559888l-2.7697 18.08775L4.79754 48.193057c-1.616243-2.931313-2.53743-6.300387-2.53743-9.886 0-11.15123 8.900018-20.22089 19.972967-20.47171zm.47127-.00586c.015798 0 .031303.000586.046514.000586v.002637l-.180785.00088.000293-.002638c.04505 0 .089222-.001465.13398-.001465zm0-2.26412C10.165224 15.565367 0 25.74731 0 38.30706c0 12.559746 10.16522 22.74198 22.704345 22.74198 12.539123 0 22.704637-10.182234 22.704637-22.741983 0-12.55975-10.165514-22.741692-22.704637-22.741692zm118.974638 26.064778V40.47206h4.908332v1.158085m-86.507188-8.176782l-.439167 11.60717v.201788c0 .98262.28416 1.18441 1.82555 1.29846v.53518c-1.11945-.08773-1.55861-.11405-2.17-.11405-.61139 0-1.05056.02632-2.19583.11406v-.53517c1.53278-.11405 1.75666-.28952 1.79972-1.50024l.465-10.98426v-.1316c0-1.02648-.31-1.25459-1.82556-1.34232v-.56149c.8525.07019 1.18833.08774 1.79972.08774.80944 0 1.24861-.02632 2.08389-.11405l4.08166 11.31765 4.15055-11.31765c.99028.08774 1.44666.11406 2.10972.11406.55111 0 .90416-.02632 1.73083-.08773v.561497c-1.48973.087737-1.82556.315845-1.82556 1.31601v.15792l.24111 10.98426c.02583 1.210723.21528 1.38619 1.79972 1.500244v.53517c-1.38639-.1316-1.91167-.175467-2.74695-.175467s-1.36056.043865-2.74694.175466v-.53518c1.48972-.087735 1.82555-.33339 1.82555-1.38619v-.114058l-.19805-11.58963-3.62528 9.975324-.26695.73696-.31.824697-.28417.85102-.24111.73696h-.32722l-.24111-.71942-.31-.86856-.31-.86856-.266946-.78083-3.58222-9.90514zm19.34916 13.08987c-1.997778 0-2.87611-1.56166-2.901945-5.053462h6.54445c-.04305-3.44793-1.42944-5.28156-4.02138-5.28156-2.635 0-4.27972 2.16703-4.27972 5.61496 0 3.44794 1.64472 5.45704 4.47778 5.45704 2.15278 0 3.55639-1.36864 3.84056-3.66727h-.87833c-.25833 1.90383-1.22278 2.93031-2.78139 2.93031zm-2.85889-5.860612c.22389-2.57059 1.050556-3.89537 2.462778-3.89537 1.429444 0 2.152777 1.25459 2.281943 3.89538h-4.74472zm7.810276-3.64972v-.40357c1.24861-.11405 1.997777-.24565 2.901943-.51763.111944.8247.155 1.18441.198055 1.85996v.24566c.482222-1.27214 1.429444-2.0091 2.56611-2.0091 1.102222 0 1.911666.73697 1.911666 1.81609 0 .64923-.370277 1.07035-.921388 1.07035-.508055 0-.904166-.31584-.904166-.76328 0-.04387.025833-.1316.043055-.21933l.043056-.2281v-.20178c0-.31584-.266945-.53517-.663056-.53517-1.145277 0-1.86861 1.41251-1.86861 3.6234v4.6762c0 .96507.22389 1.14054 1.55861 1.21073v.44744c-1.205555-.114053-1.670554-.1316-2.436943-.1316-.792222 0-1.24861.02632-2.462777.1316v-.44744c1.343333-.070186 1.584444-.245653 1.584444-1.210724v-7.317c-.02583-.96507-.12916-1.07035-1.27444-1.09667h-.27555zm15.973604-1.02648v3.69359h-.482222c-.39611-1.94769-1.205555-2.88644-2.548888-2.88644-1.64472 0-2.609165 1.81609-2.609165 5.0096 0 3.1321.8525 4.72008 2.54889 4.72008 1.36056 0 2.17-.98261 2.43695-2.95662h.90417c-.28416 2.39513-1.53277 3.69359-3.51333 3.69359-2.54889 0-4.27972-2.19334-4.27972-5.45704 0-3.33388 1.75667-5.61496 4.34861-5.61496.94722 0 1.53278.24566 2.23889.93875l.59417-1.14053h.36167zm6.45833 10.53682c-1.997776 0-2.87611-1.56166-2.901942-5.05346h6.544442c-.043056-3.44793-1.429444-5.28156-4.021388-5.28156-2.634998 0-4.27972 2.16703-4.27972 5.61496s1.644722 5.45704 4.477776 5.45704c2.152777 0 3.556387-1.36864 3.840554-3.66727h-.878333c-.258333 1.90383-1.222777 2.93031-2.781388 2.93031zm-2.850275-5.86061c.22389-2.57059 1.05056-3.89537 2.46278-3.89537 1.42945 0 2.15278 1.25459 2.28195 3.89538h-4.74472zm16.70555 4.09717V31.86539c-1.10222.298295-2.08389.473762-3.31527.614136v.37725c1.38639 0 1.55861.15792 1.55861 1.316007v3.91292c-.80944-1.342325-1.44666-1.7459-2.635-1.7459-2.35083 0-3.99555 2.26353-3.99555 5.483357s1.67056 5.483356 4.06445 5.483356c1.24861 0 2.10972-.579043 2.72111-1.833635.08611.85102.08611.93875.31 1.78977.90417-.28952 1.27445-.37725 2.56611-.53517l.32722-.04386v-.37725c-1.4725-.05264-1.60166-.16669-1.60166-1.52656zm-4.12472 1.89505c-1.58444 0-2.41111-1.67571-2.41111-4.87799 0-3.24615.76639-4.83413 2.35083-4.83413 1.6275 0 2.46278 1.70204 2.46278 4.99205-.00861 3.11455-.82666 4.72008-2.4025 4.72008zm11.21166-.1316c-1.99777 0-2.87611-1.56166-2.90194-5.05346h6.54444c-.04305-3.44793-1.42944-5.28156-4.02138-5.28156-2.635 0-4.27972 2.16703-4.27972 5.61496 0 3.44794 1.64472 5.45704 4.47778 5.45704 2.15278 0 3.55639-1.36864 3.84056-3.66727h-.87833c-.24972 1.90383-1.22278 2.93031-2.78139 2.93031zm-2.85027-5.86061c.21528-2.57059 1.05056-3.89537 2.46278-3.89537 1.42945 0 2.15278 1.25459 2.28195 3.89538h-4.74472zm8.36139 6.6239v-3.73746l.48223-.02632c.39611 2.03543 1.3175 3.01804 2.85889 3.01804 1.29167 0 2.26472-.86856 2.26472-2.0091 0-.76328-.41333-1.27214-1.48972-1.76345l-.83527-.37725-1.0075-.47376c-1.60166-.76328-2.10972-1.38619-2.10972-2.68465 0-1.76345 1.36056-2.97417 3.28944-2.97417.8525 0 1.48972.20179 2.23889.71942l.37028-.9212h.39611v3.46548h-.50805c-.19805-1.78977-.92138-2.64078-2.30777-2.64078-1.1625 0-2.06667.80715-2.06667 1.85996 0 .894885.32723 1.184406 2.325 2.07929l.92139.403575c1.67056.73696 2.26472 1.45638 2.26472 2.772385 0 1.8775-1.4725 3.21983-3.53916 3.21983-1.0075 0-1.79972-.27198-2.635-.93875l-.52527 1.00893h-.3875zm23.68916-11.54576c0-1.16686-.48222-2.19334-1.3175-2.84257-.74916-.56149-1.60166-.80715-3.03111-.80715h-5.77805v.5615c1.58445.08774 1.79972.27198 1.79972 1.47393v10.85266c0 1.21073-.17222 1.36865-1.79972 1.50025v.53518h5.55417c1.6275 0 2.50583-.20179 3.42722-.78083 1.10222-.71942 1.82556-2.07929 1.82556-3.4918 0-1.21072-.50806-2.30739-1.36056-2.97417-.465-.3597-.94722-.56149-1.73083-.71941 1.58445-.59658 2.41111-1.73712 2.41111-3.30756zm-6.47555-2.94785h1.86861c1.84278 0 2.66084.92121 2.66084 3.0005 0 1.02648-.24111 1.76345-.72333 2.35126-.48222.5615-1.07639.73697-2.30777.73697h-1.48972v-6.08872h-.00861zm2.0925 6.77305c1.1625 0 1.82556.20178 2.325.71941.50806.51763.79222 1.47393.79222 2.55305 0 2.23721-1.10222 3.4918-3.04833 3.4918h-.79222c-1.1625 0-1.36055-.17547-1.36055-1.16686v-5.58865h2.08389v-.00877zm11.50444 6.95728c-1.99777 0-2.87611-1.56166-2.90194-5.05346h6.54445c-.04305-3.44793-1.42944-5.28157-4.02139-5.28157-2.635 0-4.27972 2.16703-4.27972 5.61496 0 3.44794 1.64472 5.45704 4.47778 5.45704 2.15278 0 3.55639-1.36864 3.84056-3.66727h-.87833c-.25833 1.90383-1.22277 2.93031-2.78138 2.93031zm-2.85027-5.86061c.22389-2.5706 1.05056-3.89537 2.46278-3.89537 1.42945 0 2.15278 1.25459 2.28195 3.89538h-4.74472zm7.65528-3.55321v-.37725c1.27444-.17546 2.02361-.3597 2.90194-.67555.11194.51763.17222 1.09668.22389 1.94769.79222-1.21072 1.68777-1.7459 2.96222-1.7459 1.3175 0 2.46277.6931 2.90194 1.78977.21528.53518.32722 1.16686.32722 2.00911v5.3693c0 .96507.22389 1.14054 1.55861 1.210726v.44744c-1.1625-.11406-1.60166-.131607-2.39389-.131607-.80944 0-1.24861.02632-2.39389.1316v-.44744c1.18834-.043867 1.4725-.271974 1.4725-1.16686v-5.47459c0-1.947688-.56833-2.72852-1.97194-2.72852-1.48972 0-2.28194.965072-2.28194 2.79871v5.41317c0 .894882.28417 1.12299 1.42945 1.16686v.44744c-1.14528-.114055-1.584442-.1316-2.368053-.1316-.76639 0-1.23139.02632-2.368056.1316v-.44744c1.34333-.07019 1.55861-.245658 1.55861-1.21073v-7.24681c-.02583-.9212-.155-1.0528-1.24861-1.0528-.08611-.00877-.198053-.02632-.31-.02632zm11.72832 9.90514l5.95028-9.97532h-2.70389c-1.42944 0-1.7825.31584-2.56611 2.32494h-.43917l.50806-2.90398h7.55194l-5.97612 9.9753h2.56611c1.48972 0 2.10972-.60536 2.76417-2.64078h.465l-.56833 3.21983h-7.55194z"></path>
</svg>
