<?xml version="1.0" encoding="utf-8"?>
<!-- Generator: Adobe Illustrator 19.1.0, SVG Export Plug-In . SVG Version: 6.00 Build 0)  -->
<svg version="1.1" id="Camada_1" xmlns="http://www.w3.org/2000/svg" xmlns:xlink="http://www.w3.org/1999/xlink" x="0px" y="0px"
	 viewBox="-201.7 379.3 30 30" style="enable-background:new -201.7 379.3 30 30;" xml:space="preserve">
<style type="text/css">
	.st0{fill:#FFFFFF;}
</style>
<path class="st0" d="M-172.7,379.8l1,0.5v13c0,5.6-2.9,8.7-6,10.1l0,0l-7.6,4.4c-0.1,0-0.1,0.1-0.2,0.1h-0.1l0,0
	c-1.6,0.9-3.4,1.4-5.1,1.4c-5,0-11-4-11-12v-12l2,1v11c0,8,6,10,9,10c1.9,0,4.9-0.8,6.9-3.3c-3.7-0.8-7.9-4-7.9-10.7v-11.8l-8,4.8
	l-2-1l10-6l1,0.5l1,0.5v13c0,6.9,4.5,8.6,7,8.9c0.6-1.3,1-2.9,1-4.9v-13l2,1v12c0,1.9-0.3,3.5-0.9,4.9c2.5-0.4,6.9-2.1,6.9-8.9
	v-11.8l-6,3.8l-2-1l8-5L-172.7,379.8z"/>
</svg>
