<svg viewBox="0 0 319 45" version="1.1" xmlns="http://www.w3.org/2000/svg" xmlns:xlink="http://www.w3.org/1999/xlink" xml:space="preserve">
  <g style="fill: #fff;">
    <rect stroke-width="2.5" transform="translate(238.6 1.25)" width="78.3" height="42.3" rx="9" stroke="#fff" style="fill: none"></rect>
    <path transform="translate(5.8 23.4)" d="M0,-1.855L4.674,-1.855C6.129,-1.855 7.256,-2.225 8.053,-2.966C8.853,-3.707 9.251,-4.726 9.251,-6.027C9.251,-7.353 8.875,-8.396 8.122,-9.156C7.368,-9.915 6.212,-10.295 4.654,-10.295L0,-10.295L0,-1.855ZM4.616,2.838L0,2.838L0,13.133L-5.794,13.133L-5.794,-14.988L4.654,-14.988C7.977,-14.988 10.539,-14.249 12.342,-12.767C14.144,-11.287 15.046,-9.194 15.046,-6.49C15.046,-4.572 14.63,-2.972 13.8,-1.691C12.969,-0.41 11.711,0.611 10.024,1.37L16.108,12.862L16.108,13.133L9.889,13.133L4.616,2.838Z"></path>
    <path transform="translate(32.4 19.5)" d="M0,13.134C0.823,13.134 1.584,12.95 2.279,12.583C2.973,12.217 3.488,11.724 3.824,11.106L3.824,7.513L1.738,7.513C-1.057,7.513 -2.543,8.479 -2.724,10.41L-2.743,10.739C-2.743,11.434 -2.499,12.007 -2.01,12.457C-1.52,12.909 -0.85,13.134 0,13.134M4.615,17.016C4.358,16.513 4.172,15.889 4.056,15.142C2.704,16.649 0.946,17.403 -1.217,17.403C-3.264,17.403 -4.961,16.81 -6.307,15.625C-7.652,14.44 -8.325,12.947 -8.325,11.145C-8.325,8.93 -7.504,7.23 -5.862,6.046C-4.221,4.861 -1.848,4.262 1.255,4.249L3.824,4.249L3.824,3.051C3.824,2.086 3.575,1.314 3.081,0.734C2.584,0.155 1.802,-0.136 0.733,-0.136C-0.206,-0.136 -0.944,0.09 -1.478,0.541C-2.013,0.991 -2.279,1.61 -2.279,2.395L-7.862,2.395C-7.862,1.184 -7.489,0.064 -6.742,-0.966C-5.995,-1.995 -4.938,-2.804 -3.573,-3.39C-2.209,-3.976 -0.677,-4.269 1.023,-4.269C3.599,-4.269 5.643,-3.621 7.155,-2.327C8.669,-1.033 9.425,0.785 9.425,3.129L9.425,12.188C9.438,14.171 9.715,15.671 10.256,16.687L10.256,17.016L4.615,17.016Z"></path>
    <path transform="translate(57.4 21.4)" d="M0,9.348C0,8.666 -0.338,8.129 -1.014,7.735C-1.69,7.343 -2.775,6.992 -4.269,6.683C-9.239,5.64 -11.724,3.528 -11.724,0.348C-11.724,-1.506 -10.955,-3.054 -9.416,-4.297C-7.877,-5.54 -5.866,-6.162 -3.38,-6.162C-0.728,-6.162 1.393,-5.536 2.983,-4.288C4.574,-3.039 5.37,-1.416 5.37,0.58L-0.213,0.58C-0.213,-0.219 -0.47,-0.879 -0.985,-1.401C-1.5,-1.922 -2.305,-2.183 -3.399,-2.183C-4.34,-2.183 -5.067,-1.97 -5.582,-1.545C-6.097,-1.119 -6.355,-0.579 -6.355,0.077C-6.355,0.696 -6.062,1.194 -5.476,1.574C-4.889,1.954 -3.902,2.283 -2.511,2.559C-1.12,2.836 0.051,3.148 1.004,3.495C3.953,4.578 5.427,6.452 5.427,9.116C5.427,11.022 4.61,12.564 2.975,13.743C1.338,14.921 -0.772,15.51 -3.36,15.51C-5.112,15.51 -6.667,15.197 -8.026,14.573C-9.384,13.949 -10.45,13.093 -11.222,12.004C-11.994,10.916 -12.381,9.742 -12.381,8.48L-7.088,8.48C-7.037,9.471 -6.67,10.231 -5.987,10.758C-5.305,11.286 -4.391,11.55 -3.244,11.55C-2.177,11.55 -1.369,11.348 -0.822,10.942C-0.274,10.536 0,10.006 0,9.348"></path>
    <path transform="translate(79.7 33.9)" d="M0,-8.072C0,-10.015 -0.345,-11.517 -1.034,-12.572C-1.723,-13.628 -2.724,-14.156 -4.037,-14.156C-5.789,-14.156 -6.992,-13.486 -7.649,-12.148L-7.649,-3.592C-6.967,-2.213 -5.75,-1.524 -3.999,-1.524C-1.333,-1.524 0,-3.707 0,-8.072M5.582,-7.666C5.582,-4.447 4.85,-1.868 3.389,0.069C1.928,2.007 -0.046,2.976 -2.531,2.976C-4.643,2.976 -6.348,2.242 -7.649,0.774L-7.649,10.624L-13.23,10.624L-13.23,-18.308L-8.054,-18.308L-7.862,-16.261C-6.51,-17.884 -4.746,-18.696 -2.569,-18.696C0.006,-18.696 2.008,-17.741 3.437,-15.837C4.867,-13.931 5.582,-11.304 5.582,-7.956L5.582,-7.666Z"></path>
    <path transform="translate(101.9 17.9)" d="M0,7.957C0,5.845 -0.335,4.304 -1.004,3.331C-1.674,2.359 -2.673,1.873 -3.998,1.873C-5.775,1.873 -6.998,2.601 -7.668,4.055L-7.668,12.303C-6.986,13.77 -5.75,14.505 -3.96,14.505C-2.156,14.505 -0.972,13.617 -0.406,11.839C-0.135,10.99 0,9.696 0,7.957M5.582,8.363C5.582,11.711 4.867,14.321 3.438,16.194C2.009,18.068 0.012,19.005 -2.55,19.005C-4.816,19.005 -6.625,18.136 -7.976,16.397L-8.228,18.619L-13.249,18.619L-13.249,-11.048L-7.668,-11.048L-7.668,-0.406C-6.38,-1.913 -4.687,-2.667 -2.588,-2.667C-0.039,-2.667 1.96,-1.729 3.409,0.145C4.857,2.018 5.582,4.654 5.582,8.054L5.582,8.363Z"></path>
    <path transform="translate(119.9 32.4)" d="M0,-12.671C-1.108,-12.671 -2.006,-12.296 -2.694,-11.545C-3.384,-10.795 -3.824,-9.722 -4.018,-8.324L3.747,-8.324L3.747,-8.771C3.721,-10.013 3.386,-10.973 2.743,-11.652C2.099,-12.331 1.185,-12.671 0,-12.671M0.637,4.5C-2.427,4.5 -4.922,3.56 -6.846,1.68C-8.772,-0.199 -9.734,-2.704 -9.734,-5.834L-9.734,-6.374C-9.734,-8.473 -9.328,-10.349 -8.517,-12.004C-7.707,-13.658 -6.557,-14.933 -5.07,-15.828C-3.583,-16.723 -1.887,-17.171 0.019,-17.171C2.878,-17.171 5.128,-16.27 6.77,-14.466C8.411,-12.664 9.233,-10.108 9.233,-6.798L9.233,-4.519L-4.076,-4.519C-3.895,-3.155 -3.351,-2.061 -2.443,-1.236C-1.536,-0.412 -0.387,-0 1.004,-0C3.155,-0 4.835,-0.779 6.045,-2.337L8.788,0.733C7.951,1.918 6.819,2.842 5.389,3.505C3.96,4.168 2.376,4.5 0.637,4.5"></path>
    <path transform="translate(144.1 30.9)" d="M0,-10.044C-0.76,-10.147 -1.429,-10.198 -2.008,-10.198C-4.12,-10.198 -5.505,-9.483 -6.161,-8.055L-6.161,5.621L-11.742,5.621L-11.742,-15.277L-6.47,-15.277L-6.316,-12.786C-5.196,-14.705 -3.643,-15.665 -1.661,-15.665C-1.043,-15.665 -0.464,-15.58 0.078,-15.413L0,-10.044Z"></path>
    <path transform="translate(158.5 30.9)" d="M0,-10.044C-0.76,-10.147 -1.429,-10.198 -2.008,-10.198C-4.12,-10.198 -5.505,-9.483 -6.161,-8.055L-6.161,5.621L-11.742,5.621L-11.742,-15.277L-6.47,-15.277L-6.316,-12.786C-5.196,-14.705 -3.643,-15.665 -1.661,-15.665C-1.043,-15.665 -0.464,-15.58 0.078,-15.413L0,-10.044Z"></path>
    <path transform="translate(169.4 31.9)" d="M0,-3.342L3.863,-16.34L9.85,-16.34L1.449,7.802L0.985,8.903C-0.264,11.633 -2.325,12.998 -5.196,12.998C-6.007,12.998 -6.831,12.875 -7.668,12.631L-7.668,8.402L-6.819,8.421C-5.762,8.421 -4.974,8.259 -4.452,7.938C-3.931,7.616 -3.522,7.081 -3.225,6.334L-2.569,4.616L-9.889,-16.34L-3.882,-16.34L0,-3.342Z"></path>
    <path transform="translate(197.4 23)" d="M0,-1.081L5.176,-1.081C6.708,-1.081 7.877,-1.442 8.682,-2.164C9.487,-2.884 9.889,-3.914 9.889,-5.254C9.889,-6.631 9.483,-7.745 8.672,-8.595C7.861,-9.444 6.74,-9.882 5.312,-9.908L0,-9.908L0,-1.081ZM0,3.612L0,13.52L-5.794,13.52L-5.794,-14.601L5.176,-14.601C7.288,-14.601 9.146,-14.216 10.748,-13.443C12.351,-12.67 13.585,-11.572 14.447,-10.15C15.31,-8.727 15.741,-7.107 15.741,-5.292C15.741,-2.537 14.797,-0.363 12.912,1.226C11.025,2.817 8.415,3.612 5.08,3.612L0,3.612Z"></path>
    <path transform="translate(-148.9 -371.4)" d="M371.607,407.934L366.006,407.934L366.006,387.036L371.607,387.036L371.607,407.934ZM365.678,381.629C365.678,380.792 365.958,380.103 366.518,379.561C367.078,379.021 367.841,378.75 368.806,378.75C369.759,378.75 370.519,379.021 371.086,379.561C371.653,380.103 371.936,380.792 371.936,381.629C371.936,382.478 371.65,383.173 371.077,383.714C370.503,384.254 369.747,384.525 368.806,384.525C367.867,384.525 367.11,384.254 366.537,383.714C365.964,383.173 365.678,382.478 365.678,381.629"></path>
    <path transform="translate(249 17.5)" d="M0,10.003L10.391,10.003L10.391,-6.066L9.367,-4.289L0,10.003ZM12.709,10.003L17.093,10.003L17.093,11.954L12.709,11.954L12.709,19.062L10.391,19.062L10.391,11.954L-2.84,11.954L-2.84,10.64L10.178,-9.059L12.709,-9.059L12.709,10.003Z"></path>
    <path transform="translate(284.1 25.2)" d="M0,-5.408C0,-8.628 -0.525,-11.061 -1.574,-12.709C-2.624,-14.357 -4.21,-15.181 -6.335,-15.181C-8.421,-15.181 -9.991,-14.376 -11.047,-12.767C-12.104,-11.158 -12.644,-8.782 -12.67,-5.639L-12.67,-0.116C-12.67,3.091 -12.126,5.543 -11.038,7.243C-9.95,8.943 -8.37,9.792 -6.296,9.792C-4.236,9.792 -2.675,8.962 -1.613,7.301C-0.551,5.639 -0.012,3.206 0,-0L0,-5.408ZM2.318,-0.367C2.318,3.598 1.591,6.609 0.136,8.662C-1.32,10.716 -3.464,11.743 -6.296,11.743C-9.078,11.743 -11.208,10.736 -12.689,8.719C-14.17,6.705 -14.93,3.772 -14.968,-0.077L-14.968,-5.118C-14.968,-9.071 -14.234,-12.065 -12.767,-14.1C-11.299,-16.134 -9.155,-17.151 -6.335,-17.151C-3.553,-17.151 -1.429,-16.17 0.039,-14.206C1.507,-12.242 2.267,-9.349 2.318,-5.524L2.318,-0.367Z"></path>
    <path transform="translate(306 25.2)" d="M0,-5.408C0,-8.628 -0.525,-11.061 -1.574,-12.709C-2.624,-14.357 -4.211,-15.181 -6.335,-15.181C-8.421,-15.181 -9.992,-14.376 -11.047,-12.767C-12.104,-11.158 -12.644,-8.782 -12.67,-5.639L-12.67,-0.116C-12.67,3.091 -12.126,5.543 -11.038,7.243C-9.95,8.943 -8.37,9.792 -6.296,9.792C-4.236,9.792 -2.675,8.962 -1.613,7.301C-0.551,5.639 -0.012,3.206 0,-0L0,-5.408ZM2.318,-0.367C2.318,3.598 1.59,6.609 0.136,8.662C-1.32,10.716 -3.464,11.743 -6.296,11.743C-9.078,11.743 -11.209,10.736 -12.689,8.719C-14.17,6.705 -14.93,3.772 -14.968,-0.077L-14.968,-5.118C-14.968,-9.071 -14.235,-12.065 -12.767,-14.1C-11.299,-16.134 -9.155,-17.151 -6.335,-17.151C-3.553,-17.151 -1.429,-16.17 0.039,-14.206C1.507,-12.242 2.267,-9.349 2.318,-5.524L2.318,-0.367Z"></path>
  </g>
</svg>
