<svg width="128" height="128" xmlns="http://www.w3.org/2000/svg"><g fill="none" fill-rule="evenodd"><path fill="none" d="M0 128h128V0H0z"/><path fill="#3A485F" d="M122.804 23.548v32l5.196-3v-32z"/><path fill="#FFF" d="M95.091 7.548l27.713 16 5.195-3-27.712-16z"/><path fill="#CED0D1" d="M95.091 7.548v32l27.712 16v-32z"/><path d="M103.751 32.548c0 1.104.775 2.448 1.733 3 .956.552 1.732.104 1.732-1s-.776-2.448-1.732-3c-.957-.552-1.733-.104-1.733 1" fill="#E5E6E8"/><path d="M110.68 36.548c0 1.104.775 2.448 1.732 3 .956.552 1.732.104 1.732-1s-.776-2.448-1.732-3c-.957-.552-1.732-.104-1.732 1M103.751 24.548c0 1.104.775 2.448 1.733 3 .956.552 1.732.104 1.732-1s-.776-2.448-1.732-3c-.957-.552-1.733-.104-1.733 1" fill="#697587"/><path d="M110.68 28.548c0 1.104.775 2.448 1.732 3 .956.552 1.732.104 1.732-1s-.776-2.448-1.732-3c-.957-.552-1.732-.104-1.732 1" fill="#E5E6E8"/><path d="M112.412 37.548l-3.928 2.268a5.998 5.998 0 0 0-3 5.196v9.112a6.001 6.001 0 0 1-3.007 5.2L79.502 72.549M105.483 25.548l-3.928 2.268a5.999 5.999 0 0 1-6 0L87.7 23.28a6.004 6.004 0 0 0-6 0L58.717 36.549" stroke="#697587" stroke-width="1.5" stroke-linecap="round" stroke-linejoin="round"/><path fill="#3A485F" d="M95.086 39.55v48l5.196-3v-48z"/><path fill="#FFF" d="M58.713 12.55l-5.196 3 41.57 24 5.195-3z"/><path fill="#CED0D1" d="M53.517 15.55v48l41.57 24v-48z"/><path d="M62.177 56.55c0 1.104.775 2.448 1.732 3 .956.552 1.732.104 1.732-1s-.776-2.448-1.732-3c-.957-.552-1.732-.104-1.732 1M69.106 60.55c0 1.104.775 2.448 1.732 3 .956.552 1.732.104 1.732-1s-.776-2.448-1.732-3c-.957-.552-1.732-.104-1.732 1M76.034 64.55c0 1.104.775 2.448 1.732 3 .956.552 1.732.104 1.732-1s-.776-2.448-1.732-3c-.957-.552-1.732-.104-1.732 1" fill="#E5E6E8"/><path d="M82.962 68.55c0 1.104.775 2.448 1.732 3 .956.552 1.732.104 1.732-1s-.776-2.448-1.732-3c-.957-.552-1.732-.104-1.732 1" fill="#697587"/><path d="M62.177 48.55c0 1.105.775 2.448 1.732 3 .956.552 1.732.105 1.732-1 0-1.104-.776-2.448-1.732-3-.957-.552-1.732-.104-1.732 1M69.106 52.55c0 1.105.775 2.448 1.732 3 .956.552 1.732.105 1.732-1 0-1.104-.776-2.448-1.732-3-.957-.552-1.732-.104-1.732 1M76.034 56.55c0 1.105.775 2.448 1.732 3 .956.552 1.732.105 1.732-1 0-1.104-.776-2.448-1.732-3-.957-.552-1.732-.104-1.732 1M82.962 60.55c0 1.105.775 2.448 1.732 3 .956.552 1.732.105 1.732-1 0-1.104-.776-2.448-1.732-3-.957-.552-1.732-.104-1.732 1" fill="#E5E6E8"/><path d="M62.177 40.55c0 1.105.775 2.448 1.732 3 .956.553 1.732.105 1.732-1 0-1.104-.776-2.447-1.732-3-.957-.552-1.732-.104-1.732 1" fill="#697587"/><path d="M69.106 44.55c0 1.105.775 2.448 1.732 3 .956.553 1.732.105 1.732-1 0-1.104-.776-2.447-1.732-3-.957-.552-1.732-.104-1.732 1M76.034 48.55c0 1.105.775 2.448 1.732 3 .956.553 1.732.105 1.732-1 0-1.104-.776-2.447-1.732-3-.957-.552-1.732-.104-1.732 1M82.962 52.55c0 1.105.775 2.448 1.732 3 .956.553 1.732.105 1.732-1 0-1.104-.776-2.447-1.732-3-.957-.552-1.732-.104-1.732 1" fill="#E5E6E8"/><path d="M62.177 32.55c0 1.105.775 2.448 1.732 3 .956.553 1.732.105 1.732-1 0-1.104-.776-2.447-1.732-3-.957-.551-1.732-.104-1.732 1" fill="#697587"/><path d="M69.106 36.55c0 1.105.775 2.448 1.732 3 .956.553 1.732.105 1.732-1 0-1.104-.776-2.447-1.732-3-.957-.551-1.732-.104-1.732 1" fill="#E5E6E8"/><path d="M76.034 40.55c0 1.105.775 2.448 1.732 3 .956.553 1.732.105 1.732-1 0-1.104-.776-2.447-1.732-3-.957-.551-1.732-.104-1.732 1" fill="#697587"/><path d="M82.962 44.55c0 1.105.775 2.448 1.732 3 .956.553 1.732.105 1.732-1 0-1.104-.776-2.447-1.732-3-.957-.551-1.732-.104-1.732 1" fill="#E5E6E8"/><path d="M63.91 33.551L59.98 35.82a5.999 5.999 0 0 1-6 0l-7.856-4.535a5.999 5.999 0 0 0-6 0L17.143 44.552M36.369 57.453l27.54-15.867-3.928 2.268a5.999 5.999 0 0 1-6 0l-.93-.537a6 6 0 0 0-5.995-.003L22.513 57.453M84.866 69.452l-3.928 2.268a5.997 5.997 0 0 0-3 5.196v9.112a6.001 6.001 0 0 1-3.007 5.2l-22.975 13.225" stroke="#697587" stroke-width="1.5" stroke-linecap="round" stroke-linejoin="round"/><path d="M56.7 53.73l6.929-4.032" fill="#E5E6E8"/><path d="M57.768 85.22l27.099-15.769M51.304 72.828l16.533-9.545a6.001 6.001 0 0 0 3-5.197v-9.079a6 6 0 0 1 2.991-5.19l3.937-2.283" stroke="#697587" stroke-width="1.5" stroke-linecap="round" stroke-linejoin="round"/><path fill="#3A485F" d="M60.617 59.453v64l5.196-3v-64z"/><path fill="#FFF" d="M10.388 24.453l-5.196 3 55.425 32 5.197-3z"/><path fill="#CED0D1" d="M5.192 27.453v64l55.425 32v-64z"/><path d="M13.852 84.452c0 1.104.775 2.448 1.732 3 .956.552 1.732.104 1.732-1s-.776-2.448-1.732-3c-.957-.552-1.732-.104-1.732 1M20.78 88.452c0 1.104.775 2.448 1.732 3 .956.552 1.732.104 1.732-1s-.776-2.448-1.732-3c-.957-.552-1.732-.104-1.732 1M27.709 92.452c0 1.104.774 2.448 1.732 3 .956.552 1.732.104 1.732-1s-.776-2.448-1.732-3c-.957-.552-1.732-.104-1.732 1M34.637 96.452c0 1.104.775 2.448 1.732 3 .956.552 1.732.104 1.732-1s-.776-2.448-1.732-3c-.957-.552-1.732-.104-1.732 1M41.565 100.452c0 1.104.775 2.448 1.732 3 .956.552 1.732.104 1.732-1s-.776-2.448-1.732-3c-.957-.552-1.732-.104-1.732 1" fill="#E5E6E8"/><path d="M48.493 104.452c0 1.104.775 2.448 1.732 3 .956.552 1.732.104 1.732-1s-.776-2.448-1.732-3c-.957-.552-1.732-.104-1.732 1M13.852 76.452c0 1.104.775 2.448 1.732 3 .956.552 1.732.104 1.732-1s-.776-2.448-1.732-3c-.957-.552-1.732-.104-1.732 1" fill="#697587"/><path d="M20.78 80.452c0 1.104.775 2.448 1.732 3 .956.552 1.732.104 1.732-1s-.776-2.448-1.732-3c-.957-.552-1.732-.104-1.732 1M27.709 84.452c0 1.104.774 2.448 1.732 3 .956.552 1.732.104 1.732-1s-.776-2.448-1.732-3c-.957-.552-1.732-.104-1.732 1M34.637 88.452c0 1.104.775 2.448 1.732 3 .956.552 1.732.104 1.732-1s-.776-2.448-1.732-3c-.957-.552-1.732-.104-1.732 1M41.565 92.452c0 1.104.775 2.448 1.732 3 .956.552 1.732.104 1.732-1s-.776-2.448-1.732-3c-.957-.552-1.732-.104-1.732 1M48.493 96.452c0 1.104.775 2.448 1.732 3 .956.552 1.732.104 1.732-1s-.776-2.448-1.732-3c-.957-.552-1.732-.104-1.732 1M13.852 68.452c0 1.104.775 2.448 1.732 3 .956.552 1.732.104 1.732-1s-.776-2.448-1.732-3c-.957-.552-1.732-.104-1.732 1M20.78 72.452c0 1.104.775 2.448 1.732 3 .956.552 1.732.104 1.732-1s-.776-2.448-1.732-3c-.957-.552-1.732-.104-1.732 1M27.709 76.452c0 1.104.774 2.448 1.732 3 .956.552 1.732.104 1.732-1s-.776-2.448-1.732-3c-.957-.552-1.732-.104-1.732 1M34.637 80.452c0 1.104.775 2.448 1.732 3 .956.552 1.732.104 1.732-1s-.776-2.448-1.732-3c-.957-.552-1.732-.104-1.732 1M41.565 84.452c0 1.104.775 2.448 1.732 3 .956.552 1.732.104 1.732-1s-.776-2.448-1.732-3c-.957-.552-1.732-.104-1.732 1" fill="#E5E6E8"/><path d="M48.493 88.452c0 1.104.775 2.448 1.732 3 .956.552 1.732.104 1.732-1s-.776-2.448-1.732-3c-.957-.552-1.732-.104-1.732 1" fill="#697587"/><path d="M13.852 60.452c0 1.104.775 2.448 1.732 3 .956.552 1.732.104 1.732-1s-.776-2.448-1.732-3c-.957-.552-1.732-.104-1.732 1M20.78 64.452c0 1.104.775 2.448 1.732 3 .956.552 1.732.104 1.732-1s-.776-2.448-1.732-3c-.957-.552-1.732-.104-1.732 1M27.709 68.452c0 1.104.774 2.448 1.732 3 .956.552 1.732.104 1.732-1s-.776-2.448-1.732-3c-.957-.552-1.732-.104-1.732 1M34.637 72.452c0 1.104.775 2.448 1.732 3 .956.552 1.732.104 1.732-1s-.776-2.448-1.732-3c-.957-.552-1.732-.104-1.732 1M41.565 76.452c0 1.104.775 2.448 1.732 3 .956.552 1.732.104 1.732-1s-.776-2.448-1.732-3c-.957-.552-1.732-.104-1.732 1M48.493 80.452c0 1.104.775 2.448 1.732 3 .956.552 1.732.104 1.732-1s-.776-2.448-1.732-3c-.957-.552-1.732-.104-1.732 1M13.852 52.452c0 1.105.775 2.448 1.732 3 .956.552 1.732.105 1.732-1 0-1.104-.776-2.447-1.732-3-.957-.552-1.732-.104-1.732 1" fill="#E5E6E8"/><path d="M20.78 56.452c0 1.105.775 2.448 1.732 3 .956.552 1.732.105 1.732-1 0-1.104-.776-2.447-1.732-3-.957-.552-1.732-.104-1.732 1M27.709 60.452c0 1.105.774 2.448 1.732 3 .956.552 1.732.105 1.732-1 0-1.104-.776-2.447-1.732-3-.957-.552-1.732-.104-1.732 1" fill="#697587"/><path d="M34.637 64.452c0 1.105.775 2.448 1.732 3 .956.552 1.732.105 1.732-1 0-1.104-.776-2.447-1.732-3-.957-.552-1.732-.104-1.732 1M41.565 68.452c0 1.105.775 2.448 1.732 3 .956.552 1.732.105 1.732-1 0-1.104-.776-2.447-1.732-3-.957-.552-1.732-.104-1.732 1M48.493 72.452c0 1.105.775 2.448 1.732 3 .956.552 1.732.105 1.732-1 0-1.104-.776-2.447-1.732-3-.957-.552-1.732-.104-1.732 1" fill="#E5E6E8"/><path d="M13.852 44.453c0 1.104.775 2.447 1.732 3 .956.552 1.732.104 1.732-1 0-1.105-.776-2.448-1.732-3-.957-.553-1.732-.105-1.732 1" fill="#697587"/><path d="M20.78 48.453c0 1.104.775 2.447 1.732 3 .956.552 1.732.104 1.732-1 0-1.105-.776-2.448-1.732-3-.957-.553-1.732-.105-1.732 1M27.709 52.453c0 1.104.774 2.447 1.732 3 .956.552 1.732.104 1.732-1 0-1.105-.776-2.448-1.732-3-.957-.553-1.732-.105-1.732 1M34.637 56.453c0 1.104.775 2.447 1.732 3 .956.552 1.732.104 1.732-1 0-1.105-.776-2.448-1.732-3-.957-.553-1.732-.105-1.732 1M41.565 60.453c0 1.104.775 2.447 1.732 3 .956.552 1.732.104 1.732-1 0-1.105-.776-2.448-1.732-3-.957-.553-1.732-.105-1.732 1M48.493 64.453c0 1.104.775 2.447 1.732 3 .956.552 1.732.104 1.732-1 0-1.105-.776-2.448-1.732-3-.957-.553-1.732-.105-1.732 1" fill="#E5E6E8"/><path d="M29.439 45.698a40.404 40.404 0 0 1 3.358 2.173" stroke="#FF6F00" stroke-width="2"/><path d="M37.535 51.772c9.432 8.794 16.701 22.041 18.792 34.518" stroke="#FF6F00" stroke-width="2" stroke-dasharray="8.194000000000001,6.145"/><path d="M56.736 89.335a40.41 40.41 0 0 1 .203 3.994M1.938 61.575c0-1.399.08-2.732.23-3.995" stroke="#FF6F00" stroke-width="2"/><path d="M3.49 51.932c3.082-8.341 10.48-11.844 19.644-9.035" stroke="#FF6F00" stroke-width="2" stroke-dasharray="7.743,5.807"/><path d="M25.864 43.9a33.6 33.6 0 0 1 3.575 1.798M29.439 109.207a40.389 40.389 0 0 1-3.358-2.173" stroke="#FF6F00" stroke-width="2"/><path d="M21.342 103.133C11.91 94.338 4.642 81.091 2.55 68.615" stroke="#FF6F00" stroke-width="2" stroke-dasharray="8.194000000000001,6.145"/><path d="M2.142 65.57a40.41 40.41 0 0 1-.203-3.995M56.938 93.33c0 1.399-.078 2.73-.23 3.995" stroke="#FF6F00" stroke-width="2"/><path d="M55.388 102.973c-3.083 8.34-10.481 11.844-19.645 9.035" stroke="#FF6F00" stroke-width="2" stroke-dasharray="7.743,5.807"/><path d="M33.014 111.004a33.6 33.6 0 0 1-3.575-1.798" stroke="#FF6F00" stroke-width="2"/><path d="M38.438 77.452a9 9 0 1 0-18 0 9 9 0 0 0 18 0" fill="#FF6F00"/></g></svg>