<svg width="128" height="128" xmlns="http://www.w3.org/2000/svg" xmlns:xlink="http://www.w3.org/1999/xlink"><defs><linearGradient x1="50.936%" y1="46.567%" x2="58.605%" y2="65.951%" id="a"><stop stop-color="#FFF" offset="47%"/><stop stop-color="#CFD1D2" offset="99%"/><stop stop-color="#CED0D1" offset="100%"/></linearGradient><path id="b" d="M0 .954h38.106v55.714H0z"/></defs><g fill="none" fill-rule="evenodd"><path fill="none" d="M0 128h128V0H0z"/><path fill="#E5E6E8" d="M122.804 91.045l-43.301-25V3.955l36.373 21 6.928 12z"/><path fill="#3A485F" d="M115.876 24.954v8l6.928 4zM122.804 36.954v54.091l5.196-3v-54.09z"/><path fill="#697587" d="M115.876 24.954l6.928 12 5.196-3-6.928-12z"/><path fill="#CED0D1" d="M86.43 59.954l29.446 17v-4l-29.445-17zM96.91 22.003l-10.48-6.049v4l10.48 6.05zM86.43 51.954l29.446 17v-4l-29.445-17zM86.43 23.954v4l29.446 17v-4zM86.43 35.954l29.446 17v-4l-29.445-17zM86.43 43.954l29.446 17v-4l-29.445-17z"/><path fill="#FFF" d="M79.503 3.954l36.373 21 5.195-3-36.373-21z"/><path fill="#3A485F" d="M96.91 54l-5.197 3v52l5.196-3z"/><path fill="#FFF" d="M31.09 22l5.197-3 60.622 35-5.196 3z"/><path fill="#CED0D1" d="M36.287 25l-5.196-3v48l5.196 3zM91.713 57l-5.196-3v48l5.196 3z"/><path fill="#CED0D1" d="M86.517 64V54L31.09 22v10zM91.713 109v-6L31.09 68v6z"/><path d="M39.751 32c0-1.104-.775-2.448-1.731-3-.957-.552-1.733-.104-1.733 1s.776 2.448 1.733 3c.956.552 1.731.104 1.731-1M44.947 35c0-1.104-.775-2.448-1.73-3-.958-.552-1.734-.104-1.734 1s.776 2.448 1.733 3c.956.552 1.731.104 1.731-1M50.144 38c0-1.104-.775-2.448-1.732-3-.956-.552-1.732-.104-1.732 1s.776 2.448 1.732 3c.957.552 1.732.104 1.732-1" fill="#697587"/><path fill="#FFF" d="M86.517 100l-50.23-29V35l50.23 29z"/><path fill="#E5E6E8" d="M43.216 47l-3.465-2v-4l3.465 2zM79.589 68l-32.91-19v-4l32.91 19zM43.216 55l-3.465-2v-4l3.465 2zM76.124 74L46.68 57v-4l29.444 17zM43.216 63l-3.465-2v-4l3.465 2zM79.589 84l-32.91-19v-4l32.91 19zM43.216 71l-3.465-2v-4l3.465 2zM58.804 80L46.68 73v-4l12.124 7z"/><path d="M43.902 27.008a40.713 40.713 0 0 1 3.358 2.17" stroke="#FF6F00" stroke-width="2"/><path d="M52.08 33.136c9.59 8.928 16.98 22.396 19.091 35.071" stroke="#FF6F00" stroke-width="2" stroke-dasharray="8.324999999999999,6.244"/><path d="M71.582 71.302a41 41 0 0 1 .2 3.994M16.023 43.103c0-1.398.077-2.73.228-3.995" stroke="#FF6F00" stroke-width="2"/><path d="M17.583 33.36c3.122-8.493 10.648-12.055 19.972-9.18" stroke="#FF6F00" stroke-width="2" stroke-dasharray="7.876,5.907"/><path d="M40.33 25.206a33.903 33.903 0 0 1 3.572 1.801M43.902 91.392a40.897 40.897 0 0 1-3.359-2.17" stroke="#FF6F00" stroke-width="2"/><path d="M35.725 85.264c-9.59-8.928-16.98-22.396-19.091-35.07" stroke="#FF6F00" stroke-width="2" stroke-dasharray="8.324999999999999,6.244"/><path d="M16.223 47.098a41 41 0 0 1-.2-3.994M71.782 75.296c0 1.398-.077 2.73-.228 3.995" stroke="#FF6F00" stroke-width="2"/><path d="M70.222 85.04C67.1 93.532 59.574 97.094 50.25 94.22" stroke="#FF6F00" stroke-width="2" stroke-dasharray="7.876,5.907"/><path d="M47.476 93.193a33.903 33.903 0 0 1-3.573-1.8" stroke="#FF6F00" stroke-width="2"/><path d="M52.902 59.2a9 9 0 0 0-9-9 9 9 0 1 0 9 9" fill="#FF6F00"/><path fill="#FFF" d="M5.617 51.2v8l6.93-4v-8z"/><path fill="#425066" d="M18.62 99.306l-6.929 4v8l2.598 4.5 9.526 5.5 9.527-5.5v-8z"/><path fill="#3A485F" d="M26.414 111.806v8l6.928-4v-8z"/><path fill="#425066" d="M11.691 103.306v8l2.598 4.5 9.526 5.5 2.6-1.5v-8z"/><path fill="#CED0D1" d="M34.64 105.556l-2.597 1.5-12.124-7-2.598-4.5v-16l17.32 10z"/><g><path d="M6.927 59.556c0 6.075 2.133 12.806 5.582 18.778l13.471 23.335 13.473-7.779c3.447-1.991 5.58-6.26 5.58-12.335 0-12.149-8.53-26.924-19.053-32.999-3.057-1.765-5.948-2.602-8.509-2.602-6.252-.001-10.544 4.983-10.544 13.602"/><path d="M.927 14.556c0 6.075 2.133 12.806 5.582 18.778L19.98 56.669l13.473-7.779c3.447-1.991 5.58-6.26 5.58-12.335 0-12.149-8.53-26.924-19.053-32.999C16.923 1.791 14.032.954 11.471.954 5.219.953.927 5.937.927 14.556" fill="url(#a)" transform="translate(6 45)"/></g><g><path fill="#E5E6E8" d="M27.713 109.556l-2.6 1.5-12.123-7-2.597-4.5v-16l17.32 10z"/><g transform="translate(0 49)"><mask id="c" fill="#fff"><use xlink:href="#b"/></mask><path d="M19.053 3.556C8.53-2.519 0 2.406 0 14.556c0 6.075 2.133 12.806 5.58 18.778l13.473 23.334 13.472-7.778c3.448-1.99 5.58-6.259 5.58-12.334 0-12.15-8.53-26.925-19.052-33" fill="#E5E6E8" mask="url(#c)"/></g><path fill="#CED0D1" d="M27.713 100.669v8.89l6.928-4v-8.89z"/></g></g></svg>