<svg width="128" height="128" xmlns="http://www.w3.org/2000/svg"><g fill="none" fill-rule="evenodd"><path fill="none" d="M0 128h128V0H0z"/><path fill="#CED0D1" d="M90.67 84.602L67.464 71.2v-48l31.866 8.4z"/><path fill="#FFF" d="M88.938 37.602l-3.465-2 1.734-1-16.28-9.4-1.73 1-3.465-2 10.392-6 23.207 13.4z"/><path fill="#3A485F" d="M99.33 79.602l-8.66 5V40.605l-1.733 1v-4.003l10.393-6z"/><path d="M70.928 67.204l16.278 9.4v-4l-16.278-9.4v4zm0-8l16.278 9.4v-4l-16.278-9.4v4zm0-8l16.278 9.4v-4l-16.278-9.4v4zm0-8l16.278 9.4v-4l-16.278-9.4v4zm16.278-2.6v4l-16.278-9.4v-4l16.278 9.4z" fill="#E5E6E8"/><path fill="#3A485F" d="M70.928 25.201l-1.731 1v4.002l1.73-1z"/><path fill="#CED0D1" d="M65.732 24.201v4.002l3.464 2v-4.002z"/><path fill="#3A485F" d="M90.67 82.602l-1.732 1v2l1.732-1z"/><path fill="#CED0D1" d="M65.732 70.2v2l23.205 13.402v-2z"/><path fill="#FFF" d="M67.464 69.2l-1.731 1 23.205 13.402 1.732-1z"/><path fill="#CED0D1" d="M65.732 122.19l3.792 3.81 34.641-20v-6z"/><path fill="#3A485F" d="M14.965 88.5v6l54.56 31.5v-6z"/><path fill="#E5E6E8" d="M94.64 100.5l-24.25 14-45.032-26 24.249-14z"/><path fill="#FFF" d="M64.328 117l5.196 3 34.641-20-5.195-3z"/><path fill="#FFF" d="M20.161 85.5l-5.196 3 54.56 31.5 5.196-3zM49.606 68.5l-5.196 3L98.97 103l5.195-3z"/><path fill="#CED0D1" d="M34.884 90l17.32 10 17.32-10-17.32-10z"/><path d="M40.942 79.502c-1.91-1.103-5.01-1.103-6.92 0-1.912 1.104-1.912 2.892 0 3.996 1.91 1.103 5.01 1.103 6.92 0 1.91-1.104 1.91-2.892 0-3.996" fill="#FFF"/><path fill="#CED0D1" d="M72.988 96l-13.856 8-3.464-2 13.856-8zM79.917 100l-13.856 8-3.464-2 13.856-8zM93.773 100l-24.249 14-3.464-2 24.248-14z"/><path fill="#FFF" d="M14.965 88.5l5.196 3 32.909-19-5.196-3z"/><path d="M39.214 80.5c-.957-.552-2.508-.552-3.464 0-.957.553-.957 1.448 0 2 .956.553 2.507.553 3.464 0 .956-.552.956-1.447 0-2M12.393 35H1.998l5.197 55 5.197-3zM62.268 6.204l-5.195 3v52l5.195-3z" fill="#CED0D1"/><path fill="#CED0D1" d="M62.268 16.204v-10L7.197 38v10zM62.268 58.204v-6L7.197 84v6z"/><path d="M15.856 38c0-1.104-.775-1.552-1.732-1-.956.552-1.732 1.896-1.732 3s.776 1.552 1.732 1c.957-.552 1.732-1.896 1.732-3M21.053 35c0-1.104-.775-1.552-1.732-1-.956.552-1.732 1.896-1.732 3s.776 1.552 1.732 1c.957-.552 1.732-1.896 1.732-3M26.249 32c0-1.104-.775-1.552-1.732-1-.956.552-1.733 1.896-1.733 3s.777 1.552 1.733 1c.957-.552 1.732-1.896 1.732-3" fill="#697587"/><path fill="#FFF" d="M57.072 55.204L12.392 81V45l44.68-25.796z"/><path fill="#CED0D1" d="M19.32 49l-3.464 2v-4l3.464-2zM50.144 31.204L22.784 47v-4l27.36-15.796zM19.32 57l-3.464 2v-4l3.464-2zM44.157 42.681l-21.373 12.32v-4l21.373-12.32zM19.32 65l-3.464 2v-4l3.464-2zM50.144 47.204L22.784 63v-4l27.36-15.796zM19.32 73l-3.464 2v-4l3.464-2zM40.845 60.51L22.784 71v-4l18.06-10.49z"/><path fill="#3A485F" d="M2 35l5.196 3v52L2 87z"/><path fill="#FFF" d="M62.268 6.204l-5.195-3L2 35l5.197 3z"/><path fill="#CED0D1" d="M117.34 100L94.134 86.599v-48L126 47z"/><path fill="#FFF" d="M115.607 53l-3.464-2 1.733-1-16.279-9.401-1.73 1-3.465-2 10.392-6L126 47z"/><path fill="#3A485F" d="M126 95l-8.66 5V56.002l-1.733 1V53L126 47z"/><path d="M97.598 82.602l16.278 9.4v-4l-16.278-9.4v4zm0-8l16.278 9.4v-4l-16.278-9.4v4zm0-8l16.278 9.4v-4l-16.278-9.4v4zm0-8l16.278 9.4v-4l-16.278-9.4v4zm16.278-2.6v4l-16.278-9.4v-4l16.278 9.4z" fill="#E5E6E8"/><path d="M121.67 61c.956-.552 1.732-1.896 1.732-3s-.776-1.552-1.732-1c-.957.552-1.732 1.896-1.732 3s.775 1.552 1.732 1M121.67 65.012c-.957.552-1.732 1.896-1.732 3s.775 1.552 1.732 1c.956-.552 1.732-1.896 1.732-3s-.776-1.552-1.732-1M121.67 73.024c-.957.553-1.732 1.896-1.732 3 0 1.105.775 1.553 1.732 1 .956-.552 1.732-1.895 1.732-3 0-1.104-.776-1.552-1.732-1" fill="#697587"/><path fill="#3A485F" d="M97.598 40.6l-1.731 1V45.6l1.73-1z"/><path fill="#CED0D1" d="M92.402 39.6v4.002l3.464 2v-4.003z"/><path fill="#3A485F" d="M117.34 98l-1.732 1v2l1.732-1z"/><path fill="#CED0D1" d="M92.402 85.6v2l23.205 13.4v-2z"/><path fill="#FFF" d="M94.134 84.6l-1.731 1L115.608 99l1.732-1z"/><path d="M64 37.808a40.897 40.897 0 0 1 3.359 2.17" stroke="#FF6F00" stroke-width="2"/><path d="M72.178 43.936c9.589 8.928 16.979 22.396 19.09 35.071" stroke="#FF6F00" stroke-width="2" stroke-dasharray="8.324999999999999,6.244"/><path d="M91.68 82.102a41 41 0 0 1 .2 3.994M36.12 53.903c0-1.398.077-2.73.228-3.995" stroke="#FF6F00" stroke-width="2"/><path d="M37.68 44.16c3.123-8.493 10.649-12.055 19.973-9.18" stroke="#FF6F00" stroke-width="2" stroke-dasharray="7.876,5.907"/><path d="M60.427 36.006A33.903 33.903 0 0 1 64 37.807M64 102.192a40.897 40.897 0 0 1-3.359-2.17" stroke="#FF6F00" stroke-width="2"/><path d="M55.822 96.064c-9.589-8.928-16.979-22.396-19.09-35.07" stroke="#FF6F00" stroke-width="2" stroke-dasharray="8.324999999999999,6.244"/><path d="M36.32 57.898a41 41 0 0 1-.2-3.995M91.88 86.096c0 1.398-.077 2.73-.228 3.995" stroke="#FF6F00" stroke-width="2"/><path d="M90.32 95.839c-3.123 8.494-10.649 12.056-19.973 9.18" stroke="#FF6F00" stroke-width="2" stroke-dasharray="7.876,5.907"/><path d="M67.573 103.993a33.903 33.903 0 0 1-3.573-1.8" stroke="#FF6F00" stroke-width="2"/><path d="M73 70a9 9 0 0 0-9-9 9 9 0 1 0 9 9" fill="#FF6F00"/></g></svg>