<?xml version="1.0" encoding="UTF-8" standalone="no"?>
<svg width="26px" height="26px" viewBox="0 0 26 26" version="1.1" xmlns="http://www.w3.org/2000/svg" xmlns:xlink="http://www.w3.org/1999/xlink">
    <!-- Generator: Sketch 39.1 (31720) - http://www.bohemiancoding.com/sketch -->
    <title>app engine copy</title>
    <desc>Created with Sketch.</desc>
    <defs/>
    <g id="Page-1" stroke="none" stroke-width="1" fill="none" fill-rule="evenodd">
        <g id="appengine-logo-copy-2" transform="translate(0.000000, 2.000000)" fill="#FFFFFF">
            <g id="Group-2">
                <g id="symbol" transform="translate(0.364612, 0.441618)">
                    <path d="M12.6694516,4.96028677 C8.3976913,4.96028677 4.93487287,8.43967952 4.93487287,12.7328726 C4.93487287,17.024801 8.3976913,20.5053741 12.6694516,20.5053741 C16.9411281,20.5053741 20.4037787,17.024801 20.4037787,12.7328726 C20.4037787,8.43967952 16.9411281,4.96028677 12.6694516,4.96028677 M12.6694516,18.6296368 C9.42781056,18.6296368 6.80019675,15.989423 6.80019675,12.7328726 C6.80019675,9.47547906 9.42781056,6.83501228 12.6694516,6.83501228 C15.910841,6.83501228 18.5381192,9.47547906 18.5381192,12.7328726 C18.5381192,15.989423 15.910841,18.6296368 12.6694516,18.6296368" id="Fill-1"/>
                    <path d="M24.8004757,11.8120776 L21.5757837,10.7937311 C21.7099501,11.4190049 21.7821936,12.0672122 21.7821936,12.7322824 C21.7821936,13.1973593 21.7470368,13.6541735 21.6808346,14.1004484 L24.8004757,14.1004484 C25.0886104,14.0156283 25.2812596,13.8358705 25.2812596,13.5687633 L25.2812596,12.3430039 C25.2812596,12.0764025 25.0886104,11.8915015 24.8004757,11.8120776" id="Fill-2"/>
                    <path d="M12.6672701,3.57483638 C13.3151116,3.57483638 13.9466753,3.64380537 14.5563395,3.77331193 L13.4003606,0.544753835 C13.3159507,0.254544471 13.1368105,0.0611277713 12.8712466,0.0611277713 L12.3881973,0.0611277713 C12.1225495,0.0611277713 11.9382071,0.254544471 11.8591672,0.544753835 L10.8548912,3.75670204 C11.440558,3.63798769 12.0464464,3.57483638 12.6672701,3.57483638" id="Fill-3"/>
                    <path d="M3.55654192,12.7322824 C3.55654192,12.0672122 3.62886926,11.4192579 3.76278393,10.7937311 L0.538343665,11.8120776 C0.250125073,11.8915015 0.0576437185,12.0764025 0.0576437185,12.3434255 L0.0576437185,13.5691848 C0.0576437185,13.8358705 0.250125073,14.0156283 0.538343665,14.1004484 L3.65815261,14.1004484 C3.59169871,13.6544264 3.55654192,13.1973593 3.55654192,12.7322824" id="Fill-4"/>
                    <path d="M15.4312318,10.1959436 L14.6995678,10.9309945 L14.6995678,10.9293082 C14.1742296,10.4019231 13.4728557,10.110702 12.7298643,10.110702 C11.9850269,10.110702 11.2856668,10.402682 10.7595734,10.9309945 C9.67340469,12.0221885 9.67340469,13.7988566 10.7595734,14.8903035 L10.0278255,15.6249328 C10.7201374,16.3200188 11.6756639,16.7507799 12.7290252,16.7507799 C14.8369226,16.7507799 16.5517183,15.0280729 16.5517183,12.9095951 C16.5517183,11.8506935 16.1231243,10.8907767 15.4312318,10.1959436 M13.9211678,13.99084 C13.5762284,14.3382987 13.1224625,14.5122388 12.6698712,14.5122388 C12.2158535,14.5122388 11.7632622,14.3382987 11.4175677,13.99084 C10.7255913,13.2955854 10.7255913,12.1690638 11.4175677,11.4736405 C11.7632622,11.1257603 12.2158535,10.9529162 12.6698712,10.9529162 C13.1224625,10.9529162 13.5762284,11.1257603 13.9211678,11.4736405 C14.6131441,12.1686422 14.6131441,13.2955854 13.9211678,13.99084" id="Fill-5"/>
                </g>
            </g>
        </g>
    </g>
</svg>