<?xml version="1.0" encoding="UTF-8"?>
<!DOCTYPE svg PUBLIC "-//W3C//DTD SVG 1.1//EN" "http://www.w3.org/Graphics/SVG/1.1/DTD/svg11.dtd">
<!-- Creator: CorelDRAW 2018 (64 Bit Versão de avaliação) -->
<svg xmlns="http://www.w3.org/2000/svg" xml:space="preserve" width="3.4316mm" height="4.0189mm" version="1.1" style="shape-rendering:geometricPrecision; text-rendering:geometricPrecision; image-rendering:optimizeQuality; fill-rule:evenodd; clip-rule:evenodd"
viewBox="0 0 1.98 2.32"
 xmlns:xlink="http://www.w3.org/1999/xlink">
 <defs>
  <style type="text/css">
   <![CDATA[
    .str1 {stroke:white;stroke-width:0.08;stroke-miterlimit:22.9256}
    .str0 {stroke:white;stroke-width:0.1;stroke-miterlimit:22.9256}
    .fil0 {fill:white}
   ]]>
  </style>
 </defs>
 <g id="Camada_x0020_1">
  <metadata id="CorelCorpID_0Corel-Layer"/>
  <g id="_2327321926416">
   <g>
    <path class="fil0 str0" d="M1.49 0.59c-0.02,0.04 -0.07,0.08 -0.1,0.05l-0.28 -0.26 0 1.14c0,0.06 -0.06,0.1 -0.12,0.1 -0.06,0 -0.12,-0.05 -0.12,-0.1l0 -1.11 -0.27 0.23c-0.03,0.03 -0.08,-0.02 -0.09,-0.06 -0.02,-0.04 -0.02,-0.07 0.01,-0.1l0.41 -0.41c0.04,-0.04 0.1,-0.04 0.14,0l0.41 0.41c0.03,0.03 0.04,0.07 0.02,0.11l0 0z"/>
    <path class="fil0 str1" d="M1.64 2.28l-1.29 0c-0.17,0 -0.3,-0.14 -0.3,-0.3l0 -0.76c0,-0.06 0.05,-0.1 0.1,-0.1 0.06,0 0.1,0.05 0.1,0.1l0 0.76c0,0.06 0.05,0.1 0.1,0.1l1.29 0c0.06,0 0.1,-0.05 0.1,-0.1l0 -0.76c0,-0.06 0.05,-0.1 0.1,-0.1 0.06,0 0.1,0.05 0.1,0.1l0 0.76c0,0.17 -0.14,0.3 -0.3,0.3l0 -0z"/>
   </g>
  </g>
 </g>
</svg>
