<?xml version="1.0" encoding="UTF-8"?>
<!DOCTYPE svg PUBLIC "-//W3C//DTD SVG 1.1//EN" "http://www.w3.org/Graphics/SVG/1.1/DTD/svg11.dtd">
<!-- Creator: CorelDRAW 2018 (64 Bit Versão de avaliação) -->
<svg xmlns="http://www.w3.org/2000/svg" xml:space="preserve" width="23.1906mm" height="6.3246mm" version="1.1" style="shape-rendering:geometricPrecision; text-rendering:geometricPrecision; image-rendering:optimizeQuality; fill-rule:evenodd; clip-rule:evenodd"
viewBox="0 0 239.29 65.26"
 xmlns:xlink="http://www.w3.org/1999/xlink">
 <defs>
  <style type="text/css">
   <![CDATA[
    .fil0 {fill:#333333;fill-rule:nonzero}
   ]]>
  </style>
 </defs>
 <g id="Camada_x0020_1">
  <metadata id="CorelCorpID_0Corel-Layer"/>
  <g id="g9">
   <path id="path11" class="fil0" d="M18.06 14.52c8.81,-0.2 17.08,6.97 18.01,15.75 1.11,7.72 -3.43,15.74 -10.54,18.88 -4.32,2.14 -9.18,1.48 -13.82,1.59l-4.53 0 0 14.52 -7.17 0c0.01,-11.2 -0.03,-22.41 0.02,-33.61 0.23,-8.35 7.07,-15.82 15.32,-16.93 0.9,-0.13 1.81,-0.2 2.72,-0.2zm0 29.04c5.18,0.12 10.03,-3.91 10.81,-9.04 1.03,-5.16 -2.26,-10.71 -7.3,-12.26 -4.86,-1.73 -10.71,0.54 -13.09,5.14 -1.84,3.14 -1.19,6.85 -1.31,10.3l0 5.86 10.89 0zm21.47 -29.22l7.09 0 0 36.22 -7.09 0 0 -36.22zm28.42 22.78l0.25 0 10.09 13.45 8.79 0 -13.71 -18.63 12.15 -17.59 -8.79 0 -8.54 12.42 -0.25 0 -8.54 -12.42 -8.79 0 12.15 17.59 -13.7 18.62 8.79 0 10.09 -13.45z"/>
   <path id="path13" class="fil0" d="M103.16 14.34c7.19,-0.14 14.08,4.57 16.74,11.22 1.38,3.09 1.36,6.51 1.32,9.82l0 15.18c-6.4,-0.02 -12.81,0.04 -19.22,-0.04 -7.36,-0.36 -14.09,-5.73 -16.2,-12.78 -1.93,-6.12 -0.33,-13.24 4.22,-17.82 3.4,-3.51 8.22,-5.63 13.13,-5.59l0.01 -0.01zm10.89 29.04c-0.03,-4.03 0.07,-8.06 -0.05,-12.08 -0.42,-5.39 -5.42,-9.92 -10.83,-9.78 -5.15,-0.12 -10,3.87 -10.81,8.96 -0.94,4.89 1.87,10.23 6.53,12.05 2.88,1.25 6.05,0.73 9.09,0.84l6.07 0 -0.01 0.01zm28.78 -28.87c8.5,-0.21 16.44,6.48 17.8,14.85 1.54,7.94 -2.94,16.51 -10.33,19.78 -7.22,3.41 -16.5,1.21 -21.46,-5.03 -3.07,-3.63 -4.4,-8.45 -4.14,-13.15l0 -30.97 7.18 0 0 14.52 10.97 0 -0 -0zm0 29.04c5.45,0.14 10.43,-4.43 10.83,-9.86 0.68,-5.39 -3.31,-10.81 -8.64,-11.79 -2.95,-0.41 -5.94,-0.13 -8.92,-0.22l-4.24 0c0.04,4.1 -0.1,8.19 0.08,12.28 0.57,5.4 5.46,9.69 10.89,9.58l-0 0.01zm38.89 -29.22c7.19,-0.14 14.08,4.57 16.74,11.22 1.39,3.09 1.37,6.51 1.32,9.82l0 15.18c-6.4,-0.02 -12.81,0.04 -19.22,-0.04 -7.35,-0.36 -14.09,-5.73 -16.2,-12.78 -1.93,-6.12 -0.33,-13.24 4.22,-17.82 3.39,-3.51 8.22,-5.63 13.12,-5.59l0.01 -0.01zm10.89 29.04c-0.03,-4.03 0.07,-8.06 -0.05,-12.08 -0.42,-5.39 -5.42,-9.92 -10.83,-9.78 -5.15,-0.12 -10,3.87 -10.8,8.96 -0.94,4.89 1.87,10.23 6.53,12.05 2.87,1.25 6.05,0.73 9.09,0.84l6.07 0 -0 0.01zm46.68 -28.96c-0.01,11.18 0.03,22.36 -0.02,33.53 -0.26,8.8 -7.82,16.7 -16.64,17.16 -1.68,0.09 -3.36,0.03 -5.03,0.04l0 -7.18c3.06,-0.02 6.34,0.3 9.05,-1.44 3.39,-1.9 5.54,-5.74 5.47,-9.62 -6.36,5.13 -16.22,4.87 -22.41,-0.43 -4.51,-3.64 -6.97,-9.49 -6.62,-15.26l0 -16.82 7.17 0c0.03,6.39 -0.06,12.79 0.05,19.18 0.39,5.16 4.91,9.57 10.08,9.83 5.33,0.55 10.58,-3.47 11.51,-8.74 0.4,-2.95 0.13,-5.95 0.21,-8.93l0 -11.34 7.18 0 -0 -0.01z"/>
  </g>
 </g>
</svg>
