<?xml version="1.0" encoding="UTF-8"?>
<!DOCTYPE svg PUBLIC "-//W3C//DTD SVG 1.1//EN" "http://www.w3.org/Graphics/SVG/1.1/DTD/svg11.dtd">
<!-- Creator: CorelDRAW 2018 (64 Bit Versão de avaliação) -->
<svg xmlns="http://www.w3.org/2000/svg" xml:space="preserve" width="4.4799mm" height="4.4803mm" version="1.1" style="shape-rendering:geometricPrecision; text-rendering:geometricPrecision; image-rendering:optimizeQuality; fill-rule:evenodd; clip-rule:evenodd"
viewBox="0 0 6.33 6.34"
 xmlns:xlink="http://www.w3.org/1999/xlink">
 <defs>
  <style type="text/css">
   <![CDATA[
    .fil0 {fill:#636363;fill-rule:nonzero}
   ]]>
  </style>
 </defs>
 <g id="Camada_x0020_1">
  <metadata id="CorelCorpID_0Corel-Layer"/>
  <path id="path17-1" class="fil0" d="M6.2 5.63l-1.65 -1.66c0.69,-0.92 0.61,-2.32 -0.18,-3.15 -0.76,-0.85 -2.11,-1.07 -3.09,-0.5 -0.94,0.53 -1.47,1.7 -1.21,2.76 0.24,1.1 1.29,1.97 2.43,1.96 0.52,0 1.04,-0.17 1.47,-0.47 0.56,0.56 1.12,1.13 1.68,1.68 0.34,0.3 0.93,-0.21 0.6,-0.57l-0.04 -0.05 -0 0zm-3.69 -1.18c-0.97,0.03 -1.87,-0.81 -1.91,-1.79 -0.08,-0.92 0.59,-1.83 1.49,-2.01 0.87,-0.21 1.84,0.27 2.19,1.11 0.38,0.84 0.06,1.94 -0.75,2.41 -0.3,0.19 -0.66,0.29 -1.01,0.29l-0 0z"/>
 </g>
</svg>
