<svg width="120" height="120" viewBox="0 0 120 120" xmlns="http://www.w3.org/2000/svg"><title>adv_product</title><g fill="none" fill-rule="evenodd"><rect width="120" height="120" rx="4"/><path d="M20 16h80c5.523 0 10 4.477 10 10v68c0 5.523-4.477 10-10 10H20c-5.523 0-10-4.477-10-10V26c0-5.523 4.477-10 10-10zm2 18a4 4 0 0 0-4 4v54a4 4 0 0 0 4 4h76a4 4 0 0 0 4-4V38a4 4 0 0 0-4-4H22zm-1-6a3 3 0 1 0 0-6 3 3 0 0 0 0 6zm10 0a3 3 0 1 0 0-6 3 3 0 0 0 0 6zm10 0a3 3 0 1 0 0-6 3 3 0 0 0 0 6zm-7 41.392c0-.769.622-1.392 1.402-1.392h41.196c.774 0 1.402.62 1.402 1.392v3.216c0 .769-.622 1.392-1.402 1.392H35.402C34.628 74 34 73.38 34 72.608v-3.216zm16-12c0-.769.625-1.392 1.4-1.392h33.2c.773 0 1.4.62 1.4 1.392v3.216c0 .769-.625 1.392-1.4 1.392H51.4c-.773 0-1.4-.62-1.4-1.392v-3.216zm-16 0c0-.769.626-1.392 1.39-1.392h7.22c.767 0 1.39.62 1.39 1.392v3.216c0 .769-.626 1.392-1.39 1.392h-7.22c-.767 0-1.39-.62-1.39-1.392v-3.216z" fill="#5181B8"/></g></svg>