<svg width="120" height="120" viewBox="0 0 120 120" xmlns="http://www.w3.org/2000/svg"><title>android_product</title><g fill="none" fill-rule="evenodd"><rect width="120" height="120" rx="4"/><path d="M36 84c0 2.2 1.8 4 4 4h4v14c0 3.32 2.68 6 6 6s6-2.68 6-6V88h8v14c0 3.32 2.68 6 6 6s6-2.68 6-6V88h4c2.2 0 4-1.8 4-4V44H36v40zM26 44c-3.32 0-6 2.68-6 6v28c0 3.32 2.68 6 6 6s6-2.68 6-6V50c0-3.32-2.68-6-6-6zm68 0c-3.32 0-6 2.68-6 6v28c0 3.32 2.68 6 6 6s6-2.68 6-6V50c0-3.32-2.68-6-6-6zM79.32 15.44c.8-.8.8-2.04 0-2.84-.8-.8-2.04-.8-2.84 0l-5.92 5.92C67.4 16.92 63.8 16 60 16c-3.84 0-7.44.92-10.64 2.52L43.4 12.6c-.8-.8-2.04-.8-2.84 0-.8.8-.8 2.04 0 2.84l5.24 5.24C39.88 25.04 36 32.04 36 40h48c0-7.96-3.88-15-9.88-19.36l5.2-5.2zM50 32c-1.105 0-2-.888-2-2 0-1.105.888-2 2-2 1.105 0 2 .888 2 2 0 1.105-.888 2-2 2zm20 0c-1.105 0-2-.888-2-2 0-1.105.888-2 2-2 1.105 0 2 .888 2 2 0 1.105-.888 2-2 2z" fill="#5181B8"/></g></svg>