<svg width="120" height="120" viewBox="0 0 120 120" xmlns="http://www.w3.org/2000/svg"><title>api_product</title><g fill="none" fill-rule="evenodd"><rect width="120" height="120" rx="4"/><g transform="translate(5 5)" fill="#5181B8"><path d="M60.203 103.254c.666.145 1.453.415 1.837.913.735.956 1.334 4.134 1.334 4.134a1.11 1.11 0 0 0 1.292.849l2.098-.408c.599-.116.985-.673.883-1.248 0 0-.638-3.194-.314-4.355.177-.638.864-1.208 1.447-1.594.278-.082.555-.167.83-.254.664.023 1.438.146 1.89.544.904.798 2.099 3.804 2.099 3.804a1.11 1.11 0 0 0 1.43.586l1.98-.8c.567-.229.84-.85.63-1.394 0 0-1.236-3.014-1.14-4.216.055-.686.664-1.406 1.177-1.898.16-.085.321-.171.48-.258.688-.142 1.583-.226 2.163.1 1.05.593 2.844 3.284 2.844 3.284a1.11 1.11 0 0 0 1.52.277l1.772-1.195c.506-.341.644-1.005.326-1.494 0 0-1.836-2.691-1.992-3.887-.082-.625.287-1.377.656-1.95.21-.17.418-.34.624-.512.643-.264 1.484-.504 2.103-.298 1.143.382 3.418 2.681 3.418 2.681a1.11 1.11 0 0 0 1.545-.019l1.511-1.51c.432-.432.441-1.11.035-1.53 0 0-2.315-2.29-2.697-3.434-.206-.619.034-1.46.298-2.103.172-.206.343-.414.511-.624.574-.37 1.326-.738 1.951-.656 1.196.156 3.867 1.98 3.867 1.98a1.11 1.11 0 0 0 1.514-.314l1.195-1.772c.341-.506.22-1.173-.258-1.507 0 0-2.71-1.807-3.302-2.857-.327-.58-.243-1.475-.101-2.162.135-.249.268-.498.399-.75.485-.454 1.123-.919 1.727-.956 1.203-.075 4.173 1.205 4.173 1.205a1.11 1.11 0 0 0 1.426-.597l.835-1.967c.238-.561-.007-1.193-.54-1.43 0 0-3.006-1.257-3.788-2.175-.443-.52-.524-1.454-.51-2.163.056-.18.11-.362.164-.544.386-.583.956-1.27 1.594-1.447 1.161-.324 4.332.31 4.332.31a1.11 1.11 0 0 0 1.271-.88l.408-2.097c.116-.599-.255-1.166-.826-1.287 0 0-3.2-.604-4.157-1.34-.498-.383-.768-1.17-.913-1.836.029-.271.055-.543.08-.816.268-.64.692-1.4 1.274-1.69 1.078-.54 4.312-.522 4.312-.522a1.11 1.11 0 0 0 1.08-1.107v-2.136c0-.61-.473-1.097-1.056-1.106 0 0-3.258.017-4.336-.522-.582-.29-1.006-1.052-1.274-1.691a48.728 48.728 0 0 0-.08-.816c.145-.666.415-1.453.913-1.837.956-.735 4.134-1.334 4.134-1.334a1.11 1.11 0 0 0 .849-1.292l-.408-2.098c-.116-.599-.673-.985-1.248-.883 0 0-3.194.638-4.355.314-.638-.177-1.208-.864-1.594-1.447a48.136 48.136 0 0 0-.254-.83c.023-.664.146-1.438.544-1.89.798-.904 3.804-2.099 3.804-2.099a1.11 1.11 0 0 0 .586-1.43l-.8-1.98c-.229-.567-.85-.84-1.394-.63 0 0-3.014 1.236-4.216 1.14-.686-.055-1.406-.664-1.898-1.177-.085-.16-.171-.321-.258-.48-.142-.688-.226-1.583.1-2.163.593-1.05 3.284-2.844 3.284-2.844a1.11 1.11 0 0 0 .277-1.52l-1.195-1.772c-.341-.506-1.005-.644-1.494-.326 0 0-2.691 1.836-3.887 1.992-.625.082-1.377-.287-1.95-.656-.17-.21-.34-.418-.512-.624-.264-.643-.504-1.484-.298-2.103.382-1.143 2.681-3.418 2.681-3.418a1.11 1.11 0 0 0-.019-1.545l-1.51-1.511c-.432-.432-1.11-.441-1.53-.035 0 0-2.29 2.315-3.434 2.697-.619.206-1.46-.034-2.103-.298a48.775 48.775 0 0 0-.624-.511c-.37-.574-.738-1.326-.656-1.951.156-1.196 1.98-3.867 1.98-3.867a1.11 1.11 0 0 0-.314-1.514L84.683 8.68c-.506-.341-1.173-.22-1.507.258 0 0-1.807 2.71-2.857 3.302-.58.327-1.475.243-2.162.101a48.403 48.403 0 0 0-.75-.399c-.454-.485-.919-1.123-.956-1.727-.075-1.203 1.205-4.173 1.205-4.173a1.11 1.11 0 0 0-.597-1.426l-1.967-.835c-.561-.238-1.193.007-1.43.54 0 0-1.257 3.006-2.175 3.788-.52.443-1.454.524-2.163.51-.18-.056-.362-.11-.544-.164-.583-.386-1.27-.956-1.447-1.594-.324-1.161.31-4.332.31-4.332a1.11 1.11 0 0 0-.88-1.271L64.667.85c-.599-.116-1.166.255-1.287.826 0 0-.604 3.2-1.34 4.157-.383.498-1.17.768-1.836.913a48.731 48.731 0 0 0-.816-.08c-.64-.268-1.4-.692-1.69-1.274-.54-1.078-.522-4.312-.522-4.312A1.11 1.11 0 0 0 56.068 0h-2.136c-.61 0-1.097.473-1.106 1.056 0 0 .017 3.258-.522 4.336-.29.582-1.052 1.006-1.691 1.274-.273.025-.545.051-.816.08-.666-.145-1.453-.415-1.837-.913-.735-.956-1.334-4.134-1.334-4.134A1.11 1.11 0 0 0 45.334.85l-2.098.408c-.599.116-.985.673-.883 1.248 0 0 .638 3.194.314 4.355-.177.638-.864 1.208-1.447 1.594-.278.082-.555.167-.83.254-.664-.023-1.438-.146-1.89-.544-.904-.798-2.099-3.804-2.099-3.804a1.11 1.11 0 0 0-1.43-.586l-1.98.8c-.567.229-.84.85-.63 1.394 0 0 1.236 3.014 1.14 4.216-.055.686-.664 1.406-1.177 1.898-.16.085-.321.171-.48.258-.688.142-1.583.226-2.163-.1-1.05-.593-2.844-3.284-2.844-3.284a1.11 1.11 0 0 0-1.52-.277l-1.772 1.195c-.506.341-.644 1.005-.326 1.494 0 0 1.836 2.691 1.992 3.887.082.625-.287 1.377-.656 1.95-.21.17-.418.34-.624.512-.643.264-1.484.504-2.103.298-1.143-.382-3.418-2.681-3.418-2.681a1.11 1.11 0 0 0-1.545.019l-1.511 1.51c-.432.432-.441 1.11-.035 1.53 0 0 2.315 2.29 2.697 3.434.206.619-.034 1.46-.298 2.103-.172.206-.343.414-.511.624-.574.37-1.326.738-1.951.656-1.196-.156-3.867-1.98-3.867-1.98a1.11 1.11 0 0 0-1.514.314L8.68 25.317c-.341.506-.22 1.173.258 1.507 0 0 2.71 1.807 3.302 2.857.327.58.243 1.475.101 2.162-.135.249-.268.498-.399.75-.485.454-1.123.919-1.727.956-1.203.075-4.173-1.205-4.173-1.205a1.11 1.11 0 0 0-1.426.597l-.835 1.967c-.238.561.007 1.193.54 1.43 0 0 3.006 1.257 3.788 2.175.443.52.524 1.454.51 2.163-.056.18-.11.362-.164.544-.386.583-.956 1.27-1.594 1.447-1.161.324-4.332-.31-4.332-.31a1.11 1.11 0 0 0-1.271.88L.85 45.333c-.116.599.255 1.166.826 1.287 0 0 3.2.604 4.157 1.34.498.383.768 1.17.913 1.836-.029.271-.055.543-.08.816-.268.64-.692 1.4-1.274 1.69-1.078.54-4.312.522-4.312.522A1.11 1.11 0 0 0 0 53.932v2.136c0 .61.473 1.097 1.056 1.106 0 0 3.258-.017 4.336.522.582.29 1.006 1.052 1.274 1.691.025.273.051.545.08.816-.145.666-.415 1.453-.913 1.837-.956.735-4.134 1.334-4.134 1.334a1.11 1.11 0 0 0-.849 1.292l.408 2.098c.116.599.673.985 1.248.883 0 0 3.194-.638 4.355-.314.638.177 1.208.864 1.594 1.447.054.182.108.363.164.544.014.71-.067 1.642-.51 2.163-.782.918-3.766 2.165-3.766 2.165a1.11 1.11 0 0 0-.562 1.44l.835 1.967c.238.562.864.824 1.404.605 0 0 2.992-1.288 4.195-1.213.604.037 1.242.502 1.727.957.131.25.264.5.4.749.14.687.225 1.582-.102 2.162-.592 1.05-3.283 2.844-3.283 2.844a1.11 1.11 0 0 0-.277 1.52l1.195 1.772c.341.506 1.005.644 1.494.326 0 0 2.691-1.836 3.887-1.992.625-.082 1.377.287 1.95.656.17.21.34.418.512.624.264.643.504 1.484.298 2.103-.382 1.143-2.681 3.418-2.681 3.418a1.11 1.11 0 0 0 .019 1.545l1.51 1.511c.432.432 1.11.441 1.53.035 0 0 2.29-2.315 3.434-2.697.619-.206 1.46.034 2.103.298.206.172.414.343.624.511.37.574.738 1.326.656 1.951-.156 1.196-1.98 3.867-1.98 3.867a1.11 1.11 0 0 0 .314 1.514l1.772 1.195c.506.341 1.173.22 1.507-.258 0 0 1.807-2.71 2.857-3.302.58-.327 1.475-.243 2.162-.101.249.135.498.268.75.399.454.485.919 1.123.956 1.727.075 1.203-1.205 4.173-1.205 4.173a1.11 1.11 0 0 0 .597 1.426l1.967.835c.561.238 1.193-.007 1.43-.54 0 0 1.257-3.006 2.175-3.788.52-.443 1.454-.524 2.163-.51.18.056.362.11.544.164.583.386 1.27.956 1.447 1.594.324 1.161-.31 4.332-.31 4.332-.1.584.29 1.157.88 1.271l2.097.408c.599.116 1.166-.255 1.287-.826 0 0 .604-3.2 1.34-4.157.383-.498 1.17-.768 1.836-.913.271.029.543.055.816.08.64.268 1.4.692 1.69 1.274.54 1.078.522 4.312.522 4.312a1.11 1.11 0 0 0 1.107 1.08h2.136c.61 0 1.097-.473 1.106-1.056 0 0-.017-3.258.522-4.336.29-.582 1.052-1.006 1.691-1.274.273-.025.545-.051.816-.08zM55 95c22.091 0 40-17.909 40-40S77.091 15 55 15 15 32.909 15 55s17.909 40 40 40z"/><path d="M79.275 61C76.588 71.91 66.74 80 55 80a24.99 24.99 0 0 1-7.47-1.135l3.002-4.366c1.437.328 2.932.501 4.468.501 8.955 0 16.536-5.886 19.084-14h5.191zm0-12C76.588 38.09 66.74 30 55 30c-2.393 0-4.708.336-6.9.964l3.032 4.41A20.1 20.1 0 0 1 55 35c8.955 0 16.536 5.886 19.084 14h5.191zM36.39 71.693A24.907 24.907 0 0 1 30 55a24.913 24.913 0 0 1 6.777-17.115 997.47 997.47 0 0 0 2.884 4.28A19.92 19.92 0 0 0 35 55c0 4.675 1.604 8.975 4.292 12.38a896.156 896.156 0 0 0-2.902 4.313z"/><path d="M60.778 58h30.17c.07 0 .79.013 1 .017 2 .034 2.94 3.497 2.94 3.497l.21-11.998s-1.045 2.537-3.045 2.502c-1-.017-.873-.017-1-.017H61.05v-.016s-1.663-.195-2.49-.543c-.602-.253-1.63-1.217-2.148-1.725a8516294770.207 8516294770.207 0 0 1-18.888-28.003C36.406 20.056 39 16.5 39 16.5s-5.115 1.541-6.952 2.78c-1.479.998-5.548 5.22-5.548 5.22s4.931-1.089 6.05.57l.559.828L51.83 53.653c.104.433.175.85.17 1.175-.007.357-.11.823-.248 1.296L32.145 83.111l-.588.81c-1.175 1.617-6.057.579-6.057.579s3.91 4.14 5.354 5.188C32.647 90.99 37.5 93 37.5 93s-2.264-3.935-1.089-5.553l.588-.809 19.399-26.7c.567-.509 1.488-1.288 2.04-1.497.677-.258 1.896-.397 2.34-.441z"/></g></g></svg>