<svg width="120" height="120" viewBox="0 0 120 120" xmlns="http://www.w3.org/2000/svg"><title>apple_product</title><g fill="none" fill-rule="evenodd"><rect width="120" height="120" rx="4"/><path d="M88.487 59.134c-.127-12.664 10.4-18.738 10.87-19.04-5.915-8.595-15.13-9.773-18.413-9.91-7.842-.788-15.302 4.586-19.282 4.586-3.97 0-10.112-4.468-16.615-4.351-8.548.126-16.43 4.935-20.83 12.537-8.882 15.303-2.275 37.973 6.38 50.383 4.23 6.075 9.274 12.898 15.896 12.655 6.376-.253 8.788-4.098 16.497-4.098 7.71 0 9.877 4.098 16.625 3.972 6.862-.127 11.21-6.191 15.41-12.285 4.857-7.048 6.857-13.87 6.975-14.221-.152-.07-13.38-5.101-13.513-20.228zm-12.68-37.165C79.32 17.735 81.693 11.86 81.047 6c-5.063.205-11.2 3.349-14.832 7.573-3.259 3.748-6.112 9.73-5.347 15.472 5.651.438 11.42-2.851 14.939-7.076z" fill="#5181B8"/></g></svg>