<svg width="120" height="120" viewBox="0 0 120 120" version="1.1" xmlns="http://www.w3.org/2000/svg"><path d="M34.2519038,0 L85.7480963,2.76763582e-15 C97.6582294,5.79779852e-16 101.977131,1.24009215 106.331298,3.56872596 C110.685465,5.89735978 114.10264,9.31453526 116.431274,13.6687019 C118.759908,18.0228686 120,22.3417707 120,34.2519038 L120,85.7480963 C120,97.6582294 118.759908,101.977131 116.431274,106.331298 C114.10264,110.685465 110.685465,114.10264 106.331298,116.431274 C101.977131,118.759908 97.6582294,120 85.7480963,120 L34.2519038,120 C22.3417707,120 18.0228686,118.759908 13.6687019,116.431274 C9.31453526,114.10264 5.89735978,110.685465 3.56872596,106.331298 C1.24009215,101.977131 1.45857065e-15,97.6582294 0,85.7480963 L1.84509055e-15,34.2519038 C3.86519902e-16,22.3417707 1.24009215,18.0228686 3.56872596,13.6687019 C5.89735978,9.31453526 9.31453526,5.89735978 13.6687019,3.56872596 C18.0228686,1.24009215 22.3417707,2.18785597e-15 34.2519038,0 Z M46.9538632,101.612778 C48.6978443,102.580379 50.7401801,103.024489 52.7267086,102.802434 C55.8583617,102.45487 58.6970262,100.535758 60.5204252,97.9708631 C62.3481173,95.4070413 63.2120587,92.246782 63.3880666,89.1047595 C63.7357896,82.8142777 61.4423205,76.7265415 59.9795229,70.6001871 C59.2626127,67.6083464 58.7474674,64.5693056 58.4287214,61.5109559 C55.6651823,62.8647396 52.8104196,64.0372322 49.89663,65.0177063 C43.9273856,67.0290729 37.5428053,68.3163476 32.3988666,71.9486072 C29.8242141,73.7636644 27.6026505,76.1730134 26.395279,79.0811813 C25.1879077,81.9893491 25.0666338,85.4081358 26.4328418,88.2455037 C27.816221,91.1279259 30.725718,93.2272563 33.8949337,93.6338205 C37.0641497,94.0403848 40.4018609,92.7498919 42.4688808,90.3115793 C41.4954712,93.3570565 42.1705259,96.8648796 44.1999832,99.3375197 C44.9587491,100.263285 45.9064015,101.034577 46.9538632,101.612778 Z M69.4120451,14.9727612 C67.6015247,14.1392509 65.530212,13.8496141 63.5683673,14.2229237 C60.469984,14.8097064 57.7869363,16.9337095 56.1642291,19.6326952 C54.5383022,22.32739 53.9136888,25.5412856 53.9802284,28.6918901 C54.1100878,34.9855901 56.8607484,40.8855987 58.78503,46.8821529 C59.7240968,49.8117752 60.469984,52.8036159 61.0194722,55.8287112 C63.6724697,54.2700363 66.4274229,52.8829978 69.2607213,51.6847598 C75.0636166,49.2249926 81.3269231,47.4560627 86.1810928,43.4462025 C88.6130072,41.4391268 90.6413913,38.8699413 91.6223135,35.8781006 C92.6075285,32.8862599 92.4647904,29.467473 90.8935978,26.7395236 C89.2912816,23.9740287 86.2315341,22.1010442 83.0408538,21.9369167 C79.846954,21.769571 76.623004,23.3121551 74.7448706,25.8974316 C75.4821722,22.7875907 74.5431054,19.3387675 72.3344205,17.0302551 C71.5037491,16.1624175 70.5024356,15.4715801 69.4120451,14.9727612 Z M16.5098584,47.9344999 C15.621233,49.7238115 15.2692171,51.7813055 15.5793775,53.7540537 C16.0698386,56.8638945 18.1111012,59.6122259 20.7565862,61.3221555 C23.406364,63.0277943 26.595971,63.752959 29.7490887,63.7862138 C36.0499577,63.8537955 42.0320808,61.288901 48.0904022,59.5542984 C51.0460474,58.7079155 54.0596466,58.0535508 57.1032959,57.5965683 C55.6276195,54.8986554 54.3279513,52.1031239 53.2171697,49.2367927 C50.9408721,43.3625295 49.3643133,37.0516659 45.5082373,32.0731315 C43.5796627,29.5844006 41.0726229,27.4764884 38.1083918,26.3994687 C35.1484537,25.3235217 31.7281045,25.3567763 28.95276,26.8478693 C26.1355601,28.3571988 24.1651298,31.3576212 23.9011179,34.5414804 C23.6371062,37.7264123 25.0741465,40.9950171 27.6026505,42.9516743 C24.5171456,42.1181641 21.0420624,42.9516743 18.6605894,45.0842592 C17.7676711,45.8855878 17.042175,46.8660619 16.5098584,47.9344999 Z M103.897793,65.1399975 C104.597532,63.2713038 104.735977,61.1837735 104.220832,59.2560799 C103.411625,56.2138209 101.096691,53.6918353 98.2837842,52.2672516 C95.4751699,50.8426676 92.222243,50.4564853 89.0862968,50.7504129 C82.8144047,51.3371955 77.1295634,54.5092547 71.2858856,56.8596035 C68.4311229,58.0117144 65.5001618,58.9718067 62.5198324,59.742026 C64.2681063,62.273666 65.8532508,64.9179427 67.2570213,67.653401 C70.1289555,73.2605545 72.3505188,79.3740363 76.706715,83.9245519 C78.8821301,86.2008825 81.5952279,88.0352487 84.6506824,88.7979591 C87.7072104,89.5606692 91.1114611,89.1755595 93.7183102,87.4034114 C96.3595024,85.6098089 98.0079668,82.424877 97.9403541,79.2281452 C97.8738145,76.0346313 96.0997833,72.9290815 93.3834659,71.2491881 C96.5398031,71.7565889 99.9107843,70.5701508 102.057222,68.1983473 C102.862136,67.3101279 103.482457,66.2631445 103.897793,65.1399975 Z M76.2248398,104.994019 C76.2248398,104.994019 75.0679095,98.0212814 72.7658548,90.3909612 C71.1807101,85.1442445 67.504935,76.8477598 65.2619072,71.9700619 C65.0977045,71.6139159 64.561095,71.8145161 64.6748562,72.1921167 C66.2256579,77.4173789 68.7627476,86.2716825 69.6256158,91.0775077 C70.9048929,98.1811179 70.8286943,106.171875 70.8286943,106.171875 L76.2248398,104.994019 Z" fill="#5181B8" fill-rule="nonzero" stroke="none" stroke-width="1"/></svg>
