<svg width="120" height="120" viewBox="0 0 120 120" xmlns="http://www.w3.org/2000/svg"><title>dm_product</title><g fill="none" fill-rule="evenodd"><rect width="120" height="120" rx="4"/><path d="M31.848 101.327l-11.933 2.557a3.2 3.2 0 0 1-3.8-3.799l2.558-11.933A49.768 49.768 0 0 1 10 60c0-27.614 22.386-50 50-50s50 22.386 50 50-22.386 50-50 50c-10.44 0-20.134-3.2-28.152-8.673zM89.024 47.06c.423-1.423-.423-2.276-1.834-2.276h-6.912c-1.693 0-2.398.711-2.821 1.707 0 0-3.386 8.324-8.182 13.731-1.552 1.565-2.257 2.063-3.103 2.063-.424 0-1.058-.498-1.058-1.92V47.059c0-1.707-.212-2.276-1.623-2.276H52.63c-1.058 0-1.551.6-1.551 1.351 0 1.62 2.398 1.992 2.398 6.546v9.889c0 1.85-.141 2.561-.988 2.561-2.257 0-7.747-8.361-11.003-17.928-.638-1.86-1.331-2.42-3.033-2.42H31.4c-1.129 0-1.834.712-1.834 1.708 0 1.779 2.257 10.6 10.51 22.269 5.501 7.968 12.978 12.094 20.03 12.094 4.233 0 5.22-.711 5.22-2.419v-5.976c0-1.28.212-2.348 1.552-2.348.987 0 2.68.498 6.63 4.34 4.514 4.554 4.937 6.403 7.476 6.403h7.9c.847 0 1.552-.426 1.552-1.707 0-1.85-2.398-4.98-5.784-8.822-1.552-1.85-3.88-3.842-4.585-4.838-.987-1.28-.705-1.85 0-2.988 0 0 8.112-11.526 8.958-15.439z" fill="#5181B8"/></g></svg>