<svg width="120" height="120" viewBox="0 0 120 120" xmlns="http://www.w3.org/2000/svg"><title>live_product</title><g fill="none" fill-rule="evenodd"><rect width="120" height="120" rx="4"/><g transform="translate(4 4)" fill-rule="nonzero"><circle fill="#5181B8" opacity=".2" cx="55.5" cy="55.5" r="55.5"/><circle fill="#5181B8" opacity=".3" cx="55.5" cy="55.5" r="47.5"/><circle fill="#5181B8" cx="55.5" cy="55.5" r="39.5"/><path d="M35.163 50.96v11.72h6.618c.528 0 .933.128 1.215.384.282.256.423.578.423.966 0 .396-.14.716-.418.961-.278.246-.685.368-1.22.368h-7.882c-.71 0-1.222-.157-1.533-.472-.312-.315-.468-.824-.468-1.527v-12.4c0-.659.149-1.153.446-1.483.296-.33.687-.494 1.17-.494.491 0 .889.163 1.193.489.304.326.456.822.456 1.488zm10.39 12.686V50.96c0-.659.151-1.153.452-1.483.3-.33.688-.494 1.165-.494.49 0 .888.163 1.193.489.304.326.456.822.456 1.488v12.686c0 .666-.152 1.164-.456 1.494-.305.33-.702.494-1.193.494-.47 0-.856-.167-1.16-.5-.304-.333-.456-.829-.456-1.488zm9.16-12.521l3.65 10.797 3.66-10.874c.191-.571.334-.968.43-1.192.095-.223.252-.424.472-.604.22-.18.52-.269.901-.269.279 0 .537.07.775.209.239.139.426.324.561.554.136.231.203.464.203.698 0 .16-.022.335-.065.522-.044.186-.1.37-.165.549-.066.18-.132.364-.198.554l-3.903 10.523c-.139.402-.278.785-.418 1.147-.139.363-.3.681-.483.956-.183.274-.427.5-.731.675-.304.176-.676.264-1.116.264-.44 0-.812-.086-1.116-.258-.304-.172-.55-.4-.736-.681a5.022 5.022 0 0 1-.49-.961 32.66 32.66 0 0 1-.417-1.142L51.69 52.157c-.066-.19-.134-.377-.203-.56a4.34 4.34 0 0 1-.176-.593 2.531 2.531 0 0 1-.072-.538c0-.374.15-.714.451-1.022.3-.307.678-.46 1.132-.46.557 0 .951.17 1.182.51.231.34.467.884.71 1.63zm23.582.648h-7.354v3.954h6.772c.498 0 .87.112 1.116.335.245.223.368.518.368.884s-.121.665-.363.895c-.242.23-.615.346-1.121.346H70.94v4.58h7.607c.513 0 .9.12 1.16.357.26.238.39.555.39.95 0 .381-.13.69-.39.928-.26.238-.647.357-1.16.357h-8.871c-.711 0-1.222-.157-1.534-.472-.311-.315-.467-.824-.467-1.527V51.257c0-.469.07-.852.21-1.148.138-.297.356-.513.653-.648.297-.136.676-.203 1.138-.203h8.618c.52 0 .907.115 1.16.346.253.23.38.532.38.906 0 .38-.127.686-.38.917-.253.23-.64.346-1.16.346z" stroke="#FFF" stroke-width=".5" fill="#FFF"/></g></g></svg>