<svg width="120" height="120" viewBox="0 0 120 120" xmlns="http://www.w3.org/2000/svg"><title>mvk_product</title><g fill="none" fill-rule="evenodd"><rect width="120" height="120" rx="4"/><path d="M37.444 9C33.885 9 31 11.686 31 15v90c0 3.314 2.885 6 6.444 6h45.112c3.559 0 6.444-2.686 6.444-6V15c0-3.314-2.885-6-6.444-6H37.444zm.243-5h44.626C88.766 4 94 8.925 94 15v90c0 6.075-5.233 11-11.688 11H37.688C31.233 116 26 111.075 26 105V15c0-6.075 5.233-11 11.688-11zM43 9c.93.451 1.723 1.36 2.378 2.729A4 4 0 0 0 48.985 14H70.94a4 4 0 0 0 3.57-2.195C75.222 10.395 76.053 9.46 77 9H43z" fill="#5181B8" fill-rule="nonzero"/><path d="M54.878 78.327l3.913-14.086a1 1 0 0 0-.963-1.267h-6.746a2 2 0 0 1-1.615-3.18L64.523 39.19a.5.5 0 0 1 .885.429l-3.913 14.086a1 1 0 0 0 .964 1.268h6.746a2 2 0 0 1 1.614 3.18L55.764 78.756a.5.5 0 0 1-.886-.429z" fill="#5181B8"/></g></svg>