<svg width="120" height="120" viewBox="0 0 120 120" xmlns="http://www.w3.org/2000/svg"><title>vinci_product</title><g fill="none" fill-rule="evenodd"><rect width="120" height="120" rx="4"/><path d="M13.162 88.081l.06-.05c-.018-.02-.034-.051-.054-.054-.017-.002-.05.03-.053.049-.002.016.03.037.047.055zm9.564-11.243l.048.06c.017-.018.047-.034.05-.054.002-.016-.029-.036-.045-.054l-.053.048zm7.27 24.796l-.049-.056a6.657 6.657 0 0 0-.006.109l.056-.053zM42.08 38.167l.065-.054c-.02-.019-.039-.053-.06-.054-.02-.002-.042.032-.062.05l.057.058zm.42-.059l-.055-.059-.005.115.06-.056zm9.208 59.254c.018.02.035.042.052.063.02-.02.052-.037.055-.059.003-.017-.03-.038-.049-.058l-.058.054zm11-19.737c-.017-.017-.034-.034-.05-.053-.003.034-.004.069-.006.103l.056-.05zm1.964.145l-.05-.056-.007.11.057-.054zm5.019-12.718l.052.063c.02-.02.052-.037.055-.058.002-.017-.03-.05-.05-.053-.018-.002-.038.03-.057.048zm1.159-16.56l.052.06c.02-.017.051-.033.054-.054.002-.016-.03-.05-.05-.052-.016-.002-.037.03-.056.046zm7.12-2.722l.062-.052c-.019-.02-.035-.05-.056-.054-.016-.002-.05.03-.052.05-.002.017.03.037.046.056zm.4 2.307l.056-.052-.108-.005.052.057zm1.017-14.067c.02-.017.038-.035.057-.053a7.79 7.79 0 0 0-.11-.006l.053.059zm.668.458l.052.06c.02-.018.052-.035.055-.055.002-.016-.03-.05-.05-.052-.017-.002-.038.03-.057.047zm.104-.526a2.722 2.722 0 0 0-.053-.058l-.005.112.058-.054zm.82 10.713l.063-.052c-.02-.02-.036-.052-.057-.055-.017-.002-.051.03-.053.05-.002.017.03.038.047.057zm-.05-11.268l.05.06c.02-.017.05-.033.054-.054.002-.016-.03-.05-.05-.052-.016-.002-.036.03-.055.046zm.754 2.655l.052.061c.019-.018.05-.035.054-.055.002-.017-.03-.05-.049-.053-.017-.002-.037.03-.057.047zm1.196 5.024l.06-.052a5.816 5.816 0 0 0-.054-.058c-.018.018-.05.034-.052.054-.002.016.03.037.046.056zm.715-14.649l-.05-.057-.006.11.056-.053zm1.44 7.972c.019.02.037.042.055.063.02-.02.053-.037.056-.058.002-.018-.032-.053-.052-.055-.018-.002-.039.032-.059.05zm.037-.828l.063-.053c-.019-.02-.036-.053-.058-.055-.016-.002-.051.03-.053.05-.002.018.03.039.048.058zm.648-1.14l.05.06c.019-.018.05-.034.052-.054.002-.017-.028-.05-.048-.053-.016-.002-.036.03-.054.046zm-.022-1.247l.052.061.058-.054c-.017-.019-.034-.05-.053-.053-.017-.002-.038.03-.057.046zm-.008-3.667l.06-.054-.116-.006.056.06zm.47 3.316l-.051-.058-.007.112.058-.054zm2.56.127l.052.061c.018-.018.05-.035.052-.056.002-.017-.03-.037-.048-.056l-.055.05zm.573 10.545l.063-.051c-.02-.019-.036-.051-.057-.053-.017-.002-.038.03-.058.048l.052.056zm1.415-15.727l-.055-.057a7.7 7.7 0 0 1-.005.11l.06-.053zm.244-2.8l.061-.05c-.019-.02-.035-.05-.055-.053-.017-.002-.037.03-.056.047l.05.056zm.52 2.066l.052.06c.02-.018.04-.035.058-.053-.017-.018-.033-.05-.052-.052-.018-.002-.038.029-.057.045zm.672 16.418a5.5 5.5 0 0 1 .057-.052 7.644 7.644 0 0 0-.11-.006l.053.058zm-.005-8.067l.052.06c.02-.017.038-.036.057-.054-.018-.018-.034-.05-.053-.052-.017-.001-.037.03-.056.046zm-.094-8.831l.06-.051-.053-.058c-.019.018-.05.034-.052.053-.002.017.029.037.045.056zm1.123 14.212l.057-.05-.11-.007.053.057zm-.028-12.63l.06-.05-.054-.057c-.018.018-.048.034-.051.053-.002.016.029.036.045.055zm.405 2.842a2.55 2.55 0 0 1 .056-.05l-.109-.006.053.056zm.697-.727l.06-.05c-.017-.02-.034-.05-.054-.054-.017-.002-.05.029-.053.049-.002.016.03.036.047.055zm.19-7.356l.05.061c.02-.018.052-.035.054-.055.002-.017-.029-.051-.049-.053-.016-.002-.037.03-.056.047zm1.722 15.51l.06-.053a5.498 5.498 0 0 0-.054-.058c-.019.018-.05.034-.052.054-.002.017.03.038.046.057zm3.182-4.907c-.015-.019-.032-.037-.048-.055l-.006.106.054-.051zm1.53-11.89l.06-.051c-.018-.02-.035-.05-.056-.053-.017-.002-.038.03-.057.049l.052.054zm1.991 13.13l.06-.05c-.018-.02-.034-.051-.055-.054-.015-.002-.048.03-.05.049-.002.016.028.037.045.055zm.033-12.858l-.05-.057-.007.11.057-.053zm3.47 1.177l.049.06c.018-.017.05-.033.051-.053.003-.016-.029-.037-.045-.056l-.054.05zM26.795 101.4l.145-.057c-.03-.03-.058-.084-.089-.086-.049-.002-.1.03-.15.047l.094.096zm3.647-61.074l.133-.055c-.03-.03-.059-.082-.09-.084-.048-.003-.097.03-.146.049l.103.09zm1.344-10.552c.032-.032.09-.062.092-.096.003-.047-.034-.096-.054-.145-.03.03-.085.06-.087.091-.003.049.03.1.049.15zm6.817 75.526l.145-.056c-.03-.031-.057-.086-.089-.088-.048-.003-.098.03-.148.048l.092.096zm39.32-56.676l-.094-.088c-.019.048-.055.097-.051.144.002.033.058.062.09.093l.055-.149zm.474-.124c-.035.044-.084.079-.085.116-.002.047.033.097.053.146.031-.03.085-.06.088-.092.002-.048-.031-.099-.056-.17zm1.447-9.963c-.033.031-.09.061-.092.095-.004.047.033.097.053.146.031-.03.086-.059.088-.09.003-.05-.031-.1-.049-.151zm1.334-.623l.082-.096c-.048-.019-.097-.056-.144-.052-.033.003-.063.058-.095.09l.157.058zm.62-2.869l-.093-.088c-.02.048-.055.096-.052.142.004.032.058.06.09.091l.054-.145zm.954-.935c.032-.032.088-.061.09-.095.004-.047-.033-.096-.052-.144-.03.03-.084.058-.086.09-.003.048.03.099.048.149zM83.93 44.28l.072.14c.026-.046.072-.09.072-.136 0-.045-.044-.09-.068-.137l-.076.133zm3.046-13.084c.032-.032.089-.062.091-.096.003-.046-.033-.096-.054-.144-.03.03-.084.06-.086.091-.003.049.03.1.049.15zm.735 1.59c.035-.034.092-.064.094-.098.004-.047-.033-.098-.053-.147-.032.03-.088.058-.09.09-.004.048.03.1.05.155zm4.49 2.593c.034-.032.09-.061.092-.094.003-.048-.032-.098-.051-.146-.032.029-.087.056-.09.088-.003.048.03.098.05.152zm.666-2.52c.053.02.101.055.146.052.034-.002.064-.056.095-.087-.048-.018-.097-.05-.144-.048-.033.001-.063.052-.097.082zm.858.948l.075.14c.026-.046.07-.091.07-.136.001-.046-.044-.092-.07-.138l-.075.134zm2.978-2.014l.142-.074c-.046-.026-.093-.072-.14-.072-.045 0-.092.045-.139.07l.137.076zm.956 3.018l.072.139c.026-.045.072-.09.072-.134 0-.046-.044-.092-.07-.137l-.074.132zm4.552-1.048c-.043-.025-.088-.07-.132-.07-.046 0-.092.044-.139.069.045.025.09.07.134.07.046 0 .092-.044.137-.069zm.065-13.328c.053.021.102.058.147.053.034-.002.064-.057.095-.089-.048-.018-.098-.052-.145-.05-.033.003-.063.054-.097.086zm3.895 1.607l.075.143c.026-.046.073-.092.073-.137 0-.046-.046-.093-.071-.14l-.077.134zM17.178 96.594c.028-.06.072-.119.06-.133-.05-.064-.119-.115-.18-.17-.027.06-.092.146-.072.178.037.058.124.084.192.125zm19.125 7.977l.12-.003c-.003-.13-.005-.262-.01-.392a.208.208 0 0 0-.05 0c-.022.127-.04.255-.06.395zm29.075-26.6l.161-.199c-.063-.026-.16-.092-.18-.073-.054.048-.077.133-.1.206-.003.008.07.04.12.066zm18.133-45.296l.162-.198c-.062-.027-.157-.093-.18-.074-.054.046-.078.131-.102.204-.003.007.071.04.12.068zm1.545-.539c-.04.146-.082.226-.078.302.005.078.056.154.087.23.026-.077.073-.154.074-.232.002-.077-.04-.156-.083-.3zm1.346 18.884c.031-.096.063-.181.084-.27.005-.016-.031-.043-.049-.066l-.233.236.198.1zm7.645-28.979c-.002-.153.003-.26-.01-.365-.003-.028-.066-.049-.1-.073-.016.106-.04.212-.044.318 0 .025.064.052.154.12zm2.059 15.58c-.096-.032-.181-.064-.269-.085-.017-.005-.044.032-.067.05l.236.238.1-.203zm5.22-4.038c-.065-.021-.135-.067-.162-.049-.058.039-.094.11-.138.169.052.024.128.083.151.067.06-.044.1-.12.15-.187zm-6.804-1.038l.182-.06c-.042-.066-.073-.143-.13-.191-.02-.017-.1.039-.154.061l.102.19zm-15.824 7.052l.282-.286c-.035-.03-.09-.093-.101-.086-.114.072-.22.156-.328.237l.147.135zM27.391 73.196c-.055-.018-.12-.062-.148-.044-.06.037-.141.103-.144.16-.004.1.045.2.072.301l.108-.204.112-.213zM87.842 31.28c-.068-.048-.144-.14-.195-.129-.068.016-.172.155-.161.17.062.089.154.156.236.23l.12-.271zm-9.9 19.195c.081-.097.165-.153.165-.21 0-.056-.08-.154-.131-.157-.054-.004-.149.075-.16.131-.011.054.062.125.125.236zm3.415 2.081c.081-.097.166-.154.166-.21 0-.057-.085-.114-.133-.17-.057.047-.148.089-.16.146-.011.053.063.124.127.234zm5.119-15.163c.128.094.23.18.344.245.03.017.098-.034.149-.053-.099-.089-.192-.185-.3-.26-.024-.019-.097.032-.193.068zm4.794-9.085c.096.082.15.166.206.166.056.002.154-.079.157-.128.004-.054-.074-.147-.13-.16-.053-.011-.124.061-.233.122zm-.143-7.364l.341.125.207.076c.009-.052.043-.126.022-.152-.047-.055-.12-.112-.188-.12-.088-.009-.18.03-.382.07zm3.497 4.532c.079-.096.16-.152.16-.206-.001-.057-.082-.112-.128-.168-.056.046-.147.086-.158.141-.01.053.062.123.126.233zM18.25 97.827c.023.014.078-.06.1-.078-.107-.124-.21-.252-.324-.37-.022-.022-.116-.019-.126 0-.024.044-.043.132-.02.154.116.112.24.219.37.294zm9.248-25.1l-.268-.295c-.047.06-.145.139-.132.175.04.099.121.183.197.263.007.006.098-.068.203-.143zm22.653 18.6c-.014-.088-.01-.131-.024-.137-.04-.019-.106-.044-.126-.026a2.838 2.838 0 0 0-.298.303c-.019.022.005.086.022.126.006.013.061.02.077.009.127-.095.25-.195.349-.275zM87 28.587c.015-.337.041-.452.017-.554-.014-.056-.114-.091-.176-.136-.041.083-.128.175-.114.249.017.102.11.19.273.441zm.575 10.538c.126-.137.217-.236.307-.336-.078-.025-.167-.087-.233-.068-.087.024-.167.104-.228.178-.012.015.075.111.154.226zm1.266 4.373l-.382-.154-.082.225c.13.03.26.062.39.083.013.001.037-.075.074-.154zm1.796-7.272c-.23-.02-.351-.064-.437-.027-.073.03-.105.157-.155.24.048.025.113.084.142.07.121-.06.231-.141.45-.283zm.165-3.244l.125-.027c.01-.128.032-.257.023-.384-.003-.044-.087-.08-.134-.12-.048.09-.129.18-.133.271-.003.085.076.173.119.26zm-1.321-9.727l.27-.339c-.08-.021-.173-.078-.238-.055-.085.03-.147.123-.22.19l.188.204zm17.76.664c.102-.177.184-.27.167-.298-.073-.107-.176-.193-.268-.287-.024.051-.076.108-.065.151.028.115.083.224.167.434zM24.79 100.465l.204-.285c-.092-.049-.185-.14-.273-.134-.076.005-.144.121-.215.188.078.064.156.128.284.23zm6.534-73.178c.162.08.299.166.448.214.06.018.146-.048.22-.075-.014-.025-.024-.052-.041-.075-.136-.181-.312-.23-.522-.151-.024.009-.042.033-.105.087zm2.082.625l.325-.261c-.087-.08-.164-.176-.261-.238-.176-.112-.188.045-.183.147.005.096.061.188.12.352zm.978-.099c.08-.255.147-.357.128-.44-.018-.086-.12-.155-.185-.231-.05.088-.137.175-.142.266-.004.084.079.172.2.405zm69.295-7.802l-.161-.178c-.078.113-.175.22-.225.344-.026.064.028.16.046.242.047-.01.115-.007.134-.036.075-.115.135-.24.206-.372zM14.565 89.498c.024-.037.075-.08.068-.107a1.043 1.043 0 0 0-.101-.233 4.474 4.474 0 0 0-.194-.32c-.007-.01-.053.004-.08.007.014.124.016.251.044.372a.57.57 0 0 0 .113.225c.03.036.099.038.15.056zm20.31-58.804l.196-.104-.482-.37c-.036.089-.12.24-.1.255.126.095.274.16.386.219zm19.412 48.793c-.108-.093-.201-.191-.214-.182a2.567 2.567 0 0 0-.35.323.62.62 0 0 0 .133.156c.136-.08.262-.176.43-.297zm45.208-43.78c-.14-.072-.257-.152-.387-.19-.045-.012-.144.071-.175.132-.036.073.325.37.412.329.055-.026.074-.126.15-.27zm-5.45-3.117l-.065-.154c-.046.023-.098.039-.136.07-.09.073-.17.156-.26.228-.057.045-.125.078-.189.117.076.035.15.075.229.104.29.112.423-.004.42-.365zM70.69 56.253l.2.28c.058-.062.162-.119.17-.185.018-.193-.003-.388-.01-.583 0-.002-.055-.01-.061-.002-.1.158-.195.318-.3.49zm29.296-21.901c-.157-.114-.266-.253-.369-.25-.113.004-.22.142-.33.22.096.089.19.24.293.248.111.008.232-.118.406-.218zM60.08 59.662c-.064-.117-.152-.343-.188-.334-.21.048-.334.22-.271.433.026.09.184.193.288.2.223.014.197-.119.171-.298zm22.486-31.585c.144-.256.267-.388.28-.531.01-.094-.133-.284-.213-.286-.114-.004-.337.136-.33.194.02.17.13.33.263.623zm-20.445 34.34c.259-.047.406-.286.35-.551-.011-.058-.12-.143-.176-.136-.224.025-.369.274-.313.535.013.064.1.113.139.152zM11.152 78.24c-.046-.137-.13-.408-.237-.669-.016-.04-.148-.047-.223-.041-.027.003-.08.113-.063.14.18.29.42.551.358.934-.002.018.037.043.056.065.032-.035.079-.064.092-.104.017-.053.008-.116.017-.325zM88.045 25.01c-.039-.062-.058-.129-.1-.15-.044-.02-.135-.02-.162.01-.097.104-.21.214-.248.344-.028.094-.283.233-.02.316.097.03.272-.056.355-.144.093-.096.122-.254.175-.376zm4.01 19.531c-.209-.1-.318-.195-.43-.196-.25-.003-.266.202-.223.376.028.113.138.206.211.307l.442-.487zm-59.542 60.694c.054-.015.119-.02.158-.052.02-.017.01-.096-.012-.132-.085-.147-.183-.286-.268-.433-.04-.07-.062-.15-.092-.226-.082.083-.208.151-.237.249-.096.322.085.543.45.594zm41.445-36.574c.039.208.033.335.087.427.05.082.164.126.25.187.016-.082.055-.166.046-.244-.028-.226-.349-.444 0-.68.046-.03.024-.16.034-.244-.077.031-.191.04-.222.097-.092.165-.151.35-.195.457zm14.247-43.86c.118.193.215.364.328.524.014.02.14.005.154-.024.074-.144.211-.338.164-.44-.051-.111-.276-.156-.433-.198-.048-.013-.123.077-.213.137zm-4.362 11.316c.18-.192.378-.398.569-.61.01-.013-.043-.118-.06-.116-.172.014-.399-.016-.497.08-.128.124-.154.353-.214.54-.003.009.091.049.202.106zm7.683 1.348c.05-.13.085-.18.084-.232-.001-.049-.038-.136-.065-.138-.075-.006-.187-.003-.222.044-.084.11-.165.244-.185.378-.018.127.044.265.07.398l.546-.275-.228-.175zM58.544 66.801c.022.008-.046-.042-.079-.025-.368.188-.458.825-.164 1.119.02.02.059.047.073.04.041-.02.103-.054.106-.087.026-.34.043-.683.064-1.047zm22.424-7.02c.003.199-.008.26.008.315.02.07.063.133.097.199.046-.035.104-.062.135-.108.08-.117.147-.244.223-.364.045-.071.098-.138.148-.207-.128-.055-.252-.13-.384-.155-.063-.012-.187.054-.208.113-.038.105-.02.23-.02.207zm1.223-1.437c-.055-.039-.134-.135-.219-.141-.096-.007-.26.044-.285.11-.076.209-.105.435-.135.656-.003.026.134.11.158.095.236-.157.477-.32.481-.72zm-5.507-.89l-.072-.333c-.085.041-.183.067-.254.125-.11.093-.258.193-.287.314-.03.134.055.295.09.444.087-.035.206-.046.257-.111.116-.149.199-.324.266-.44zm25.053-38.622c.29-.143.574-.274.847-.425.041-.023.064-.155.037-.205-.038-.07-.126-.152-.2-.16-.287-.03-.736.4-.747.705 0 .037.056.077.063.085zM79.11 60.052c.084-.064.187-.112.242-.193.08-.115.137-.25.178-.384.033-.111.03-.232.042-.35-.133.035-.33.028-.387.113-.137.205-.212.452-.298.687-.005.011.122.07.223.127zM59.184 73.31l-.314-.459c-.044.118-.075.244-.136.352-.055.102-.16.176-.211.28-.044.089-.042.201-.061.304.137.007.323.073.4.01.138-.115.211-.308.322-.487zM73.65 59.535c-.038-.035-.104-.131-.143-.122a2.852 2.852 0 0 0-.625.219c-.065.035-.088.196-.084.298.002.059.086.145.15.166.34.111.62-.104.702-.561zM56.29 89.553c-.002.008.026-.074.043-.156.04-.192.084-.385.108-.58.013-.097-.012-.199-.02-.299-.1.035-.218.047-.297.11-.11.087-.212.2-.28.322-.125.222.067.564.446.603zm7.554-9.793c.003.03-.004.071.012.086.122.106.253.296.373.291.214-.01.12-.182.064-.32-.096-.238.133-.262.256-.358.046-.036.097-.151.088-.158-.086-.07-.191-.18-.277-.17-.238.031-.52.406-.516.63zM81.639 44.32c.232.029.37-.109.268-.286a3.292 3.292 0 0 0-.45-.624c-.067-.07-.236-.043-.357-.059.013.133-.021.335.05.386.194.138.505.164.332.526l.157.057zm1.093 12.85l-.14-.36c-.08.113-.232.23-.227.34.012.278-.26.286-.345.448-.044.082-.016.238.04.321.03.045.219.045.28-.005.229-.183.457-.385.392-.743zm2.614-29.604l-.353-.51c-.148.16-.411.322-.41.483 0 .168.254.335.397.504l.366-.477zM49.275 98.561c-.272-.048-.46-.141-.557-.084-.132.077-.195.271-.289.414-.121.186-.202.42.012.537.233.126.224-.195.337-.3.153-.143.278-.313.497-.567zm17.369-21.11c.048-.022.138-.042.139-.066.014-.426.335-.655.588-.925.19-.203.21-.406.032-.62a.291.291 0 0 0-.14-.098c-.02-.006-.084.065-.087.106-.044.428-.284.739-.559 1.048-.094.107-.084.312-.107.475-.002.02.087.052.134.08zm3.632-19.836c-.002-.004.06.27.192.307.26.075.28-.19.323-.39.034-.17.122-.327.155-.496.034-.181-.168-.32-.351-.26-.31.104-.38.338-.32.839zm29.097-38.503c.249-.044.55-.608.44-.825-.013-.025-.031-.057-.054-.065-.155-.052-.33-.166-.464-.131-.246.064-.322.284-.315.545.008.235.12.373.307.476.023.011.057 0 .086 0zM14.389 91.243c.007.085-.02.223.034.307.13.198.298.37.451.552.013-.202.008-.406.04-.604.082-.508-.326-.781-.534-1.15-.019-.032-.12-.059-.132-.045-.035.04-.067.107-.057.155.035.159.046.409.141.45.214.09.178.17.057.335zm37.24 6.489c-.014-.021-.024-.057-.04-.06-.054-.012-.132-.038-.164-.012-.609.481-1.001 1.136-1.407 1.78-.02.033-.01.13.002.132.081.02.196.06.246.023.108-.08.21-.19.267-.311.259-.559.583-1.068 1.053-1.476.02-.018.028-.05.042-.076zm1.71-6.876c-.036-.06-.065-.15-.092-.149-.076.002-.178.019-.222.07-.165.196-.381.388-.445.618-.067.24.078.534-.19.739-.02.015.017.157.064.197.045.037.168.052.203.02.126-.117.322-.258.323-.391a1.24 1.24 0 0 1 .332-.864c.046-.051.02-.166.027-.24zm35.222-46.71c-.122-.1-.221-.203-.342-.266-.038-.02-.175.056-.194.112a6.553 6.553 0 0 1-.614 1.299c-.047.079-.022.203-.03.306.102-.015.207-.016.305-.045.245-.075.4-.213.345-.505-.06-.326.045-.565.383-.68.059-.021.087-.128.147-.221zM69.453 59.442c-.1-.106-.228-.316-.294-.298-.2.054-.35.19-.15.438.052.065.038.279-.02.321-.376.276-.385.815-.791 1.067-.07.044-.136.24-.112.261.1.088.237.187.36.185.125-.002.262-.1.37-.184.58-.449.392-1.158.637-1.79zm-47.375 41.546l.265-.155c-.063-.08-.121-.166-.192-.238-.112-.117-.23-.32-.351-.323-.506-.014-.872-.259-1.223-.582-.072-.066-.269-.068-.365-.018-.249.128-.066.319.018.427.187.24.383.53.644.645.358.155.778.166 1.204.244zm64.659-73.516c.058-.04.125-.08.187-.127.16-.12.322-.35.477-.345.44.015.618-.221.783-.565.137-.284.12-.567-.159-.64-.159-.043-.393.036-.537.14-.223.159-.423.368-.586.59-.148.2-.237.445-.342.675-.018.037-.001.105.024.142.03.047.087.077.153.13zm-33.697 53.6l-.122-.316c-.082.08-.233.16-.236.243-.015.634-.337 1.146-.601 1.691-.148.303-.194.658-.266.994-.014.063.054.158.108.215.025.025.133.017.162-.015.42-.452.77-.983.724-1.596-.02-.26.055-.484.055-.725 0-.16.11-.32.176-.49zM76.639 47.97c.186-.092.37-.138.481-.255.054-.057-.042-.244-.049-.372-.008-.14-.025-.292.021-.417.246-.666.604-1.292.703-2.01.007-.049.088-.083.111-.134.026-.06.026-.131.038-.197-.086-.006-.202-.049-.253-.01-.129.103-.263.225-.33.37-.07.15-.004.43-.1.49-.414.264-.184.756-.456 1.103-.235.3-.208.81-.281 1.23-.01.055.07.126.115.202zm8.537-16.989c.204-.081.35-.11.456-.19.18-.134.334-.302.5-.455.26-.24.256-.236-.015-.526-.034-.035.006-.13-.002-.196-.022-.157 0-.402-.087-.451-.198-.113-.397.005-.515.205-.147.248-.3.494-.428.752-.074.15-.15.326-.14.486.006.125.144.242.231.375zm-8.369 30.394c-.168-.026-.282-.08-.329-.044-.196.147-.039.552-.416.581.078.235.263.278.481.293.066.004.152.081.185.147.113.23.216.255.353.02.146-.251.305-.496.451-.748.088-.152.186-.305.233-.47.06-.217-.01-.42-.227-.522-.197-.092-.365-.109-.504.151-.092.173-.37.258-.162.523.005.007-.071.075-.065.07zM57.486 73.038c-.036.078-.112.22-.102.227.145.09.295.188.457.23.054.013.15-.122.22-.195.224-.226.431-.471.672-.677.266-.225.298-.53.297-.825 0-.137-.154-.303-.282-.395-.043-.03-.244.112-.336.21-.253.27-.436.647-.739.817-.333.187-.293.354-.187.608zm11.492-16.386c-.004-.206-.006-.411-.013-.617 0-.024-.04-.07-.05-.067-.05.014-.123.03-.137.066-.066.156-.09.334-.178.475-.065.106-.341-.1-.272.32.078.472-.001 1.04-.483 1.467-.4.355-.65.878-.977 1.318-.078.106-.148.206-.009.277.11.055.319.108.368.055.195-.21.516-.499.476-.692-.077-.367.154-.452.321-.604.595-.539 1.046-1.138.954-1.998zM29.022 68.765c-.092-.113-.148-.25-.224-.264-.22-.035-.382-.024-.584.21-.611.704-.7 1.634-1.147 2.4-.015.026.14.215.187.203.589-.138 1.07-.428 1.27-1.038a.616.616 0 0 0-.008-.384c-.128-.33-.186-.604.234-.776.11-.045.168-.212.272-.351zm23.425 27.98c.075-.032.175-.046.224-.104.243-.286.646-.574.666-.882.029-.472.436-.749.433-1.2 0-.192.107-.383.13-.579.008-.06-.088-.156-.159-.193-.05-.025-.153.001-.208.04-.233.164-.315.386-.31.68.002.18-.077.418-.206.534-.34.308-.738.551-1.09.847-.169.141-.285.344-.425.519.197.097.389.204.592.285.104.042.227.036.353.054zm.053-2.815c-.013-.056-.022-.108-.026-.107-.065.006-.153-.003-.19.035-.31.324-.642.61-.902 1.005-.252.383-.656.706-.955 1.09-.087.113-.123.313-.23.356-.673.27-.637.775-.486 1.333.049.179-.12.464.17.51.123.02.297-.151.417-.268.123-.12.223-.27.306-.422.317-.58.612-1.173.935-1.75.294-.526.617-1.035.92-1.555.04-.07.031-.168.04-.227zm28.528-35.395c.052-.043.1-.077.143-.118.418-.39.673-.869.818-1.42.138-.525.29-1.037.596-1.511.212-.326.4-.673.736-.85.41-.216.065-.766.496-.956.11-.048.172-.226.239-.354.291-.558.588-1.114.861-1.681.365-.76.71-1.527 1.058-2.294.092-.2.164-.41.245-.615-.346-.082-.45.235-.605.412-.167.188-.25.452-.364.685-.063.128-.085.294-.18.384-.582.547-.66 1.43-1.303 1.935-.07.056-.057.218-.082.33-.024.112-.01.26-.078.331-.536.561-.682 1.34-1.107 1.962-.19.28-.382.604-.426.928-.071.523-.37.899-.643 1.3-.164.24-.412.434-.538.69-.092.187-.06.442-.052.667.002.06.121.117.186.175zm-3.56-7.653c-.05-.102-.074-.154-.1-.205-.033.032-.1.07-.094.094.06.327-.154.5-.331.727-.189.242-.236.59-.41.848-.346.51-.417.96-.173 1.533.034.078.06.166.063.25.022.67.065 1.339-.324 1.948-.105.164-.117.39-.145.593-.007.05.08.153.139.165.236.05.6-.165.736-.35.175-.237.164-.49.163-.756 0-.142-.017-.33.062-.416.478-.525.752-1.122.803-1.835.01-.163.089-.38.21-.465.26-.181.36-.436.479-.699.115-.254.17-.247.402.017.266.298.477.273.52-.125.031-.298.18-.499.303-.73.137-.255.25-.546.452-.74.666-.64.632-1.591 1.077-2.326.043-.07-.004-.248-.07-.323-.37-.416-.179-.774.072-1.148.123-.184.247-.311.49-.313.134 0 .289-.048.398-.126.076-.055.09-.196.131-.299-.1-.012-.204-.05-.298-.03a.854.854 0 0 0-.311.151c-.168.122-.273.1-.25-.114.022-.198.053-.42.16-.578.177-.264.024-.485-.014-.724-.042-.259-.201-.28-.361-.121-.89.882-1.705 1.824-2.047 3.067-.064.234-.135.422-.29.615-.439.547-.903 1.109-.438 1.876.013.022.018.067.004.084-.084.105-.173.205-.261.306-.255-.238-.416-.056-.588.12-.034.034-.115.022-.158.029zm15.49-8.175c.033.168.015.436.11.485.32.164.228-.238.37-.35.12-.097.147-.304.245-.439.112-.152.24-.367.393-.398.372-.074.484-.276.474-.615-.007-.236-.03-.523.243-.608.39-.121.332-.445.248-.642-.218-.506-.064-.944.099-1.405a.892.892 0 0 0 .026-.414c-.012-.071-.107-.137-.178-.183-.014-.01-.106.073-.14.127-.35.556-.854 1.01-1.07 1.654-.017.05-.139.086-.216.093-.472.046-.418.08-.716.518-.201.297-.254.564-.257.893-.006.576-.352.958-.8 1.266-.562-.314-.36.159-.42.394-.079.307.239.592.03.897.052.032.124.105.152.09.26-.13.668-.178.379-.65-.035-.057.115-.219.165-.338.176-.415.537-.364.881-.357l-.019-.018zM84.503 26.14l.017-.018c-.114.079-.29-.317-.375.055-.031.138-.09.32-.195.38-.162.097-.375.108-.567.155.06.158.13.314.176.475.01.033-.074.085-.105.135-.183.294-.373.585-.54.887-.156.278-.056.562.232.694.033.014.145-.05.151-.088.078-.454.267-.819.718-1.01.069-.029.152-.137.149-.205-.024-.523.393-.718.696-1.018.266-.262.456-.601.68-.906-.211-.49.201-.696.444-.98.037-.044.088-.103.081-.147-.009-.054-.075-.144-.11-.142-.758.05-1.116.387-1.275 1.162-.04.194-.117.381-.177.571zm-11.89 35.235l.02-.02c-.05.029-.143.071-.139.087.111.384-.07.7-.212 1.035a1.515 1.515 0 0 0-.112.597c.001.08.149.178.249.224.047.021.186-.046.207-.1.126-.34.302-.606.695-.674.066-.011.151-.122.164-.197.077-.486.145-.974.191-1.465.006-.068-.116-.177-.202-.215-.061-.028-.203.006-.235.058-.074.117-.063.321-.157.382-.107.07-.292.009-.438.036-.025.005-.02.164-.03.252zM15.838 92.687c.002.79-.029.837.387 1.122.337.23.592.432.553.88-.007.075.146.165.225.248.035-.123.124-.262.095-.368-.205-.769-.547-1.452-1.282-1.86.067-.282-.142-.418-.304-.582-.107-.109-.19-.097-.28.016-.09.113-.193.216-.274.335-.021.032.002.12.035.155.031.036.128.07.147.051.238-.22.467-.125.698.003zm63.244-38.55c.227-.048.361-.191.35-.417-.007-.151-.06-.414-.131-.428-.27-.05-.207.192-.212.347-.006.172.01.345.016.518-.534.205-.67.766-1.012 1.144-.035.039-.016.181.028.22.044.039.186.041.222.002.368-.395.785-.77.74-1.387zM91.078 36.53c.16-.15.34-.288.475-.46a.353.353 0 0 0 .025-.32c-.04-.072-.188-.104-.292-.113-.163-.014-.121.073-.12.202 0 .112-.192.218-.28.34-.056.075-.077.175-.114.264l.324.067.054.132.06-.062-.132-.05zm.147-1.976l.132-.056a3.491 3.491 0 0 1-.062-.062l-.051.135-.37.184c-.045-.058-.08-.129-.136-.169-.025-.018-.094.026-.143.042.045.038.084.09.135.109.047.018.107 0 .162-.003.062.188.105.386.194.56.114.223.244.222.33-.033.118-.065.263.338.368-.023.047-.16.141-.313.157-.475.016-.161-.039-.331-.062-.497-.053.135-.102.272-.161.405-.091.205-.189.408-.284.612-.368-.157-.115-.494-.21-.73zM20.339 97.257c.032-.24-.049-.387-.313-.358-.059.007-.11.073-.165.114.136.078.273.158.411.234.021.01.055-.004.083-.007l.059.131.06-.064-.135-.05zm88.536-71.686c-.055-.148-.105-.298-.17-.441-.012-.027-.085-.027-.13-.039-.012.051-.051.128-.032.148.109.112.232.21.35.312.02.044.04.087.058.132l.06-.065-.136-.047zM93.68 20.103c.001.055-.02.13.006.162.058.07.139.124.217.172.01.007.102-.088.096-.097a.834.834 0 0 0-.175-.214c-.034-.026-.107-.002-.163 0-.102-.06-.2-.13-.308-.175-.036-.014-.098.032-.147.05.047.038.09.102.14.109.11.014.223-.003.334-.007zM75.398 56.17l-.132.053.061.062.052-.133c.055 0 .13.022.162-.006a.828.828 0 0 0 .169-.22c.005-.011-.09-.103-.1-.096a.837.837 0 0 0-.213.178c-.026.034 0 .107 0 .162zM92.37 38.11c-.044.017-.087.035-.131.051l.059.061.05-.132c.11 0 .222.005.331-.004.05-.004.096-.037.144-.057-.052-.036-.12-.111-.154-.098-.107.042-.2.117-.299.179zm-13.525.04l-.134.055.064.062.05-.136c.059-.002.128.017.174-.008a.434.434 0 0 0 .164-.16c.015-.028-.038-.094-.06-.143-.067.056-.142.106-.198.172-.035.04-.041.104-.06.157zm.033 2.132c-.247.032-.17.215-.171.362l-.262-.004c-.17-.003-.281.06-.265.25.019.203-.096 1.038-.177 1.078-.544.275-.39.822-.492 1.263-.016.07.088.219.166.246.09.032.255.007.315-.059.133-.145.212-.338.33-.5.127-.179.273-.344.411-.515.023.188-.106.42.166.535.12.05.233.115.35.173-.076.12-.143.246-.23.356-.093.116-.214.208-.305.323-.041.053-.076.187-.055.202.318.225.278.56.293.881.002.053.042.105.065.156.047-.028.1-.05.142-.085.512-.4.697-1.007.948-1.56.2-.44.203-.113.308.027.054.07.21.146.262.117.085-.047.197-.213.171-.269-.245-.519-.085-.798.462-.934.153-.038.307-.19.113-.396-.056-.06-.056-.17-.11-.235-.237-.284.028-.42.169-.588.246-.296.216.125.328.128.16.005.366.009.47-.082.146-.126.26-.327.31-.517.11-.417.623-.776.206-1.284-.026-.03.033-.179.09-.223.207-.159.16-.318.07-.518-.036-.08.038-.21.062-.317.07.054.135.115.212.157.06.034.134.043.202.063-.013-.08 0-.193-.046-.232-.106-.088-.242-.194-.367-.196-.298-.005-.274-.274-.38-.425-.017-.025.164-.19.254-.29.043-.05.129-.136.12-.147-.21-.267-.033-.492.053-.738.041-.12.067-.32-.148-.334-.062-.005-.186.13-.192.209-.062.77-.727 1.14-1.122 1.68-.15.206-.484.278-.735.408-.085.044-.276.022-.146.194.046.06.194.092.275.068.187-.055.357-.184.21.179-.054.132.011.336.074.485.106.252-.006.301-.221.33-.237.032-.49-.078-.67.268-.102.197-.518.21-.754.364-.12.079-.167.285-.224.441-.134.362-.088.78-.348 1.104-.07-.3-.075-.603-.018-.907l.131-.053-.06-.061-.05.134c-.27.026-.398-.097-.382-.369.241-.03.173-.211.175-.358l.3-.06-.08-.1-.203.175zm24.79-7.889l.05.13.06-.056a34.49 34.49 0 0 0-.13-.05l-.056-.128-.055.06.131.044zm-20.008 6.39l-.131.055.061.06.05-.133.13-.053-.06-.061-.05.132zm-1.552 3.05l-.133.053.06.063.052-.136.175-.18.132-.055-.061-.06-.05.134-.175.18zM11.6 85.126c.005-.058-.014-.138.016-.17.43-.45.29-.918.077-1.407-.124-.282-.202-.584-.293-.88-.067-.22-.263-.282-.405-.191-.442.283-.33-.046-.297-.256.016-.106.103-.203.157-.303l-.015.018c.385-.14.383-.137.113-.421-.048-.05-.104-.126-.101-.187.03-.684-.181-1.362.01-2.056.068-.244-.036-.554-.122-.814-.05-.15-.21-.328-.414-.213-.19.108-.273.077-.242-.128.057-.37-.291-.767.12-1.13.104-.092.023-.397.026-.603.004-.26-.087-.529.111-.768a.294.294 0 0 0 .033-.252c-.29-.714.084-1.424.004-2.143-.048-.42.015-.892.169-1.284.15-.385.066-.759.137-1.125.184-.949.005-1.926.256-2.866.015-.056.039-.13.016-.173-.333-.626.032-1.252.026-1.878-.007-.588.293-1.174.37-1.771.12-.93.457-1.828.415-2.781-.001-.03-.012-.064-.002-.088.346-.82.249-1.718.44-2.566.044-.197.107-.484.008-.603-.326-.39-.06-.74.03-1.077.148-.556.395-1.086.577-1.635.11-.328.178-.671.257-1.01.228-.984.453-1.97.679-2.956.502-.546.495-1.29.746-1.935.125-.322.162-.677.262-1.01.208-.693.35-1.405.68-2.064.167-.33.212-.72.333-1.076.11-.327.26-.641.37-.969.147-.435.266-.88.407-1.317.308-.963.598-1.933.946-2.881.15-.408.42-.77.64-1.151.384-.669.392-1.457.699-2.154.314-.713.499-1.495.893-2.156.3-.503.437-1.041.662-1.557.245-.56.494-1.118.725-1.684.03-.075.002-.233-.056-.277-.215-.162-.784-.17-.9.023-.252.417-.737.638-.886 1.15-.086.298-.319.552-.487.825-.037.06-.077.117-.116.175-.02-.082-.045-.165-.062-.248-.086-.428-.072-.396-.469-.247-.46.174-.781.61-1.302.662-.11.01-.252.14-.315.104-.346-.197-.53-.014-.705.245-.383.565-.54.63-1.24.529a1.03 1.03 0 0 0-.265-.003c-.516.06-.529.06-.51-.367.01-.199.09-.393.12-.592.043-.293.157-.557.06-.892-.128-.451.011-.984.256-1.331.3-.426-.087-.698-.03-1.037-.435-.121-.19-.36-.126-.6a5.1 5.1 0 0 0 .166-1.024c.022-.406.495-.628.406-1.066.378-.717.514-1.541.975-2.223.032-.048.082-.104.08-.155-.039-.678.452-1.172.62-1.78.162-.585.445-1.135.613-1.718.12-.415.16-.858.194-1.292.012-.158-.068-.34-.152-.485-.175-.3-.378-.584-.574-.872-.276-.408-.268-.987.078-1.276.105-.088.296-.34.516-.077.238.284.383.04.42-.14.037-.186-.03-.403-.086-.595-.316-1.07-.549-2.15-.482-3.276.012-.214.014-.38.271-.484.235-.094.427-.194.645 0 .133.118.256.254.407.341.09.052.323.046.327.03.1-.473.597-.035.823-.379.148-.225.613-.032.74.161.24.37.693.355.956.68.252.308.641.501.95.768.203.175.4.295.672.37.308.086.717.206.664.695.35.258.292.834.773.987.334.891 1.323 1.307 1.62 2.226.486.432.774 1.062 1.534 1.218.495.102.847.538 1.021 1.071.06.182.112.303-.004.479-.1.153-.024.277.17.295.634.058 1.161.277 1.422.92.027.064.133.126.208.135.408.05.686.515 1.161.358.051-.017.168.055.2.114.081.151.144.316.191.481.053.185.08.377.118.566.337-.246.447.312.764.213.163-.051.32.007.417.221.142.311.42.462.773.512.145.02.31.128.159.381-.162.27-.247.587-.35.889-.072.205.061.338.28.282.39-.1.774-.238 1.17-.31.18-.033.383.05.576.084.187.033.238.087.102.275-.11.153-.202.366-.193.548.02.426-.04.815-.267 1.18-.137.221-.033.325.2.331.206.006.414-.004.621.002.327.01.326.013.231.407-.02.083-.047.174-.031.252.015.07.078.14.138.185.025.018.108-.018.148-.05.074-.06.163-.205.197-.192.149.061.202.162.1.34-.117.2-.057.402.137.542.035.025.116.031.146.008.228-.17.223-.37.113-.623-.078-.178-.166-.48-.08-.575.184-.205.469-.33.729-.451.141-.067.385.248.355.523-.034.314.128.443.377.47.262.03.531-.013.797-.004.067.003.17.073.185.13.015.057-.054.193-.098.2-.247.03-.538.087-.524.35.008.14.323.261.5.391l-.02-.018c.009.78.65 1.053 1.157 1.425.133.097.34.09.483.178.11.069.27.24.246.314-.127.4.137.905-.26 1.211-.339.26-.278.513-.14.83.092.208.137.438.201.659.056.193.136.106.236.031.112-.084.233-.178.365-.215.3-.086.443.019.471.318.03.302-.097.644.308.834.082.039.041.33.064.503.048.365.189.744.127 1.088-.058.324-.358.596-.496.915-.147.343-.204.724-.344 1.071-.31.773-.455 1.613-.946 2.318-.125.178-.173.436-.186.661-.024.405-.121.738-.52.928-.25.12.003.309-.039.44-.094.296-.251.572-.369.861-.217.534-.423 1.074-.637 1.609-.042.105-.077.25-.16.295-.398.216-.218.534-.176.83l.025-.021c-.6.078-.856.523-1.033 1.015a3.715 3.715 0 0 0-.188.934c-.032.375-.192.666-.437.934-.215.233-.413.482-.62.724-.052.062-.154.13-.15.187.064.808-.57 1.238-.969 1.788-.144.198-.32.364-.244.623.122.415-.286.608-.375.95-.26 1.002-.48 2.022-1.073 2.918-.23.347-.387.807-.4 1.221-.019.704-.448 1.26-.55 1.922-.008.054-.031.148-.06.152-.691.113-.392.65-.442 1.032-.022.175.06.397-.021.526-.473.757-.464 1.677-.858 2.444-.144.278-.359.464-.149.788.034.052-.02.168-.045.25-.258.799-.52 1.596-.777 2.395-.018.055.01.146-.023.172-.595.477-.5 1.142-.506 1.784a1.533 1.533 0 0 1-.087.53c-.054.142-.307.223-.1.425-.458.676-.297 1.48-.44 2.22-.18.938-.124 1.929-.37 2.843-.167.623-.107 1.34-.576 1.881-.04.047-.01.16 0 .241.04.316.112.63.122.948.014.425-.033.851-.026 1.277.008.41.112.826.064 1.226-.05.404.158.766.071 1.18-.083.396-.012.825-.008 1.24.003.414.01.83.01 1.244 0 .484.152.902.46 1.285.283.353.642.387 1.035.32.14-.023.276-.164.403-.15.779.084 1.403-.356 2.088-.586.16-.053.306-.155.447-.25.554-.378 1.101-.766 1.656-1.142.067-.046.19-.093.244-.063.587.333.92-.084 1.274-.424.19-.184.349-.431.656-.189.14-.18.38-.353.396-.545.024-.309.194-.427.384-.618.591-.594 1.13-1.242 1.691-1.866a.579.579 0 0 1 .206-.162c.553-.208.923-.6 1.204-1.11.078-.143.262-.227.395-.34.18-.152.374-.29.53-.463.663-.735 1.31-1.484 1.97-2.22.448-.499.905-.988 1.36-1.48.574-.621 1.156-1.235 1.721-1.865a2.8 2.8 0 0 1 .918-.668c.367-.174.712-.363.907-.788.109-.238.426-.38.65-.567.187-.157.249-.386.55-.506.331-.133.615-.551.772-.909.117-.27.292-.473.45-.694.667-.927 1.358-1.838 2.036-2.759.485-.658.979-1.31 1.439-1.987.605-.89 1.17-1.81 1.777-2.699.297-.434.608-.875.99-1.229.536-.494.657-1.227 1.13-1.75.156-.172.642-.772.85-.823.428-.104.68-.476 1.056-.673.338-.178.507-.682.747-1.044.113-.17.196-.367.334-.511.291-.302.482-.654.67-1.024.265-.519.598-1.003.9-1.503.16-.263.293.023.44.019l-.023-.02c0 .45-.255.766-.56 1.05-.205.19-.273.403-.31.69-.05.38-.24.748-.392 1.113-.111.27-.275.517-.377.788-.09.237.067.515-.18.754-.156.152.062.328.213.402.191.092.23-.074.286-.219.203-.511.707-.85.827-1.414.007-.03.089-.045.135-.066.02.053.07.117.055.157-.137.349-.238.724-.44 1.033-.31.474-.33 1.038-.56 1.536-.116.25.198.622.484.573.297-.052.678-.156.832-.372.218-.306.574-.612.438-1.095-.066-.238.127-.433.187-.64.109-.379.454-.744.176-1.212-.082-.138.006-.392.051-.586.059-.252.171-.492.223-.745.028-.134-.023-.284-.04-.426-.072.094-.126.225-.222.278-.306.167-.497.366-.447.755.012.09-.17.217-.281.303-.024.018-.19-.097-.188-.103.239-.518.132-1.215.815-1.513.133-.058.168-.325.265-.485.042-.07.129-.112.195-.168.039.079.06.174.119.232.137.137.002.258.01.374.01.14.141.335.269.388.173.07.205-.112.243-.267.047-.192.147-.373.24-.553.015-.03.105-.03.159-.025.012 0 .026.083.024.127-.022.465-.087.934-.054 1.395.015.22.186.417-.084.593-.028.019.014.144.024.22.016.114.072.24.041.34-.204.648-.206.645-.07 1.012.04.107.093.215.105.327.025.21.024.374-.285.423-.6.096-.556.134-.49.721a3.167 3.167 0 0 1-.276 1.652c-.249.537-.304 1.113-.52 1.644-.089.218.072.586-.343.643-.048.007-.125.146-.111.204.095.386-.251.572-.37.858l.02-.023c-.052.025-.11.041-.156.074-.366.26-.072.803-.495 1.078-.33.215-.337.637-.413 1.016-.084.415-.34.792-.471 1.201-.077.238-.17.156-.298.09l-.083.329.021-.022c-.314-.03-.482.193-.633.401a4.06 4.06 0 0 1-.737.77c-.171.141-.275.364-.417.542-.147.184-.13.329-.005.541.168.29.342.605.163.986-.056.121.073.316.06.472-.038.465.265.43.565.415l-.016-.015c.002.06.013.119.005.176-.03.232-.388.467-.033.686.152.093.714-.232.7-.428-.031-.424.445-.8.08-1.256-.113-.142-.055-.409-.142-.584-.228-.459-.075-.856.15-1.243.04-.068.212-.138.255-.109.084.057.167.187.16.281-.006.1-.11.198-.185.284-.213.24.105.345.127.524.125-.041.278-.05.37-.13.2-.174.532-.4.516-.577-.037-.418.19-.745.223-1.121.037-.424.24-1.063.437-1.324.122-.162.302-.324.33-.504.077-.501.421-.85.641-1.267.216-.411.449-.815.707-1.2.22-.329.375-.663.331-1.064-.028-.254.08-.433.227-.638.32-.447.588-.932.869-1.407.127-.217-.007-.3-.202-.327-.098-.013-.2-.002-.298-.02-.14-.024-.278-.065-.416-.099.098-.097.193-.198.295-.29a3.367 3.367 0 0 0 1.091-2.403c.002-.092.046-.238.111-.266.29-.126.365-.328.365-.633 0-.237.194-.47-.107-.683-.056-.039.058-.3.07-.461.023-.29.557-.417.231-.841-.087-.115.31-.29.52-.122.156.123.24.216.42.024.559-.598 1.079-1.205 1.412-1.978.203-.471.58-.866.868-1.304.143-.217.296-.44.376-.683.092-.276-.103-.36-.35-.347l.02.018c-.003-.176-.015-.352-.005-.526.013-.204.099-.131.213-.058.363.23.481.204.587-.169.163-.573.068-1.112-.317-1.584l.019.019c-.005-.054.002-.113-.02-.158-.024-.054-.074-.095-.113-.141-.018.047-.043.093-.053.142-.011.051-.009.106-.012.16l.016-.02c-.682.108-.742.168-.894.837a.87.87 0 0 1-.143.305c-.02.03-.127.023-.18 0-.274-.12-.536-.073-.522.131.032.448-.303.758-.353 1.157-.03.242-.17.237-.346.295-.295.096-.593.23-.84.414-.239.176-.577.415-.098.723.021.014.035.048.04.076.028.17.053.341.079.512.117-.144.236-.288.353-.434.157-.197.43-.368.154-.667.042-.025.085-.074.126-.072.05.001.143.05.14.07a7.147 7.147 0 0 0 .03 1.941c.008.059-.102.19-.158.19a.404.404 0 0 1-.267-.13c-.075-.082-.09-.217-.164-.302-.144-.168-.3-.33-.457.01-.032.071-.219.154-.25.129-.103-.086-.229-.215-.235-.334-.01-.16.111-.324.129-.491.032-.301.054-.575-.419-.582-.22-.003-.326-.232-.21-.544.147-.402.17-.837.48-1.191.365-.416.14-.95.174-1.43.004-.057-.177-.128-.273-.192l.022.018c.067-.219.115-.447.207-.655.115-.258.36-.267.606-.253.197.01.295.164.222.289-.27.461.124.883.05 1.332-.014.083.172.264.286.283.106.018.29-.088.352-.192.342-.564.644-1.152.989-1.713.135-.22-.074-.43-.106-.442-.421-.159-.31-.42-.143-.674.231-.355.204-.75.113-1.109-.127-.508.135-.865.352-1.251.018-.034.155-.042.201-.01.056.038.118.155.097.198-.076.154-.204.283-.281.437-.258.51-.242.635.163 1.075.13.142.258.246.043.411-.046.035-.114.093-.109.133.031.246-.277.451-.088.707.077.104.542-.09.701-.32.097-.139.22-.331.194-.475-.128-.704.368-1.278.366-1.957-.001-.276.139-.552.206-.83.23-.95.869-1.68 1.354-2.491.261-.439.682-.77.7-1.363.007-.244.333-.454.36-.766.003-.03.252-.036.386-.054-.005.098.03.245-.02.286-.348.283-.597.599-.601 1.08-.002.161-.107.33-.194.48-.287.488-.324.6-.286 1.2.014.249-.08.303-.292.193-.172.264-.037.747.246.81.17.037.353.006.53.014.055.002.11.03.163.047-.032.067-.05.18-.1.196-.474.152-.575.636-.855.958-.016.018.111.159.171.242l-.022-.02c-.135.377-.21.782-.55 1.059-.044.035-.027.203.018.275.114.184.29.333.383.525.077.16-.072.47.259.446.28-.02.57-.093.643-.454.028-.137.187-.31.144-.388-.163-.295.023-.456.151-.673.102-.174.182-.362.067-.623-.09-.203.078-.504.06-.756-.027-.358.199-.765-.227-1.069-.137-.098-.197-.375.107-.474l-.021-.019c.085.39.452.308.702.418.418.184.417.18.304.642-.024.099-.01.206-.013.308.124-.044.287-.054.363-.141.21-.24.447-.488.56-.776.239-.613.633-1.19.563-1.893-.014-.137-.053-.302-.143-.392-.076-.074-.291-.12-.36-.069-.154.12-.296.29-.371.47-.2.47-.357.958-.54 1.435-.016.04-.139.088-.158.07-.056-.05-.138-.17-.12-.194.44-.565.236-1.378.742-1.915-.08-.33.067-.652.034-.98-.025-.253.052-.374.328-.396.122-.01.229-.162.353-.229.058-.032.16-.046.208-.015.162.103.287.364.518.156.31-.278.63-.624.486-1.052-.109-.32.014-.549.166-.678.41-.344.54-.794.671-1.27.06-.218-.008-.55.429-.536.174.006.196-.386.521-.36.196.017.18-.171.06-.306-.088-.096-.241-.19-.248-.29-.043-.648.172-1.198.689-1.613.023-.018.051-.05.072-.047.13.02.261.069.387.058.035-.003-.213-.26.083-.275.383-.02.37-.182.192-.448-.03-.044.081-.256.107-.252.331.051.434-.305.678-.366.204-.051.45-.041.505-.268.035-.142-.078-.32-.125-.482.404.086.446-.365.725-.498.328-.156.013-.733.47-.931.086-.038-.154-.17-.292-.182-.176-.014-.2-.097-.077-.202a.564.564 0 0 1 .302-.143c.248-.017.297-.172.26-.358a2.377 2.377 0 0 0-.192-.567c-.084-.177-.315-.175-.4.016-.064.143-.053.321-.063.484-.005.07.037.203.033.204-.524.128-.506.659-.755.987-.32.423-.22.808.008 1.208-.133.04-.282.055-.395.126-.192.122-.365.275-.538.424-.22.187-.514.278-.724.136-.233-.159-.154-.448-.03-.705.072-.147.054-.337.076-.507l-.02.02.133-.133-.135-.067.02.02c.05-.34.09-.683.16-1.02.02-.09.12-.175.204-.235.391-.283.736-.63.814-1.102.056-.337.173-.25.368-.196.038.01.159-.137.155-.14-.319-.39.17-.558.26-.82.066-.195.39-.386.622-.42.344-.054.551-.264.7-.493.258-.4.505-.806.798-1.184a.474.474 0 0 0 .08-.329c-.053-.332.17-.529.388-.635.33-.16.497-.36.541-.723.017-.14.175-.36.364-.11.245.323.407.274.761.069.314-.182.79-.104 1.093-.427.046.045.14.11.13.132-.065.158.007.237.143.204.195-.048.393-.123.56-.231.067-.045.098-.22.072-.315a1.904 1.904 0 0 0-.228-.47c-.072-.12-.119-.218.076-.223.308-.008.58-.037.698-.4.073-.227.306-.2.44-.103.353.257.52-.107.77-.189.011-.615.374-.452.728-.337.092.03.253.046.298-.005.201-.232.417-.47.543-.745.146-.32-.151-.866-.47-.921-.086-.016-.203.083-.292.15-.19.14-.011.773-.57.421-.055.153-.13.304-.159.462-.018.097.033.207.053.311l-.273-.157-.224-.13.019.017c-.044-.254-.113-.508-.116-.762-.001-.076.17-.188.281-.224.359-.12.75-.181.724-.7-.002-.028.135-.063.208-.094.23.73.78.272 1.193.322l-.02-.019c-.034.076-.072.15-.103.227-.02.052-.06.125-.04.155.028.04.11.075.158.065.163-.039.33-.082.48-.154.116-.054.216-.125.225.067.005.104-.03.287-.083.3-.19.053-.396.048-.595.065-.188.015-.136.096-.08.218.088.197.184.353.433.314l-.02-.02.025.197-.133.054.06.061.052-.134.196-.18-.018.018c.385-.236.747-.537 1.164-.688.334-.12.744-.161 1.087.099.477.364.936-.006 1.398-.06.094-.01.204-.204.238-.331.044-.166.018-.35.022-.525l-.02.023c.156.058.321.099.466.177.443.237.637.21.959-.16.047-.055.12-.166.125-.163.335.205.26-.503.6-.267l.152.34.355-.309c-.042-.044-.092-.13-.125-.125-.138.023-.27.075-.404.116.173-.387.459-.58.897-.568.13.004.269-.08.391-.148.03-.016.023-.177.006-.182-.247-.072-.497-.175-.749-.179-.357-.006-.688-.035-1.013-.21-.168-.091-.383-.106-.58-.125-.28-.028-.56.228-.853-.118-.163-.193-.324-.053-.472.371-.034.097-.123.18-.203.252-.036.033-.15.045-.162.026-.253-.414-.68.312-.93-.147-.094-.173-.216-.059-.357-.018-.275.079-.247-.154-.247-.329l-.02.021c.215-.022.213-.024.422-.25.046-.05.114-.113.172-.112 1.06.01 2.12.012 3.178.055.31.014.64.1.914.245.435.23.987.06 1.375.465.13.135 1.168-.074 1.354-.19a.16.16 0 0 0 .063-.062c.122-.285.438.205.5-.121.01-.056-.304-.171-.464-.264-.016-.009-.022-.073-.01-.081.046-.034.107-.087.153-.08.443.074.79.345 1.139.596.3.217.53.489.937.596.436.114.476.436.283.999l-.432.017c.039.15.046.319.125.444.137.218.475.427.452.605-.074.562.4.463.642.632.052.038.154.006.232.007-.033-.067-.063-.135-.098-.2-.29-.524-.795-.916-.944-1.528.088-.006.193.017.259-.024.1-.062.171-.168.255-.255.1.17.446.197.269.54-.06.115.034.317.077.475.011.043.09.067.138.1.028-.043.069-.082.082-.13.023-.082.029-.169.041-.254l.192.17c.328.303.775.488.947.947.622.157.65.742.921 1.177.208.333.39.697.632 1.013.112.145.232.26.108.46-.028.045-.005.175.037.203.427.282.56.752.78 1.17.093.176.229.334.365.48.263.28.5.568.529.973l.019-.02c-.231.041-.175.228-.19.378l.018-.018-.306-.106c-.019.083-.081.197-.048.242.445.613.237 1.435.668 2.049.03.043.059.125.039.162-.23.42.017.708.268.992.144.163.187.296-.057.402-.05.02-.13.082-.123.11.157.702-.44 1.27-.35 1.952.04.3-.102.426-.342.525-.135.055-.256.143-.39.203-.362.164-.456.107-.51-.279-.022-.165-.067-.327-.103-.49-.096.191-.27.36-.133.612.03.052-.057.164-.031.223.158.363.118.581-.247.86-.302.23-.417.658-.938.632-.147-.007-.318.31-.465.49-.168.205-.297.196-.465.004-.144-.165.016-.514-.338-.538.03-.05.05-.106.089-.146.1-.102.298-.198.295-.293-.005-.222-.1-.443-.17-.66-.009-.027-.113-.055-.123-.042-.385.49-.933.232-1.405.3-.468.067-.785.322-1.002.717-.045.083-.067.26-.022.294.078.06.224.077.325.05.22-.062.423-.2.645-.238.32-.056.657-.095.972-.047.118.019.195.3.29.463l.019-.02c-.263.015-.552-.033-.78.063-.21.087-.304.048-.44-.08-.044-.04-.18-.06-.205-.03-.245.294-.608.179-.91.263-.184.051-.262.14-.386.27-.351.373-.74.76-1.332.644-.487-.095-.722.311-1.058.51-.07.04-.027.274-.037.42l.02-.021c-.056.083-.174.221-.158.24.258.293-.059.324-.19.388-.263.127-.162-.128-.195-.224-.082-.242-.221-.277-.329-.052-.082.174-.467.279-.103.613.26.238-.057.297-.268.301l.02.02c-.222-.255-.342-.253-.555.009l.02-.02c-.308 0-.483.148-.562.45-.074.282-.325.358-.578.429-.31.087-.787.057-.52.63.01.025-.033.1-.067.115-.477.217-.647.624-.754 1.105-.039.175-.234.326-.38.465-.368.356-.765.683-1.116 1.056-.127.135-.161.364-.22.555-.035.108-.004.312-.055.33-.433.157-.355.448-.322.81.027.31-.295.375-.583.386-.082.004-.16.113-.24.174.055.056.098.14.164.165.198.077.202.208.088.337-.295.334-.465.781-.778 1.063-.198.177.044.297-.093.408-.108.089-.165.238-.26.347-.24.272-.317.798-.885.573-.031-.013-.132.047-.134.078-.02.266-.237.526-.034.8l.018-.02c-.088.013-.251.022-.252.04-.025.419-.468.656-.46 1.097.005.19-.096.392-.186.569-.152.296-.266.302-.616.092-.06-.036-.134-.051-.202-.075.01.08-.006.18.036.239.222.314.24.573-.046.892-.36.4-.55.923-.932 1.33-.207.222-.218.637-.289.97-.038.182-.12.247-.294.242-.27-.008-.298-.236-.232-.373.278-.568.251-1.31.636-1.742.384-.43.224-1.041.677-1.387.06-.045-.002-.269-.03-.405-.073-.371 0-.608.327-.725.25-.09.459-.2.424-.47-.06-.472.13-.846.357-1.224.044-.074.032-.183.045-.276-.114.01-.236-.003-.34.035-.074.026-.141.11-.183.184-.42.733-.835 1.468-1.249 2.204-.07.127-.206.28-.18.39.189.812-.53 1.22-.797 1.824-.091.206-.286.352-.269.624.008.125-.085.272-.166.385-.368.517-.851.968-.87 1.672-.003.076-.136.16-.222.22-.353.252-.606.596-.624 1.015-.029.694-.335 1.225-.8 1.697-.038.039-.05.104-.073.157l.018-.02c-.536.24-.943.614-1.18 1.157a.369.369 0 0 0 .004.24c.255.762.191.944-.483 1.344-.076.045-.16.08-.225.139-.078.07-.201.163-.197.24.025.38-.143.576-.484.741-.253.121-.42.368-.415.721.005.32-.145.611-.503.738-.164.059-.25.409-.478.168-.067-.071-.015-.371.08-.458.377-.342.05-.822.263-1.164.148-.238.004-.368-.054-.556-.11-.358-.266.018-.387-.044l.022.02c.18-.469.287-.97.556-1.399.116-.185.122-.305-.032-.453-.127-.12-.234-.11-.388-.034-.303.147-.476.323-.578.686-.068.245.16.422.002.636-.117.16-.291.405-.241.535.132.346.09.562-.176.828-.21.212-.295.543-.467.8-.209.312-.454.597-.677.9-.112.152-.009.185.124.188.059.002.118.004.176 0 .26-.021.262.042.168.284-.097.25.17.233.336.25l-.018-.018c-.02.11-.023.309-.064.317-.573.115-.643.14-.493.626.086.274-.329.488-.01.72-.076.062-.146.132-.229.184-.39.245-.463.38-.379.748.03.132.15.314.101.377-.092.123-.267.198-.422.256-.293.11-.516.215-.16.52.031.026.008.179-.005.181-.343.057-.143.414-.32.567-.186.158-.339.345-.118.598.014.016-.037.134-.065.138-.443.05-.303.678-.821.75-.415.057-.403.626-.43.965-.074.923-.552 1.635-1.105 2.295a.969.969 0 0 0-.242.491c-.044.28-.457-.198-.398.205.028.195.126.38.15.574.01.073-.1.16-.156.242l.022.02c-.28-.62-.327-1.167.167-1.768.527-.638 1.008-1.34 1.257-2.157.034-.11.101-.224.09-.33-.016-.169-.165-.369-.11-.488.05-.11.31-.105.454-.192.204-.123.216-.35.175-.555-.081-.404.078-.717.407-.891.262-.14.315-.31.285-.558-.048-.388.03-.69.461-.823.11-.034.238-.142.135-.342-.048-.09.003-.276.072-.376.203-.293.386-.583.363-.96-.013-.198.13-.234.29-.243.128-.007.146-.039.148-.199.005-.297-.233-.668.167-.904a.748.748 0 0 0-.145-.25c-.048-.041-.204-.05-.227-.016-.213.306-.466.603-.588.945-.11.309-.286.493-.55.635l.01-.263c.005-.172-.068-.272-.251-.277-.171-.004-.258.06-.283.245-.027.194-.112.38-.146.574-.011.069.035.189.088.212.052.024.163-.027.216-.08.138-.134.258-.287.386-.433.151.56.167 1.028-.477 1.36-.264.135-.481.533-.545.848a6.204 6.204 0 0 1-.494 1.467c-.1.208-.059.5-.19.669a1.815 1.815 0 0 0-.297.478c-.374.927-.857 1.81-1.24 2.734-.101.244-.314.428-.328.735-.014.274-.152.553-.279.809-.114.23-.27.445-.436.642-.239.286-.571.503-.59.936-.001.037-.2.067-.308.1l-.052-.129-.059.059.13.049c.183.214.123.503-.034.605-.415.267-.586.881-1.204.857-.04-.001-.12.082-.12.084.376.555-.328.478-.452.75-.141.31-.442.542-.614.842-.367.64-.835 1.19-1.311 1.75-.366.428-.746.9-.8 1.51-.016.181-.12.209-.259.283-.249.133-.61.308-.655.523-.127.588-.688.646-1.003.987-.027.029-.09.023-.136.033-.019-.202-.059-.407-.044-.607.006-.073.143-.195.22-.195.31 0 .478-.055.478-.44 0-.458.45-.626.766-.808a.74.74 0 0 0 .328-.354c.268-.543.518-1.096.806-1.628.133-.245.202-.675.673-.408.032.018.13-.015.15-.05.255-.43.502-.865.75-1.297.01-.02.521-1.147.529-1.154.31-.345.59-.724.938-1.024.33-.282.64-.557.803-.968.032-.082.133-.197.108-.232-.41-.597.29-.768.442-1.143.077-.19.558-1.151.649-1.377.17-.424.448-.812.35-1.314-.013-.063.137-.151.2-.237.329-.452.517-.97.625-1.509.045-.223.083-.585-.039-.681-.472-.378-.25-.78-.143-1.192l-.02.023c.404-.013.546-.237.545-.621 0-.185.082-.372.126-.557-.147.101-.31.184-.438.307-.193.184-.198.032-.258-.104-.075-.168-.322-.323.019-.469l.055.132.06-.061a10.008 10.008 0 0 0-.133-.052c.344-.942.69-1.883 1.029-2.827.048-.133.02-.347.105-.404.558-.369.321-1.022.564-1.498.047-.093.034-.243-.004-.347-.057-.152-.162-.286-.246-.428-.092.131-.274.274-.261.395.07.638-.255 1.09-.713 1.416-.38.27-.54.576-.51 1.014.012.188-.029.3-.238.397-.242.114-.43.341-.643.519l-.054-.131-.06.061.132.05c-.018.37.094.801-.434.934-.626 1.006-1.25 2.012-1.457 3.207.23.615-.206.892-.584 1.234-.254.23-.433.547-.617.844-.047.076-.016.245.043.323.037.049.194.018.296.004.083-.011.162-.05.243-.075-.028.087-.043.18-.085.261-.182.356-.245.782-.606 1.036-.038.026-.068.115-.053.157.187.499-.317.785-.366 1.222-.047.422-.194.834-.305 1.247-.186.695-.303 1.406-.776 2.006-.178.224-.313.666-.21.89.218.469-.053.7-.26 1.001-.319.462-.687.891-.883 1.43-.058.162-.138.336-.26.45-.225.212-.263.4-.226.73.044.387-.118.774-.644.935-.586.181-.793.806-1.113 1.28-.467.69-.867 1.413-1.161 2.197-.114.303-.313.573-.708.551l.02.019c.057-.403.178-.767.42-1.117.205-.3.318-.683.402-1.046.06-.256.04-.517.27-.715.071-.063.05-.222.1-.323.133-.275-.398-.567-.096-.701.342-.152-.071-.554.302-.594.02-.002.054-.107.04-.122-.399-.384-.338-.831-.204-1.302.023-.084-.047-.203-.094-.297-.119-.241-.204-.253-.35-.06-.313.42-.621.842-.94 1.257-.081.105-.167.256-.35.103-.046-.039-.154-.006-.234-.007.032.073.053.151.096.216.059.091.138.169.2.257.038.052.104.138.086.169-.272.48-.546.958-.84 1.424-.217.342-.523.606-.839.857-.107.086-.23.16-.314.265-.062.078-.073.197-.107.297.102-.022.208-.036.304-.073.05-.019.079-.088.125-.123.042-.03.095-.046.142-.068.018.052.067.126.048.154-.182.272-.217.53.005.805.03.036-.022.176-.073.232-.184.2-.494.303-.478.649-.468-.24-.366.395-.657.427l.018.018c-.32-.359-.16-.694.033-1.041.036-.065-.007-.195-.051-.274-.019-.032-.148-.031-.208-.005-.132.057-.33.116-.363.22-.17.537-.849.738-.882 1.372-.006.1-.257.189-.395.282-.138.093-.352.156-.4.282-.094.245-.344.459-.127.802.246.391.532.193.82.166l-.018-.017c-.054.343-.082.673-.546.755-.168.029-.34.242-.439.413-.257.44-.61.756-1.015 1.064-.362.274-.659.676-.883 1.077-.151.272-.199.6-.473.81-.059.046-.123.195-.101.219.286.306-.008.597-.02.891-.01.284-.092.566-.133.85-.007.05.03.105.048.157.049-.021.113-.03.144-.066.224-.269.623-.426.36-.948-.107-.212.11-.6.206-.9.132-.412.28-.819.439-1.221.032-.08.146-.129.222-.192.037.074.121.165.102.22-.146.423-.22.834.017 1.256.028.05-.09.183-.144.276-.032.057-.107.157-.102.16.36.275.267.526-.01.802-.063.062-.064.229-.037.333.11.43.12.454-.242.492-.27.028-.299.094-.14.3.07.091.15.207.15.311 0 .127-.106.367-.123.363-.373-.08-.387.293-.575.435-.272.206-.464.471-.826.618-.49.199-.978.52-1.24 1.056-.088.18-.243.33-.384.479-.558.589-.907 1.306-1.253 2.025-.049.102-.117.242-.082.327.214.53-.064.416-.37.306-.06-.02-.147.022-.217.044-.248.081-.335-.008-.25-.246.05-.134.12-.267.207-.38.136-.177.288-.34.444-.5.161-.168.22-.342.09-.552-.102.126-.18.29-.31.371-.34.214-.683.448-1.058.57-.48.157-.837.335-.908.91-.039.31-.243.57-.595.703-.396.15-.647.5-.725.899-.061.312-.14.163-.32.137-.288-.042-.664-.187-.82.263-.013.036-.106.076-.148.064-.465-.125-.758.238-1.121.393-.36.154-.786.22-.994.623-.012.026-.046.064-.06.062-.565-.133-.747.177-.838.665-.022.115-.253.211-.405.277-.562.244-1.204.113-1.774.357-.074.032-.23-.035-.302-.105-.509-.502-.98.135-1.472.04-.015-.003-.056.04-.058.062-.05.686-.444.447-.803.3-.376-.155-.617.118-.86.304-.262.202-.407.35-.515-.129-.039-.173-.318-.298-.498-.431-.2-.148-.173-.282.007-.413.186-.136.386-.257.565-.403.056-.047.063-.152.093-.23-.063-.013-.142-.055-.186-.032-.21.111-.377.03-.581-.043-.243-.087-.61-.171-.358.334-.187.397-.448.72-.88.867-.19.065-.378.15-.573.177-.127.016-.302-.015-.391-.095-.516-.466-1.002-.563-1.401-.093-.259.305-.395.275-.635.091-.113-.087-.187-.137-.37-.099-.178.036-.362-.15-.23-.42.046-.094.106-.252.064-.306-.124-.158-.278-.35-.455-.394-.192-.05-.375.06-.298.36.052.204-.067.312-.293.21-.207-.094-.429-.162-.621-.279-.148-.089-.3-.22-.373-.368-.045-.093.067-.253.084-.387.014-.111-.006-.227-.011-.341-.127.014-.255.024-.381.043-.056.009-.109.047-.164.05-.47.029-.18.196-.066.338.029.037.033.094.048.141-.054.014-.124.056-.16.036-.374-.21-.723-.477-1.118-.633-.38-.15-.481-.384-.457-.747.02-.31-.078-.39-.308-.128-.195.22-.401.154-.497-.061-.166-.374-.386-.574-.816-.49-.384.076-.404-.288-.504-.492-.118-.244-.21-.135-.299-.027-.079.098-.124.226-.168.347-.098.261-.18.528-.28.789-.016.044-.103.106-.13.095-.49-.2-.963.282-1.45.034l.017.016c.135-.394.294-.719.796-.8.252-.04.476-.306.691-.495.133-.118.081-.259-.05-.37-.257-.222-.55-.12-.835-.1.01.068.027.136.029.205.002.08-.008.16-.013.24-.049-.016-.1-.03-.148-.05-.08-.033-.17-.056-.236-.107-.818-.628-.89-.633-1.762-.185-.075.039-.205-.003-.298-.037-.184-.069-.36-.159-.539-.24l.024.022c-.246-.386-.616-.733-.415-1.271.004-.013-.188-.146-.233-.122-.19.101-.387.146-.212-.132.178-.283-.011-.419-.087-.613.49-.33.49-.376-.008-.694-.13-.217-.253-.44-.4-.646-.03-.043-.174-.053-.226-.019-.047.032-.08.184-.05.215.192.199.33.5.692.434l.013.729c-.486.001-.666-.436-.966-.692-.298-.254-.63-.52-.809-.853-.202-.374-.556-.489-.834-.728-.124-.106-.204-.268-.293-.411-.253-.414-.492-.835-.758-1.24-.048-.073-.198-.084-.304-.113-.108-.029-.313-.04-.316-.07a2.55 2.55 0 0 1 .04-.61c.005-.027.16-.028.247-.041l.052.132.063-.06-.134-.052c-.073-.502-.291-.914-.647-1.29-.27-.286-.47-.638-.661-1.003-.453-.862-1.012-1.672-1.554-2.486-.13-.195-.304-.487-.632-.223-.033-.075-.113-.172-.09-.22.15-.32.166-.465.127-.83-.03-.291-.025-.588-.02-.882.006-.448.001-.877-.43-1.178-.164-.114-.193-.284.067-.38.195-.072.067-.176-.012-.238-.22-.175-.23-.417-.17-.642.022-.087.213-.13.328-.194l.051.132.062-.06a13.62 13.62 0 0 1-.132-.052z" fill="#5181B8"/></g></svg>