<svg width="120" height="120" viewBox="0 0 120 120" xmlns="http://www.w3.org/2000/svg" xmlns:xlink="http://www.w3.org/1999/xlink"><title>vkadmin_product</title><defs><circle id="a" cx="55" cy="55" r="54.622"/><path id="c" d="M0 0H109.244V109.244H0z"/></defs><g fill="none" fill-rule="evenodd"><rect width="120" height="120" rx="4"/><g transform="translate(5 5)"><mask id="b" fill="#fff"><use xlink:href="#a"/></mask><g stroke-linecap="round" stroke-linejoin="round"><use fill="#FFF" xlink:href="#a"/><circle stroke-opacity=".114" stroke="#5181B8" stroke-width="2" cx="55" cy="55" r="55.622"/></g><g mask="url(#b)"><g transform="translate(.378 .378)"><mask id="d" fill="#fff"><use xlink:href="#c"/></mask><use fill="#FFF" xlink:href="#c"/><path d="M95.528 53.436c0 8.84-7.16 16.002-16.001 16.002-8.841 0-16.002-7.161-16.002-16.002 0-8.84 7.16-16.002 16.002-16.002 8.84 0 16.001 7.161 16.001 16.002zM43.072 100.97c0-18.614 23.588-22.63 36.455-22.63 12.866 0 36.454 4.016 36.454 22.63 0 8.144-2.09 9.373-6.38 9.373h-60.15c-4.288 0-6.38-1.229-6.38-9.373z" fill="#5181B8" opacity=".5" mask="url(#d)"/><path d="M48.147 48.022c0 9.439-7.646 17.084-17.085 17.084s-17.084-7.645-17.084-17.084c0-9.44 7.645-17.084 17.084-17.084 9.44 0 17.085 7.645 17.085 17.084zm-57.029 52.035c0-20.9 25.846-26.288 39.944-26.288 14.098 0 39.944 5.388 39.944 26.288 0 4.187-.493 6.636-1.478 8.144-1.167 1.784-2.822 2.143-5.37 2.143H-1.578c-4.699 0-7.304-1.143-7.304-10.287z" fill="#5181B8" mask="url(#d)"/></g></g></g></g></svg>