<?xml version="1.0" encoding="UTF-8" standalone="no"?>
<svg width="290px" height="50px" viewBox="0 0 290 50" version="1.1" xmlns="http://www.w3.org/2000/svg" xmlns:xlink="http://www.w3.org/1999/xlink" xmlns:sketch="http://www.bohemiancoding.com/sketch/ns">
    <!-- Generator: Sketch 3.3.3 (12081) - http://www.bohemiancoding.com/sketch -->
    <title>StartupWeekend_small-white</title>
    <desc>Created with Sketch.</desc>
    <defs></defs>
    <g id="Page-1" stroke="none" stroke-width="1" fill="none" fill-rule="evenodd" sketch:type="MSPage">
        <g id="StartupWeekend_small-white" sketch:type="MSArtboardGroup">
            <g id="Group" sketch:type="MSLayerGroup">
                <path d="M69.585,20.535 C69.585,18.61 71.13,17.675 72.89125,17.5825 L72.89125,14.72125 C69.9725,14.82375 69.45375,16.5425 69.45375,16.5425 L69.45375,14.74 L65.99,14.74 L65.99,25.645 L69.585,25.645 L69.585,20.535" id="Fill-3" fill="#FFFFFF" sketch:type="MSShapeGroup"></path>
                <path d="M42.84875,25.73125 C43.565,25.52625 44.2,25.2125 44.7575,24.78875 C45.31125,24.365 45.755,23.8275 46.08125,23.1775 C46.41125,22.52625 46.575,21.75625 46.575,20.86625 C46.575,20.09 46.4225,19.4425 46.115,18.925 C45.80875,18.405 45.42125,17.97 44.9525,17.61875 C44.48625,17.27 43.96625,16.98875 43.39625,16.775 C42.82625,16.56375 42.27875,16.37 41.7525,16.19375 C41.3875,16.07875 41.05875,15.965 40.76625,15.855 C40.47375,15.745 40.2225,15.625 40.01,15.49375 C39.79875,15.36 39.63625,15.2075 39.52625,15.03375 C39.4175,14.8575 39.3625,14.6375 39.3625,14.37375 C39.3625,14.06625 39.4325,13.81625 39.57,13.62 C39.71125,13.4225 39.88125,13.26125 40.08625,13.13625 C40.29125,13.01125 40.52125,12.92875 40.77875,12.88375 C41.03125,12.84125 41.285,12.81875 41.535,12.81875 C42.015,12.81875 42.51625,12.93875 43.03625,13.18 C43.55375,13.4225 43.97375,13.74625 44.29625,14.15625 L46.68625,11.63625 C45.99875,11.0075 45.19875,10.53125 44.28625,10.21125 C43.37,9.88875 42.475,9.7275 41.59875,9.7275 C40.8675,9.7275 40.145,9.81875 39.42875,10.00125 C38.7125,10.185 38.06875,10.4725 37.49875,10.8675 C36.93,11.26125 36.47,11.76625 36.11875,12.38125 C35.7675,12.995 35.5925,13.7325 35.5925,14.59375 C35.5925,15.2975 35.70375,15.8925 35.93125,16.38125 C36.15875,16.87 36.4575,17.2875 36.8325,17.63 C37.20375,17.9725 37.6275,18.25625 38.1025,18.475 C38.5775,18.69375 39.06375,18.885 39.56,19.04625 C40.07125,19.20625 40.5275,19.355 40.93,19.49375 C41.33125,19.6325 41.66875,19.78625 41.94,19.955 C42.20875,20.12375 42.41875,20.30875 42.565,20.51375 C42.70875,20.71875 42.78375,20.9675 42.78375,21.25875 C42.78375,21.56625 42.725,21.8275 42.6075,22.04875 C42.49,22.2675 42.33375,22.4425 42.13625,22.575 C41.94,22.70625 41.7075,22.79875 41.445,22.85875 C41.18375,22.91875 40.9125,22.94875 40.635,22.94875 C40.02125,22.94875 39.40375,22.79 38.78125,22.475 C38.16,22.1625 37.66,21.76875 37.28125,21.3025 L34.82375,23.8025 C35.51125,24.5175 36.375,25.07 37.4125,25.45625 C38.45125,25.84375 39.52375,26.03875 40.635,26.03875 C41.39375,26.03875 42.1325,25.93625 42.84875,25.73125" id="Fill-4" fill="#FFFFFF" sketch:type="MSShapeGroup"></path>
                <path d="M73.9125,23.61 C74.0425,24.08625 74.25875,24.49625 74.5575,24.84 C74.85875,25.18625 75.2575,25.44875 75.75375,25.6325 C76.25125,25.815 76.86375,25.9075 77.59375,25.9075 C77.8425,25.9075 78.09,25.89 78.33625,25.86375 L78.33625,25.865 C78.96375,25.82375 79.8525,25.6025 80.66875,25.3525 C80.07625,24.50125 79.63375,22.94875 79.63375,22.94875 C79.50375,23.005 79.33875,23.05 79.1425,23.0775 C78.9425,23.11 78.7575,23.12125 78.58125,23.12125 C78.07125,23.12125 77.71625,22.995 77.52,22.7375 C77.32125,22.48125 77.2225,22.09625 77.2225,21.58125 L77.2225,17.4 L79.5375,17.4 L79.5375,14.725 L77.2225,14.725 L77.2225,11.85375 L73.6925,11.85375 L73.715,22.01625 C73.715,22.6025 73.78,23.1325 73.9125,23.61" id="Fill-5" fill="#FFFFFF" sketch:type="MSShapeGroup"></path>
                <path d="M81.33875,24.53625 C81.65125,24.95375 82.0625,25.29375 82.5675,25.55625 C83.07,25.81875 83.6875,25.95125 84.41875,25.95125 C84.79875,25.95125 85.16125,25.8975 85.50375,25.7975 C85.84875,25.695 86.1625,25.5625 86.44625,25.4025 C86.73125,25.2425 86.98125,25.05125 87.1925,24.83125 C87.40375,24.61375 87.575,24.37875 87.7075,24.13125 L87.75,24.13125 L87.75,25.645 L91.21625,25.645 L91.21625,14.725 L87.62,14.725 L87.62,20.62375 C87.62,21.25125 87.455,21.80125 87.125,22.2675 C86.79875,22.73625 86.3175,22.96875 85.69,22.96875 C85.35375,22.96875 85.08375,22.90625 84.87875,22.7825 C84.675,22.65875 84.51,22.48625 84.3875,22.2675 C84.26125,22.04875 84.1775,21.80125 84.13375,21.52125 C84.09125,21.24375 84.0675,20.9525 84.0675,20.645 L84.0675,14.725 L80.45125,14.725 L80.45125,21.47625 C80.45125,22.035 80.52,22.5775 80.65875,23.11125 C80.79875,23.645 81.02375,24.12 81.33875,24.53625" id="Fill-6" fill="#FFFFFF" sketch:type="MSShapeGroup"></path>
                <path d="M95.99375,19.1325 C96.1175,18.795 96.2925,18.495 96.52,18.2325 C96.7475,17.97 97.02,17.7575 97.3425,17.5975 C97.6625,17.4375 98.02875,17.3575 98.4375,17.3575 C98.86125,17.3575 99.235,17.4375 99.5575,17.5975 C99.87625,17.7575 100.14375,17.96625 100.35625,18.22125 C100.5675,18.48 100.72875,18.775 100.8375,19.11125 C100.94875,19.4475 101.0025,19.79 101.0025,20.14125 C101.0025,20.4925 100.94875,20.83875 100.8375,21.1825 C100.72875,21.525 100.5675,21.8275 100.35625,22.09125 C100.14375,22.355 99.87625,22.5675 99.5575,22.7275 C99.235,22.88875 98.86125,22.96875 98.4375,22.96875 C98.02875,22.96875 97.6625,22.88875 97.3425,22.7275 C97.02,22.5675 96.7475,22.355 96.52,22.09125 C96.2925,21.8275 96.1175,21.53 95.99375,21.19375 C95.86875,20.8575 95.8075,20.51375 95.8075,20.1625 C95.8075,19.81375 95.86875,19.46875 95.99375,19.1325 M95.93875,24.36875 L95.9825,24.4375 C96.31875,24.90625 96.7875,25.275 97.385,25.54625 C97.98375,25.815 98.62,25.95125 99.29375,25.95125 C100.1125,25.95125 100.8425,25.79 101.485,25.4675 C102.1275,25.14625 102.6725,24.71875 103.11875,24.185 C103.56375,23.65125 103.90375,23.035 104.1375,22.33375 C104.37125,21.63125 104.48875,20.90125 104.48875,20.14125 C104.48875,19.38125 104.3675,18.65375 104.1275,17.96 C103.885,17.2675 103.54125,16.65375 103.09625,16.13 C102.65,15.6025 102.10625,15.1875 101.46375,14.88 C100.82,14.57125 100.10375,14.4175 99.315,14.4175 C98.51125,14.4175 97.81125,14.58375 97.22125,14.91375 C96.63,15.24125 96.16625,15.625 95.82875,16.06375 L95.76375,16.14625 L95.76375,14.725 L92.3425,14.725 L92.3425,30.905 L95.93875,30.905 L95.93875,24.36875" id="Fill-7" fill="#FFFFFF" sketch:type="MSShapeGroup"></path>
                <path d="M46.22625,17.4 L47.97875,17.4 L47.97875,22.01625 C47.97875,22.6025 48.04625,23.1325 48.1775,23.61 C48.31,24.08625 48.52375,24.49625 48.825,24.84 C49.12375,25.18625 49.52125,25.44875 50.02,25.6325 C50.51625,25.815 51.12875,25.9075 51.85875,25.9075 C52.24,25.9075 52.62,25.875 53,25.80875 C53.34375,25.74875 53.8225,25.6175 54.10125,25.5025 C53.6475,24.82875 53.325,24.00625 53.1125,23.11125 C52.5875,23.1775 51.98125,22.995 51.785,22.7375 C51.5875,22.48125 51.4875,22.09625 51.4875,21.58125 L51.4875,17.4 L53.8425,17.4 L53.8425,14.725 L51.4875,14.725 L51.4875,11.85375 L47.95875,11.85375 L47.95875,14.725 L46.22625,14.725 L46.22625,17.4" id="Fill-8" fill="#FFFFFF" sketch:type="MSShapeGroup"></path>
                <path d="M61.165,20.88625 L61.165,21.25875 C61.165,21.9475 60.97,22.49125 60.58375,22.8925 C60.19625,23.29375 59.63625,23.495 58.90625,23.495 C58.73,23.495 58.5475,23.4775 58.35875,23.44 C58.16875,23.40375 57.99875,23.34125 57.855,23.25375 C57.7075,23.1675 57.5875,23.05 57.4925,22.9025 C57.3975,22.7575 57.35,22.5825 57.35,22.3775 C57.35,22.055 57.4525,21.79625 57.6575,21.59875 C57.86125,21.40125 58.12,21.25125 58.43375,21.14875 C58.75,21.0475 59.10625,20.9775 59.50875,20.94125 C59.9125,20.905 60.30875,20.88625 60.70375,20.88625 L61.165,20.88625 L61.165,20.88625 Z M58.6225,18.93625 C57.78875,19.0225 57.0325,19.19875 56.35375,19.4625 C55.6725,19.725 55.1175,20.09625 54.68625,20.58 C54.255,21.0625 54.03875,21.69875 54.03875,22.48625 C54.03875,23.13 54.16375,23.67125 54.41125,24.1075 C54.66125,24.5475 54.9775,24.89875 55.365,25.16125 C55.7525,25.42375 56.18,25.615 56.64875,25.73125 C57.115,25.84875 57.56875,25.9075 58.00625,25.9075 C58.66625,25.9075 59.27625,25.78125 59.8375,25.535 C60.40125,25.2875 60.82125,24.935 61.1,24.48125 L61.165,24.48125 L61.165,25.645 L64.4525,25.645 L64.4525,20.14125 C64.4525,19.1475 64.36125,18.28875 64.17875,17.565 C63.995,16.8425 63.7075,16.24125 63.3125,15.7675 C62.91875,15.2925 62.40375,14.9425 61.7675,14.71375 C61.13125,14.48875 60.3525,14.37375 59.4325,14.37375 C58.54,14.37375 57.66875,14.5275 56.81125,14.835 C55.9575,15.1425 55.20875,15.6025 54.565,16.2175 L56.385,18.1675 C56.72125,17.86 57.1275,17.5975 57.6025,17.38 C58.07625,17.16 58.56875,17.05 59.08125,17.05 C59.63625,17.05 60.105,17.1775 60.485,17.43375 C60.865,17.69 61.055,18.0875 61.055,18.62875 L61.055,18.80375 C60.265,18.80375 59.45375,18.84625 58.6225,18.93625 L58.6225,18.93625 Z" id="Fill-9" fill="#FFFFFF" sketch:type="MSShapeGroup"></path>
                <path d="M62.34875,29.0825 L58.44625,29.0825 L55.94875,39.41 L55.8825,39.41 L53.75625,29.0825 L49.855,29.0825 L47.75125,39.41 L47.6875,39.41 L45.23125,29.0825 L41.1975,29.0825 L45.605,44.605 L49.495,44.605 L51.7675,34.55 L54.0425,44.605 L57.92,44.605 L62.34875,29.0825" id="Fill-10" fill="#FFFFFF" sketch:type="MSShapeGroup"></path>
                <path d="M64.48625,37.09625 C64.61875,36.84125 64.7925,36.6175 65.0125,36.4275 C65.2325,36.23625 65.4875,36.08625 65.78,35.9775 C66.07125,35.86875 66.39375,35.81375 66.745,35.81375 C67.46125,35.81375 67.9975,36.01875 68.35625,36.4275 C68.71375,36.8375 68.8925,37.32625 68.8925,37.89625 L64.2675,37.89625 C64.28125,37.61875 64.35375,37.3525 64.48625,37.09625 M71.7875,42.6325 L69.2875,41.05375 C69.0375,41.39125 68.71875,41.66375 68.32375,41.87625 C67.93,42.0875 67.44625,42.19125 66.87625,42.19125 C66.555,42.19125 66.24375,42.14125 65.94375,42.04 C65.645,41.9375 65.375,41.79625 65.13375,41.61 C64.8925,41.43 64.695,41.2125 64.5425,40.96625 C64.38875,40.71625 64.29625,40.44 64.2675,40.13125 L72.18125,40.13125 C72.195,40.00125 72.20375,39.8625 72.20375,39.71625 L72.20375,39.2775 C72.20375,38.3425 72.06875,37.50875 71.79875,36.77875 C71.5275,36.04625 71.15125,35.42625 70.66875,34.91375 C70.18625,34.40375 69.60875,34.0125 68.93625,33.74125 C68.26375,33.47125 67.52625,33.33625 66.72125,33.33625 C65.89,33.33625 65.11375,33.475 64.39875,33.75125 C63.68375,34.03125 63.06125,34.42 62.535,34.92625 C62.00875,35.42875 61.5925,36.0425 61.285,36.76625 C60.97875,37.49 60.825,38.2975 60.825,39.18875 C60.825,40.11125 60.9825,40.9275 61.29625,41.645 C61.61,42.36125 62.04125,42.965 62.59,43.45375 C63.13875,43.94375 63.77875,44.315 64.5075,44.5725 C65.23875,44.82625 66.01375,44.955 66.83125,44.955 C67.94375,44.955 68.91875,44.755 69.76,44.3525 C70.59875,43.94875 71.275,43.3775 71.7875,42.6325" id="Fill-11" fill="#FFFFFF" sketch:type="MSShapeGroup"></path>
                <path d="M76.29125,37.89625 C76.305,37.61875 76.37875,37.35 76.51,37.09625 C76.64125,36.84125 76.8175,36.6175 77.03625,36.4275 C77.255,36.23625 77.51125,36.08625 77.805,35.9775 C78.0975,35.86875 78.41625,35.81375 78.76875,35.81375 C79.48375,35.81375 80.0225,36.01875 80.38,36.4275 C80.7375,36.8375 80.91625,37.32625 80.91625,37.89625 L76.29125,37.89625 L76.29125,37.89625 Z M82.69125,34.91375 C82.21125,34.40375 81.6325,34.0125 80.96125,33.74125 C80.2875,33.47125 79.55,33.33625 78.7475,33.33625 C77.91375,33.33625 77.14,33.475 76.42375,33.75125 C75.70625,34.03125 75.085,34.42 74.56,34.92625 C74.0325,35.42875 73.6175,36.0425 73.31,36.76625 C73.0025,37.49 72.85,38.2975 72.85,39.18875 C72.85,40.11125 73.005,40.9275 73.32,41.645 C73.635,42.36125 74.06625,42.965 74.61375,43.45375 C75.1625,43.94375 75.8025,44.315 76.53375,44.5725 C77.26375,44.82625 78.0375,44.955 78.85625,44.955 C79.9675,44.955 80.9425,44.755 81.7825,44.3525 C82.62375,43.95125 83.29875,43.3775 83.81125,42.6325 L81.31125,41.05375 C81.06375,41.39125 80.7425,41.66375 80.34625,41.87625 C79.9525,42.0875 79.47,42.19125 78.9,42.19125 C78.5775,42.19125 78.2675,42.14125 77.96875,42.04 C77.66875,41.9375 77.39875,41.79625 77.1575,41.61 C76.915,41.43 76.72,41.2125 76.565,40.96625 C76.4125,40.71625 76.32,40.43875 76.29125,40.13125 L84.205,40.13125 C84.21875,40.00125 84.2275,39.8625 84.2275,39.71625 L84.2275,39.2775 C84.2275,38.3425 84.09125,37.50875 83.8225,36.77875 C83.55125,36.04625 83.175,35.42625 82.69125,34.91375 L82.69125,34.91375 Z" id="Fill-12" fill="#FFFFFF" sketch:type="MSShapeGroup"></path>
                <path d="M98.67375,37.89625 C98.69,37.61875 98.7625,37.35 98.8925,37.09625 C99.025,36.84125 99.2,36.6175 99.41875,36.4275 C99.63875,36.23625 99.89375,36.08625 100.18625,35.9775 C100.47875,35.86875 100.8025,35.81375 101.15,35.81375 C101.86625,35.81375 102.405,36.01875 102.7625,36.4275 C103.12,36.8375 103.3,37.32625 103.3,37.89625 L98.67375,37.89625 L98.67375,37.89625 Z M105.07625,34.91375 C104.59375,34.40375 104.015,34.0125 103.34375,33.74125 C102.67125,33.47125 101.9325,33.33625 101.12875,33.33625 C100.29625,33.33625 99.52125,33.475 98.805,33.75125 C98.08875,34.03125 97.46875,34.42 96.9425,34.92625 C96.41625,35.42875 96,36.0425 95.6925,36.76625 C95.38625,37.49 95.23375,38.2975 95.23375,39.18875 C95.23375,40.11125 95.38875,40.9275 95.705,41.645 C96.0175,42.36125 96.44875,42.965 96.99625,43.45375 C97.545,43.94375 98.18375,44.315 98.915,44.5725 C99.645,44.82625 100.41875,44.955 101.23875,44.955 C102.35,44.955 103.32375,44.755 104.165,44.3525 C105.0075,43.95125 105.68,43.3775 106.1925,42.6325 L103.6925,41.05375 C103.445,41.39125 103.12375,41.66375 102.73,41.87625 C102.33375,42.0875 101.8525,42.19125 101.2825,42.19125 C100.96125,42.19125 100.65,42.14125 100.35,42.04 C100.05125,41.9375 99.78125,41.79625 99.54,41.61 C99.29875,41.43 99.10125,41.2125 98.94625,40.96625 C98.79375,40.71625 98.7025,40.43875 98.67375,40.13125 L106.58875,40.13125 C106.6025,40.00125 106.61,39.8625 106.61,39.71625 L106.61,39.2775 C106.61,38.3425 106.475,37.50875 106.20375,36.77875 C105.93375,36.04625 105.55625,35.42625 105.07625,34.91375 L105.07625,34.91375 Z" id="Fill-13" fill="#FFFFFF" sketch:type="MSShapeGroup"></path>
                <path d="M117.2925,34.79375 C116.97875,34.37625 116.565,34.0375 116.055,33.77375 C115.54375,33.5125 114.9225,33.37875 114.1925,33.37875 C113.81125,33.37875 113.4525,33.43125 113.11625,33.53125 C112.7825,33.63625 112.47125,33.76625 112.18625,33.9275 C111.9,34.08875 111.65125,34.28125 111.43875,34.50875 C111.2275,34.735 111.05625,34.9675 110.92375,35.19875 L110.88,35.275 L110.88,33.685 L107.395,33.685 L107.395,44.605 L111.01375,44.605 L111.01375,38.685 C111.01375,38.3775 111.0525,38.0825 111.13375,37.7975 C111.21375,37.51125 111.33375,37.26 111.495,37.04 C111.65375,36.8225 111.855,36.65125 112.0975,36.525 C112.33875,36.4025 112.62125,36.34 112.94125,36.34 C113.2625,36.34 113.52875,36.4025 113.74125,36.525 C113.95375,36.65125 114.1175,36.8175 114.23625,37.02875 C114.35125,37.2425 114.43625,37.4875 114.4875,37.76375 C114.5375,38.04375 114.5625,38.33625 114.5625,38.64125 L114.5625,44.605 L118.18125,44.605 L118.18125,37.8525 C118.18125,37.31125 118.11125,36.77125 117.9725,36.23 C117.83375,35.69 117.60625,35.20875 117.2925,34.79375" id="Fill-14" fill="#FFFFFF" sketch:type="MSShapeGroup"></path>
                <path d="M127.3725,40.155 C127.25,40.49125 127.07125,40.79 126.8475,41.05375 C126.62,41.31625 126.345,41.53 126.02375,41.68875 C125.70375,41.85 125.3375,41.93 124.92875,41.93 C124.50375,41.93 124.1325,41.85 123.81,41.68875 C123.49,41.53 123.2175,41.31625 122.9975,41.05375 C122.78,40.79 122.61625,40.4875 122.5075,40.1425 C122.3975,39.79875 122.34,39.4525 122.34,39.1 C122.34,38.75 122.3975,38.40875 122.5075,38.07125 C122.61625,37.735 122.78,37.43875 122.9975,37.18375 C123.2175,36.9275 123.49,36.72 123.81,36.55875 C124.1325,36.3975 124.50375,36.3175 124.92875,36.3175 C125.3375,36.3175 125.70375,36.3975 126.02375,36.55875 C126.345,36.72 126.62,36.93 126.8475,37.19375 C127.07125,37.4575 127.25,37.7575 127.3725,38.095 C127.49625,38.42875 127.56,38.77375 127.56,39.125 C127.56,39.47375 127.49625,39.81875 127.3725,40.155 M127.40625,28.03125 L127.40625,34.90875 L127.3625,34.8475 C127.055,34.48375 126.62375,34.14875 126.0675,33.84 C125.5125,33.53125 124.83375,33.37875 124.02875,33.37875 C123.24,33.37875 122.52625,33.53125 121.89125,33.84 C121.255,34.14875 120.71375,34.5625 120.26875,35.09 C119.825,35.61625 119.48125,36.2275 119.24,36.92 C118.9975,37.61375 118.8775,38.3425 118.8775,39.1 C118.8775,39.8625 118.99375,40.5925 119.2275,41.295 C119.4625,41.99625 119.8025,42.61375 120.2475,43.14625 C120.69375,43.68125 121.2375,44.1075 121.8825,44.4275 C122.525,44.75 123.255,44.91125 124.07375,44.91125 C124.805,44.91125 125.495,44.7625 126.145,44.4625 C126.795,44.16125 127.295,43.73625 127.64625,43.18 L127.69,43.0975 L127.69,44.605 L131.00125,44.605 L131.00125,28.03125 L127.40625,28.03125" id="Fill-15" fill="#FFFFFF" sketch:type="MSShapeGroup"></path>
                <path d="M91.9725,38.62 L96.18125,33.685 L91.81875,33.685 L88.78625,37.5375 L88.78625,29.0825 L85.17,29.0825 L85.17,44.605 L88.78625,44.605 L88.78625,40.0325 L91.90625,44.605 L96.3575,44.605 L91.9725,38.62" id="Fill-16" fill="#FFFFFF" sketch:type="MSShapeGroup"></path>
                <path d="M141.575,49.53875 L141.575,7.675" id="Stroke-17" stroke="#FFFFFF" stroke-width="0.25" sketch:type="MSShapeGroup"></path>
                <path d="M17.6575,6.37875 C19.34625,6.37875 20.71375,5.01 20.71375,3.3225 C20.71375,1.63375 19.34625,0.26625 17.6575,0.26625 C15.97,0.26625 14.60125,1.63375 14.60125,3.3225 C14.60125,5.01 15.97,6.37875 17.6575,6.37875" id="Fill-18" fill="#FFFFFF" sketch:type="MSShapeGroup"></path>
                <path d="M22.70125,10.01 C24.035,10.01 25.11625,8.92875 25.11625,7.59625 C25.11625,6.2625 24.035,5.18125 22.70125,5.18125 C21.36625,5.18125 20.28625,6.2625 20.28625,7.59625 C20.28625,8.92875 21.36625,10.01 22.70125,10.01" id="Fill-19" fill="#FFFFFF" sketch:type="MSShapeGroup"></path>
                <path d="M34.91625,42.515 C34.44875,42.83875 33.87,43.19125 33.165,43.54625 L33.165,40.72375 C33.165,38.9225 31.70125,37.4575 29.9,37.4575 C29.18625,37.4575 28.4925,37.69375 27.9275,38.1225 L27.9275,45.36875 C27.88125,45.38 27.835,45.39 27.78875,45.40125 C27.265,45.5175 26.7275,45.62 26.1775,45.7125 L26.1775,29.80125 C26.1775,28.00125 24.7125,26.53625 22.91125,26.53625 C21.11125,26.53625 19.6475,28.00125 19.6475,29.80125 L19.6475,32.96 C22.3125,33.075 24.445,35.2775 24.445,37.97125 L24.445,45.95625 C23.87375,46.0225 23.29,46.0775 22.695,46.12 L22.695,37.97125 C22.695,36.17125 21.23,34.70625 19.42875,34.70625 C17.62875,34.70625 16.16375,36.17125 16.16375,37.97125 L16.16375,46.12 C15.56875,46.0775 14.985,46.0225 14.41375,45.95625 L14.41375,37.97125 C14.41375,36.09625 15.4475,34.4575 16.97625,33.5975 C16.85375,31.90875 15.44,30.57125 13.72,30.57125 C11.92,30.57125 10.455,32.03625 10.455,33.83625 L10.455,38.705 C11.77125,39.61 12.63625,41.1275 12.63625,42.84125 L12.63625,45.705 C12.1425,45.62125 11.66125,45.53 11.19,45.4275 C11.0875,45.405 10.98625,45.38125 10.885,45.35875 L10.885,42.84125 C10.885,41.04125 9.42,39.57625 7.62,39.57625 C5.8375,39.57625 4.385,41.01125 4.35625,42.7875 C3.21875,41.43375 3.8875,39.50875 4.825,37.925 L14.225,23.02 C14.225,23.02 14.23875,23.2625 14.23875,19.38375 C15.8075,19.63625 17.57,19.77 19.39875,19.77 C20.505,19.77 21.5875,19.72125 22.6175,19.62625 L22.6175,23.85 C20.745,24.21875 20.005,25.5 20.79,25.2125 C21.66125,24.895 21.945,24.8775 22.6175,24.79375 L22.6175,24.795 C22.715,24.78875 22.81375,24.78625 22.91125,24.78625 C25.6775,24.78625 27.9275,27.03625 27.9275,29.80125 L27.9275,31.62875 C27.97125,32.07 28.26625,32.43625 28.67,32.58 C30.08375,32.97375 31.1225,34.27 31.1225,35.81 L31.1225,35.85875 C33.3,36.405 34.91625,38.37875 34.91625,40.72375 L34.91625,42.515 L34.91625,42.515 Z M31.62125,40.9675 C31.31375,40.93875 31.075,40.66375 31.12,40.35875 C31.18625,39.9075 31.68375,39.595 32.18,39.85375 C32.3475,39.94 32.4625,40.1075 32.49875,40.2925 C32.6125,40.88625 32.14625,41.0175 31.62125,40.9675 L31.62125,40.9675 Z M31.875,42.68875 C31.875,42.68875 31.2825,42.8925 30.6275,42.8925 C29.9725,42.8925 29.395,42.69125 29.395,42.69125 C29.235,42.63625 29.14875,42.46375 29.2025,42.3025 C29.24375,42.1775 29.36125,42.0975 29.48625,42.09375 C29.48625,42.09375 30.15375,42.13625 30.6275,42.13625 C31.10125,42.13625 31.7525,42.0975 31.7525,42.0975 L31.7875,42.09875 C31.95625,42.10375 32.085,42.24375 32.08125,42.41125 C32.0775,42.54125 31.99125,42.64875 31.875,42.68875 L31.875,42.68875 Z M28.75625,40.29125 C28.79125,40.10625 28.9075,39.94 29.075,39.85375 C29.5725,39.59625 30.0675,39.90625 30.135,40.3575 C30.18,40.66375 29.94125,40.93875 29.63375,40.9675 C29.11,41.0175 28.64,40.88625 28.75625,40.29125 L28.75625,40.29125 Z M20.99125,29.77125 C20.99125,29.38375 21.30625,29.07 21.6925,29.07 C22.08125,29.07 22.39375,29.38375 22.39375,29.77125 C22.39375,30.1575 22.08125,30.28625 21.6925,30.28625 C21.30625,30.28625 20.99125,30.1575 20.99125,29.77125 L20.99125,29.77125 Z M21.455,31.6125 C21.49625,31.48625 21.61375,31.40625 21.73875,31.40375 C21.73875,31.40375 22.40625,31.445 22.88,31.445 C23.35375,31.445 24.00625,31.40625 24.00625,31.40625 L24.04,31.4075 C24.20875,31.41375 24.3375,31.5525 24.3325,31.72125 C24.33,31.85 24.2425,31.95875 24.12625,31.9975 C24.12625,31.9975 23.535,32.2025 22.88,32.2025 C22.225,32.2025 21.64625,32 21.64625,32 C21.48625,31.945 21.4,31.77375 21.455,31.6125 L21.455,31.6125 Z M24.06625,30.28625 C23.67875,30.28625 23.365,30.1575 23.365,29.77125 C23.365,29.38375 23.67875,29.07 24.06625,29.07 C24.45375,29.07 24.76875,29.38375 24.76875,29.77125 C24.76875,30.1575 24.45375,30.28625 24.06625,30.28625 L24.06625,30.28625 Z M20.61625,38.35125 C20.22875,38.35125 19.915,38.22375 19.915,37.83625 C19.915,37.44875 20.22875,37.135 20.61625,37.135 C21.00375,37.135 21.31875,37.44875 21.31875,37.83625 C21.31875,38.22375 21.00375,38.35125 20.61625,38.35125 L20.61625,38.35125 Z M20.6775,40.06375 C20.6775,40.06375 20.085,40.2675 19.43,40.2675 C18.775,40.2675 18.19625,40.065 18.19625,40.065 C18.0375,40.01125 17.95,39.8375 18.00375,39.6775 C18.04625,39.55125 18.16375,39.4725 18.28875,39.46875 C18.28875,39.46875 18.95625,39.51125 19.43,39.51125 C19.90375,39.51125 20.555,39.4725 20.555,39.4725 L20.59,39.4725 C20.7575,39.47875 20.8875,39.61875 20.8825,39.785 C20.88,39.91625 20.7925,40.02375 20.6775,40.06375 L20.6775,40.06375 Z M17.54125,37.83625 C17.54125,37.44875 17.85625,37.135 18.24375,37.135 C18.63,37.135 18.945,37.44875 18.945,37.83625 C18.945,38.22375 18.63,38.35125 18.24375,38.35125 C17.85625,38.35125 17.54125,38.22375 17.54125,37.83625 L17.54125,37.83625 Z M13.3575,33.57875 C13.3575,33.19125 13.6725,32.8775 14.06,32.8775 C14.4475,32.8775 14.76125,33.19125 14.76125,33.57875 C14.76125,33.96625 14.4475,34.09375 14.06,34.09375 C13.6725,34.09375 13.3575,33.96625 13.3575,33.57875 L13.3575,33.57875 Z M11.12375,33.57875 C11.12375,33.19125 11.43875,32.8775 11.82625,32.8775 C12.21375,32.8775 12.5275,33.19125 12.5275,33.57875 C12.5275,33.96625 12.21375,34.09375 11.82625,34.09375 C11.43875,34.09375 11.12375,33.96625 11.12375,33.57875 L11.12375,33.57875 Z M14.12375,35.80625 C14.12375,35.80625 13.5325,36.01 12.8775,36.01 C12.2225,36.01 11.64375,35.80875 11.64375,35.80875 C11.48375,35.75375 11.3975,35.58125 11.45125,35.42 C11.49375,35.29375 11.61125,35.215 11.73625,35.21125 C11.73625,35.21125 12.40375,35.25375 12.8775,35.25375 C13.35125,35.25375 14.0025,35.215 14.0025,35.215 L14.0375,35.215 C14.205,35.22125 14.335,35.36125 14.33,35.52875 C14.32625,35.65875 14.24125,35.76625 14.12375,35.80625 L14.12375,35.80625 Z M9.15,42.83 C8.7625,42.83 8.4475,42.70125 8.4475,42.31375 C8.4475,41.9275 8.7625,41.6125 9.15,41.6125 C9.5375,41.6125 9.8525,41.9275 9.8525,42.31375 C9.8525,42.70125 9.5375,42.83 9.15,42.83 L9.15,42.83 Z M6.7775,42.83 C6.39,42.83 6.07375,42.70125 6.07375,42.31375 C6.07375,41.92625 6.39,41.6125 6.7775,41.6125 C7.16375,41.6125 7.4775,41.92625 7.4775,42.31375 C7.4775,42.70125 7.16375,42.83 6.7775,42.83 L6.7775,42.83 Z M10.7225,14.4625 L10.72375,14.46125 C10.67375,14.38625 10.6775,14.28875 10.72375,14.23 L10.72375,14.22875 C10.755,14.18875 10.80375,14.14125 10.86375,14.08875 C10.965,14 11.10875,13.89375 11.32,13.7775 C11.655,13.59125 12.14625,13.38 12.86,13.1725 C14.58875,12.66875 16.9025,12.39125 19.37375,12.39125 L19.375,12.39125 C21.84625,12.39125 24.16,12.66875 25.88875,13.1725 C26.6025,13.38 27.09375,13.59125 27.42875,13.7775 C27.64,13.89375 27.7825,14 27.885,14.08875 C27.945,14.14125 27.99375,14.18875 28.025,14.22875 L28.025,14.23 C28.07125,14.28875 28.075,14.38625 28.025,14.46125 L28.025,14.4625 C27.895,14.625 27.5325,14.92125 26.71125,15.24125 L26.71375,15.24125 C26.655,15.265 26.5875,15.2875 26.525,15.31 C26.4675,15.33 26.415,15.35125 26.35375,15.37125 C26.21,15.42 26.05625,15.47 25.88875,15.51875 C25.885,15.51875 25.88125,15.52125 25.8775,15.52125 C24.80375,15.0425 22.53125,14.485 19.33625,14.485 C16.17125,14.485 13.9125,15.03125 12.8275,15.50875 C12.67375,15.4625 12.53,15.4175 12.39625,15.37125 C12.335,15.35125 12.28125,15.33 12.22375,15.31 C12.16,15.2875 12.0925,15.265 12.035,15.24125 L12.0375,15.24125 C11.21625,14.92125 10.85375,14.625 10.7225,14.4625 L10.7225,14.4625 Z M36.705,37.71875 L36.7,37.7125 L26.9825,22.26875 L26.9825,19.64375 C27.6225,18.9575 29.24875,17.46625 29.65625,14.98 C29.73125,14.26875 29.80125,13.09375 27.9975,12.22125 C27.9975,12.22125 28,12.22125 28.00375,12.21875 C27.54125,11.9875 26.98875,11.77625 26.35,11.59125 C24.56375,11.07125 22.23125,10.77375 19.74625,10.7475 C18.91625,11.52125 17.8475,11.4925 18.1,11.39625 C18.3575,11.3 18.70875,10.985 18.895,10.7 C19.09375,10.3925 19.21,10.02875 19.21,9.63625 C19.21,8.55375 18.3325,7.67625 17.25125,7.67625 C16.16875,7.67625 15.29125,8.55375 15.29125,9.63625 C15.29125,10.1375 15.48,10.595 15.79,10.94125 C14.5375,11.08375 13.385,11.30375 12.39875,11.59125 C11.76,11.7775 11.20625,11.9875 10.74375,12.22 C10.745,12.22125 10.74625,12.22125 10.74625,12.22125 C10.67,12.25875 10.59625,12.29625 10.52625,12.335 C10.40125,12.405 10.285,12.475 10.1775,12.54625 C9.0075,13.3375 9.02,14.2775 9.08125,14.905 C9.4675,17.42625 11.12125,18.95125 11.7675,19.64375 L11.7675,22.26875 L2.05375,37.70625 L2.045,37.71875 C1.50875,38.60875 1.225,39.63 1.225,40.67375 C1.225,41.965 1.66875,43.23125 2.47,44.23875 C2.58875,44.39 3.6575,45.69375 6.2025,46.95875 C7.7175,47.7125 9.46375,48.31125 11.395,48.74 C13.785,49.27 16.47125,49.53875 19.375,49.53875 C22.28,49.53875 24.96375,49.27 27.355,48.74 C29.285,48.31125 31.0325,47.7125 32.5475,46.95875 C35.09375,45.69125 36.16375,44.3875 36.28,44.23875 C37.0825,43.23 37.525,41.965 37.525,40.67375 C37.525,39.63 37.24125,38.60875 36.705,37.71875 L36.705,37.71875 Z" id="Fill-20" fill="#FFFFFF" sketch:type="MSShapeGroup"></path>
                <path d="M153.75125,20.465 L154.65125,20.465 C155.53625,20.465 156.1775,20.3225 156.5725,20.03625 C156.96875,19.75 157.16625,19.2925 157.16625,18.66125 C157.16625,18.0925 156.98,17.67 156.6075,17.39125 C156.235,17.11375 155.65625,16.975 154.86875,16.975 L153.75125,16.975 L153.75125,20.465 L153.75125,20.465 Z M158.2,18.61375 C158.2,19.48375 157.90375,20.1525 157.31,20.62125 C156.71625,21.08875 155.8675,21.32375 154.7625,21.32375 L153.75125,21.32375 L153.75125,24.7025 L152.7525,24.7025 L152.7525,16.11125 L154.98,16.11125 C157.1275,16.11125 158.2,16.945 158.2,18.61375 L158.2,18.61375 Z" id="Fill-21" fill="#FFFFFF" sketch:type="MSShapeGroup"></path>
                <path d="M159.94875,21.47625 C159.94875,22.29875 160.11375,22.925 160.4425,23.35625 C160.7725,23.7875 161.25625,24.0025 161.895,24.0025 C162.5325,24.0025 163.0175,23.78875 163.34875,23.35875 C163.68,22.93 163.845,22.3025 163.845,21.47625 C163.845,20.6575 163.68,20.035 163.34875,19.61 C163.0175,19.185 162.52875,18.9725 161.8825,18.9725 C161.24375,18.9725 160.7625,19.1825 160.43625,19.60125 C160.11125,20.02 159.94875,20.645 159.94875,21.47625 L159.94875,21.47625 Z M164.85625,21.47625 C164.85625,22.52625 164.59125,23.345 164.0625,23.935 C163.53375,24.525 162.80375,24.82 161.87125,24.82 C161.295,24.82 160.78375,24.685 160.3375,24.41375 C159.89,24.14375 159.545,23.75625 159.3025,23.25125 C159.06,22.745 158.93875,22.15375 158.93875,21.47625 C158.93875,20.42625 159.20125,19.60875 159.72625,19.0225 C160.25125,18.43625 160.98,18.14375 161.9125,18.14375 C162.8125,18.14375 163.52875,18.44375 164.06,19.0425 C164.59,19.6425 164.85625,20.45375 164.85625,21.47625 L164.85625,21.47625 Z" id="Fill-22" fill="#FFFFFF" sketch:type="MSShapeGroup"></path>
                <path d="M171.41,24.7025 L170.22875,20.92375 C170.155,20.6925 170.015,20.1675 169.81125,19.34875 L169.765,19.34875 C169.60875,20.03375 169.47125,20.5625 169.35375,20.935 L168.1375,24.7025 L167.00875,24.7025 L165.25125,18.26125 L166.27375,18.26125 C166.68875,19.88 167.00625,21.11125 167.22375,21.9575 C167.44125,22.80375 167.565,23.37375 167.59625,23.6675 L167.64375,23.6675 C167.68625,23.445 167.75625,23.155 167.8525,22.80125 C167.9475,22.44625 168.03125,22.165 168.10125,21.9575 L169.2825,18.26125 L170.34125,18.26125 L171.4925,21.9575 C171.7125,22.63125 171.86125,23.1975 171.93875,23.65625 L171.98625,23.65625 C172.00125,23.515 172.04375,23.2975 172.1125,23.00375 C172.18125,22.71 172.59,21.12875 173.3375,18.26125 L174.34875,18.26125 L172.5675,24.7025 L171.41,24.7025" id="Fill-23" fill="#FFFFFF" sketch:type="MSShapeGroup"></path>
                <path d="M177.54875,18.96125 C177.03125,18.96125 176.61875,19.12875 176.31125,19.46625 C176.00375,19.8025 175.8225,20.27 175.7675,20.865 L179.135,20.865 C179.135,20.25 178.9975,19.77875 178.72375,19.45125 C178.45,19.12375 178.0575,18.96125 177.54875,18.96125 L177.54875,18.96125 Z M177.8125,24.82 C176.86125,24.82 176.11,24.53 175.55875,23.95 C175.00875,23.37 174.73375,22.565 174.73375,21.535 C174.73375,20.49625 174.98875,19.67125 175.5,19.06125 C176.01125,18.45 176.69875,18.14375 177.56,18.14375 C178.3675,18.14375 179.00625,18.40875 179.47625,18.94 C179.94625,19.47125 180.18125,20.17125 180.18125,21.04125 L180.18125,21.65875 L175.74375,21.65875 C175.76375,22.41375 175.955,22.98875 176.3175,23.38 C176.68,23.77125 177.19,23.9675 177.8475,23.9675 C178.54125,23.9675 179.2275,23.8225 179.905,23.5325 L179.905,24.4025 C179.56,24.55125 179.23375,24.6575 178.92625,24.7225 C178.61875,24.7875 178.2475,24.82 177.8125,24.82 L177.8125,24.82 Z" id="Fill-24" fill="#FFFFFF" sketch:type="MSShapeGroup"></path>
                <path d="M184.36375,18.14375 C184.64875,18.14375 184.90625,18.1675 185.13375,18.21375 L184.9975,19.12 C184.73125,19.06125 184.49625,19.03125 184.2925,19.03125 C183.77125,19.03125 183.32625,19.2425 182.95625,19.66625 C182.58625,20.08875 182.40125,20.61625 182.40125,21.24625 L182.40125,24.7025 L181.425,24.7025 L181.425,18.26125 L182.23,18.26125 L182.3425,19.455 L182.38875,19.455 C182.6275,19.035 182.91625,18.7125 183.2525,18.485 C183.59,18.2575 183.96,18.14375 184.36375,18.14375" id="Fill-25" fill="#FFFFFF" sketch:type="MSShapeGroup"></path>
                <path d="M188.305,18.96125 C187.7875,18.96125 187.375,19.12875 187.0675,19.46625 C186.76,19.8025 186.57875,20.27 186.52375,20.865 L189.89125,20.865 C189.89125,20.25 189.75375,19.77875 189.48,19.45125 C189.205,19.12375 188.81375,18.96125 188.305,18.96125 L188.305,18.96125 Z M188.56875,24.82 C187.6175,24.82 186.865,24.53 186.315,23.95 C185.765,23.37 185.49,22.565 185.49,21.535 C185.49,20.49625 185.745,19.67125 186.25625,19.06125 C186.7675,18.45 187.455,18.14375 188.31625,18.14375 C189.12375,18.14375 189.76125,18.40875 190.2325,18.94 C190.7025,19.47125 190.9375,20.17125 190.9375,21.04125 L190.9375,21.65875 L186.5,21.65875 C186.52,22.41375 186.71125,22.98875 187.07375,23.38 C187.435,23.77125 187.94625,23.9675 188.60375,23.9675 C189.2975,23.9675 189.9825,23.8225 190.66125,23.5325 L190.66125,24.4025 C190.31625,24.55125 189.99,24.6575 189.6825,24.7225 C189.375,24.7875 189.00375,24.82 188.56875,24.82 L188.56875,24.82 Z" id="Fill-26" fill="#FFFFFF" sketch:type="MSShapeGroup"></path>
                <path d="M194.68375,24.0025 C195.35,24.0025 195.8325,23.82125 196.1325,23.45875 C196.4325,23.0975 196.5825,22.5125 196.5825,21.705 L196.5825,21.5 C196.5825,20.58625 196.43,19.935 196.12625,19.545 C195.8225,19.15625 195.33875,18.96125 194.6725,18.96125 C194.1,18.96125 193.6625,19.18375 193.35875,19.6275 C193.055,20.0725 192.90375,20.7 192.90375,21.51125 C192.90375,22.33375 193.05375,22.955 193.35625,23.37375 C193.6575,23.79375 194.1,24.0025 194.68375,24.0025 L194.68375,24.0025 Z M196.635,23.83875 L196.5825,23.83875 C196.13125,24.4925 195.4575,24.82 194.56,24.82 C193.71875,24.82 193.0625,24.53125 192.595,23.95625 C192.12625,23.38 191.8925,22.56125 191.8925,21.5 C191.8925,20.4375 192.1275,19.61375 192.5975,19.025 C193.0675,18.4375 193.7225,18.14375 194.56,18.14375 C195.43375,18.14375 196.10375,18.46125 196.57,19.09625 L196.64625,19.09625 L196.605,18.63125 L196.5825,18.17875 L196.5825,15.55875 L197.5575,15.55875 L197.5575,24.7025 L196.76375,24.7025 L196.635,23.83875 L196.635,23.83875 Z" id="Fill-27" fill="#FFFFFF" sketch:type="MSShapeGroup"></path>
                <path d="M205.3675,18.9725 C204.70125,18.9725 204.22125,19.16375 203.9275,19.545 C203.63375,19.9275 203.4875,20.57125 203.4875,21.47625 C203.4875,22.38125 203.6375,23.02875 203.94,23.4175 C204.24125,23.8075 204.725,24.0025 205.39125,24.0025 C205.99,24.0025 206.4375,23.785 206.73125,23.3475 C207.025,22.91125 207.17125,22.2825 207.17125,21.46375 C207.17125,20.62625 207.025,20.00125 206.73125,19.59 C206.4375,19.17875 205.9825,18.9725 205.3675,18.9725 L205.3675,18.9725 Z M205.50875,18.15625 C206.355,18.15625 207.0125,18.445 207.48,19.0225 C207.94875,19.6 208.1825,20.41875 208.1825,21.47625 C208.1825,22.53375 207.94625,23.355 207.47375,23.94125 C207.0025,24.5275 206.3475,24.82 205.50875,24.82 C205.09,24.82 204.70625,24.7425 204.36,24.5875 C204.01375,24.4325 203.7225,24.195 203.4875,23.87375 L203.41625,23.87375 L203.21125,24.7025 L202.51125,24.7025 L202.51125,15.55875 L203.4875,15.55875 L203.4875,17.78 C203.4875,18.2775 203.47125,18.72375 203.44,19.12 L203.4875,19.12 C203.94125,18.4775 204.615,18.15625 205.50875,18.15625 L205.50875,18.15625 Z" id="Fill-28" fill="#FFFFFF" sketch:type="MSShapeGroup"></path>
                <path d="M208.43125,18.26125 L209.4775,18.26125 L210.8875,21.935 C211.19625,22.7725 211.38875,23.3775 211.4625,23.75 L211.51,23.75 C211.56125,23.55 211.6675,23.20875 211.83,22.725 C211.9925,22.24125 212.525,20.7525 213.42625,18.26125 L214.4725,18.26125 L211.70375,25.595 C211.43,26.32 211.11,26.83375 210.74375,27.1375 C210.3775,27.44125 209.9275,27.59375 209.395,27.59375 C209.09625,27.59375 208.8025,27.56 208.51375,27.49375 L208.51375,26.7125 C208.72875,26.75875 208.97,26.7825 209.23625,26.7825 C209.90625,26.7825 210.38375,26.40625 210.67,25.65375 L211.02875,24.7375 L208.43125,18.26125" id="Fill-29" fill="#FFFFFF" sketch:type="MSShapeGroup"></path>
                <path d="M198.385,36.37875 L196.71875,36.37875 L196.71875,42.15375 L195.7275,42.15375 L195.7275,36.37875 L194.5575,36.37875 L194.5575,35.93 L195.7275,35.5725 L195.7275,35.2075 C195.7275,33.59875 196.43,32.795 197.83625,32.795 C198.1825,32.795 198.58875,32.86375 199.055,33.00375 L198.7975,33.7975 C198.415,33.675 198.08875,33.6125 197.81875,33.6125 C197.44375,33.6125 197.1675,33.7375 196.9875,33.98625 C196.80875,34.235 196.71875,34.63375 196.71875,35.18375 L196.71875,35.6075 L198.385,35.6075 L198.385,36.37875" id="Fill-30" fill="#FFFFFF" sketch:type="MSShapeGroup"></path>
                <path d="M199.795,38.875 C199.795,39.71125 199.9625,40.34875 200.2975,40.78625 C200.63125,41.225 201.12375,41.44375 201.7725,41.44375 C202.42125,41.44375 202.91375,41.225 203.25125,40.78875 C203.5875,40.35375 203.75625,39.715 203.75625,38.875 C203.75625,38.0425 203.5875,37.41 203.25125,36.97875 C202.91375,36.54625 202.4175,36.33 201.76,36.33 C201.11125,36.33 200.62125,36.54375 200.29125,36.97 C199.96125,37.39625 199.795,38.03125 199.795,38.875 L199.795,38.875 Z M204.7825,38.875 C204.7825,39.9425 204.51375,40.775 203.97625,41.375 C203.43875,41.97375 202.69625,42.27375 201.74875,42.27375 C201.16375,42.27375 200.64375,42.13625 200.19,41.86125 C199.73625,41.58625 199.385,41.1925 199.13875,40.67875 C198.89125,40.165 198.76875,39.56375 198.76875,38.875 C198.76875,37.8075 199.035,36.97625 199.56875,36.38125 C200.1025,35.78625 200.8425,35.48875 201.79,35.48875 C202.70625,35.48875 203.43375,35.7925 203.97375,36.4025 C204.5125,37.01125 204.7825,37.83625 204.7825,38.875 L204.7825,38.875 Z" id="Fill-31" fill="#FFFFFF" sketch:type="MSShapeGroup"></path>
                <path d="M209.07625,35.48875 C209.36625,35.48875 209.6275,35.5125 209.85875,35.56 L209.72125,36.48 C209.45,36.42 209.21125,36.39 209.00375,36.39 C208.475,36.39 208.02125,36.605 207.645,37.035 C207.26875,37.465 207.08125,38.00125 207.08125,38.6425 L207.08125,42.15375 L206.08875,42.15375 L206.08875,35.6075 L206.9075,35.6075 L207.02125,36.82 L207.06875,36.82 C207.31125,36.39375 207.60375,36.065 207.9475,35.835 C208.28875,35.60375 208.665,35.48875 209.07625,35.48875" id="Fill-32" fill="#FFFFFF" sketch:type="MSShapeGroup"></path>
                <path d="M219.0325,42.15375 L214.165,42.15375 L214.165,33.42125 L219.0325,33.42125 L219.0325,34.32375 L215.18,34.32375 L215.18,37.13625 L218.8,37.13625 L218.8,38.0325 L215.18,38.0325 L215.18,41.24625 L219.0325,41.24625 L219.0325,42.15375" id="Fill-33" fill="#FFFFFF" sketch:type="MSShapeGroup"></path>
                <path d="M224.73,42.15375 L224.73,37.91875 C224.73,37.38625 224.60875,36.9875 224.36625,36.725 C224.1225,36.46125 223.7425,36.33 223.225,36.33 C222.54,36.33 222.0375,36.515 221.72,36.88625 C221.40125,37.25625 221.24125,37.8675 221.24125,38.72 L221.24125,42.15375 L220.25,42.15375 L220.25,35.6075 L221.05625,35.6075 L221.2175,36.50375 L221.265,36.50375 C221.46875,36.18125 221.75375,35.93125 222.12,35.75375 C222.48625,35.57625 222.89375,35.48875 223.34375,35.48875 C224.1325,35.48875 224.72625,35.67875 225.12375,36.05875 C225.5225,36.43875 225.72125,37.0475 225.72125,37.88375 L225.72125,42.15375 L224.73,42.15375" id="Fill-34" fill="#FFFFFF" sketch:type="MSShapeGroup"></path>
                <path d="M229.46625,41.455 C229.6425,41.455 229.81125,41.4425 229.97375,41.41625 C230.1375,41.39 230.2675,41.36375 230.3625,41.33625 L230.3625,42.09375 C230.255,42.14625 230.09625,42.18875 229.8875,42.2225 C229.67875,42.25625 229.49,42.27375 229.32375,42.27375 C228.0575,42.27375 227.42375,41.60625 227.42375,40.2725 L227.42375,36.37875 L226.48625,36.37875 L226.48625,35.9 L227.42375,35.48875 L227.8425,34.09 L228.415,34.09 L228.415,35.6075 L230.315,35.6075 L230.315,36.37875 L228.415,36.37875 L228.415,40.23125 C228.415,40.625 228.50875,40.9275 228.69625,41.13875 C228.88375,41.35 229.14,41.455 229.46625,41.455" id="Fill-35" fill="#FFFFFF" sketch:type="MSShapeGroup"></path>
                <path d="M234.3225,35.48875 C234.6125,35.48875 234.87375,35.5125 235.10375,35.56 L234.9675,36.48 C234.69625,36.42 234.4575,36.39 234.25,36.39 C233.72125,36.39 233.2675,36.605 232.89125,37.035 C232.515,37.465 232.3275,38.00125 232.3275,38.6425 L232.3275,42.15375 L231.335,42.15375 L231.335,35.6075 L232.15375,35.6075 L232.2675,36.82 L232.315,36.82 C232.5575,36.39375 232.85125,36.065 233.1925,35.835 C233.535,35.60375 233.91125,35.48875 234.3225,35.48875" id="Fill-36" fill="#FFFFFF" sketch:type="MSShapeGroup"></path>
                <path d="M238.3275,36.31875 C237.8025,36.31875 237.3825,36.49 237.07,36.8325 C236.7575,37.175 236.57375,37.64875 236.5175,38.25375 L239.94,38.25375 C239.94,37.62875 239.80125,37.15 239.5225,36.8175 C239.24375,36.485 238.845,36.31875 238.3275,36.31875 L238.3275,36.31875 Z M238.59625,42.27375 C237.62875,42.27375 236.865,41.97875 236.30625,41.39 C235.74625,40.8 235.46625,39.9825 235.46625,38.935 C235.46625,37.88 235.72625,37.04125 236.24625,36.42 C236.76625,35.79875 237.46375,35.48875 238.34,35.48875 C239.16,35.48875 239.80875,35.7575 240.2875,36.2975 C240.765,36.8375 241.00375,37.54875 241.00375,38.4325 L241.00375,39.06 L236.49375,39.06 C236.51375,39.82875 236.7075,40.4125 237.07625,40.81 C237.445,41.20875 237.96375,41.4075 238.6325,41.4075 C239.3375,41.4075 240.03375,41.26 240.7225,40.965 L240.7225,41.85 C240.3725,42.00125 240.04125,42.11 239.72875,42.175 C239.41625,42.24125 239.03875,42.27375 238.59625,42.27375 L238.59625,42.27375 Z" id="Fill-37" fill="#FFFFFF" sketch:type="MSShapeGroup"></path>
                <path d="M245.17125,36.33 C244.5025,36.33 244.01875,36.515 243.72,36.88625 C243.42125,37.25625 243.2675,37.845 243.26,38.65375 L243.26,38.875 C243.26,39.795 243.4125,40.4525 243.72,40.84875 C244.02625,41.245 244.51875,41.44375 245.195,41.44375 C245.76,41.44375 246.20375,41.215 246.52375,40.75625 C246.845,40.29875 247.005,39.6675 247.005,38.8625 C247.005,38.04625 246.845,37.42 246.52375,36.985 C246.20375,36.54875 245.7525,36.33 245.17125,36.33 L245.17125,36.33 Z M245.315,42.27375 C244.88875,42.27375 244.49875,42.195 244.1475,42.0375 C243.795,41.88 243.49875,41.63875 243.26,41.3125 L243.18875,41.3125 C243.23625,41.69375 243.26,42.05625 243.26,42.39875 L243.26,45.0925 L242.26875,45.0925 L242.26875,35.6075 L243.075,35.6075 L243.2125,36.50375 L243.26,36.50375 C243.515,36.145 243.81125,35.88625 244.15,35.7275 C244.48875,35.5675 244.87625,35.48875 245.315,35.48875 C246.1825,35.48875 246.8525,35.785 247.325,36.37875 C247.79625,36.97125 248.0325,37.80375 248.0325,38.875 C248.0325,39.95 247.7925,40.785 247.3125,41.38125 C246.8325,41.97625 246.16625,42.27375 245.315,42.27375 L245.315,42.27375 Z" id="Fill-38" fill="#FFFFFF" sketch:type="MSShapeGroup"></path>
                <path d="M252.3275,35.48875 C252.61875,35.48875 252.87875,35.5125 253.11,35.56 L252.9725,36.48 C252.7025,36.42 252.4625,36.39 252.25625,36.39 C251.72625,36.39 251.27375,36.605 250.8975,37.035 C250.52125,37.465 250.3325,38.00125 250.3325,38.6425 L250.3325,42.15375 L249.34125,42.15375 L249.34125,35.6075 L250.16,35.6075 L250.27375,36.82 L250.32125,36.82 C250.56375,36.39375 250.85625,36.065 251.19875,35.835 C251.54125,35.60375 251.9175,35.48875 252.3275,35.48875" id="Fill-39" fill="#FFFFFF" sketch:type="MSShapeGroup"></path>
                <path d="M256.33375,36.31875 C255.8075,36.31875 255.38875,36.49 255.07625,36.8325 C254.76375,37.175 254.58,37.64875 254.52375,38.25375 L257.94625,38.25375 C257.94625,37.62875 257.80625,37.15 257.52875,36.8175 C257.25,36.485 256.85125,36.31875 256.33375,36.31875 L256.33375,36.31875 Z M256.6025,42.27375 C255.635,42.27375 254.87125,41.97875 254.31125,41.39 C253.7525,40.8 253.4725,39.9825 253.4725,38.935 C253.4725,37.88 253.7325,37.04125 254.2525,36.42 C254.77125,35.79875 255.47,35.48875 256.345,35.48875 C257.16625,35.48875 257.815,35.7575 258.2925,36.2975 C258.77125,36.8375 259.01,37.54875 259.01,38.4325 L259.01,39.06 L254.5,39.06 C254.52,39.82875 254.71375,40.4125 255.0825,40.81 C255.45,41.20875 255.97,41.4075 256.63875,41.4075 C257.3425,41.4075 258.04,41.26 258.72875,40.965 L258.72875,41.85 C258.37875,42.00125 258.04625,42.11 257.735,42.175 C257.42125,42.24125 257.04375,42.27375 256.6025,42.27375 L256.6025,42.27375 Z" id="Fill-40" fill="#FFFFFF" sketch:type="MSShapeGroup"></path>
                <path d="M264.75375,42.15375 L264.75375,37.91875 C264.75375,37.38625 264.6325,36.9875 264.39,36.725 C264.14625,36.46125 263.76625,36.33 263.24875,36.33 C262.56375,36.33 262.0625,36.515 261.74375,36.88625 C261.425,37.25625 261.26625,37.8675 261.26625,38.72 L261.26625,42.15375 L260.27375,42.15375 L260.27375,35.6075 L261.08125,35.6075 L261.24125,36.50375 L261.29,36.50375 C261.4925,36.18125 261.7775,35.93125 262.14375,35.75375 C262.51,35.57625 262.91875,35.48875 263.36875,35.48875 C264.15625,35.48875 264.75,35.67875 265.14875,36.05875 C265.54625,36.43875 265.745,37.0475 265.745,37.88375 L265.745,42.15375 L264.75375,42.15375" id="Fill-41" fill="#FFFFFF" sketch:type="MSShapeGroup"></path>
                <path d="M269.8625,36.31875 C269.33625,36.31875 268.9175,36.49 268.605,36.8325 C268.2925,37.175 268.1075,37.64875 268.0525,38.25375 L271.475,38.25375 C271.475,37.62875 271.335,37.15 271.05625,36.8175 C270.7775,36.485 270.38,36.31875 269.8625,36.31875 L269.8625,36.31875 Z M270.13125,42.27375 C269.1625,42.27375 268.4,41.97875 267.84,41.39 C267.28,40.8 267.00125,39.9825 267.00125,38.935 C267.00125,37.88 267.26,37.04125 267.78,36.42 C268.3,35.79875 268.9975,35.48875 269.87375,35.48875 C270.69375,35.48875 271.34375,35.7575 271.82125,36.2975 C272.29875,36.8375 272.5375,37.54875 272.5375,38.4325 L272.5375,39.06 L268.02875,39.06 C268.0475,39.82875 268.2425,40.4125 268.61,40.81 C268.97875,41.20875 269.4975,41.4075 270.16625,41.4075 C270.87125,41.4075 271.56875,41.26 272.2575,40.965 L272.2575,41.85 C271.90625,42.00125 271.575,42.11 271.2625,42.175 C270.95,42.24125 270.5725,42.27375 270.13125,42.27375 L270.13125,42.27375 Z" id="Fill-42" fill="#FFFFFF" sketch:type="MSShapeGroup"></path>
                <path d="M274.7225,35.6075 L274.7225,39.855 C274.7225,40.38875 274.84375,40.78625 275.08625,41.04875 C275.32875,41.3125 275.71,41.44375 276.2275,41.44375 C276.9125,41.44375 277.4125,41.25625 277.73,40.8825 C278.04625,40.5075 278.20375,39.89625 278.20375,39.0475 L278.20375,35.6075 L279.19625,35.6075 L279.19625,42.15375 L278.3775,42.15375 L278.23375,41.27625 L278.18,41.27625 C277.9775,41.59875 277.695,41.845 277.335,42.01625 C276.975,42.1875 276.56375,42.27375 276.10125,42.27375 C275.305,42.27375 274.70875,42.085 274.3125,41.70625 C273.91625,41.3275 273.71875,40.7225 273.71875,39.89 L273.71875,35.6075 L274.7225,35.6075" id="Fill-43" fill="#FFFFFF" sketch:type="MSShapeGroup"></path>
                <path d="M283.805,35.48875 C284.09625,35.48875 284.35625,35.5125 284.5875,35.56 L284.45,36.48 C284.18,36.42 283.94,36.39 283.73375,36.39 C283.20375,36.39 282.75125,36.605 282.375,37.035 C281.99875,37.465 281.81,38.00125 281.81,38.6425 L281.81,42.15375 L280.81875,42.15375 L280.81875,35.6075 L281.6375,35.6075 L281.75125,36.82 L281.79875,36.82 C282.04125,36.39375 282.33375,36.065 282.67625,35.835 C283.01875,35.60375 283.395,35.48875 283.805,35.48875" id="Fill-44" fill="#FFFFFF" sketch:type="MSShapeGroup"></path>
                <path d="M289.84625,40.36875 C289.84625,40.9775 289.62,41.4475 289.16625,41.7775 C288.71125,42.10875 288.075,42.27375 287.255,42.27375 C286.38625,42.27375 285.71,42.13625 285.22375,41.86125 L285.22375,40.94125 C285.53875,41.10125 285.87625,41.22625 286.23625,41.3175 C286.59625,41.41 286.94375,41.455 287.27875,41.455 C287.79625,41.455 288.19375,41.3725 288.4725,41.2075 C288.75125,41.0425 288.89125,40.79 288.89125,40.4525 C288.89125,40.1975 288.78,39.97875 288.56,39.7975 C288.33875,39.61625 287.9075,39.4025 287.26625,39.15625 C286.6575,38.92875 286.22375,38.73125 285.9675,38.56125 C285.71,38.3925 285.51875,38.2 285.39375,37.985 C285.26875,37.77 285.20625,37.51375 285.20625,37.215 C285.20625,36.68125 285.4225,36.26 285.85625,35.95125 C286.29125,35.6425 286.88625,35.48875 287.6425,35.48875 C288.3475,35.48875 289.03625,35.63125 289.71,35.91875 L289.3575,36.725 C288.7,36.45375 288.105,36.31875 287.57125,36.31875 C287.10125,36.31875 286.74625,36.3925 286.5075,36.54 C286.26875,36.68625 286.15,36.89 286.15,37.14875 C286.15,37.32375 286.19375,37.47375 286.28375,37.59625 C286.37375,37.72 286.5175,37.8375 286.7175,37.94875 C286.91625,38.06125 287.29875,38.2225 287.86375,38.4325 C288.64,38.71625 289.165,39 289.4375,39.2875 C289.71,39.57375 289.84625,39.93375 289.84625,40.36875" id="Fill-45" fill="#FFFFFF" sketch:type="MSShapeGroup"></path>
                <path d="M152.0725,37.39625 C152.0725,34.6775 154.35875,32.46375 157.07625,32.46375 C158.58,32.46375 159.65125,33.05375 160.45625,33.82375 L159.50625,34.77375 C158.92875,34.2325 158.1475,33.81125 157.07625,33.81125 C155.0925,33.81125 153.54,35.41125 153.54,37.39625 C153.54,39.38 155.0925,40.98 157.07625,40.98 C158.36375,40.98 159.0975,40.4625 159.56625,39.99375 C159.95125,39.60875 160.20375,39.05625 160.3,38.2975 L157.07625,38.2975 L157.07625,36.95125 L161.61125,36.95125 C161.66,37.19125 161.68375,37.48 161.68375,37.7925 C161.68375,38.80375 161.4075,40.05375 160.5175,40.94375 C159.65125,41.84625 158.54375,42.3275 157.07625,42.3275 C154.35875,42.3275 152.0725,40.11375 152.0725,37.39625" id="Fill-46" fill="#FFFFFF" sketch:type="MSShapeGroup"></path>
                <path d="M165.34875,41.07625 C164.38625,41.07625 163.55625,40.2825 163.55625,39.1525 C163.55625,38.01 164.38625,37.2275 165.34875,37.2275 C166.31125,37.2275 167.14125,38.01 167.14125,39.1525 C167.14125,40.2825 166.31125,41.07625 165.34875,41.07625 L165.34875,41.07625 Z M165.34875,35.97625 C163.5925,35.97625 162.16125,37.31125 162.16125,39.1525 C162.16125,40.98 163.5925,42.3275 165.34875,42.3275 C167.105,42.3275 168.53625,40.98 168.53625,39.1525 C168.53625,37.31125 167.105,35.97625 165.34875,35.97625 L165.34875,35.97625 Z" id="Fill-47" fill="#FFFFFF" sketch:type="MSShapeGroup"></path>
                <path d="M172.3025,41.07625 C171.34,41.07625 170.51,40.2825 170.51,39.1525 C170.51,38.01 171.34,37.2275 172.3025,37.2275 C173.26375,37.2275 174.09375,38.01 174.09375,39.1525 C174.09375,40.2825 173.26375,41.07625 172.3025,41.07625 L172.3025,41.07625 Z M172.3025,35.97625 C170.54625,35.97625 169.115,37.31125 169.115,39.1525 C169.115,40.98 170.54625,42.3275 172.3025,42.3275 C174.0575,42.3275 175.49,40.98 175.49,39.1525 C175.49,37.31125 174.0575,35.97625 172.3025,35.97625 L172.3025,35.97625 Z" id="Fill-48" fill="#FFFFFF" sketch:type="MSShapeGroup"></path>
                <path d="M179.2375,41.07625 C178.275,41.07625 177.46875,40.27 177.46875,39.16375 C177.46875,38.045 178.275,37.2275 179.2375,37.2275 C180.1875,37.2275 180.93375,38.045 180.93375,39.16375 C180.93375,40.27 180.1875,41.07625 179.2375,41.07625 L179.2375,41.07625 Z M180.8375,36.16875 L180.8375,36.68625 L180.78875,36.68625 C180.47625,36.31375 179.875,35.97625 179.1175,35.97625 C177.52875,35.97625 176.07375,37.37125 176.07375,39.16375 C176.07375,40.94375 177.52875,42.3275 179.1175,42.3275 C179.875,42.3275 180.47625,41.99 180.78875,41.60625 L180.8375,41.60625 L180.8375,42.0625 C180.8375,43.2775 180.1875,43.9275 179.14125,43.9275 C178.2875,43.9275 177.7575,43.31375 177.54125,42.79625 L176.32625,43.30125 C176.675,44.14375 177.60125,45.17875 179.14125,45.17875 C180.77625,45.17875 182.16,44.21625 182.16,41.87 L182.16,36.16875 L180.8375,36.16875 L180.8375,36.16875 Z" id="Fill-49" fill="#FFFFFF" sketch:type="MSShapeGroup"></path>
                <path d="M183.1225,32.80125 L184.5175,32.80125 L184.5175,42.135 L183.1225,42.135 L183.1225,32.80125 Z" id="Fill-50" fill="#FFFFFF" sketch:type="MSShapeGroup"></path>
                <path d="M188.23375,37.20375 C188.7875,37.20375 189.25625,37.48 189.41375,37.8775 L186.575,39.05625 C186.53875,37.82875 187.525,37.20375 188.23375,37.20375 L188.23375,37.20375 Z M188.3425,41.07625 C187.6325,41.07625 187.1275,40.75125 186.8025,40.11375 L191.04875,38.3575 L190.905,37.9975 C190.64,37.2875 189.83375,35.97625 188.18625,35.97625 C186.55,35.97625 185.19125,37.26375 185.19125,39.1525 C185.19125,40.9325 186.53875,42.3275 188.3425,42.3275 C189.7975,42.3275 190.64,41.4375 190.98875,40.92 L189.90625,40.19875 C189.545,40.7275 189.0525,41.07625 188.3425,41.07625 L188.3425,41.07625 Z" id="Fill-51" fill="#FFFFFF" sketch:type="MSShapeGroup"></path>
            </g>
        </g>
    </g>
</svg>