<svg xmlns="http://www.w3.org/2000/svg" width="144.754" height="280.484"><g data-name="Group 2723"><g data-name="Group 2722"><path data-name="Path 3670" d="M85.547 30.973H52.34c-8.148 0-10.521 6.249-10.628 9.369-.061 1.773-.039 42.064-.017 60.467.014 11.128.027 20.28.022 21.386-.041 9.279 6.153 10.788 11.633 10.788h29.479c12.325 0 14.637-4.02 14.637-12.355V44.043c.002-6.666-.942-13.07-11.919-13.07z" fill="none" stroke="#888" stroke-width="2"/><path data-name="Path 3687" d="M92.604 100.928l-.063-18.031h-.006l-.026-7.2c-.015-3.918-.03-24.32-.045-28.239-.007-2.038-.023-2.433-.023-4.471 0-5.606-3.02-6.138-6.177-6.138-3.761 0-5.466-.01-9.227-.014q-8.258-.007-16.517-.007c-2.558 0-4.733-.018-7.292-.015-2.239 0-6.763.3-6.763 4.954 0 3.153.01 27.968.009 31.121v10.011h0q0 9.041-.008 18.082v3.369c0 1.963 0 3.681-.006 6.164-.005 2.088-.473 6.861 7.5 6.861 3.182 0 29.818-.072 32.448-.05 6.225.05 6.241-4.678 6.237-5.858l-.041-10.539z" fill="rgba(255,255,255,0.05)" stroke="rgba(136,136,136,0.5)"/><path data-name="Path 3690" d="M59.493 93.613l-.026.043.026-.043z" fill="#95a2bd"/><path data-name="Path 3692" d="M125.529 21.614c-3.458 1.948-7.178 3.372-10.73 5.131-1.348.668-.166 2.68 1.177 2.014 3.552-1.76 7.271-3.184 10.729-5.132a1.167 1.167 0 0 0-1.176-2.013z" fill="#dbe1e5" opacity=".5"/><path data-name="Path 3693" d="M135.695 42.389a47.286 47.286 0 0 0-14.583 3.891c-1.375.6-.186 2.614 1.178 2.014a43.769 43.769 0 0 1 13.406-3.573c1.482-.142 1.497-2.476-.001-2.332z" fill="#dbe1e5" opacity=".5"/><path data-name="Path 3694" d="M141.294 61.049c-4.7.03-9.33.918-14 1.4-1.481.152-1.5 2.487 0 2.332 4.665-.481 9.292-1.37 14-1.4a1.167 1.167 0 0 0 0-2.332z" fill="#dbe1e5" opacity=".5"/><path data-name="Path 3695" d="M143.626 76.91h-12.13a1.167 1.167 0 0 0 0 2.333h12.13a1.167 1.167 0 0 0 0-2.333z" fill="#dbe1e5" opacity=".5"/><path data-name="Path 3696" d="M137.217 98.062a68.566 68.566 0 0 0-8.676-3.383c-1.431-.477-2.04 1.776-.62 2.249a64.16 64.16 0 0 1 8.119 3.148c1.345.662 2.527-1.349 1.177-2.014z" fill="#dbe1e5" opacity=".5"/><path data-name="Path 3697" d="M136.022 116.735c-3.519-2.118-6.855-4.522-10.373-6.639-1.292-.777-2.286 1.336-1.009 2.1 3.518 2.118 6.854 4.522 10.373 6.639 1.291.777 2.285-1.336 1.009-2.1z" fill="#dbe1e5" opacity=".5"/><path data-name="Path 3698" d="M125.555 133.983a55.091 55.091 0 0 1-8.162-6.349c-1.072-1.056-2.722.592-1.648 1.649a58.291 58.291 0 0 0 8.633 6.714c1.253.839 2.42-1.182 1.177-2.014z" fill="#dbe1e5" opacity=".5"/><path data-name="Path 3700" d="M29.907 139.315c-3.228 3.176-7.268 5.444-10.264 8.863-.986 1.126.656 2.782 1.649 1.649 3-3.42 7.036-5.686 10.263-8.864 1.075-1.055-.576-2.704-1.648-1.648z" fill="#dbe1e5" opacity=".5"/><path data-name="Path 3701" d="M21.091 125.002c-1.769.469-3.408 1.269-5.132 1.865-1.411.489-.8 2.744.621 2.25 1.723-.6 3.363-1.4 5.132-1.866a1.167 1.167 0 0 0-.621-2.249z" fill="#dbe1e5" opacity=".5"/><path data-name="Path 3702" d="M19.803 108.166c-6.3.043-12.406 1.82-18.66 2.333-1.488.123-1.5 2.456 0 2.333 6.253-.513 12.365-2.29 18.66-2.333a1.167 1.167 0 0 0 0-2.333z" fill="#dbe1e5" opacity=".5"/><path data-name="Path 3703" d="M7.969 91.423a36.385 36.385 0 0 0-6.841-.508 1.167 1.167 0 0 0 0 2.333 33.084 33.084 0 0 1 6.221.425c1.47.278 2.097-1.97.62-2.25z" fill="#dbe1e5" opacity=".5"/><path data-name="Path 3704" d="M19.416 75.553c-5.819-1.45-11.832-2.728-16.982-5.947-1.28-.8-2.45 1.219-1.178 2.014 5.321 3.326 11.526 4.684 17.539 6.182a1.167 1.167 0 0 0 .621-2.249z" fill="#dbe1e5" opacity=".5"/><path data-name="Path 3705" d="M8.955 53.292l-2.8-1.4a1.186 1.186 0 0 0-1.6.419 1.171 1.171 0 0 0 .418 1.6l2.8 1.4a1.186 1.186 0 0 0 1.6-.418 1.172 1.172 0 0 0-.418-1.601z" fill="#dbe1e5" opacity=".5"/><path data-name="Path 3706" d="M21.299 43.838c-3.94-1.314-7.949-2.614-11.384-5.014-1.236-.864-2.4 1.16-1.177 2.014 3.59 2.508 7.825 3.877 11.941 5.249 1.431.476 2.038-1.776.62-2.249z" fill="#dbe1e5" opacity=".5"/><path data-name="Path 3707" d="M39.291 8.279l3.569 8.164c.959 2.193 3.1 1.259 2.137-.935l-3.569-8.164c-.959-2.19-3.097-1.259-2.137.935z" fill="#dbe1e5" opacity=".5"/><path data-name="Path 3708" d="M33.522 25.875c-1.978-1.463-4.087-2.736-6.065-4.2-1.211-.9-2.372 1.13-1.177 2.014 1.978 1.463 4.088 2.735 6.065 4.2 1.21.896 2.371-1.128 1.177-2.014z" fill="#dbe1e5" opacity=".5"/><path data-name="Path 3709" d="M66.704 9.691a14.049 14.049 0 0 1-.466-8.244 1.167 1.167 0 0 0-2.249-.62 16.316 16.316 0 0 0 .467 9.484c.463 1.425 2.715.815 2.248-.62z" fill="#dbe1e5" opacity=".5"/><path data-name="Path 3710" d="M84.171 1.688a36.255 36.255 0 0 0-1.559 10.319c-.022 2.334 2.311 2.331 2.332 0a30.073 30.073 0 0 1 1.24-8.493c.647-2.093-1.363-3.929-2.013-1.826z" fill="#dbe1e5" opacity=".5"/><path data-name="Path 3711" d="M108.841 7.374a43.98 43.98 0 0 0-5.245 7.6c-.712 1.308 1.2 2.646 1.92 1.325a43.981 43.981 0 0 1 5.245-7.6c.979-1.142-.95-2.455-1.92-1.325z" fill="#dbe1e5" opacity=".5"/><g data-name="Path 3801" fill="none" stroke-linecap="round" stroke-linejoin="round"><path d="M77.39 75.628l-7.82-6.335-7.82 6.335V55.355a2.4 2.4 0 0 1 2.234-2.534h11.175a2.4 2.4 0 0 1 2.234 2.534z"/><path d="M77.39 75.628V55.355c0-1.4-1-2.534-2.234-2.534H63.984c-1.234 0-2.234 1.135-2.234 2.534v20.273l7.82-6.335 7.82 6.335m-15.64 2a1.997 1.997 0 0 1-2-2V55.355c0-2.5 1.9-4.534 4.234-4.534h11.172c2.334 0 4.234 2.034 4.234 4.534v20.273a2 2 0 0 1-3.259 1.554l-6.561-5.315-6.561 5.315a2 2 0 0 1-1.26.446z" fill="#1087ff"/></g><path data-name="Path 3802" d="M33.423 134.891c2.479 3.609 5.334 6.84 7.31 10.754 3.813 7.55 9 14.351 12.292 22.147 5.354 12.667 5.517 27.58 5.517 27.58h50.208c.974-9.861 1.1-9.742 1.1-9.742s1.94-18.857 3-28.274c.408-3.637.692-7.285.972-10.928.3-3.854.821-7.737.852-11.6.023-2.681.728-6.7-1.317-8.856-2.289-2.413-4.7 1.35-6.136-.773-1.173-1.73.206-4.605-1.387-6.356a6.816 6.816 0 0 0-6.254-1.969c-1.887.374-4.017 2.425-5.66.3-1.129-1.457-.8-3.27-2.217-4.658a5.4 5.4 0 0 0-5.075-1.191c-2.96.9-3.93 4.746-6.575 6.056-3.9 1.928-4.982-19-5.161-21.041-.344-3.933-.379-7.921-1.435-11.76-1.282-4.663-5.955-8.557-7.705-1.4-.745 3.042-.676 6.839-.646 9.972a177.828 177.828 0 0 1-1.316 24.956c-.836 6.235-1.975 14.265-5.246 19.732-2.375 3.971-5.883 3.926-9.132.934-3.7-3.408-6.175-9.709-11.122-11.472-1.662-.592-10.974-2.763-9.842 1.239.572 2.03 3.742 4.558 4.975 6.35z" fill="#ffdcc6"/><path data-name="Subtraction 10" d="M102.771 279.983c-1.476 0-2.976-.08-4.459-.227-4.581-.446-8.336-.654-11.819-.654-2.06 0-3.853.075-5.163.13h-.144l-.178.006h-.084c-1.521.062-2.957.121-4.649.121a95.3 95.3 0 0 1-13.964-1.222c-5.21-.775-12.263-2.164-16.277-4.374-2.359-1.3-2.553-2.289-2.561-2.33 1.122-6.99 2.352-23.228 3.437-37.554v-.139l.005-.063.006-.077v-.008l.008-.1v-.041c.918-12.1 1.786-23.521 2.442-27.5.064-.371.117-.822.178-1.345l.008-.076v-.02l.006-.055c.343-2.953.917-7.895 3.843-9.3 2.2-1.052 12.988-1.273 21.649-1.273 17.865 0 40.374.934 41.576 1.543 1.446.735 2.142 2.166 2.326 4.784.228 3.192.772 12.938 1.4 24.222v.007l.014.259v.011l.024.432v.008l.025.463v.022l.036.649.021.37.035.637v.006l.011.2.027.485v.014l.014.259.014.257c1.121 20.123 2.391 42.931 2.611 42.931v.011a15.639 15.639 0 0 1-4.45 4.259 23.517 23.517 0 0 1-6.305 2.937 33.275 33.275 0 0 1-9.663 1.33h0zm-3.383-8.229a1.015 1.015 0 0 0-1.075 1.04v3.547a1.013 1.013 0 0 0 1.074 1.036 1.013 1.013 0 0 0 1.075-1.036v-3.547a1.014 1.014 0 0 0-1.078-1.04zm6.99 1.613a1.089 1.089 0 0 0-1.075 1.074v1.289a1.088 1.088 0 0 0 1.075 1.073 1.088 1.088 0 0 0 1.075-1.073v-1.289a1.089 1.089 0 0 0-1.082-1.074zm-42.859-1.253a1.015 1.015 0 0 0-1.075 1.04v2.256a1.014 1.014 0 0 0 1.075 1.039 1.014 1.014 0 0 0 1.074-1.039v-2.256a1.014 1.014 0 0 0-1.077-1.039zm9.989-.322a1.014 1.014 0 0 0-1.075 1.039v2.578a1.014 1.014 0 0 0 1.075 1.039 1.014 1.014 0 0 0 1.075-1.039v-2.578a1.014 1.014 0 0 0-1.078-1.039zm13.88-.034a1.014 1.014 0 0 0-1.075 1.039v2.577a1.015 1.015 0 0 0 1.075 1.04 1.015 1.015 0 0 0 1.075-1.04v-2.577a1.014 1.014 0 0 0-1.078-1.039zm-31.7-.977a1.024 1.024 0 0 0-1.017.752 10.83 10.83 0 0 0-.36 3.185 1.014 1.014 0 0 0 1.074 1.04 1.015 1.015 0 0 0 1.075-1.04 8.63 8.63 0 0 1 .284-2.615.946.946 0 0 0-.122-.878 1.168 1.168 0 0 0-.935-.447zm25.548 1.86a1.089 1.089 0 0 0-1.075 1.075v.965a1.089 1.089 0 0 0 1.075 1.074 1.089 1.089 0 0 0 1.075-1.074v-.965a1.089 1.089 0 0 0-1.075-1.074zm10.148-2.939a1.088 1.088 0 0 0-1.074 1.074v1.934a1.088 1.088 0 0 0 1.074 1.074 1.088 1.088 0 0 0 1.074-1.074v-1.932a1.088 1.088 0 0 0-1.074-1.076zm-44-2.279a1.015 1.015 0 0 0-1.075 1.04v2.255a1.014 1.014 0 0 0 1.074 1.039 1.015 1.015 0 0 0 1.075-1.039v-2.255a1.014 1.014 0 0 0-1.073-1.039zm69.587 0a1.015 1.015 0 0 0-1.075 1.04v2.255a1.014 1.014 0 0 0 1.075 1.039 1.014 1.014 0 0 0 1.074-1.039v-2.255a1.014 1.014 0 0 0-1.074-1.042zm-5.478-.645a1.014 1.014 0 0 0-1.075 1.039v2.58a1.014 1.014 0 0 0 1.074 1.039 1.014 1.014 0 0 0 1.075-1.039v-2.58a1.014 1.014 0 0 0-1.073-1.039zm-31.259-.965a1.015 1.015 0 0 0-1.075 1.04v2.255a1.014 1.014 0 0 0 1.075 1.039 1.014 1.014 0 0 0 1.074-1.039v-2.255a1.014 1.014 0 0 0-1.073-1.042zm-3.92-1.845a1.016 1.016 0 0 0-1.075 1.042v3.545a1.013 1.013 0 0 0 1.075 1.036 1.013 1.013 0 0 0 1.074-1.036v-3.545a1.015 1.015 0 0 0-1.073-1.044zm28.25 1.2a1.014 1.014 0 0 0-1.075 1.039v2.254a1.014 1.014 0 0 0 1.074 1.039 1.014 1.014 0 0 0 1.075-1.039v-2.254a1.014 1.014 0 0 0-1.073-1.041zm-45.18.241a1.09 1.09 0 0 0-1.075 1.076v1.934a1.089 1.089 0 0 0 1.075 1.073 1.089 1.089 0 0 0 1.075-1.073v-1.941a1.09 1.09 0 0 0-1.074-1.071zm38.412-3.054a1.014 1.014 0 0 0-1.075 1.039v4.836a1.015 1.015 0 0 0 1.075 1.04 1.015 1.015 0 0 0 1.075-1.04v-4.836a1.014 1.014 0 0 0-1.074-1.041zm-26.531 2.1a1.015 1.015 0 0 0-1.075 1.039v2.578a1.014 1.014 0 0 0 1.074 1.039 1.014 1.014 0 0 0 1.075-1.039v-2.578a1.014 1.014 0 0 0-1.074-1.044zm15.468-.209a1.014 1.014 0 0 0-1.075 1.039v2.256a1.014 1.014 0 0 0 1.075 1.039 1.014 1.014 0 0 0 1.075-1.039v-2.263a1.014 1.014 0 0 0-1.074-1.037zm-21.484-.126a1.089 1.089 0 0 0-1.074 1.076v1.932a1.089 1.089 0 0 0 1.074 1.075 1.089 1.089 0 0 0 1.074-1.075v-1.932a1.089 1.089 0 0 0-1.073-1.081zm-12.327-1.76a1.025 1.025 0 0 0-1.017.752 10.751 10.751 0 0 0-.36 3.185 1.014 1.014 0 0 0 1.074 1.039 1.014 1.014 0 0 0 1.075-1.039 8.663 8.663 0 0 1 .284-2.615.947.947 0 0 0-.122-.878 1.171 1.171 0 0 0-.933-.448zm49.6-3.829a1.015 1.015 0 0 0-1.075 1.04v2.9a1.014 1.014 0 0 0 1.074 1.04 1.015 1.015 0 0 0 1.075-1.04v-2.9a1.014 1.014 0 0 0-1.073-1.044zm-11.6 1.255a1.088 1.088 0 0 0-1.075 1.073v1.289a1.089 1.089 0 0 0 1.075 1.074 1.089 1.089 0 0 0 1.075-1.074v-1.289a1.088 1.088 0 0 0-1.075-1.081zm-32.87-1.576a1.014 1.014 0 0 0-1.075 1.039v2.578a1.014 1.014 0 0 0 1.075 1.039 1.014 1.014 0 0 0 1.075-1.039v-2.578a1.014 1.014 0 0 0-1.074-1.043zm6.124 1.254a1.089 1.089 0 0 0-1.076 1.073v.968a1.089 1.089 0 0 0 1.076 1.074 1.088 1.088 0 0 0 1.074-1.074v-.968a1.088 1.088 0 0 0-1.074-1.077zm-16.231-1.7a1.015 1.015 0 0 0-1.075 1.039 7.186 7.186 0 0 1-.284 2.292.936.936 0 0 0 .116.874 1.165 1.165 0 0 0 .934.445 1.031 1.031 0 0 0 1.021-.747 9.421 9.421 0 0 0 .361-2.864 1.014 1.014 0 0 0-1.073-1.045zm68.435.411a1.089 1.089 0 0 0-1.074 1.075v1.61a1.088 1.088 0 0 0 1.074 1.074 1.089 1.089 0 0 0 1.075-1.074v-1.61a1.089 1.089 0 0 0-1.075-1.081zm-46.386-3.186a1.034 1.034 0 0 0-1.092 1.039c-.011.7-.087 1.4-.16 2.084v.011c-.073.683-.149 1.388-.161 2.1a.987.987 0 0 0 .272.73 1.1 1.1 0 0 0 .785.309 1.033 1.033 0 0 0 1.091-1.039c.012-.7.088-1.4.161-2.082v-.012c.074-.686.15-1.395.16-2.1a.99.99 0 0 0-.271-.73 1.1 1.1 0 0 0-.785-.321zm39.3 1.61a1.014 1.014 0 0 0-1.075 1.039v2.578a1.014 1.014 0 0 0 1.075 1.039 1.014 1.014 0 0 0 1.075-1.039v-2.578a1.014 1.014 0 0 0-1.078-1.045zm-13.645-.721a1.014 1.014 0 0 0-1.075 1.039v3.223a1.014 1.014 0 0 0 1.075 1.039 1.014 1.014 0 0 0 1.074-1.039v-3.223a1.014 1.014 0 0 0-1.074-1.039zm-18.261.4a1.014 1.014 0 0 0-1.075 1.039v2.256a1.014 1.014 0 0 0 1.075 1.039 1.014 1.014 0 0 0 1.074-1.039v-2.256a1.014 1.014 0 0 0-1.074-1.045zm5.8-.644a1.014 1.014 0 0 0-1.075 1.038v2.579a1.014 1.014 0 0 0 1.074 1.04 1.015 1.015 0 0 0 1.075-1.04v-2.579a1.014 1.014 0 0 0-1.073-1.044zm-29.97 0a1.015 1.015 0 0 0-1.075 1.04v2.577a1.014 1.014 0 0 0 1.074 1.04 1.015 1.015 0 0 0 1.075-1.04v-2.577a1.014 1.014 0 0 0-1.073-1.046zm37.7-4.189a1.014 1.014 0 0 0-1.075 1.039v2.578a1.014 1.014 0 0 0 1.075 1.039 1.014 1.014 0 0 0 1.075-1.039v-2.584a1.014 1.014 0 0 0-1.071-1.039zm5.8-2.58a1.015 1.015 0 0 0-1.075 1.04v3.544a1.014 1.014 0 0 0 1.075 1.039 1.014 1.014 0 0 0 1.074-1.039v-3.544a1.014 1.014 0 0 0-1.069-1.047zm-47.267.9a1.014 1.014 0 0 0-1.075 1.039 7.188 7.188 0 0 1-.284 2.293.938.938 0 0 0 .116.874 1.165 1.165 0 0 0 .934.445 1.031 1.031 0 0 0 1.021-.749 9.4 9.4 0 0 0 .361-2.864.988.988 0 0 0-.335-.778 1.128 1.128 0 0 0-.733-.267zm10.208-.575a1.014 1.014 0 0 0-1.074 1.039v2.578a1.014 1.014 0 0 0 1.074 1.039 1.014 1.014 0 0 0 1.075-1.039v-2.578a1.015 1.015 0 0 0-1.07-1.051zm5.475.293a1 1 0 0 0-.923.525 5.587 5.587 0 0 0-.469 2.477 1.067 1.067 0 0 0 .317.756 1.062 1.062 0 0 0 .757.318 1.089 1.089 0 0 0 1.075-1.074v-.163a2.772 2.772 0 0 1 .176-1.229 1.092 1.092 0 0 0-.385-1.47 1.08 1.08 0 0 0-.544-.145zm37.707-.33a1.089 1.089 0 0 0-1.075 1.074v1.934a1.089 1.089 0 0 0 1.075 1.074 1.088 1.088 0 0 0 1.074-1.074v-1.934a1.088 1.088 0 0 0-1.069-1.081zm-47.741-1.26a1.016 1.016 0 0 0-.879.5 6.754 6.754 0 0 0-.791 3.765 1.014 1.014 0 0 0 1.074 1.039 1.014 1.014 0 0 0 1.075-1.039v-.123a4.529 4.529 0 0 1 .5-2.558.944.944 0 0 0 .054-.994 1.2 1.2 0 0 0-1.029-.597zm60.954.328a1.014 1.014 0 0 0-1.075 1.039v2.58a1.014 1.014 0 0 0 1.074 1.039 1.014 1.014 0 0 0 1.075-1.039v-2.58a1.014 1.014 0 0 0-1.07-1.047zm-6.446-.034a1.088 1.088 0 0 0-1.074 1.073v1.934a1.088 1.088 0 0 0 1.074 1.074 1.089 1.089 0 0 0 1.075-1.074v-1.934a1.088 1.088 0 0 0-1.07-1.082zm-31.258-.965a1.089 1.089 0 0 0-1.075 1.074v1.934a1.089 1.089 0 0 0 1.075 1.074 1.089 1.089 0 0 0 1.075-1.074v-1.934a1.089 1.089 0 0 0-1.07-1.082zm5.781-.93a1.022 1.022 0 0 0-1.016.751 10.814 10.814 0 0 0-.361 3.186 1.014 1.014 0 0 0 1.074 1.039 1.016 1.016 0 0 0 1.076-1.039 8.612 8.612 0 0 1 .284-2.615.949.949 0 0 0-.122-.878 1.17 1.17 0 0 0-.93-.452zm-12.87-1.614a1.015 1.015 0 0 0-1.075 1.039v2.578a1.014 1.014 0 0 0 1.074 1.039 1.014 1.014 0 0 0 1.075-1.039v-2.578a1.014 1.014 0 0 0-1.07-1.046zm19.657-.358a1.089 1.089 0 0 0-1.075 1.074v.967a1.089 1.089 0 0 0 1.075 1.074 1.088 1.088 0 0 0 1.074-1.074v-.967a1.088 1.088 0 0 0-1.07-1.081zm-39.959-2.22a1.014 1.014 0 0 0-1.075 1.039 7.194 7.194 0 0 1-.284 2.294.939.939 0 0 0 .116.874 1.164 1.164 0 0 0 .934.445 1.029 1.029 0 0 0 1.021-.747 9.362 9.362 0 0 0 .361-2.866.992.992 0 0 0-.335-.779 1.131 1.131 0 0 0-.734-.268zm14.823-1a1.088 1.088 0 0 0-1.074 1.074v1.61a1.088 1.088 0 0 0 1.074 1.074 1.089 1.089 0 0 0 1.075-1.074v-1.61a1.089 1.089 0 0 0-1.071-1.082zm36.415-1.256a1.014 1.014 0 0 0-1.07 1.034v2.255a1.013 1.013 0 0 0 1.074 1.037 1.014 1.014 0 0 0 1.075-1.037v-2.255a1.014 1.014 0 0 0-1.075-1.042zm-42.176 2.431a1.1 1.1 0 0 0 .385 1.471 1.084 1.084 0 0 0 .546.139 1 1 0 0 0 .923-.526 4.943 4.943 0 0 0 .469-2.153 1.061 1.061 0 0 0-.317-.757 1.068 1.068 0 0 0-.758-.319 1.09 1.09 0 0 0-1.074 1.075c0 .171-.006.325-.018.471v-.006a2 2 0 0 0-.037.2l-.006.035a.761.761 0 0 1-.012.067c-.021.081-.042.15-.067.219s-.033.1-.04.118v-.005c0-.008 0-.016.007-.029h0zm-3.266-2.781a1 1 0 0 0-.923.527 5.581 5.581 0 0 0-.469 2.475 1.063 1.063 0 0 0 .317.755 1.062 1.062 0 0 0 .758.319 1.09 1.09 0 0 0 1.075-1.074v-.158a2.79 2.79 0 0 1 .175-1.233 1.1 1.1 0 0 0-.384-1.47 1.082 1.082 0 0 0-.545-.149zm58.655-.617a1.014 1.014 0 0 0-1.075 1.039v2.256a1.014 1.014 0 0 0 1.075 1.039 1.014 1.014 0 0 0 1.075-1.039v-2.256a1.014 1.014 0 0 0-1.071-1.048zm-18.691-2.579a1.016 1.016 0 0 0-1.075 1.041v4.833a1.014 1.014 0 0 0 1.075 1.039 1.014 1.014 0 0 0 1.074-1.039v-4.833a1.015 1.015 0 0 0-1.07-1.05zm13.213 1.934a1.014 1.014 0 0 0-1.075 1.039v2.58a1.014 1.014 0 0 0 1.078 1.027 1.014 1.014 0 0 0 1.075-1.039v-2.58a1.014 1.014 0 0 0-1.074-1.036zm-31.259-.965a1.015 1.015 0 0 0-1.075 1.04v2.255a1.014 1.014 0 0 0 1.075 1.039 1.014 1.014 0 0 0 1.075-1.039v-2.255a1.015 1.015 0 0 0-1.071-1.049zm12.568-2.255a1.014 1.014 0 0 0-1.075 1.039v2.578a1.014 1.014 0 0 0 1.075 1.039 1.014 1.014 0 0 0 1.075-1.039v-2.578a1.014 1.014 0 0 0-1.071-1.048zm-6.444-.968a1.015 1.015 0 0 0-1.075 1.04v3.544a1.014 1.014 0 0 0 1.074 1.039 1.014 1.014 0 0 0 1.075-1.039v-3.55a1.014 1.014 0 0 0-1.07-1.043zm-12.373-1.311a.884.884 0 0 0-.909.777 26.038 26.038 0 0 0-.361 4.8 1.014 1.014 0 0 0 1.075 1.039 1.014 1.014 0 0 0 1.074-1.039 22.737 22.737 0 0 1 .284-4.225 1.068 1.068 0 0 0-.223-.908 1.251 1.251 0 0 0-.937-.453zm-20.476.023a1.039 1.039 0 0 0-1.1 1.039 13.308 13.308 0 0 1-.16 1.595 13.262 13.262 0 0 0-.162 1.628.994.994 0 0 0 .272.73 1.1 1.1 0 0 0 .787.309 1.032 1.032 0 0 0 1.09-1.039 13.064 13.064 0 0 1 .162-1.627 13.3 13.3 0 0 0 .16-1.6.985.985 0 0 0-.268-.731 1.1 1.1 0 0 0-.778-.312zm14.158-.968a1.014 1.014 0 0 0-1.075 1.039v2.58a1.014 1.014 0 0 0 1.074 1.039 1.014 1.014 0 0 0 1.075-1.039v-2.58a1.014 1.014 0 0 0-1.071-1.049zm36.093 0a1.014 1.014 0 0 0-1.075 1.039v2.578a1.014 1.014 0 0 0 1.074 1.039 1.014 1.014 0 0 0 1.075-1.039v-2.578a1.014 1.014 0 0 0-1.071-1.049zm-45.116-1.934a1.015 1.015 0 0 0-1.075 1.041v3.223a1.014 1.014 0 0 0 1.075 1.039 1.014 1.014 0 0 0 1.075-1.039v-3.223a1.015 1.015 0 0 0-1.072-1.049zm58.327.967a1.015 1.015 0 0 0-1.075 1.04v2.255a1.014 1.014 0 0 0 1.075 1.039 1.014 1.014 0 0 0 1.075-1.039v-2.255a1.015 1.015 0 0 0-1.072-1.048zm-53.171-1a1.089 1.089 0 0 0-1.074 1.076v1.611a1.088 1.088 0 0 0 1.074 1.074 1.089 1.089 0 0 0 1.075-1.074v-1.611a1.09 1.09 0 0 0-1.072-1.086zm47.693-2.542a1.13 1.13 0 0 0-.738.258 1 1 0 0 0-.336.78 10.812 10.812 0 0 0 .361 3.186 1.023 1.023 0 0 0 1.015.751 1.168 1.168 0 0 0 .935-.445.944.944 0 0 0 .122-.878 8.649 8.649 0 0 1-.284-2.615 1.014 1.014 0 0 0-1.072-1.048zm-13.211-.968a1.015 1.015 0 0 0-1.075 1.04v3.544a1.014 1.014 0 0 0 1.075 1.039 1.014 1.014 0 0 0 1.074-1.039v-3.544a1.014 1.014 0 0 0-1.071-1.05zm-17.169-1.949a.93.93 0 0 0-.947.77 21.513 21.513 0 0 0-.361 4.784v.014a1.015 1.015 0 0 0 1.075 1.039 1.015 1.015 0 0 0 1.075-1.039v-.361a17.227 17.227 0 0 1 .283-3.866 1.018 1.018 0 0 0-.189-.9 1.217 1.217 0 0 0-.934-.451zm12.012 1.594a1.088 1.088 0 0 0-1.074 1.074v1.931a1.089 1.089 0 0 0 1.074 1.076 1.09 1.09 0 0 0 1.075-1.076v-1.931a1.089 1.089 0 0 0-1.068-1.085zm-18.69-2.221a1.015 1.015 0 0 0-1.074 1.04v2.577a1.015 1.015 0 0 0 1.074 1.041 1.015 1.015 0 0 0 1.075-1.041v-2.577a1.015 1.015 0 0 0-1.072-1.051zm29.647-.324a1.014 1.014 0 0 0-1.075 1.039v2.58a1.014 1.014 0 0 0 1.075 1.039 1.014 1.014 0 0 0 1.074-1.039v-2.58a1.014 1.014 0 0 0-1.071-1.05zm-50.615-.64a1.021 1.021 0 0 0-1.015.751 10.8 10.8 0 0 0-.361 3.186 1.014 1.014 0 0 0 1.074 1.039 1.016 1.016 0 0 0 1.076-1.039 8.585 8.585 0 0 1 .284-2.615.945.945 0 0 0-.123-.878 1.169 1.169 0 0 0-.932-.455zm33.535.608a1.088 1.088 0 0 0-1.074 1.073v1.934a1.088 1.088 0 0 0 1.074 1.074 1.088 1.088 0 0 0 1.074-1.074v-1.934a1.088 1.088 0 0 0-1.071-1.084zm-17.694-1.577a1.049 1.049 0 0 0-1.1 1.039 6.68 6.68 0 0 1-.154 1.063 7.387 7.387 0 0 0-.169 1.192.981.981 0 0 0 .263.73 1.089 1.089 0 0 0 .782.308 1.049 1.049 0 0 0 1.1-1.039 6.631 6.631 0 0 1 .154-1.063 7.339 7.339 0 0 0 .169-1.192.981.981 0 0 0-.263-.731 1.089 1.089 0 0 0-.779-.318zm46.7-1.936a1.015 1.015 0 0 0-1.075 1.04v2.58a.967.967 0 0 0 .5.892.975.975 0 0 0 .895.5.973.973 0 0 0 .941-.6 1.172 1.172 0 0 0-.19-1.243V220.9a1.014 1.014 0 0 0-1.071-1.045zm-56.715.933a1.1 1.1 0 0 0-1.038.789 2.965 2.965 0 0 0 .276 2.979.981.981 0 0 0 .74.312 1.106 1.106 0 0 0 .779-.312 1.072 1.072 0 0 0 .076-1.419v-.25a5.152 5.152 0 0 1 .185-.711l.009-.03a.989.989 0 0 0-.084-.779 1.1 1.1 0 0 0-.667-.542 1.065 1.065 0 0 0-.275-.048zm5.154-2.543a1.015 1.015 0 0 0-1.075 1.039v3.223a1.014 1.014 0 0 0 1.075 1.039 1.014 1.014 0 0 0 1.075-1.039v-3.223a1.015 1.015 0 0 0-1.074-1.05zm34.482-1.326a1.09 1.09 0 0 0-1.075 1.076v1.61a1.09 1.09 0 0 0 1.078 1.062 1.089 1.089 0 0 0 1.074-1.076v-1.61a1.089 1.089 0 0 0-1.074-1.073zm11.6-1.254a1.014 1.014 0 0 0-1.075 1.039v2.9a1.014 1.014 0 0 0 1.075 1.039 1.014 1.014 0 0 0 1.074-1.039v-2.9a1.014 1.014 0 0 0-1.071-1.049zm-16.414-1.286a1.038 1.038 0 0 0-1.1 1.037 13.468 13.468 0 0 1-.16 1.6v.027a13.677 13.677 0 0 0-.158 1.592.994.994 0 0 0 .269.733 1.1 1.1 0 0 0 .784.307 1.038 1.038 0 0 0 1.1-1.04 13.464 13.464 0 0 1 .161-1.6 13.273 13.273 0 0 0 .161-1.62.988.988 0 0 0-.268-.73 1.1 1.1 0 0 0-.788-.318zm-12.589.608a1.088 1.088 0 0 0-1.074 1.074v1.934a1.088 1.088 0 0 0 1.074 1.074 1.089 1.089 0 0 0 1.075-1.074v-1.934a1.089 1.089 0 0 0-1.074-1.084zm-6.122-1.9a1.015 1.015 0 0 0-1.074 1.04v3.866a1.015 1.015 0 0 0 1.075 1.039 1.014 1.014 0 0 0 1.074-1.039v-3.866a1.015 1.015 0 0 0-1.074-1.049zm-21.269.967a1.015 1.015 0 0 0-1.075 1.039v.2a3.91 3.91 0 0 1-.176 1.517 1.1 1.1 0 0 0 .385 1.47 1.1 1.1 0 0 0 .549.14.988.988 0 0 0 .922-.526 6.466 6.466 0 0 0 .468-2.8.991.991 0 0 0-.335-.779 1.127 1.127 0 0 0-.741-.27zm50.271-.324a1.016 1.016 0 0 0-1.075 1.041v2.578a1.014 1.014 0 0 0 1.075 1.039 1.014 1.014 0 0 0 1.075-1.039v-2.578a1.016 1.016 0 0 0-1.074-1.05zm-34.159-.965a1.015 1.015 0 0 0-1.075 1.04v3.223a1.014 1.014 0 0 0 1.075 1.039 1.014 1.014 0 0 0 1.075-1.039v-3.223a1.015 1.015 0 0 0-1.074-1.049zm17.725-.645a1.016 1.016 0 0 0-1.075 1.041v2.254a1.015 1.015 0 0 0 1.074 1.041 1.016 1.016 0 0 0 1.075-1.041v-2.254a1.015 1.015 0 0 0-1.073-1.051zm-28.359-.644a1.015 1.015 0 0 0-1.075 1.04v2.255a1.015 1.015 0 0 0 1.075 1.04 1.015 1.015 0 0 0 1.075-1.04v-2.255a1.015 1.015 0 0 0-1.074-1.049zm56.394-.358a1.088 1.088 0 0 0-1.074 1.074v1.291a1.088 1.088 0 0 0 1.074 1.074 1.089 1.089 0 0 0 1.075-1.074v-1.291a1.089 1.089 0 0 0-1.074-1.083zm-50.915-2.864a1.015 1.015 0 0 0-1.075 1.039c0 .451-.009.814-.03 1.144a4.76 4.76 0 0 1-.146.892 1.1 1.1 0 0 0 .385 1.47 1.084 1.084 0 0 0 .549.139.983.983 0 0 0 .921-.524 7.389 7.389 0 0 0 .469-3.121.991.991 0 0 0-.335-.779 1.128 1.128 0 0 0-.737-.27zm17.079-2.9a1.014 1.014 0 0 0-1.075 1.039v2.58a1.014 1.014 0 0 0 1.075 1.039 1.014 1.014 0 0 0 1.074-1.039v-2.58a1.014 1.014 0 0 0-1.073-1.05zm28.358-.322a1.015 1.015 0 0 0-1.075 1.04v2.9a1.014 1.014 0 0 0 1.075 1.039 1.014 1.014 0 0 0 1.074-1.039v-2.9a1.014 1.014 0 0 0-1.071-1.051zm-55.769.935a.984.984 0 0 0-.741.312 2.922 2.922 0 0 0-.637 2.048 1.064 1.064 0 0 0 .317.757 1.065 1.065 0 0 0 .757.318 1.089 1.089 0 0 0 1.075-1.075v-.215c0-.024 0-.075.009-.124s.006-.081.008-.105a2.87 2.87 0 0 1 .033-.133h0v-.006h0a.028.028 0 0 1 0-.008 1.079 1.079 0 0 0-.048-1.456 1.1 1.1 0 0 0-.771-.324zm44.812-1.257a1.015 1.015 0 0 0-1.075 1.04v2.577a1.015 1.015 0 0 0 1.075 1.04 1.014 1.014 0 0 0 1.074-1.04v-2.577a1.014 1.014 0 0 0-1.072-1.05zm-5.8-.324a1.016 1.016 0 0 0-1.075 1.042v2.9a1.014 1.014 0 0 0 1.074 1.04 1.015 1.015 0 0 0 1.075-1.04v-2.9a1.015 1.015 0 0 0-1.073-1.052zm-23.2.611a1.088 1.088 0 0 0-1.074 1.074v1.934a1.088 1.088 0 0 0 1.074 1.074 1.089 1.089 0 0 0 1.075-1.074v-1.934a1.089 1.089 0 0 0-1.077-1.084zm34.482-.932a1.014 1.014 0 0 0-1.075 1.039v2.9a1.014 1.014 0 0 0 1.074 1.039 1.014 1.014 0 0 0 1.075-1.039v-2.9a1.014 1.014 0 0 0-1.076-1.049zm-39.733.321a1.182 1.182 0 0 0-1.166 1.166v1.05a1.181 1.181 0 0 0 1.166 1.166 1.182 1.182 0 0 0 1.166-1.166v-1.05a1.182 1.182 0 0 0-1.168-1.177zm10.408-1.931a1.014 1.014 0 0 0-1.074 1.039v2.9a1.014 1.014 0 0 0 1.074 1.039 1.014 1.014 0 0 0 1.075-1.039v-2.9a1.014 1.014 0 0 0-1.077-1.05zm39.354 2.752a1.1 1.1 0 0 0 .385 1.47 1.085 1.085 0 0 0 .546.14 1 1 0 0 0 .923-.526 4.943 4.943 0 0 0 .469-2.155 1.058 1.058 0 0 0-.316-.755 1.064 1.064 0 0 0-.758-.319 1.09 1.09 0 0 0-1.075 1.074c0 .17-.006.328-.017.467a1.292 1.292 0 0 0-.039.2v.02a.139.139 0 0 1 0 .021v.017c0 .021-.007.037-.009.045a1.754 1.754 0 0 1-.068.221 2.847 2.847 0 0 1-.037.11v-.026zm-54.5-3.074a1.014 1.014 0 0 0-1.074 1.039v2.255a1.014 1.014 0 0 0 1.074 1.04 1.015 1.015 0 0 0 1.075-1.04v-2.255a1.014 1.014 0 0 0-1.077-1.05zm27.391-.358a1.1 1.1 0 0 0-.779.339 1.006 1.006 0 0 0-.294.734 5.274 5.274 0 0 0 .164.989v.024a4.964 4.964 0 0 1 .154.922 1.087 1.087 0 0 0 1.073 1.074 1.094 1.094 0 0 0 .781-.339 1.006 1.006 0 0 0 .293-.734 5.193 5.193 0 0 0-.164-.994v-.01a4.954 4.954 0 0 1-.156-.93 1.088 1.088 0 0 0-1.074-1.083zM64.5 197.632a1.014 1.014 0 0 0-1.074 1.039v3.223a1.014 1.014 0 0 0 1.074 1.039 1.014 1.014 0 0 0 1.075-1.039v-3.223a1.014 1.014 0 0 0-1.077-1.05zm-9.993-.675a1 1 0 0 0-.925.527 7.45 7.45 0 0 0-.792 3.119.988.988 0 0 0 .268.732 1.1 1.1 0 0 0 .783.308 1.042 1.042 0 0 0 1.1-1.04 4.966 4.966 0 0 1 .5-2.036 1.087 1.087 0 0 0-.385-1.47 1.079 1.079 0 0 0-.551-.15zm25.784-.616a1.014 1.014 0 0 0-1.075 1.039v2.58a1.014 1.014 0 0 0 1.075 1.039 1.014 1.014 0 0 0 1.074-1.039v-2.58a1.014 1.014 0 0 0-1.076-1.049zm11.6.287a1.088 1.088 0 0 0-1.074 1.074v1.934a1.089 1.089 0 0 0 1.074 1.076 1.09 1.09 0 0 0 1.075-1.076v-1.934a1.089 1.089 0 0 0-1.077-1.084zm17.4 1.289a1.09 1.09 0 0 0-1.075 1.076v.643a1.088 1.088 0 0 0 1.075 1.073 1.088 1.088 0 0 0 1.074-1.073v-.643a1.089 1.089 0 0 0-1.074-1.086zm-5.8-1.9a1.13 1.13 0 0 0-.738.258.993.993 0 0 0-.336.78 7.275 7.275 0 0 0 .468 3.119.988.988 0 0 0 .923.526 1.067 1.067 0 0 0 .548-.141 1.1 1.1 0 0 0 .385-1.469 3.858 3.858 0 0 1-.183-1.635v-.021c0-.138.006-.266.006-.379a1.014 1.014 0 0 0-1.074-1.045zm-5.478.932a1.088 1.088 0 0 0-1.074 1.074v1.289a1.088 1.088 0 0 0 1.074 1.073 1.088 1.088 0 0 0 1.075-1.073v-1.289a1.089 1.089 0 0 0-1.076-1.081zm-22.879 0a1.089 1.089 0 0 0-1.075 1.074v.967a1.089 1.089 0 0 0 1.075 1.073 1.089 1.089 0 0 0 1.075-1.073v-.967a1.089 1.089 0 0 0-1.076-1.082zm-15.791-.322a1.089 1.089 0 0 0-1.075 1.075v.967a1.089 1.089 0 0 0 1.075 1.074 1.088 1.088 0 0 0 1.074-1.074v-.967a1.089 1.089 0 0 0-1.075-1.083zm27.391 0a1.089 1.089 0 0 0-1.073 1.076v.643a1.089 1.089 0 0 0 1.073 1.076 1.09 1.09 0 0 0 1.075-1.076v-.643a1.09 1.09 0 0 0-1.076-1.085zm-17.724-.966a1.088 1.088 0 0 0-1.074 1.074v1.611a1.089 1.089 0 0 0 1.074 1.075 1.089 1.089 0 0 0 1.075-1.075v-1.611a1.089 1.089 0 0 0-1.076-1.083zm44.793.32a1.089 1.089 0 0 0-1.074 1.075v.968a1.088 1.088 0 0 0 1.074 1.073 1.088 1.088 0 0 0 1.075-1.073v-.968a1.089 1.089 0 0 0-1.076-1.083z" fill="#b8c2cb" stroke="rgba(0,0,0,0)"/></g></g></svg>