<svg width="16" height="16" viewBox="0 0 16 16" xmlns="http://www.w3.org/2000/svg"><title>hide_16</title><g fill="none" fill-rule="evenodd"><path d="M0 0h16v16H0z"/><path d="M11.769 4.318l-.09-.09a.778.778 0 0 0-1.101 0l-2.58 2.58-2.58-2.58a.778.778 0 0 0-1.1 0l-.09.09a.778.778 0 0 0 0 1.1l2.58 2.58-2.58 2.58a.778.778 0 0 0 0 1.101l.09.09a.778.778 0 0 0 1.1 0l2.58-2.58 2.58 2.58a.778.778 0 0 0 1.101 0l.09-.09a.778.778 0 0 0 0-1.101l-2.58-2.58 2.58-2.58a.778.778 0 0 0 0-1.1z" fill="#FFF"/></g></svg>