<svg width="24" height="16" viewBox="0 0 24 16" xmlns="http://www.w3.org/2000/svg" xmlns:xlink="http://www.w3.org/1999/xlink"><title>subscribe_active_24</title><defs><path d="M5 10h2a1 1 0 0 1 0 2H5v2a1 1 0 0 1-2 0v-2H1a1 1 0 0 1 0-2h2V8a1 1 0 1 1 2 0v2zm14.5-2c0 2.21-1.79 4-4 4s-4-1.79-4-4 1.79-4 4-4 4 1.79 4 4zm-12 10c0-3.5 5.33-4.5 8-4.5s8 1 8 4.5v1a1 1 0 0 1-1 1h-14a1 1 0 0 1-1-1v-1z" id="a"/></defs><g fill="none" fill-rule="evenodd"><path d="M-10-14h44v44h-44z"/><g transform="translate(0 -4)"><path opacity=".4" d="M0 0h24v24H0z"/><mask id="b" fill="#fff"><use xlink:href="#a"/></mask><use fill="#5181B8" xlink:href="#a"/></g></g></svg>