<svg width="24" height="16" viewBox="0 0 24 16" xmlns="http://www.w3.org/2000/svg"><title>subscribe_24</title><g fill="none" fill-rule="evenodd"><path d="M-10-14h44v44h-44z"/><path opacity=".1" d="M0-4h24v24H0z"/><path d="M20 4c0-2.21-1.79-4-4-4s-4 1.79-4 4 1.79 4 4 4 4-1.79 4-4zM8 14c0-3.5 5.33-4.5 8-4.5s8 1 8 4.5v1a1 1 0 0 1-1 1H9a1 1 0 0 1-1-1v-1zM3.5 8.586l4.793-4.793a1 1 0 0 1 1.414 1.414l-5.5 5.5a1 1 0 0 1-1.414 0l-2.5-2.5a1 1 0 0 1 1.414-1.414L3.5 8.586z" fill="#AAAEB3" opacity=".7"/></g></svg>