<svg width="24" height="24" viewBox="0 0 24 24" xmlns="http://www.w3.org/2000/svg"><title>user_added_outline_24</title><g fill="none" fill-rule="evenodd"><path opacity=".1" d="M0 0h24v24H0z"/><path d="M19.25 7.5c0-1.658-1.342-3-3-3s-3 1.342-3 3 1.342 3 3 3 3-1.342 3-3zm1.5 0c0 2.486-2.014 4.5-4.5 4.5a4.499 4.499 0 0 1-4.5-4.5c0-2.486 2.014-4.5 4.5-4.5s4.5 2.014 4.5 4.5zM10 17.683c0 .85-.026.822.485.822h11.53c.511 0 .485.028.485-.822 0-2.012-2.853-3.178-6.25-3.178S10 15.67 10 17.683zm-1.5 0c0-3.207 3.598-4.678 7.75-4.678S24 14.475 24 17.683c0 1.655-.62 2.322-1.985 2.322h-11.53c-1.364 0-1.985-.667-1.985-2.322zm-5.166-4.502l4.381-4.457a.75.75 0 1 1 1.07 1.052l-4.914 5a.75.75 0 0 1-1.069.001L.216 12.16a.75.75 0 1 1 1.068-1.054l2.05 2.075z" fill="#ACB1B9" fill-rule="nonzero"/></g></svg>