<svg xmlns="http://www.w3.org/2000/svg" xmlns:xlink="http://www.w3.org/1999/xlink" preserveAspectRatio="xMidYMid" width="958" height="92" viewBox="0 0 958 92">
  <defs>
    <style>
      .cls-1 {
        fill: #f0f2f8;
        fill-rule: evenodd;
      }
    </style>
  </defs>
  <path d="M5.500,81.000 L44.500,81.000 C47.538,81.000 50.000,83.462 50.000,86.500 C50.000,89.538 47.538,92.000 44.500,92.000 L5.500,92.000 C2.462,92.000 0.000,89.538 0.000,86.500 C0.000,83.462 2.462,81.000 5.500,81.000 Z" class="cls-1"/>
  <path d="M864.000,-0.000 L950.000,-0.000 C954.418,-0.000 958.000,3.582 958.000,8.000 C958.000,12.418 954.418,16.000 950.000,16.000 L864.000,16.000 C859.582,16.000 856.000,12.418 856.000,8.000 C856.000,3.582 859.582,-0.000 864.000,-0.000 Z" class="cls-1"/>
  <path d="M58.500,33.000 L898.500,33.000 C906.508,33.000 913.000,39.492 913.000,47.500 C913.000,55.508 906.508,62.000 898.500,62.000 L58.500,62.000 C50.492,62.000 44.000,55.508 44.000,47.500 C44.000,39.492 50.492,33.000 58.500,33.000 Z" class="cls-1"/>
</svg>
