<svg xmlns="http://www.w3.org/2000/svg" xmlns:xlink="http://www.w3.org/1999/xlink" preserveAspectRatio="xMidYMid" width="17.156" height="25.72" viewBox="0 0 17.156 25.72">
  <defs>
    <style>
      .cls-1 {
        fill: #2b2e39;
        fill-rule: evenodd;
      }
    </style>
  </defs>
  <path d="M12.869,8.575 C12.869,10.935 10.944,12.860 8.584,12.860 C6.224,12.860 4.299,10.935 4.299,8.575 C4.299,6.215 6.224,4.290 8.584,4.290 C10.944,4.290 12.869,6.215 12.869,8.575 ZM17.154,8.575 C17.154,3.838 13.321,0.005 8.584,0.005 C3.847,0.005 0.014,3.838 0.014,8.575 C0.014,9.596 0.131,10.651 0.566,11.571 L6.676,24.527 C7.010,25.264 7.780,25.716 8.584,25.716 C9.387,25.716 10.157,25.264 10.509,24.527 L16.602,11.571 C17.037,10.651 17.154,9.596 17.154,8.575 Z" class="cls-1"/>
</svg>
